<svg width="12" height="14" viewBox="0 0 12 14" fill="none" xmlns="http://www.w3.org/2000/svg">
<path d="M6.45568 10.767L10.2966 5.44886L6.45568 1.71136L2.61477 5.44886L6.45568 10.767ZM4.83068 13.5C4.32841 13.5 3.88277 13.3498 3.49375 13.0494C3.10473 12.7491 2.84129 12.3625 2.70341 11.8898C2.64432 11.6633 2.51875 11.4811 2.3267 11.3432C2.13466 11.2053 1.92538 11.1364 1.69886 11.1364C1.54129 11.1364 1.39356 11.1684 1.25568 11.2324C1.1178 11.2964 0.999621 11.3875 0.901136 11.5057L0 10.7523C0.206818 10.4962 0.457955 10.2992 0.753409 10.1614C1.04886 10.0235 1.36402 9.95455 1.69886 9.95455C2.20114 9.95455 2.64924 10.1047 3.04318 10.4051C3.43712 10.7055 3.70303 11.092 3.84091 11.5648C3.9 11.7913 4.02311 11.9735 4.21023 12.1114C4.39735 12.2492 4.60417 12.3182 4.83068 12.3182C5.02765 12.3182 5.20492 12.2714 5.3625 12.1778C5.52008 12.0843 5.64318 11.9538 5.73182 11.7864L1.65455 6.14318C1.48712 5.90682 1.41572 5.64337 1.44034 5.35284C1.46496 5.06231 1.58068 4.81364 1.7875 4.60682L5.67273 0.825C5.78106 0.716667 5.90417 0.635417 6.04205 0.58125C6.17992 0.527083 6.3178 0.5 6.45568 0.5C6.59356 0.5 6.73144 0.527083 6.86932 0.58125C7.0072 0.635417 7.1303 0.716667 7.23864 0.825L11.1239 4.60682C11.3307 4.80379 11.4464 5.05 11.471 5.34545C11.4956 5.64091 11.4242 5.90682 11.2568 6.14318L6.75114 12.3773C6.55417 12.722 6.28826 12.9953 5.95341 13.1972C5.61856 13.3991 5.24432 13.5 4.83068 13.5Z" fill="#D87CAC"/>
</svg>
