<svg width="24" height="24" viewBox="0 0 24 24" fill="none" xmlns="http://www.w3.org/2000/svg">
<g clip-path="url(#clip0_403_3469)">
<path d="M17.5048 1C16.3788 1.01751 15.2773 1.33185 14.3116 1.91127C13.3459 2.49069 12.5502 3.31467 12.0048 4.3C11.4595 3.31467 10.6638 2.49069 9.69808 1.91127C8.73238 1.33185 7.63089 1.01751 6.50484 1C4.70978 1.07799 3.01855 1.86325 1.80062 3.18423C0.582701 4.50521 -0.0629094 6.25453 0.0048411 8.05C0.0048411 14.825 10.9608 22.65 11.4268 22.982L12.0048 23.391L12.5828 22.982C13.0488 22.652 24.0048 14.825 24.0048 8.05C24.0726 6.25453 23.427 4.50521 22.2091 3.18423C20.9911 1.86325 19.2999 1.07799 17.5048 1ZM12.0048 20.929C8.75184 18.499 2.00484 12.529 2.00484 8.05C1.93648 6.78472 2.37121 5.54373 3.2142 4.5977C4.0572 3.65167 5.24007 3.07735 6.50484 3C7.76961 3.07735 8.95248 3.65167 9.79548 4.5977C10.6385 5.54373 11.0732 6.78472 11.0048 8.05H13.0048C12.9365 6.78472 13.3712 5.54373 14.2142 4.5977C15.0572 3.65167 16.2401 3.07735 17.5048 3C18.7696 3.07735 19.9525 3.65167 20.7955 4.5977C21.6385 5.54373 22.0732 6.78472 22.0048 8.05C22.0048 12.531 15.2578 18.499 12.0048 20.929Z" fill="#FF0000"/>
<path fill-rule="evenodd" clip-rule="evenodd" d="M12.0048 20.929C8.75184 18.499 2.00484 12.529 2.00484 8.05C1.93648 6.78472 2.37121 5.54373 3.2142 4.5977C4.0572 3.65167 5.24007 3.07735 6.50484 3C7.76961 3.07735 8.95248 3.65167 9.79548 4.5977C10.6385 5.54373 11.0732 6.78472 11.0048 8.05H13.0048C12.9365 6.78472 13.3712 5.54373 14.2142 4.5977C15.0572 3.65167 16.2401 3.07735 17.5048 3C18.7696 3.07735 19.9525 3.65167 20.7955 4.5977C21.6385 5.54373 22.0732 6.78472 22.0048 8.05C22.0048 12.531 15.2578 18.499 12.0048 20.929ZM13.5 16L9 13L12.0048 10.0829L18.5 12.5L13.5 16Z" fill="#FF0000"/>
<path d="M9 13L13.5 16L18.5 12.5L12.0048 10.0829L9 13Z" fill="#FF0000"/>
</g>
<defs>
<clipPath id="clip0_403_3469">
<rect width="24" height="24" fill="white"/>
</clipPath>
</defs>
</svg>
