<svg width="24" height="32" viewBox="0 0 24 32" fill="none" xmlns="http://www.w3.org/2000/svg">
<path d="M12.0033 15.6C12.7261 15.6 13.3438 15.3255 13.8563 14.7764C14.3688 14.2274 14.625 13.5674 14.625 12.7964C14.625 12.0255 14.3676 11.3667 13.8529 10.82C13.3382 10.2733 12.7195 10 11.9967 10C11.2739 10 10.6562 10.2745 10.1438 10.8236C9.63125 11.3726 9.375 12.0326 9.375 12.8036C9.375 13.5745 9.63236 14.2333 10.1471 14.78C10.6618 15.3267 11.2805 15.6 12.0033 15.6ZM12 28.84C15.325 25.6133 17.7812 22.6867 19.3688 20.06C20.9563 17.4333 21.75 15.12 21.75 13.12C21.75 9.97893 20.8089 7.407 18.9266 5.4042C17.0443 3.4014 14.7354 2.4 12 2.4C9.26458 2.4 6.95572 3.4014 5.07345 5.4042C3.19115 7.407 2.25 9.97893 2.25 13.12C2.25 15.12 3.0625 17.4333 4.6875 20.06C6.3125 22.6867 8.75 25.6133 12 28.84ZM12 32C7.975 28.3467 4.96875 24.9533 2.98125 21.82C0.99375 18.6867 0 15.7867 0 13.12C0 9.12 1.20625 5.93333 3.61875 3.56C6.03125 1.18667 8.825 0 12 0C15.175 0 17.9688 1.18667 20.3813 3.56C22.7938 5.93333 24 9.12 24 13.12C24 15.7867 23.0063 18.6867 21.0187 21.82C19.0312 24.9533 16.025 28.3467 12 32Z" fill="#1C1B1F"/>
</svg>
