<svg width="24" height="24" viewBox="0 0 24 24" fill="none" xmlns="http://www.w3.org/2000/svg">
<path d="M12.0002 0.00689697C10.0217 0.0071203 8.08765 0.594266 6.4429 1.69403C4.79816 2.7938 3.51662 4.35675 2.76046 6.18511C2.0043 8.01346 1.80751 10.025 2.19499 11.9653C2.58247 13.9055 3.5368 15.6872 4.93722 17.0849L9.96222 21.9999H5.00022V23.9999H19.0002V21.9999H14.0382L19.0712 17.0769C20.4694 15.6783 21.4215 13.8966 21.8071 11.957C22.1927 10.0173 21.9946 8.00692 21.2378 6.17988C20.481 4.35285 19.1994 2.79123 17.5552 1.69246C15.9109 0.593697 13.9778 0.00712151 12.0002 0.00689697ZM17.6652 15.6549L12.0002 21.1999L6.34322 15.6629C5.22478 14.5444 4.46301 13.1194 4.15419 11.5681C3.84536 10.0168 4.00333 8.40878 4.60815 6.94723C5.21296 5.48568 6.23746 4.23622 7.55218 3.35676C8.8669 2.4773 10.4128 2.00731 11.9946 2.00619C13.5763 2.00508 15.1229 2.47288 16.4389 3.35048C17.7548 4.22808 18.7811 5.47609 19.388 6.93679C19.9949 8.39748 20.1551 10.0053 19.8485 11.557C19.5418 13.1088 18.7821 14.5348 17.6652 15.6549ZM7.00022 6.38189V12.6179L12.0002 15.1179L17.0002 12.6179V6.38189L12.0002 3.88189L7.00022 6.38189ZM15.0002 11.3819L12.0002 12.8819L9.00022 11.3819V7.61789L9.11822 7.55889L12.0002 8.99989L14.8822 7.55889L15.0002 7.61789V11.3819Z" fill="#166534"/>
</svg>
