<svg width="180" height="35" viewBox="0 0 180 35" fill="none" xmlns="http://www.w3.org/2000/svg">
<g clip-path="url(#clip0_111_251)">
<path d="M25.1562 2.69897C23.6604 2.71344 22.1888 3.07805 20.8592 3.76358C19.5297 4.44912 18.3792 5.43652 17.4999 6.64668C16.6206 5.43652 15.4701 4.44912 14.1406 3.76358C12.8111 3.07805 11.3395 2.71344 9.84366 2.69897C7.13374 2.80719 4.57692 3.98402 2.73227 5.97215C0.887619 7.96027 -0.0947697 10.5979 -8.67793e-05 13.3083C-8.67793e-05 19.9467 6.81616 27.0531 12.5416 31.8467C13.9319 33.0157 15.69 33.6566 17.5065 33.6566C19.3229 33.6566 21.0811 33.0157 22.4714 31.8467C28.191 27.0531 35.013 19.9467 35.013 13.3083C35.1077 10.5957 34.1235 7.95616 32.276 5.96767C30.4286 3.97917 27.8684 2.80381 25.1562 2.69897V2.69897ZM19.6539 28.494C19.0507 29.0018 18.2876 29.2803 17.4992 29.2803C16.7107 29.2803 15.9476 29.0018 15.3445 28.494C8.37366 22.649 4.37491 17.1146 4.37491 13.3083C4.28193 11.7585 4.80407 10.2344 5.82797 9.0672C6.85187 7.89995 8.29486 7.18371 9.84366 7.07397C11.3925 7.18371 12.8355 7.89995 13.8594 9.0672C14.8833 10.2344 15.4054 11.7585 15.3124 13.3083C15.3124 13.8885 15.5429 14.4449 15.9531 14.8551C16.3634 15.2654 16.9198 15.4958 17.4999 15.4958C18.0801 15.4958 18.6365 15.2654 19.0467 14.8551C19.4569 14.4449 19.6874 13.8885 19.6874 13.3083C19.5944 11.7585 20.1166 10.2344 21.1405 9.0672C22.1644 7.89995 23.6074 7.18371 25.1562 7.07397C26.705 7.18371 28.148 7.89995 29.1719 9.0672C30.1958 10.2344 30.7179 11.7585 30.6249 13.3083C30.6249 17.1146 26.6262 22.649 19.6539 28.494Z" fill="#166534"/>
</g>
<path d="M49.84 25.2C48.8133 25.2 47.8933 24.9733 47.08 24.52C46.28 24.0533 45.6467 23.42 45.18 22.62C44.7133 21.8067 44.48 20.8867 44.48 19.86V11.12H46.36V19.82C46.36 20.5533 46.5133 21.1867 46.82 21.72C47.1267 22.2533 47.54 22.6667 48.06 22.96C48.5933 23.2533 49.1867 23.4 49.84 23.4C50.52 23.4 51.1133 23.2533 51.62 22.96C52.14 22.6667 52.5467 22.2533 52.84 21.72C53.1467 21.1867 53.3 20.56 53.3 19.84V11.12H55.2V19.88C55.2 20.9067 54.9667 21.82 54.5 22.62C54.0333 23.42 53.4 24.0533 52.6 24.52C51.8 24.9733 50.88 25.2 49.84 25.2ZM64.6923 25V19.46C64.6923 18.74 64.4657 18.1467 64.0123 17.68C63.559 17.2133 62.9723 16.98 62.2523 16.98C61.7723 16.98 61.3457 17.0867 60.9723 17.3C60.599 17.5133 60.3057 17.8067 60.0923 18.18C59.879 18.5533 59.7723 18.98 59.7723 19.46L59.0323 19.04C59.0323 18.32 59.1923 17.68 59.5123 17.12C59.8323 16.56 60.279 16.12 60.8523 15.8C61.4257 15.4667 62.0723 15.3 62.7923 15.3C63.5123 15.3 64.1457 15.48 64.6923 15.84C65.2523 16.2 65.6923 16.6733 66.0123 17.26C66.3323 17.8333 66.4923 18.4467 66.4923 19.1V25H64.6923ZM57.9723 25V15.5H59.7723V25H57.9723ZM68.9494 25V15.5H70.7494V25H68.9494ZM69.8494 13.6C69.516 13.6 69.2427 13.4933 69.0294 13.28C68.816 13.0533 68.7094 12.7733 68.7094 12.44C68.7094 12.12 68.816 11.8533 69.0294 11.64C69.2427 11.4133 69.516 11.3 69.8494 11.3C70.1827 11.3 70.456 11.4133 70.6694 11.64C70.8827 11.8533 70.9894 12.12 70.9894 12.44C70.9894 12.7733 70.8827 13.0533 70.6694 13.28C70.456 13.4933 70.1827 13.6 69.8494 13.6ZM77.742 25.2C76.8087 25.2 75.9687 24.98 75.222 24.54C74.4754 24.1 73.882 23.5067 73.442 22.76C73.002 22 72.782 21.1533 72.782 20.22C72.782 19.3 73.002 18.4733 73.442 17.74C73.882 16.9933 74.4754 16.4 75.222 15.96C75.9687 15.52 76.8087 15.3 77.742 15.3C78.662 15.3 79.4954 15.52 80.242 15.96C81.002 16.3867 81.602 16.9733 82.042 17.72C82.482 18.4667 82.702 19.3 82.702 20.22C82.702 21.1533 82.482 22 82.042 22.76C81.602 23.5067 81.002 24.1 80.242 24.54C79.4954 24.98 78.662 25.2 77.742 25.2ZM77.742 23.46C78.342 23.46 78.8754 23.32 79.342 23.04C79.8087 22.76 80.1754 22.38 80.442 21.9C80.7087 21.4067 80.842 20.8467 80.842 20.22C80.842 19.6067 80.702 19.06 80.422 18.58C80.1554 18.1 79.7887 17.7267 79.322 17.46C78.8687 17.18 78.342 17.04 77.742 17.04C77.142 17.04 76.6087 17.18 76.142 17.46C75.6754 17.7267 75.3087 18.1 75.042 18.58C74.7754 19.06 74.642 19.6067 74.642 20.22C74.642 20.8467 74.7754 21.4067 75.042 21.9C75.3087 22.38 75.6754 22.76 76.142 23.04C76.6087 23.32 77.142 23.46 77.742 23.46ZM91.4502 25V19.46C91.4502 18.74 91.2235 18.1467 90.7702 17.68C90.3168 17.2133 89.7302 16.98 89.0102 16.98C88.5302 16.98 88.1035 17.0867 87.7302 17.3C87.3568 17.5133 87.0635 17.8067 86.8502 18.18C86.6368 18.5533 86.5302 18.98 86.5302 19.46L85.7902 19.04C85.7902 18.32 85.9502 17.68 86.2702 17.12C86.5902 16.56 87.0368 16.12 87.6102 15.8C88.1835 15.4667 88.8302 15.3 89.5502 15.3C90.2702 15.3 90.9035 15.48 91.4502 15.84C92.0102 16.2 92.4502 16.6733 92.7702 17.26C93.0902 17.8333 93.2502 18.4467 93.2502 19.1V25H91.4502ZM84.7302 25V15.5H86.5302V25H84.7302ZM104.047 25.2C102.914 25.2 101.941 25.0067 101.127 24.62C100.327 24.2333 99.6007 23.6533 98.9473 22.88L100.747 21.08C101.161 21.6267 101.641 22.0533 102.187 22.36C102.734 22.6533 103.401 22.8 104.187 22.8C104.894 22.8 105.454 22.66 105.867 22.38C106.294 22.1 106.507 21.7133 106.507 21.22C106.507 20.7933 106.387 20.4467 106.147 20.18C105.907 19.9133 105.587 19.6867 105.187 19.5C104.801 19.3133 104.367 19.1467 103.887 19C103.421 18.84 102.947 18.66 102.467 18.46C102.001 18.26 101.567 18.0133 101.167 17.72C100.781 17.4133 100.467 17.0267 100.227 16.56C99.9873 16.08 99.8673 15.48 99.8673 14.76C99.8673 13.9067 100.074 13.18 100.487 12.58C100.901 11.98 101.467 11.52 102.187 11.2C102.907 10.88 103.721 10.72 104.627 10.72C105.587 10.72 106.454 10.9 107.227 11.26C108.001 11.62 108.634 12.0867 109.127 12.66L107.327 14.46C106.914 14.0067 106.487 13.6733 106.047 13.46C105.621 13.2467 105.134 13.14 104.587 13.14C103.961 13.14 103.467 13.26 103.107 13.5C102.747 13.74 102.567 14.0867 102.567 14.54C102.567 14.9267 102.687 15.24 102.927 15.48C103.167 15.72 103.481 15.9267 103.867 16.1C104.267 16.2733 104.701 16.44 105.167 16.6C105.647 16.76 106.121 16.94 106.587 17.14C107.067 17.34 107.501 17.6 107.887 17.92C108.287 18.24 108.607 18.6533 108.847 19.16C109.087 19.6533 109.207 20.2667 109.207 21C109.207 22.3067 108.747 23.3333 107.827 24.08C106.907 24.8267 105.647 25.2 104.047 25.2ZM115.536 25.2C114.563 25.2 113.683 24.98 112.896 24.54C112.123 24.0867 111.503 23.48 111.036 22.72C110.583 21.9467 110.356 21.0867 110.356 20.14C110.356 19.1933 110.583 18.3467 111.036 17.6C111.489 16.84 112.109 16.24 112.896 15.8C113.683 15.3467 114.556 15.12 115.516 15.12C116.503 15.12 117.383 15.3467 118.156 15.8C118.943 16.24 119.563 16.84 120.016 17.6C120.469 18.3467 120.696 19.1933 120.696 20.14C120.696 21.0867 120.469 21.9467 120.016 22.72C119.563 23.48 118.943 24.0867 118.156 24.54C117.383 24.98 116.509 25.2 115.536 25.2ZM115.516 22.76C116.009 22.76 116.443 22.6533 116.816 22.44C117.203 22.2133 117.496 21.9067 117.696 21.52C117.909 21.12 118.016 20.6667 118.016 20.16C118.016 19.6533 117.909 19.2067 117.696 18.82C117.483 18.4333 117.189 18.1333 116.816 17.92C116.443 17.6933 116.009 17.58 115.516 17.58C115.036 17.58 114.609 17.6933 114.236 17.92C113.863 18.1333 113.569 18.4333 113.356 18.82C113.143 19.2067 113.036 19.6533 113.036 20.16C113.036 20.6667 113.143 21.12 113.356 21.52C113.569 21.9067 113.863 22.2133 114.236 22.44C114.609 22.6533 115.036 22.76 115.516 22.76ZM122.383 25V10.54H125.003V25H122.383ZM127.324 25V15.34H129.964V25H127.324ZM128.644 13.78C128.217 13.78 127.864 13.64 127.584 13.36C127.304 13.0667 127.164 12.7067 127.164 12.28C127.164 11.8667 127.304 11.5133 127.584 11.22C127.864 10.9267 128.217 10.78 128.644 10.78C129.084 10.78 129.437 10.9267 129.704 11.22C129.984 11.5133 130.124 11.8667 130.124 12.28C130.124 12.7067 129.984 13.0667 129.704 13.36C129.437 13.64 129.084 13.78 128.644 13.78ZM136.365 25.2C135.472 25.2 134.672 24.98 133.965 24.54C133.258 24.1 132.698 23.5 132.285 22.74C131.885 21.98 131.685 21.1267 131.685 20.18C131.685 19.22 131.885 18.36 132.285 17.6C132.698 16.84 133.252 16.24 133.945 15.8C134.652 15.36 135.458 15.14 136.365 15.14C137.058 15.14 137.678 15.28 138.225 15.56C138.785 15.84 139.232 16.2333 139.565 16.74C139.912 17.2333 140.098 17.7933 140.125 18.42V21.86C140.098 22.4867 139.918 23.0533 139.585 23.56C139.252 24.0667 138.805 24.4667 138.245 24.76C137.685 25.0533 137.058 25.2 136.365 25.2ZM136.805 22.78C137.298 22.78 137.725 22.6733 138.085 22.46C138.458 22.2333 138.745 21.9267 138.945 21.54C139.158 21.14 139.265 20.68 139.265 20.16C139.265 19.6533 139.158 19.2067 138.945 18.82C138.745 18.42 138.458 18.1133 138.085 17.9C137.725 17.6733 137.305 17.56 136.825 17.56C136.332 17.56 135.898 17.6733 135.525 17.9C135.165 18.1267 134.878 18.4333 134.665 18.82C134.465 19.2067 134.365 19.6533 134.365 20.16C134.365 20.68 134.465 21.14 134.665 21.54C134.878 21.9267 135.172 22.2333 135.545 22.46C135.918 22.6733 136.338 22.78 136.805 22.78ZM141.725 25H139.125V22.4L139.545 20.04L139.105 17.72V10.54H141.725V25ZM148.083 25.2C147.203 25.2 146.409 24.98 145.703 24.54C144.996 24.1 144.443 23.5 144.043 22.74C143.643 21.98 143.443 21.1267 143.443 20.18C143.443 19.22 143.643 18.36 144.043 17.6C144.443 16.84 144.996 16.24 145.703 15.8C146.409 15.36 147.203 15.14 148.083 15.14C148.776 15.14 149.396 15.28 149.943 15.56C150.489 15.84 150.923 16.2333 151.243 16.74C151.576 17.2333 151.756 17.7933 151.783 18.42V21.9C151.756 22.54 151.576 23.1067 151.243 23.6C150.923 24.0933 150.489 24.4867 149.943 24.78C149.396 25.06 148.776 25.2 148.083 25.2ZM148.563 22.78C149.296 22.78 149.889 22.54 150.343 22.06C150.796 21.5667 151.023 20.9333 151.023 20.16C151.023 19.6533 150.916 19.2067 150.703 18.82C150.503 18.42 150.216 18.1133 149.843 17.9C149.483 17.6733 149.056 17.56 148.563 17.56C148.083 17.56 147.656 17.6733 147.283 17.9C146.923 18.1133 146.636 18.42 146.423 18.82C146.223 19.2067 146.123 19.6533 146.123 20.16C146.123 20.68 146.223 21.14 146.423 21.54C146.636 21.9267 146.923 22.2333 147.283 22.46C147.656 22.6733 148.083 22.78 148.563 22.78ZM150.883 25V22.4L151.303 20.04L150.883 17.72V15.34H153.483V25H150.883ZM155.801 25V15.34H158.421V25H155.801ZM158.421 19.66L157.401 18.98C157.521 17.7933 157.867 16.86 158.441 16.18C159.014 15.4867 159.841 15.14 160.921 15.14C161.387 15.14 161.807 15.22 162.181 15.38C162.554 15.5267 162.894 15.7733 163.201 16.12L161.561 18C161.414 17.84 161.234 17.72 161.021 17.64C160.821 17.56 160.587 17.52 160.321 17.52C159.761 17.52 159.301 17.7 158.941 18.06C158.594 18.4067 158.421 18.94 158.421 19.66ZM164.121 25V15.34H166.761V25H164.121ZM165.441 13.78C165.014 13.78 164.661 13.64 164.381 13.36C164.101 13.0667 163.961 12.7067 163.961 12.28C163.961 11.8667 164.101 11.5133 164.381 11.22C164.661 10.9267 165.014 10.78 165.441 10.78C165.881 10.78 166.234 10.9267 166.501 11.22C166.781 11.5133 166.921 11.8667 166.921 12.28C166.921 12.7067 166.781 13.0667 166.501 13.36C166.234 13.64 165.881 13.78 165.441 13.78ZM173.122 25.2C172.242 25.2 171.449 24.98 170.742 24.54C170.035 24.1 169.482 23.5 169.082 22.74C168.682 21.98 168.482 21.1267 168.482 20.18C168.482 19.22 168.682 18.36 169.082 17.6C169.482 16.84 170.035 16.24 170.742 15.8C171.449 15.36 172.242 15.14 173.122 15.14C173.815 15.14 174.435 15.28 174.982 15.56C175.529 15.84 175.962 16.2333 176.282 16.74C176.615 17.2333 176.795 17.7933 176.822 18.42V21.9C176.795 22.54 176.615 23.1067 176.282 23.6C175.962 24.0933 175.529 24.4867 174.982 24.78C174.435 25.06 173.815 25.2 173.122 25.2ZM173.602 22.78C174.335 22.78 174.929 22.54 175.382 22.06C175.835 21.5667 176.062 20.9333 176.062 20.16C176.062 19.6533 175.955 19.2067 175.742 18.82C175.542 18.42 175.255 18.1133 174.882 17.9C174.522 17.6733 174.095 17.56 173.602 17.56C173.122 17.56 172.695 17.6733 172.322 17.9C171.962 18.1133 171.675 18.42 171.462 18.82C171.262 19.2067 171.162 19.6533 171.162 20.16C171.162 20.68 171.262 21.14 171.462 21.54C171.675 21.9267 171.962 22.2333 172.322 22.46C172.695 22.6733 173.122 22.78 173.602 22.78ZM175.922 25V22.4L176.342 20.04L175.922 17.72V15.34H178.522V25H175.922Z" fill="black"/>
<defs>
<clipPath id="clip0_111_251">
<rect width="35" height="35" fill="white"/>
</clipPath>
</defs>
</svg>
