<svg width="167" height="35" viewBox="0 0 167 35" fill="none" xmlns="http://www.w3.org/2000/svg">
<g clip-path="url(#clip0_129_2458)">
<path d="M25.1567 2.69897C23.6609 2.71345 22.1892 3.07805 20.8597 3.76359C19.5302 4.44912 18.3797 5.43652 17.5004 6.64668C16.6211 5.43652 15.4706 4.44912 14.1411 3.76359C12.8116 3.07805 11.3399 2.71345 9.84415 2.69897C7.13423 2.80719 4.57741 3.98403 2.73276 5.97215C0.888107 7.96027 -0.0942814 10.5979 0.000401502 13.3083C0.000401502 19.9467 6.81665 27.0531 12.5421 31.8467C13.9323 33.0157 15.6905 33.6566 17.507 33.6566C19.3234 33.6566 21.0816 33.0157 22.4719 31.8467C28.1914 27.0531 35.0135 19.9467 35.0135 13.3083C35.1082 10.5957 34.124 7.95617 32.2765 5.96767C30.4291 3.97917 27.8689 2.80381 25.1567 2.69897ZM19.6544 28.494C19.0512 29.0018 18.2881 29.2803 17.4997 29.2803C16.7112 29.2803 15.9481 29.0018 15.345 28.494C8.37415 22.649 4.3754 17.1146 4.3754 13.3083C4.28242 11.7585 4.80456 10.2344 5.82846 9.0672C6.85236 7.89996 8.29535 7.18371 9.84415 7.07397C11.393 7.18371 12.8359 7.89996 13.8598 9.0672C14.8837 10.2344 15.4059 11.7585 15.3129 13.3083C15.3129 13.8885 15.5434 14.4449 15.9536 14.8551C16.3638 15.2654 16.9202 15.4958 17.5004 15.4958C18.0806 15.4958 18.637 15.2654 19.0472 14.8551C19.4574 14.4449 19.6879 13.8885 19.6879 13.3083C19.5949 11.7585 20.1171 10.2344 21.141 9.0672C22.1649 7.89996 23.6079 7.18371 25.1567 7.07397C26.7055 7.18371 28.1484 7.89996 29.1723 9.0672C30.1962 10.2344 30.7184 11.7585 30.6254 13.3083C30.6254 17.1146 26.6267 22.649 19.6544 28.494Z" fill="white"/>
</g>
<path d="M49.156 24.18C48.232 24.18 47.404 23.976 46.672 23.568C45.952 23.148 45.382 22.578 44.962 21.858C44.542 21.126 44.332 20.298 44.332 19.374V11.508H46.024V19.338C46.024 19.998 46.162 20.568 46.438 21.048C46.714 21.528 47.086 21.9 47.554 22.164C48.034 22.428 48.568 22.56 49.156 22.56C49.768 22.56 50.302 22.428 50.758 22.164C51.226 21.9 51.592 21.528 51.856 21.048C52.132 20.568 52.27 20.004 52.27 19.356V11.508H53.98V19.392C53.98 20.316 53.77 21.138 53.35 21.858C52.93 22.578 52.36 23.148 51.64 23.568C50.92 23.976 50.092 24.18 49.156 24.18ZM62.5231 24V19.014C62.5231 18.366 62.3191 17.832 61.9111 17.412C61.5031 16.992 60.9751 16.782 60.3271 16.782C59.8951 16.782 59.5111 16.878 59.1751 17.07C58.8391 17.262 58.5751 17.526 58.3831 17.862C58.1911 18.198 58.0951 18.582 58.0951 19.014L57.4291 18.636C57.4291 17.988 57.5731 17.412 57.8611 16.908C58.1491 16.404 58.5511 16.008 59.0671 15.72C59.5831 15.42 60.1651 15.27 60.8131 15.27C61.4611 15.27 62.0311 15.432 62.5231 15.756C63.0271 16.08 63.4231 16.506 63.7111 17.034C63.9991 17.55 64.1431 18.102 64.1431 18.69V24H62.5231ZM56.4751 24V15.45H58.0951V24H56.4751ZM66.3544 24V15.45H67.9744V24H66.3544ZM67.1644 13.74C66.8644 13.74 66.6184 13.644 66.4264 13.452C66.2344 13.248 66.1384 12.996 66.1384 12.696C66.1384 12.408 66.2344 12.168 66.4264 11.976C66.6184 11.772 66.8644 11.67 67.1644 11.67C67.4644 11.67 67.7104 11.772 67.9024 11.976C68.0944 12.168 68.1904 12.408 68.1904 12.696C68.1904 12.996 68.0944 13.248 67.9024 13.452C67.7104 13.644 67.4644 13.74 67.1644 13.74ZM74.2678 24.18C73.4278 24.18 72.6718 23.982 71.9998 23.586C71.3278 23.19 70.7938 22.656 70.3978 21.984C70.0018 21.3 69.8038 20.538 69.8038 19.698C69.8038 18.87 70.0018 18.126 70.3978 17.466C70.7938 16.794 71.3278 16.26 71.9998 15.864C72.6718 15.468 73.4278 15.27 74.2678 15.27C75.0958 15.27 75.8458 15.468 76.5178 15.864C77.2018 16.248 77.7418 16.776 78.1378 17.448C78.5338 18.12 78.7318 18.87 78.7318 19.698C78.7318 20.538 78.5338 21.3 78.1378 21.984C77.7418 22.656 77.2018 23.19 76.5178 23.586C75.8458 23.982 75.0958 24.18 74.2678 24.18ZM74.2678 22.614C74.8078 22.614 75.2878 22.488 75.7078 22.236C76.1278 21.984 76.4578 21.642 76.6978 21.21C76.9378 20.766 77.0578 20.262 77.0578 19.698C77.0578 19.146 76.9318 18.654 76.6798 18.222C76.4398 17.79 76.1098 17.454 75.6898 17.214C75.2818 16.962 74.8078 16.836 74.2678 16.836C73.7278 16.836 73.2478 16.962 72.8278 17.214C72.4078 17.454 72.0778 17.79 71.8378 18.222C71.5978 18.654 71.4778 19.146 71.4778 19.698C71.4778 20.262 71.5978 20.766 71.8378 21.21C72.0778 21.642 72.4078 21.984 72.8278 22.236C73.2478 22.488 73.7278 22.614 74.2678 22.614ZM86.6051 24V19.014C86.6051 18.366 86.4011 17.832 85.9931 17.412C85.5851 16.992 85.0571 16.782 84.4091 16.782C83.9771 16.782 83.5931 16.878 83.2571 17.07C82.9211 17.262 82.6571 17.526 82.4651 17.862C82.2731 18.198 82.1771 18.582 82.1771 19.014L81.5111 18.636C81.5111 17.988 81.6551 17.412 81.9431 16.908C82.2311 16.404 82.6331 16.008 83.1491 15.72C83.6651 15.42 84.2471 15.27 84.8951 15.27C85.5431 15.27 86.1131 15.432 86.6051 15.756C87.1091 16.08 87.5051 16.506 87.7931 17.034C88.0811 17.55 88.2251 18.102 88.2251 18.69V24H86.6051ZM80.5571 24V15.45H82.1771V24H80.5571ZM97.9426 24.18C96.9226 24.18 96.0466 24.006 95.3146 23.658C94.5946 23.31 93.9406 22.788 93.3526 22.092L94.9726 20.472C95.3446 20.964 95.7766 21.348 96.2686 21.624C96.7606 21.888 97.3606 22.02 98.0686 22.02C98.7046 22.02 99.2086 21.894 99.5806 21.642C99.9646 21.39 100.157 21.042 100.157 20.598C100.157 20.214 100.049 19.902 99.8326 19.662C99.6166 19.422 99.3286 19.218 98.9686 19.05C98.6206 18.882 98.2306 18.732 97.7986 18.6C97.3786 18.456 96.9526 18.294 96.5206 18.114C96.1006 17.934 95.7106 17.712 95.3506 17.448C95.0026 17.172 94.7206 16.824 94.5046 16.404C94.2886 15.972 94.1806 15.432 94.1806 14.784C94.1806 14.016 94.3666 13.362 94.7386 12.822C95.1106 12.282 95.6206 11.868 96.2686 11.58C96.9166 11.292 97.6486 11.148 98.4646 11.148C99.3286 11.148 100.109 11.31 100.805 11.634C101.501 11.958 102.071 12.378 102.515 12.894L100.895 14.514C100.523 14.106 100.139 13.806 99.7426 13.614C99.3586 13.422 98.9206 13.326 98.4286 13.326C97.8646 13.326 97.4206 13.434 97.0966 13.65C96.7726 13.866 96.6106 14.178 96.6106 14.586C96.6106 14.934 96.7186 15.216 96.9346 15.432C97.1506 15.648 97.4326 15.834 97.7806 15.99C98.1406 16.146 98.5306 16.296 98.9506 16.44C99.3826 16.584 99.8086 16.746 100.229 16.926C100.661 17.106 101.051 17.34 101.399 17.628C101.759 17.916 102.047 18.288 102.263 18.744C102.479 19.188 102.587 19.74 102.587 20.4C102.587 21.576 102.173 22.5 101.345 23.172C100.517 23.844 99.3826 24.18 97.9426 24.18ZM108.282 24.18C107.406 24.18 106.614 23.982 105.906 23.586C105.21 23.178 104.652 22.632 104.232 21.948C103.824 21.252 103.62 20.478 103.62 19.626C103.62 18.774 103.824 18.012 104.232 17.34C104.64 16.656 105.198 16.116 105.906 15.72C106.614 15.312 107.4 15.108 108.264 15.108C109.152 15.108 109.944 15.312 110.64 15.72C111.348 16.116 111.906 16.656 112.314 17.34C112.722 18.012 112.926 18.774 112.926 19.626C112.926 20.478 112.722 21.252 112.314 21.948C111.906 22.632 111.348 23.178 110.64 23.586C109.944 23.982 109.158 24.18 108.282 24.18ZM108.264 21.984C108.708 21.984 109.098 21.888 109.434 21.696C109.782 21.492 110.046 21.216 110.226 20.868C110.418 20.508 110.514 20.1 110.514 19.644C110.514 19.188 110.418 18.786 110.226 18.438C110.034 18.09 109.77 17.82 109.434 17.628C109.098 17.424 108.708 17.322 108.264 17.322C107.832 17.322 107.448 17.424 107.112 17.628C106.776 17.82 106.512 18.09 106.32 18.438C106.128 18.786 106.032 19.188 106.032 19.644C106.032 20.1 106.128 20.508 106.32 20.868C106.512 21.216 106.776 21.492 107.112 21.696C107.448 21.888 107.832 21.984 108.264 21.984ZM114.444 24V10.986H116.802V24H114.444ZM118.892 24V15.306H121.268V24H118.892ZM120.08 13.902C119.696 13.902 119.378 13.776 119.126 13.524C118.874 13.26 118.748 12.936 118.748 12.552C118.748 12.18 118.874 11.862 119.126 11.598C119.378 11.334 119.696 11.202 120.08 11.202C120.476 11.202 120.794 11.334 121.034 11.598C121.286 11.862 121.412 12.18 121.412 12.552C121.412 12.936 121.286 13.26 121.034 13.524C120.794 13.776 120.476 13.902 120.08 13.902ZM127.029 24.18C126.225 24.18 125.505 23.982 124.869 23.586C124.233 23.19 123.729 22.65 123.357 21.966C122.997 21.282 122.817 20.514 122.817 19.662C122.817 18.798 122.997 18.024 123.357 17.34C123.729 16.656 124.227 16.116 124.851 15.72C125.487 15.324 126.213 15.126 127.029 15.126C127.653 15.126 128.211 15.252 128.703 15.504C129.207 15.756 129.609 16.11 129.909 16.566C130.221 17.01 130.389 17.514 130.413 18.078V21.174C130.389 21.738 130.227 22.248 129.927 22.704C129.627 23.16 129.225 23.52 128.721 23.784C128.217 24.048 127.653 24.18 127.029 24.18ZM127.425 22.002C127.869 22.002 128.253 21.906 128.577 21.714C128.913 21.51 129.171 21.234 129.351 20.886C129.543 20.526 129.639 20.112 129.639 19.644C129.639 19.188 129.543 18.786 129.351 18.438C129.171 18.078 128.913 17.802 128.577 17.61C128.253 17.406 127.875 17.304 127.443 17.304C126.999 17.304 126.609 17.406 126.273 17.61C125.949 17.814 125.691 18.09 125.499 18.438C125.319 18.786 125.229 19.188 125.229 19.644C125.229 20.112 125.319 20.526 125.499 20.886C125.691 21.234 125.955 21.51 126.291 21.714C126.627 21.906 127.005 22.002 127.425 22.002ZM131.853 24H129.513V21.66L129.891 19.536L129.495 17.448V10.986H131.853V24ZM137.575 24.18C136.783 24.18 136.069 23.982 135.433 23.586C134.797 23.19 134.299 22.65 133.939 21.966C133.579 21.282 133.399 20.514 133.399 19.662C133.399 18.798 133.579 18.024 133.939 17.34C134.299 16.656 134.797 16.116 135.433 15.72C136.069 15.324 136.783 15.126 137.575 15.126C138.199 15.126 138.757 15.252 139.249 15.504C139.741 15.756 140.131 16.11 140.419 16.566C140.719 17.01 140.881 17.514 140.905 18.078V21.21C140.881 21.786 140.719 22.296 140.419 22.74C140.131 23.184 139.741 23.538 139.249 23.802C138.757 24.054 138.199 24.18 137.575 24.18ZM138.007 22.002C138.667 22.002 139.201 21.786 139.609 21.354C140.017 20.91 140.221 20.34 140.221 19.644C140.221 19.188 140.125 18.786 139.933 18.438C139.753 18.078 139.495 17.802 139.159 17.61C138.835 17.406 138.451 17.304 138.007 17.304C137.575 17.304 137.191 17.406 136.855 17.61C136.531 17.802 136.273 18.078 136.081 18.438C135.901 18.786 135.811 19.188 135.811 19.644C135.811 20.112 135.901 20.526 136.081 20.886C136.273 21.234 136.531 21.51 136.855 21.714C137.191 21.906 137.575 22.002 138.007 22.002ZM140.095 24V21.66L140.473 19.536L140.095 17.448V15.306H142.435V24H140.095ZM144.521 24V15.306H146.879V24H144.521ZM146.879 19.194L145.961 18.582C146.069 17.514 146.381 16.674 146.897 16.062C147.413 15.438 148.157 15.126 149.129 15.126C149.549 15.126 149.927 15.198 150.263 15.342C150.599 15.474 150.905 15.696 151.181 16.008L149.705 17.7C149.573 17.556 149.411 17.448 149.219 17.376C149.039 17.304 148.829 17.268 148.589 17.268C148.085 17.268 147.671 17.43 147.347 17.754C147.035 18.066 146.879 18.546 146.879 19.194ZM152.009 24V15.306H154.385V24H152.009ZM153.197 13.902C152.813 13.902 152.495 13.776 152.243 13.524C151.991 13.26 151.865 12.936 151.865 12.552C151.865 12.18 151.991 11.862 152.243 11.598C152.495 11.334 152.813 11.202 153.197 11.202C153.593 11.202 153.911 11.334 154.151 11.598C154.403 11.862 154.529 12.18 154.529 12.552C154.529 12.936 154.403 13.26 154.151 13.524C153.911 13.776 153.593 13.902 153.197 13.902ZM160.11 24.18C159.318 24.18 158.604 23.982 157.968 23.586C157.332 23.19 156.834 22.65 156.474 21.966C156.114 21.282 155.934 20.514 155.934 19.662C155.934 18.798 156.114 18.024 156.474 17.34C156.834 16.656 157.332 16.116 157.968 15.72C158.604 15.324 159.318 15.126 160.11 15.126C160.734 15.126 161.292 15.252 161.784 15.504C162.276 15.756 162.666 16.11 162.954 16.566C163.254 17.01 163.416 17.514 163.44 18.078V21.21C163.416 21.786 163.254 22.296 162.954 22.74C162.666 23.184 162.276 23.538 161.784 23.802C161.292 24.054 160.734 24.18 160.11 24.18ZM160.542 22.002C161.202 22.002 161.736 21.786 162.144 21.354C162.552 20.91 162.756 20.34 162.756 19.644C162.756 19.188 162.66 18.786 162.468 18.438C162.288 18.078 162.03 17.802 161.694 17.61C161.37 17.406 160.986 17.304 160.542 17.304C160.11 17.304 159.726 17.406 159.39 17.61C159.066 17.802 158.808 18.078 158.616 18.438C158.436 18.786 158.346 19.188 158.346 19.644C158.346 20.112 158.436 20.526 158.616 20.886C158.808 21.234 159.066 21.51 159.39 21.714C159.726 21.906 160.11 22.002 160.542 22.002ZM162.63 24V21.66L163.008 19.536L162.63 17.448V15.306H164.97V24H162.63Z" fill="white"/>
<defs>
<clipPath id="clip0_129_2458">
<rect width="35" height="35" fill="white"/>
</clipPath>
</defs>
</svg>
