<svg width="66" height="35" viewBox="0 0 66 35" fill="none" xmlns="http://www.w3.org/2000/svg">
<g clip-path="url(#clip0_257_76)">
<path d="M25.1562 2.69897C23.6604 2.71345 22.1888 3.07805 20.8592 3.76359C19.5297 4.44912 18.3792 5.43652 17.4999 6.64668C16.6206 5.43652 15.4701 4.44912 14.1406 3.76359C12.8111 3.07805 11.3395 2.71345 9.84366 2.69897C7.13374 2.80719 4.57692 3.98403 2.73227 5.97215C0.887619 7.96027 -0.0947697 10.5979 -8.67793e-05 13.3083C-8.67793e-05 19.9467 6.81616 27.0531 12.5416 31.8467C13.9319 33.0157 15.69 33.6566 17.5065 33.6566C19.3229 33.6566 21.0811 33.0157 22.4714 31.8467C28.191 27.0531 35.013 19.9467 35.013 13.3083C35.1077 10.5957 34.1235 7.95617 32.276 5.96767C30.4286 3.97917 27.8684 2.80381 25.1562 2.69897V2.69897ZM19.6539 28.494C19.0507 29.0018 18.2876 29.2803 17.4992 29.2803C16.7107 29.2803 15.9476 29.0018 15.3445 28.494C8.37366 22.649 4.37491 17.1146 4.37491 13.3083C4.28193 11.7585 4.80407 10.2344 5.82797 9.0672C6.85187 7.89996 8.29486 7.18371 9.84366 7.07397C11.3925 7.18371 12.8355 7.89996 13.8594 9.0672C14.8833 10.2344 15.4054 11.7585 15.3124 13.3083C15.3124 13.8885 15.5429 14.4449 15.9531 14.8551C16.3634 15.2654 16.9198 15.4958 17.4999 15.4958C18.0801 15.4958 18.6365 15.2654 19.0467 14.8551C19.4569 14.4449 19.6874 13.8885 19.6874 13.3083C19.5944 11.7585 20.1166 10.2344 21.1405 9.0672C22.1644 7.89996 23.6074 7.18371 25.1562 7.07397C26.705 7.18371 28.148 7.89996 29.1719 9.0672C30.1958 10.2344 30.7179 11.7585 30.6249 13.3083C30.6249 17.1146 26.6262 22.649 19.6539 28.494Z" fill="#166534"/>
</g>
<path d="M49.156 24.18C48.232 24.18 47.404 23.976 46.672 23.568C45.952 23.148 45.382 22.578 44.962 21.858C44.542 21.126 44.332 20.298 44.332 19.374V11.508H46.024V19.338C46.024 19.998 46.162 20.568 46.438 21.048C46.714 21.528 47.086 21.9 47.554 22.164C48.034 22.428 48.568 22.56 49.156 22.56C49.768 22.56 50.302 22.428 50.758 22.164C51.226 21.9 51.592 21.528 51.856 21.048C52.132 20.568 52.27 20.004 52.27 19.356V11.508H53.98V19.392C53.98 20.316 53.77 21.138 53.35 21.858C52.93 22.578 52.36 23.148 51.64 23.568C50.92 23.976 50.092 24.18 49.156 24.18ZM60.2551 24.18C59.2351 24.18 58.3591 24.006 57.6271 23.658C56.9071 23.31 56.2531 22.788 55.6651 22.092L57.2851 20.472C57.6571 20.964 58.0891 21.348 58.5811 21.624C59.0731 21.888 59.6731 22.02 60.3811 22.02C61.0171 22.02 61.5211 21.894 61.8931 21.642C62.2771 21.39 62.4691 21.042 62.4691 20.598C62.4691 20.214 62.3611 19.902 62.1451 19.662C61.9291 19.422 61.6411 19.218 61.2811 19.05C60.9331 18.882 60.5431 18.732 60.1111 18.6C59.6911 18.456 59.2651 18.294 58.8331 18.114C58.4131 17.934 58.0231 17.712 57.6631 17.448C57.3151 17.172 57.0331 16.824 56.8171 16.404C56.6011 15.972 56.4931 15.432 56.4931 14.784C56.4931 14.016 56.6791 13.362 57.0511 12.822C57.4231 12.282 57.9331 11.868 58.5811 11.58C59.2291 11.292 59.9611 11.148 60.7771 11.148C61.6411 11.148 62.4211 11.31 63.1171 11.634C63.8131 11.958 64.3831 12.378 64.8271 12.894L63.2071 14.514C62.8351 14.106 62.4511 13.806 62.0551 13.614C61.6711 13.422 61.2331 13.326 60.7411 13.326C60.1771 13.326 59.7331 13.434 59.4091 13.65C59.0851 13.866 58.9231 14.178 58.9231 14.586C58.9231 14.934 59.0311 15.216 59.2471 15.432C59.4631 15.648 59.7451 15.834 60.0931 15.99C60.4531 16.146 60.8431 16.296 61.2631 16.44C61.6951 16.584 62.1211 16.746 62.5411 16.926C62.9731 17.106 63.3631 17.34 63.7111 17.628C64.0711 17.916 64.3591 18.288 64.5751 18.744C64.7911 19.188 64.8991 19.74 64.8991 20.4C64.8991 21.576 64.4851 22.5 63.6571 23.172C62.8291 23.844 61.6951 24.18 60.2551 24.18Z" fill="black"/>
<defs>
<clipPath id="clip0_257_76">
<rect width="35" height="35" fill="white"/>
</clipPath>
</defs>
</svg>
