<svg width="13" height="14" viewBox="0 0 13 14" fill="none" xmlns="http://www.w3.org/2000/svg">
<path d="M2.29125 6.2525L5.86625 0.5L9.44125 6.2525H2.29125ZM9.5225 13.5C8.72083 13.5 8.04917 13.2292 7.5075 12.6875C6.96583 12.1458 6.695 11.4742 6.695 10.6725C6.695 9.87083 6.96583 9.19917 7.5075 8.6575C8.04917 8.11583 8.72083 7.845 9.5225 7.845C10.3242 7.845 10.9958 8.11583 11.5375 8.6575C12.0792 9.19917 12.35 9.87083 12.35 10.6725C12.35 11.4742 12.0792 12.1458 11.5375 12.6875C10.9958 13.2292 10.3242 13.5 9.5225 13.5ZM0 13.0938V8.15375H4.94V13.0938H0ZM9.52388 12.525C10.043 12.525 10.4813 12.3458 10.8388 11.9874C11.1963 11.629 11.375 11.1902 11.375 10.6711C11.375 10.152 11.1958 9.71375 10.8374 9.35625C10.479 8.99875 10.0402 8.82 9.52112 8.82C9.00204 8.82 8.56375 8.99921 8.20625 9.35763C7.84875 9.71604 7.67 10.1548 7.67 10.6739C7.67 11.193 7.84921 11.6313 8.20762 11.9888C8.56604 12.3463 9.00479 12.525 9.52388 12.525ZM0.975 12.1187H3.965V9.12875H0.975V12.1187ZM4.04625 5.2775H7.68625L5.86625 2.33625L4.04625 5.2775Z" fill="#D87CAC"/>
</svg>
