<svg width="72" height="72" viewBox="0 0 72 72" fill="none" xmlns="http://www.w3.org/2000/svg">
<path d="M20 28C20 25.79 21.79 24 24 24C26.21 24 28 25.79 28 28C28 30.21 26.21 32 24 32C21.79 32 20 30.21 20 28ZM48 32C50.21 32 52 30.21 52 28C52 25.79 50.21 24 48 24C45.79 24 44 25.79 44 28C44 30.21 45.79 32 48 32ZM72 36C72 55.88 55.88 72 36 72C16.12 72 0 55.88 0 36C0 16.12 16.12 0 36 0C55.88 0 72 16.12 72 36ZM68 36C68 18.36 53.65 4 36 4C18.35 4 4 18.36 4 36C4 53.64 18.35 68 36 68C53.65 68 68 53.64 68 36ZM36 52C30.1 52 24.95 48.77 22.18 44H17.68C20.77 51.06 27.8 56 35.99 56C44.18 56 51.22 51.06 54.3 44H49.8C47.03 48.77 41.88 52 35.98 52H36Z" fill="black"/>
</svg>
