<svg width="15" height="20" viewBox="0 0 15 20" fill="none" xmlns="http://www.w3.org/2000/svg">
<path id="location_on" d="M7.50209 9.75C7.95382 9.75 8.33984 9.57843 8.66016 9.23528C8.98047 8.89214 9.14062 8.47964 9.14062 7.99778C9.14062 7.51593 8.97977 7.10417 8.65807 6.7625C8.33638 6.42083 7.94966 6.25 7.49791 6.25C7.04618 6.25 6.66016 6.42158 6.33984 6.76472C6.01953 7.10786 5.85938 7.52036 5.85938 8.00222C5.85938 8.48408 6.02023 8.89583 6.34193 9.2375C6.66362 9.57917 7.05034 9.75 7.50209 9.75ZM7.5 18.025C9.57812 16.0083 11.1133 14.1792 12.1055 12.5375C13.0977 10.8958 13.5938 9.45 13.5938 8.2C13.5938 6.23683 13.0055 4.62937 11.8291 3.37762C10.6527 2.12587 9.20964 1.5 7.5 1.5C5.79036 1.5 4.34733 2.12587 3.17091 3.37762C1.99447 4.62937 1.40625 6.23683 1.40625 8.2C1.40625 9.45 1.91406 10.8958 2.92969 12.5375C3.94531 14.1792 5.46875 16.0083 7.5 18.025ZM7.5 20C4.98438 17.7167 3.10547 15.5958 1.86328 13.6375C0.621094 11.6792 0 9.86667 0 8.2C0 5.7 0.753906 3.70833 2.26172 2.225C3.76953 0.741667 5.51562 0 7.5 0C9.48438 0 11.2305 0.741667 12.7383 2.225C14.2461 3.70833 15 5.7 15 8.2C15 9.86667 14.3789 11.6792 13.1367 13.6375C11.8945 15.5958 10.0156 17.7167 7.5 20Z" fill="#3A4990"/>
</svg>
