<svg width="12" height="14" viewBox="0 0 12 14" fill="none" xmlns="http://www.w3.org/2000/svg">
<path d="M5.96686 13.5374L6 13.5668L6.03314 13.5374C7.71215 12.0516 8.96828 10.6697 9.79972 9.39164C10.6311 8.11374 11.05 6.92617 11.05 5.83C11.05 4.19385 10.5435 2.88534 9.5268 1.91017C8.51282 0.937591 7.33655 0.45 6 0.45C4.66345 0.45 3.48718 0.937591 2.4732 1.91017C1.45651 2.88534 0.95 4.19385 0.95 5.83C0.95 6.92617 1.36891 8.11374 2.20028 9.39164C3.03172 10.6697 4.28785 12.0516 5.96686 13.5374ZM6.00139 6.8875C6.31657 6.8875 6.58685 6.77012 6.80955 6.53751C7.03215 6.30502 7.14375 6.02445 7.14375 5.69855C7.14375 5.3726 7.03163 5.09245 6.80801 4.86089C6.5844 4.62933 6.31372 4.5125 5.99861 4.5125C5.68343 4.5125 5.41315 4.62988 5.19045 4.86249C4.96785 5.09498 4.85625 5.37555 4.85625 5.70145C4.85625 6.0274 4.96837 6.30755 5.19199 6.53911C5.4156 6.77067 5.68628 6.8875 6.00139 6.8875ZM9.02781 8.62303C8.375 9.67617 7.36646 10.8508 6.00039 12.147C4.66503 10.8509 3.66383 9.67612 2.99534 8.62259C2.32074 7.55942 1.9875 6.62911 1.9875 5.83C1.9875 4.56507 2.37581 3.53325 3.14994 2.73016C3.9247 1.92639 4.87369 1.525 6 1.525C7.12631 1.525 8.0753 1.92639 8.85006 2.73016C9.62419 3.53325 10.0125 4.56507 10.0125 5.83C10.0125 6.62942 9.68683 7.55989 9.02781 8.62303Z" fill="#D87CAC" stroke="#D87CAC" stroke-width="0.1"/>
</svg>
