<svg width="187" height="35" viewBox="0 0 187 35" fill="none" xmlns="http://www.w3.org/2000/svg">
<path d="M17.0173 18.3586C17.2223 18.1194 17.2223 17.7093 17.0173 17.5043C16.7781 17.2993 16.368 17.2993 16.163 17.5043L12.0283 21.5365C11.8916 21.6732 11.6866 21.6732 11.5499 21.5365L11.4816 21.4682C11.3449 21.3315 11.3449 21.1265 11.4816 20.9898L17.4957 14.7364C17.7691 14.4631 17.7691 14.0872 17.4957 13.8138C17.2223 13.5404 16.7781 13.5404 16.5047 13.8138L10.2514 19.7596C10.1147 19.8963 9.90967 19.8963 9.77299 19.7596L9.70465 19.6913C9.56796 19.5546 9.56796 19.3496 9.70465 19.2129L15.7188 12.9937C15.9922 12.7203 15.9922 12.3444 15.7188 12.0711C15.4454 11.7977 15.0012 11.7977 14.7278 12.0711L8.50865 17.9827C8.37197 18.0852 8.20111 18.1194 8.06443 17.9827C7.92774 17.846 7.89357 17.641 8.03025 17.4701L12.0283 13.2671C12.165 13.1646 12.2333 13.0279 12.2333 12.857C12.2333 12.652 12.165 12.4811 12.0283 12.3444C11.7549 12.0711 11.2765 12.0711 11.0373 12.3444L5.77495 17.4018L4.68147 18.4269L4.6473 18.3928L6.28752 15.044C6.45837 14.7023 6.39003 14.2922 6.11666 14.0872C5.97998 13.9505 5.77495 13.8822 5.60409 13.8822C5.39906 13.9163 5.22821 13.9847 5.12569 14.1555L2.42616 17.8118C2.35782 17.9144 2.28948 18.051 2.28948 18.1877L1.64022 22.3225L0 23.9969L4.98901 28.9859L5.77495 28.3708C5.80912 28.3366 8.85036 26.628 10.0805 25.5004L12.9851 22.5617L17.0173 18.3586Z" fill="white"/>
<path d="M39.3653 22.3225L38.716 18.1877C38.6818 18.051 38.6477 17.9485 38.5793 17.8118L35.8798 14.1555C35.7773 13.9847 35.6064 13.9163 35.4014 13.8822C35.2305 13.8822 35.0255 13.9163 34.8888 14.0872C34.6154 14.2922 34.5471 14.7023 34.718 15.044L36.3582 18.3928L36.324 18.4269L35.2305 17.4018L29.9682 12.3786C29.6948 12.1052 29.2164 12.1052 28.9772 12.3786C28.8405 12.5153 28.7722 12.7203 28.7722 12.8912C28.7722 13.062 28.8405 13.1987 28.9772 13.3012L32.9752 17.5043C33.1119 17.641 33.1119 17.8802 32.9411 18.0169C32.8044 18.1194 32.5993 18.1194 32.4968 18.0169L26.2435 12.0711C25.9701 11.7977 25.5259 11.7977 25.2525 12.0711C24.9791 12.3444 24.9791 12.7203 25.2525 12.9937L31.3008 19.2129C31.4375 19.3496 31.4375 19.5546 31.3008 19.6913L31.2325 19.7596C31.0958 19.8963 30.8908 19.8963 30.7541 19.7596L24.5349 13.8138C24.2616 13.5404 23.8173 13.5404 23.544 13.8138C23.2364 14.0872 23.2364 14.4289 23.5098 14.7364L29.5239 20.9898C29.6606 21.1265 29.6606 21.3315 29.5239 21.4682L29.4556 21.5365C29.3189 21.6732 29.1139 21.6732 28.9772 21.5365L24.8425 17.5385C24.6374 17.3335 24.2615 17.3335 23.9882 17.5385C23.7832 17.7435 23.7832 18.1194 23.9882 18.3928L28.0204 22.5617L30.925 25.5004C32.1551 26.6622 35.1964 28.3708 35.2305 28.3708L36.0165 28.9859L41.0055 23.9969L39.3653 22.3225Z" fill="white"/>
<path d="M29.7632 26.628L28.1913 25.022C28.123 25.0903 28.0546 25.1587 27.9863 25.227C25.526 27.824 23.134 29.9426 20.742 31.6854C19.546 30.7969 18.35 29.8401 17.154 28.7808C15.958 27.7215 14.7278 26.5255 13.4977 25.227C13.361 25.0903 13.2243 24.9195 13.0534 24.7828L11.2082 26.6622C11.1398 26.7305 11.0373 26.8331 10.9348 26.9014C11.0715 27.0381 11.2082 27.1748 11.3107 27.3115C13.771 29.9085 16.4364 32.3346 19.341 34.4191C19.751 34.795 20.2294 35 20.7078 35C21.1862 35 21.6988 34.795 22.0747 34.4191C24.9792 32.3346 27.6446 29.9085 30.1049 27.3115C30.1732 27.2431 30.2416 27.1748 30.3099 27.1064C30.1049 26.9356 29.934 26.7989 29.7974 26.6622L29.7632 26.628Z" fill="white"/>
<path d="M3.79296 13.1987C3.92965 13.0279 4.06633 12.857 4.20302 12.7545C3.92965 11.9685 3.75879 11.1484 3.75879 10.3283C3.75879 8.38056 4.51056 6.53531 5.91158 5.16846C7.31261 3.80161 9.12369 3.01567 11.0714 3.01567C13.0192 3.01567 14.8645 3.76744 16.2313 5.16846L20.7078 9.6449L25.1842 5.16846C26.551 3.80161 28.3963 3.01567 30.3441 3.01567C32.2918 3.01567 34.1371 3.76744 35.5039 5.16846C36.8708 6.53531 37.6567 8.38056 37.6567 10.3283C37.6567 11.2851 37.4517 12.2077 37.11 13.0962C37.1441 13.1304 37.1783 13.1645 37.2125 13.2329L39.1603 15.8641C40.0487 14.1555 40.6638 12.3103 40.6638 10.3625C40.6638 7.73131 39.6386 5.10012 37.6567 3.08401C33.6245 -0.9482 27.0978 -0.9482 23.0656 3.08401L20.7078 5.40766L18.3499 3.08401C14.3519 -1.01654 7.82518 -1.01654 3.79296 3.01567C1.81103 5.03178 0.785889 7.66297 0.785889 10.3283C0.785889 12.1736 1.33263 13.8821 2.11857 15.4882L3.79296 13.1987Z" fill="white"/>
<path d="M55.8456 25.2C54.8189 25.2 53.8989 24.9733 53.0856 24.52C52.2856 24.0533 51.6523 23.42 51.1856 22.62C50.7189 21.8067 50.4856 20.8867 50.4856 19.86V11.12H52.3656V19.82C52.3656 20.5533 52.5189 21.1867 52.8256 21.72C53.1323 22.2533 53.5456 22.6667 54.0656 22.96C54.5989 23.2533 55.1923 23.4 55.8456 23.4C56.5256 23.4 57.1189 23.2533 57.6256 22.96C58.1456 22.6667 58.5523 22.2533 58.8456 21.72C59.1523 21.1867 59.3056 20.56 59.3056 19.84V11.12H61.2056V19.88C61.2056 20.9067 60.9723 21.82 60.5056 22.62C60.0389 23.42 59.4056 24.0533 58.6056 24.52C57.8056 24.9733 56.8856 25.2 55.8456 25.2ZM70.698 25V19.46C70.698 18.74 70.4713 18.1467 70.018 17.68C69.5646 17.2133 68.978 16.98 68.258 16.98C67.778 16.98 67.3513 17.0867 66.978 17.3C66.6046 17.5133 66.3113 17.8067 66.098 18.18C65.8846 18.5533 65.778 18.98 65.778 19.46L65.038 19.04C65.038 18.32 65.198 17.68 65.518 17.12C65.838 16.56 66.2846 16.12 66.858 15.8C67.4313 15.4667 68.078 15.3 68.798 15.3C69.518 15.3 70.1513 15.48 70.698 15.84C71.258 16.2 71.698 16.6733 72.018 17.26C72.338 17.8333 72.498 18.4467 72.498 19.1V25H70.698ZM63.978 25V15.5H65.778V25H63.978ZM74.955 25V15.5H76.755V25H74.955ZM75.855 13.6C75.5217 13.6 75.2483 13.4933 75.035 13.28C74.8217 13.0533 74.715 12.7733 74.715 12.44C74.715 12.12 74.8217 11.8533 75.035 11.64C75.2483 11.4133 75.5217 11.3 75.855 11.3C76.1883 11.3 76.4617 11.4133 76.675 11.64C76.8883 11.8533 76.995 12.12 76.995 12.44C76.995 12.7733 76.8883 13.0533 76.675 13.28C76.4617 13.4933 76.1883 13.6 75.855 13.6ZM83.7476 25.2C82.8143 25.2 81.9743 24.98 81.2276 24.54C80.481 24.1 79.8876 23.5067 79.4476 22.76C79.0076 22 78.7876 21.1533 78.7876 20.22C78.7876 19.3 79.0076 18.4733 79.4476 17.74C79.8876 16.9933 80.481 16.4 81.2276 15.96C81.9743 15.52 82.8143 15.3 83.7476 15.3C84.6676 15.3 85.501 15.52 86.2476 15.96C87.0076 16.3867 87.6076 16.9733 88.0476 17.72C88.4876 18.4667 88.7076 19.3 88.7076 20.22C88.7076 21.1533 88.4876 22 88.0476 22.76C87.6076 23.5067 87.0076 24.1 86.2476 24.54C85.501 24.98 84.6676 25.2 83.7476 25.2ZM83.7476 23.46C84.3476 23.46 84.881 23.32 85.3476 23.04C85.8143 22.76 86.181 22.38 86.4476 21.9C86.7143 21.4067 86.8476 20.8467 86.8476 20.22C86.8476 19.6067 86.7076 19.06 86.4276 18.58C86.161 18.1 85.7943 17.7267 85.3276 17.46C84.8743 17.18 84.3476 17.04 83.7476 17.04C83.1476 17.04 82.6143 17.18 82.1476 17.46C81.681 17.7267 81.3143 18.1 81.0476 18.58C80.781 19.06 80.6476 19.6067 80.6476 20.22C80.6476 20.8467 80.781 21.4067 81.0476 21.9C81.3143 22.38 81.681 22.76 82.1476 23.04C82.6143 23.32 83.1476 23.46 83.7476 23.46ZM97.4558 25V19.46C97.4558 18.74 97.2291 18.1467 96.7758 17.68C96.3224 17.2133 95.7358 16.98 95.0158 16.98C94.5358 16.98 94.1091 17.0867 93.7358 17.3C93.3624 17.5133 93.0691 17.8067 92.8558 18.18C92.6424 18.5533 92.5358 18.98 92.5358 19.46L91.7958 19.04C91.7958 18.32 91.9558 17.68 92.2758 17.12C92.5958 16.56 93.0424 16.12 93.6158 15.8C94.1891 15.4667 94.8358 15.3 95.5558 15.3C96.2758 15.3 96.9091 15.48 97.4558 15.84C98.0158 16.2 98.4558 16.6733 98.7758 17.26C99.0958 17.8333 99.2558 18.4467 99.2558 19.1V25H97.4558ZM90.7358 25V15.5H92.5358V25H90.7358ZM110.053 25.2C108.92 25.2 107.946 25.0067 107.133 24.62C106.333 24.2333 105.606 23.6533 104.953 22.88L106.753 21.08C107.166 21.6267 107.646 22.0533 108.193 22.36C108.74 22.6533 109.406 22.8 110.193 22.8C110.9 22.8 111.46 22.66 111.873 22.38C112.3 22.1 112.513 21.7133 112.513 21.22C112.513 20.7933 112.393 20.4467 112.153 20.18C111.913 19.9133 111.593 19.6867 111.193 19.5C110.806 19.3133 110.373 19.1467 109.893 19C109.426 18.84 108.953 18.66 108.473 18.46C108.006 18.26 107.573 18.0133 107.173 17.72C106.786 17.4133 106.473 17.0267 106.233 16.56C105.993 16.08 105.873 15.48 105.873 14.76C105.873 13.9067 106.08 13.18 106.493 12.58C106.906 11.98 107.473 11.52 108.193 11.2C108.913 10.88 109.726 10.72 110.633 10.72C111.593 10.72 112.46 10.9 113.233 11.26C114.006 11.62 114.64 12.0867 115.133 12.66L113.333 14.46C112.92 14.0067 112.493 13.6733 112.053 13.46C111.626 13.2467 111.14 13.14 110.593 13.14C109.966 13.14 109.473 13.26 109.113 13.5C108.753 13.74 108.573 14.0867 108.573 14.54C108.573 14.9267 108.693 15.24 108.933 15.48C109.173 15.72 109.486 15.9267 109.873 16.1C110.273 16.2733 110.706 16.44 111.173 16.6C111.653 16.76 112.126 16.94 112.593 17.14C113.073 17.34 113.506 17.6 113.893 17.92C114.293 18.24 114.613 18.6533 114.853 19.16C115.093 19.6533 115.213 20.2667 115.213 21C115.213 22.3067 114.753 23.3333 113.833 24.08C112.913 24.8267 111.653 25.2 110.053 25.2ZM121.542 25.2C120.568 25.2 119.688 24.98 118.902 24.54C118.128 24.0867 117.508 23.48 117.042 22.72C116.588 21.9467 116.362 21.0867 116.362 20.14C116.362 19.1933 116.588 18.3467 117.042 17.6C117.495 16.84 118.115 16.24 118.902 15.8C119.688 15.3467 120.562 15.12 121.522 15.12C122.508 15.12 123.388 15.3467 124.162 15.8C124.948 16.24 125.568 16.84 126.022 17.6C126.475 18.3467 126.702 19.1933 126.702 20.14C126.702 21.0867 126.475 21.9467 126.022 22.72C125.568 23.48 124.948 24.0867 124.162 24.54C123.388 24.98 122.515 25.2 121.542 25.2ZM121.522 22.76C122.015 22.76 122.448 22.6533 122.822 22.44C123.208 22.2133 123.502 21.9067 123.702 21.52C123.915 21.12 124.022 20.6667 124.022 20.16C124.022 19.6533 123.915 19.2067 123.702 18.82C123.488 18.4333 123.195 18.1333 122.822 17.92C122.448 17.6933 122.015 17.58 121.522 17.58C121.042 17.58 120.615 17.6933 120.242 17.92C119.868 18.1333 119.575 18.4333 119.362 18.82C119.148 19.2067 119.042 19.6533 119.042 20.16C119.042 20.6667 119.148 21.12 119.362 21.52C119.575 21.9067 119.868 22.2133 120.242 22.44C120.615 22.6533 121.042 22.76 121.522 22.76ZM128.388 25V10.54H131.008V25H128.388ZM133.33 25V15.34H135.97V25H133.33ZM134.65 13.78C134.223 13.78 133.87 13.64 133.59 13.36C133.31 13.0667 133.17 12.7067 133.17 12.28C133.17 11.8667 133.31 11.5133 133.59 11.22C133.87 10.9267 134.223 10.78 134.65 10.78C135.09 10.78 135.443 10.9267 135.71 11.22C135.99 11.5133 136.13 11.8667 136.13 12.28C136.13 12.7067 135.99 13.0667 135.71 13.36C135.443 13.64 135.09 13.78 134.65 13.78ZM142.371 25.2C141.477 25.2 140.677 24.98 139.971 24.54C139.264 24.1 138.704 23.5 138.291 22.74C137.891 21.98 137.691 21.1267 137.691 20.18C137.691 19.22 137.891 18.36 138.291 17.6C138.704 16.84 139.257 16.24 139.951 15.8C140.657 15.36 141.464 15.14 142.371 15.14C143.064 15.14 143.684 15.28 144.231 15.56C144.791 15.84 145.237 16.2333 145.571 16.74C145.917 17.2333 146.104 17.7933 146.131 18.42V21.86C146.104 22.4867 145.924 23.0533 145.591 23.56C145.257 24.0667 144.811 24.4667 144.251 24.76C143.691 25.0533 143.064 25.2 142.371 25.2ZM142.811 22.78C143.304 22.78 143.731 22.6733 144.091 22.46C144.464 22.2333 144.751 21.9267 144.951 21.54C145.164 21.14 145.271 20.68 145.271 20.16C145.271 19.6533 145.164 19.2067 144.951 18.82C144.751 18.42 144.464 18.1133 144.091 17.9C143.731 17.6733 143.311 17.56 142.831 17.56C142.337 17.56 141.904 17.6733 141.531 17.9C141.171 18.1267 140.884 18.4333 140.671 18.82C140.471 19.2067 140.371 19.6533 140.371 20.16C140.371 20.68 140.471 21.14 140.671 21.54C140.884 21.9267 141.177 22.2333 141.551 22.46C141.924 22.6733 142.344 22.78 142.811 22.78ZM147.731 25H145.131V22.4L145.551 20.04L145.111 17.72V10.54H147.731V25ZM154.088 25.2C153.208 25.2 152.415 24.98 151.708 24.54C151.002 24.1 150.448 23.5 150.048 22.74C149.648 21.98 149.448 21.1267 149.448 20.18C149.448 19.22 149.648 18.36 150.048 17.6C150.448 16.84 151.002 16.24 151.708 15.8C152.415 15.36 153.208 15.14 154.088 15.14C154.782 15.14 155.402 15.28 155.948 15.56C156.495 15.84 156.928 16.2333 157.248 16.74C157.582 17.2333 157.762 17.7933 157.788 18.42V21.9C157.762 22.54 157.582 23.1067 157.248 23.6C156.928 24.0933 156.495 24.4867 155.948 24.78C155.402 25.06 154.782 25.2 154.088 25.2ZM154.568 22.78C155.302 22.78 155.895 22.54 156.348 22.06C156.802 21.5667 157.028 20.9333 157.028 20.16C157.028 19.6533 156.922 19.2067 156.708 18.82C156.508 18.42 156.222 18.1133 155.848 17.9C155.488 17.6733 155.062 17.56 154.568 17.56C154.088 17.56 153.662 17.6733 153.288 17.9C152.928 18.1133 152.642 18.42 152.428 18.82C152.228 19.2067 152.128 19.6533 152.128 20.16C152.128 20.68 152.228 21.14 152.428 21.54C152.642 21.9267 152.928 22.2333 153.288 22.46C153.662 22.6733 154.088 22.78 154.568 22.78ZM156.888 25V22.4L157.308 20.04L156.888 17.72V15.34H159.488V25H156.888ZM161.806 25V15.34H164.426V25H161.806ZM164.426 19.66L163.406 18.98C163.526 17.7933 163.873 16.86 164.446 16.18C165.02 15.4867 165.846 15.14 166.926 15.14C167.393 15.14 167.813 15.22 168.186 15.38C168.56 15.5267 168.9 15.7733 169.206 16.12L167.566 18C167.42 17.84 167.24 17.72 167.026 17.64C166.826 17.56 166.593 17.52 166.326 17.52C165.766 17.52 165.306 17.7 164.946 18.06C164.6 18.4067 164.426 18.94 164.426 19.66ZM170.127 25V15.34H172.767V25H170.127ZM171.447 13.78C171.02 13.78 170.667 13.64 170.387 13.36C170.107 13.0667 169.967 12.7067 169.967 12.28C169.967 11.8667 170.107 11.5133 170.387 11.22C170.667 10.9267 171.02 10.78 171.447 10.78C171.887 10.78 172.24 10.9267 172.507 11.22C172.787 11.5133 172.927 11.8667 172.927 12.28C172.927 12.7067 172.787 13.0667 172.507 13.36C172.24 13.64 171.887 13.78 171.447 13.78ZM179.127 25.2C178.247 25.2 177.454 24.98 176.747 24.54C176.041 24.1 175.487 23.5 175.087 22.74C174.687 21.98 174.487 21.1267 174.487 20.18C174.487 19.22 174.687 18.36 175.087 17.6C175.487 16.84 176.041 16.24 176.747 15.8C177.454 15.36 178.247 15.14 179.127 15.14C179.821 15.14 180.441 15.28 180.987 15.56C181.534 15.84 181.967 16.2333 182.287 16.74C182.621 17.2333 182.801 17.7933 182.827 18.42V21.9C182.801 22.54 182.621 23.1067 182.287 23.6C181.967 24.0933 181.534 24.4867 180.987 24.78C180.441 25.06 179.821 25.2 179.127 25.2ZM179.607 22.78C180.341 22.78 180.934 22.54 181.387 22.06C181.841 21.5667 182.067 20.9333 182.067 20.16C182.067 19.6533 181.961 19.2067 181.747 18.82C181.547 18.42 181.261 18.1133 180.887 17.9C180.527 17.6733 180.101 17.56 179.607 17.56C179.127 17.56 178.701 17.6733 178.327 17.9C177.967 18.1133 177.681 18.42 177.467 18.82C177.267 19.2067 177.167 19.6533 177.167 20.16C177.167 20.68 177.267 21.14 177.467 21.54C177.681 21.9267 177.967 22.2333 178.327 22.46C178.701 22.6733 179.127 22.78 179.607 22.78ZM181.927 25V22.4L182.347 20.04L181.927 17.72V15.34H184.527V25H181.927Z" fill="white"/>
</svg>
