<svg width="750" height="500" viewBox="0 0 750 500" fill="none" xmlns="http://www.w3.org/2000/svg">
<path d="M631.069 58.1098C619.842 61.3138 608.422 63.7988 596.879 65.5498C544.419 73.3598 423.499 90.0898 364.879 87.6898C288.799 84.5698 47.6892 1.37978 29.4792 49.2098C11.2692 97.0398 16.6192 447.48 51.9992 454.76C87.3792 462.04 212.739 404.85 286.679 402.76C360.619 400.67 537.419 456.84 610.279 460C683.139 463.16 689.579 451.68 706.729 390.33C723.879 328.98 742.089 127.2 738.879 80.4098C736.139 40.6298 658.309 50.4398 631.069 58.1098Z" fill="#5271FF"/>
<path opacity="0.7" d="M631.069 58.1098C619.842 61.3138 608.422 63.7988 596.879 65.5498C544.419 73.3598 423.499 90.0898 364.879 87.6898C288.799 84.5698 47.6892 1.37978 29.4792 49.2098C11.2692 97.0398 16.6192 447.48 51.9992 454.76C87.3792 462.04 212.739 404.85 286.679 402.76C360.619 400.67 537.419 456.84 610.279 460C683.139 463.16 689.579 451.68 706.729 390.33C723.879 328.98 742.089 127.2 738.879 80.4098C736.139 40.6298 658.309 50.4398 631.069 58.1098Z" fill="white"/>
<path opacity="0.15" d="M28.7597 218.8C41.0897 221.73 56.6697 219.52 61.4497 218.72C61.4497 225.34 61.5897 232.31 62.2397 239.56C63.0591 250.153 64.8228 260.651 67.5097 270.93C67.5097 271.05 67.5897 271.18 67.6197 271.3C65.7997 268.43 60.4297 260.59 59.9997 260C53.2297 252.17 35.5397 241 24.8697 245.55C17.1797 248.82 14.9297 258.02 18.7897 265.04C22.7297 272.21 32.1697 275.76 39.7897 276.88C48.4197 278.13 66.5797 272.88 68.0197 272.44C70.9949 282.86 74.6631 293.069 78.9997 303C81.4997 308.78 84.1997 314.53 86.9997 320.25C85.3497 317.83 83.8497 315.67 83.6097 315.39C76.8297 307.56 59.1397 296.39 48.4697 300.95C40.7897 304.21 38.5397 313.42 42.3997 320.44C46.3397 327.61 55.7697 331.16 63.3997 332.27C71.0297 333.38 86.7397 329.27 90.8497 328.06C91.9297 330.25 92.9997 332.45 94.0897 334.63C99.3497 345.1 104.64 355.52 109.52 365.91C111.24 369.57 112.8 373.23 114.38 376.91C112.9 374.75 111.64 372.91 111.38 372.7C104.61 364.87 86.9197 353.7 76.2497 358.25C68.5697 361.52 66.3097 370.72 70.1697 377.74C74.1697 384.92 83.5497 388.46 91.1697 389.58C98.5797 390.66 112.99 386.93 117.87 385.58C119.37 389.38 120.87 393.18 122.16 396.93C122.98 399.51 123.95 401.93 124.62 404.58C125.29 407.23 126.06 409.75 126.78 412.29C127.96 417.24 129.22 422.35 130.26 427.21C131.01 430.58 131.65 433.81 132.32 437.07C130.65 433.4 127.23 426.3 126.87 425.74C121.37 416.98 105.57 403.28 94.3397 406.15C86.2397 408.21 82.6197 416.96 85.3397 424.49C88.1497 432.18 96.9397 437.11 104.34 439.37C112.48 441.86 130.5 439.59 132.75 439.29C133.83 444.67 134.83 449.92 135.69 454.89C136.41 458.97 137.076 462.887 137.69 466.64H145C144.26 462.513 143.443 458.18 142.55 453.64C141.47 448.16 140.21 442.34 138.87 436.37C144.294 434.195 149.586 431.704 154.72 428.91C160.65 435.34 175.85 442.91 177.82 443.81C175.75 448.9 173.69 453.81 171.67 458.45C170.44 461.29 169.23 464 168.04 466.65H175.71C176.47 464.84 177.23 463.01 178 461.12C180.12 455.96 182.29 450.41 184.46 444.69C186.64 445.14 204.46 448.77 212.8 446.89C220.34 445.19 229.47 440.89 232.8 433.46C236.1 426.16 233.14 417.16 225.23 414.46C214.23 410.77 197.46 423.25 191.32 431.58C190.96 432.07 187.62 437.84 185.57 441.52C186.45 439.18 187.32 436.91 188.19 434.52C189.94 429.74 191.55 424.92 193.3 419.73C194.06 417.197 194.826 414.64 195.6 412.06C196.42 409.52 196.96 406.72 197.66 404.06C199.16 397.79 200.37 391.36 201.44 384.85C205.63 386.37 220.59 391.58 228.34 391.03C236.09 390.48 245.72 387.66 250.19 380.8C254.56 374.09 253 364.74 245.58 360.91C235.27 355.6 216.8 365.39 209.47 372.7C209.01 373.15 204.33 378.98 201.83 382.23C202.44 378.32 203.08 374.41 203.57 370.43C205 358.94 206.08 347.26 207.22 335.61C207.56 332.05 207.95 328.5 208.33 324.94C209.81 325.5 227.45 332.07 236.13 331.46C243.84 330.92 253.52 328.08 257.98 321.23C262.44 314.38 260.8 305.16 253.37 301.34C243.07 296.02 224.6 305.82 217.26 313.12C216.71 313.67 210 322.12 208.39 324.29C209.22 316.46 210.12 308.66 211.31 301.02C212.875 290.679 215.109 280.451 218 270.4C218.69 270.66 237.07 277.6 246 276.98C253.71 276.44 263.39 273.6 267.85 266.74C272.22 260.03 270.66 250.68 263.24 246.86C252.94 241.54 234.47 251.34 227.13 258.64C226.65 259.12 221.53 265.51 219.13 268.64L218.54 268.34C221.72 258.307 225.789 248.579 230.7 239.27C233.34 234.11 236.15 229.33 238.99 224.73C242.28 226.38 257.4 233.73 265.46 234.04C273.19 234.35 283.11 232.6 288.31 226.27C293.51 219.94 292.87 210.62 285.91 206C276.25 199.58 256.82 207.29 248.72 213.74C248.42 213.99 246.38 216 244.19 218.2C244.19 217.72 244.19 217.2 244.19 216.52C244.51 216.02 244.84 215.52 245.19 215.02C250.04 207.72 254.93 201.33 259.3 195.71C261.82 192.53 264.16 189.71 266.37 187.09C270.44 187.01 286.84 186.52 294.02 183.15C301.02 179.86 309.02 173.73 310.71 165.73C312.37 157.89 307.54 149.73 299.24 148.84C287.71 147.6 274.02 163.39 269.8 172.84C269.44 173.66 265.22 187.09 265.43 187.09H265.68C263.5 189.56 261.19 192.24 258.68 195.22C254.2 200.73 249.18 206.99 244.19 214.17C244.09 203.02 242.12 179.87 227.41 178.47C207.98 176.62 202.41 198.81 214.46 210.84C222.89 219.27 234.03 220.42 239.95 220.36C236.22 225.91 232.48 231.89 228.95 238.36C223.791 247.649 219.467 257.377 216.03 267.43C216.03 267.54 215.97 267.67 215.93 267.79C215.99 264.4 215.84 254.9 215.74 254.17C214.41 243.9 205.81 224.85 194.41 222.74C186.2 221.22 179.24 227.66 178.59 235.65C177.92 243.8 183.83 251.96 189.59 257.12C196.09 262.92 214.14 268.55 215.59 268.99C212.349 279.305 209.804 289.825 207.97 300.48C206.86 306.69 205.97 312.97 205.09 319.28C205.09 316.34 204.99 313.71 204.94 313.35C203.61 303.08 195 284.03 183.61 281.92C175.39 280.4 168.44 286.83 167.78 294.82C167.11 302.98 173.03 311.14 178.78 316.29C184.53 321.44 199.92 326.62 203.98 327.92C203.69 330.34 203.36 332.76 203.07 335.18C201.68 346.82 200.35 358.43 198.68 369.79C198.1 373.79 197.38 377.71 196.68 381.63C196.68 379.02 196.59 376.82 196.54 376.49C195.21 366.22 186.61 347.17 175.21 345.06C166.99 343.55 160.04 349.98 159.38 357.97C158.72 366.12 164.63 374.29 170.38 379.44C175.96 384.44 190.03 389.26 194.86 390.83C194.01 394.83 193.17 398.83 192.17 402.66C191.43 405.26 190.9 407.82 190.01 410.39L187.55 418.01C185.8 422.8 184.04 427.75 182.22 432.38C180.98 435.6 179.74 438.66 178.5 441.74C179.13 437.74 180.19 429.95 180.21 429.29C180.085 420.182 177.627 411.258 173.07 403.37C173.099 402.366 173.036 401.362 172.88 400.37C171.6 392.46 164.17 386.58 156.1 388.73C144.9 391.73 137.79 411.38 137.26 421.73C137.26 422.34 137.63 428.99 137.95 433.19C137.39 430.75 136.87 428.38 136.26 425.88C135.08 420.88 133.77 416.01 132.37 410.72C131.596 408.193 130.823 405.64 130.05 403.06C129.33 400.48 128.24 397.85 127.34 395.22C125.28 389 122.75 383 120.05 377C124.39 376 139.73 372 145.89 367.33C152.05 362.66 158.53 354.92 158.48 346.74C158.42 338.74 151.96 331.79 143.66 332.74C132.13 333.99 122.13 352.35 120.04 362.49C119.91 363.12 119.23 370.56 118.93 374.66C117.28 371.05 115.66 367.45 113.87 363.85C108.72 353.48 103.19 343.14 97.7097 332.85C96.0297 329.69 94.3997 326.51 92.7097 323.34C94.2597 322.99 112.6 318.73 119.5 313.43C125.64 308.73 132.14 301.03 132.08 292.84C132.03 284.84 125.57 277.9 117.27 278.84C105.74 280.09 95.7397 298.45 93.6497 308.59C93.4897 309.35 92.5197 320.06 92.4097 322.8C88.7797 315.8 85.2297 308.8 82.0097 301.8C77.6074 292.312 73.8261 282.548 70.6897 272.57C71.4097 272.41 90.5697 268.06 97.6897 262.63C103.83 257.93 110.33 250.23 110.27 242.04C110.27 234.04 103.76 227.1 95.4597 228.04C83.9297 229.29 73.9297 247.65 71.8397 257.79C71.6997 258.45 70.9597 266.62 70.6897 270.51L70.0397 270.58C67.154 260.443 65.1795 250.069 64.1397 239.58C63.4897 233.82 63.1997 228.28 63.0297 222.89C66.6797 222.44 83.3497 220.22 90.2497 216.04C96.8597 212.04 104.18 205.1 105.02 196.96C105.84 188.96 100.18 181.39 91.8297 181.37C80.2397 181.37 68.2797 198.5 65.0897 208.37C64.9197 208.9 63.7597 214.54 62.9697 218.66C62.9697 216.23 62.8397 213.71 62.8497 211.38C62.8497 202.61 63.4297 194.58 63.9697 187.48C64.3197 183.48 64.7097 179.8 65.1097 176.39C68.4697 174.09 81.8697 164.62 85.9997 157.86C89.9997 151.26 93.3097 141.73 90.3097 134.12C87.3697 126.66 78.8397 122.52 71.4297 126.36C61.1297 131.68 58.4297 152.36 60.1197 162.62C60.2697 163.5 64.1197 177.04 64.3397 176.92L64.5397 176.78C64.0897 180.05 63.6397 183.56 63.2297 187.41C62.5197 194.51 61.7897 202.55 61.5797 211.35C61.5797 212.97 61.5197 214.63 61.4997 216.35C57.0797 209.54 43.1397 190.44 28.0797 194.49C9.81968 199.15 13.9997 215.29 28.7597 218.8Z" fill="black"/>
<path opacity="0.15" d="M702.159 261.93C691.979 264.36 679.159 262.53 675.159 261.87C675.159 267.34 675.039 273.1 674.499 279.09C673.822 287.835 672.37 296.502 670.159 304.99C670.159 305.09 670.089 305.19 670.059 305.29C671.569 302.93 675.999 296.45 676.389 295.99C681.989 289.53 696.599 280.32 705.389 284.07C711.739 286.76 713.599 294.36 710.389 300.16C707.179 305.96 699.339 309.02 693.019 309.94C685.899 310.94 670.899 306.63 669.709 306.27C667.24 314.853 664.2 323.262 660.609 331.44C658.549 336.22 656.319 340.97 654.029 345.7C655.399 343.7 656.639 341.91 656.829 341.7C662.429 335.23 677.039 326.03 685.829 329.77C692.179 332.47 694.039 340.07 690.829 345.87C687.619 351.67 679.829 354.72 673.459 355.64C667.089 356.56 654.189 353.13 650.799 352.17C649.899 353.97 649.019 355.79 648.119 357.59C643.779 366.23 639.399 374.85 635.379 383.42C633.949 386.42 632.669 389.47 631.379 392.5C632.589 390.72 633.629 389.23 633.809 389.02C639.409 382.55 654.019 373.35 662.809 377.09C669.159 379.79 671.019 387.39 667.809 393.19C664.599 398.99 656.809 402.04 650.439 402.96C644.319 403.85 632.439 400.77 628.439 399.65C627.199 402.79 625.949 405.93 624.899 409.03C624.219 411.16 623.419 413.17 622.899 415.34C622.379 417.51 621.709 419.61 621.119 421.71C620.119 425.8 619.119 430.02 618.239 434.03C617.619 436.82 617.089 439.49 616.539 442.17C617.919 439.17 620.739 433.29 621.039 432.82C625.589 425.58 638.629 414.27 647.909 416.64C654.589 418.34 657.579 425.57 655.309 431.79C653.039 438.01 645.729 442.21 639.619 444.08C632.899 446.13 618.009 444.26 616.159 444.01C615.259 448.46 614.439 452.79 613.729 456.89C613.129 460.27 612.589 463.5 612.099 466.6H606.099C606.713 463.18 607.379 459.596 608.099 455.85C608.989 451.33 610.029 446.52 611.099 441.59C606.619 439.795 602.248 437.739 598.009 435.43C593.109 440.74 580.549 446.95 578.919 447.74C580.629 451.94 582.339 456.01 583.999 459.83C584.999 462.17 585.999 464.41 586.999 466.6H580.799C580.179 465.106 579.549 463.583 578.909 462.03C577.159 457.77 575.369 453.19 573.579 448.46C571.769 448.84 557.039 451.83 550.169 450.28C543.939 448.87 536.399 445.35 533.609 439.19C530.819 433.03 533.319 425.73 539.859 423.53C548.939 420.48 562.789 430.79 567.859 437.67C568.159 438.08 570.859 442.84 572.599 445.88C571.879 443.94 571.159 442.07 570.439 440.07C568.989 436.12 567.659 432.14 566.219 427.86C565.593 425.773 564.959 423.66 564.319 421.52C563.639 419.42 563.199 417.11 562.619 414.89C561.379 409.71 560.379 404.4 559.499 399.02C556.039 400.28 543.679 404.58 537.289 404.13C530.899 403.68 522.929 401.34 519.289 395.68C515.649 390.02 516.959 382.42 523.099 379.25C531.599 374.87 546.859 382.96 552.919 388.99C553.299 389.36 557.159 394.18 559.229 396.86C558.719 393.63 558.229 390.41 557.789 387.12C556.609 377.62 555.709 367.98 554.789 358.36C554.499 355.41 554.179 352.48 553.869 349.54C552.649 350.01 538.069 355.43 530.869 354.93C524.499 354.48 516.509 352.14 512.819 346.48C509.129 340.82 510.499 333.21 516.629 330.05C525.129 325.66 540.389 333.75 546.449 339.78C546.909 340.24 552.449 347.18 553.779 349.01C553.089 342.54 552.349 336.1 551.359 329.79C550.067 321.25 548.227 312.803 545.849 304.5C545.269 304.72 530.089 310.45 522.749 309.93C516.379 309.49 508.389 307.15 504.699 301.48C501.009 295.81 502.369 288.2 508.499 285C517.009 280.61 532.259 288.7 538.319 294.73C538.719 295.12 542.949 300.4 544.899 302.96L545.389 302.71C542.775 294.429 539.428 286.397 535.389 278.71C533.209 274.45 530.889 270.5 528.549 266.71C525.829 268.07 513.339 274.13 506.679 274.4C500.299 274.65 492.099 273.2 487.809 267.98C483.519 262.76 484.049 255.05 489.809 251.24C497.809 245.94 513.809 252.31 520.529 257.63C520.779 257.83 522.459 259.49 524.269 261.31C524.269 260.91 524.269 260.45 524.269 259.92L523.469 258.69C519.469 252.69 515.469 247.38 511.809 242.69C509.729 240.06 507.809 237.69 505.969 235.57C502.609 235.51 489.059 235.1 483.139 232.32C477.219 229.54 470.749 224.54 469.349 217.93C467.949 211.32 471.969 204.71 478.829 203.98C488.349 202.98 499.659 215.98 503.139 223.81C503.439 224.48 506.919 235.58 506.749 235.58H506.549C508.349 237.58 510.249 239.84 512.289 242.3C515.989 246.85 520.129 252.03 524.289 257.95C524.369 248.75 525.999 229.62 538.149 228.46C554.149 226.94 558.769 245.27 548.839 255.2C541.839 262.2 532.679 263.11 527.789 263.06C530.869 267.65 533.959 272.59 536.839 277.94C541.105 285.605 544.676 293.637 547.509 301.94C547.509 302.03 547.559 302.14 547.599 302.24C547.549 299.43 547.669 291.59 547.749 290.99C548.849 282.51 555.949 266.77 565.369 264.99C572.149 263.74 577.899 269.05 578.439 275.65C578.979 282.25 574.099 289.13 569.339 293.38C563.969 298.18 549.059 302.82 547.869 303.19C550.546 311.706 552.651 320.392 554.169 329.19C555.089 334.31 555.849 339.5 556.549 344.71C556.549 342.28 556.629 340.11 556.669 339.81C557.769 331.33 564.879 315.6 574.289 313.86C581.069 312.6 586.819 317.92 587.359 324.51C587.909 331.25 583.029 337.99 578.259 342.24C573.489 346.49 560.799 350.78 557.439 351.85C557.689 353.85 557.959 355.85 558.199 357.85C559.349 367.46 560.449 377.05 561.819 386.43C562.299 389.73 562.899 392.97 563.479 396.21C563.479 394.05 563.559 392.21 563.599 391.96C564.699 383.48 571.799 367.75 581.219 366.01C587.999 364.75 593.749 370.07 594.289 376.66C594.829 383.25 589.949 390.14 585.189 394.4C580.429 398.66 568.959 402.51 564.969 403.8C565.669 407.1 566.369 410.41 567.189 413.58C567.809 415.73 568.249 417.84 568.979 419.96L570.979 426.26C572.419 430.21 573.879 434.26 575.379 438.12C576.379 440.78 577.429 443.31 578.449 445.85C577.929 442.56 577.059 436.11 577.039 435.57C577.145 428.049 579.176 420.682 582.939 414.17C582.917 413.33 582.971 412.49 583.099 411.66C584.099 405.13 590.289 400.27 596.949 402.05C606.209 404.51 612.069 420.75 612.509 429.29C612.509 429.79 612.209 435.29 611.939 438.75C612.409 436.75 612.839 434.75 613.339 432.75C614.339 428.65 615.399 424.6 616.559 420.23L618.469 413.9C619.059 411.77 619.959 409.6 620.709 407.43C622.539 402.43 624.629 397.43 626.859 392.43C623.279 391.58 610.599 388.35 605.509 384.43C600.419 380.51 594.999 374.33 594.999 367.58C594.999 360.83 600.379 355.23 607.239 355.98C616.759 356.98 625.019 372.17 626.749 380.55C626.849 381.07 627.419 387.21 627.659 390.6C629.019 387.6 630.369 384.6 631.839 381.67C636.089 373.11 640.669 364.57 645.189 356.03C646.579 353.41 647.929 350.79 649.289 348.17C648.009 347.88 632.869 344.36 627.169 339.99C622.099 336.1 616.729 329.74 616.779 322.99C616.829 316.24 622.159 310.65 629.009 311.39C638.529 312.39 646.789 327.59 648.519 335.96C648.649 336.59 649.449 345.44 649.519 347.7C652.519 341.93 655.449 336.15 658.109 330.34C661.749 322.506 664.873 314.442 667.459 306.2C666.859 306.07 651.039 302.47 645.199 297.99C640.129 294.11 634.759 287.75 634.809 280.99C634.859 274.23 640.189 268.64 647.049 269.39C656.569 270.39 664.819 285.58 666.549 293.96C666.669 294.51 667.279 301.25 667.499 304.46L668.039 304.52C670.456 296.159 672.116 287.598 672.999 278.94C673.539 274.19 673.779 269.61 673.919 265.16C670.919 264.79 657.139 262.96 651.439 259.5C645.979 256.2 639.939 250.5 639.239 243.74C638.539 236.98 643.239 230.88 650.129 230.87C659.699 230.87 669.579 245.02 672.219 253.15C672.359 253.59 673.319 258.25 673.969 261.65C673.969 259.65 674.069 257.56 674.059 255.65C674.059 248.41 673.589 241.78 673.139 235.92C672.859 232.58 672.529 229.57 672.199 226.76C669.429 224.86 658.359 217.04 654.949 211.45C651.539 205.86 648.949 198.13 651.389 191.85C653.829 185.57 660.859 182.27 666.989 185.44C675.489 189.83 677.729 206.95 676.319 215.44C676.199 216.17 672.989 227.35 672.839 227.25L672.669 227.13C673.049 229.83 673.419 232.73 673.759 235.91C674.339 241.78 674.939 248.41 675.109 255.68C675.109 257.02 675.169 258.39 675.189 259.77C678.829 254.14 690.349 238.37 702.779 241.77C717.809 245.71 714.339 259 702.159 261.93Z" fill="black"/>
<g opacity="0.3">
<path d="M679.711 52.3994V139.169H574.561V52.3994H609.801V55.9094C609.851 56.8953 610.278 57.8241 610.993 58.5041C611.709 59.1841 612.658 59.5633 613.646 59.5633C614.633 59.5633 615.582 59.1841 616.298 58.5041C617.013 57.8241 617.44 56.8953 617.491 55.9094V52.3994H636.781V55.9094C636.754 56.4295 636.833 56.9496 637.014 57.438C637.195 57.9264 637.473 58.3729 637.832 58.7504C638.191 59.1279 638.622 59.4286 639.101 59.634C639.579 59.8394 640.095 59.9453 640.616 59.9453C641.136 59.9453 641.652 59.8394 642.13 59.634C642.609 59.4286 643.041 59.1279 643.399 58.7504C643.758 58.3729 644.036 57.9264 644.217 57.438C644.398 56.9496 644.477 56.4295 644.451 55.9094V52.3994H679.711Z" stroke="black" stroke-linecap="round" stroke-linejoin="round"/>
<path d="M594.12 76.8193H580.91V90.0293H594.12V76.8193Z" stroke="black" stroke-linecap="round" stroke-linejoin="round"/>
<path d="M613.931 76.8193H600.721V90.0293H613.931V76.8193Z" stroke="black" stroke-linecap="round" stroke-linejoin="round"/>
<path d="M633.741 76.8193H620.531V90.0293H633.741V76.8193Z" stroke="black" stroke-linecap="round" stroke-linejoin="round"/>
<path d="M653.55 76.8193H640.34V90.0293H653.55V76.8193Z" stroke="black" stroke-linecap="round" stroke-linejoin="round"/>
<path d="M673.36 76.8193H660.15V90.0293H673.36V76.8193Z" stroke="black" stroke-linecap="round" stroke-linejoin="round"/>
<path d="M594.12 97.1797H580.91V110.39H594.12V97.1797Z" stroke="black" stroke-linecap="round" stroke-linejoin="round"/>
<path d="M613.931 97.1797H600.721V110.39H613.931V97.1797Z" stroke="black" stroke-linecap="round" stroke-linejoin="round"/>
<path d="M633.741 97.1797H620.531V110.39H633.741V97.1797Z" stroke="black" stroke-linecap="round" stroke-linejoin="round"/>
<path d="M653.55 97.1797H640.34V110.39H653.55V97.1797Z" stroke="black" stroke-linecap="round" stroke-linejoin="round"/>
<path d="M673.36 97.1797H660.15V110.39H673.36V97.1797Z" stroke="black" stroke-linecap="round" stroke-linejoin="round"/>
<path d="M594.12 117.54H580.91V130.75H594.12V117.54Z" stroke="black" stroke-linecap="round" stroke-linejoin="round"/>
<path d="M613.931 117.54H600.721V130.75H613.931V117.54Z" stroke="black" stroke-linecap="round" stroke-linejoin="round"/>
<path d="M633.741 117.54H620.531V130.75H633.741V117.54Z" stroke="black" stroke-linecap="round" stroke-linejoin="round"/>
<path d="M653.55 117.54H640.34V130.75H653.55V117.54Z" stroke="black" stroke-linecap="round" stroke-linejoin="round"/>
<path d="M673.36 117.54H660.15V130.75H673.36V117.54Z" stroke="black" stroke-linecap="round" stroke-linejoin="round"/>
<path d="M617.491 42.6997V55.9097C617.44 56.8956 617.013 57.8245 616.298 58.5044C615.582 59.1844 614.633 59.5636 613.646 59.5636C612.659 59.5636 611.709 59.1844 610.994 58.5044C610.278 57.8245 609.851 56.8956 609.801 55.9097V42.6997C609.851 41.7139 610.278 40.785 610.994 40.105C611.709 39.4251 612.659 39.0459 613.646 39.0459C614.633 39.0459 615.582 39.4251 616.298 40.105C617.013 40.785 617.44 41.7139 617.491 42.6997Z" fill="black" stroke="black" stroke-linecap="round" stroke-linejoin="round"/>
<path d="M644.45 42.6998V55.9098C644.477 56.4299 644.397 56.9499 644.217 57.4383C644.036 57.9267 643.758 58.3733 643.399 58.7508C643.04 59.1283 642.609 59.4289 642.13 59.6343C641.651 59.8397 641.136 59.9457 640.615 59.9457C640.095 59.9457 639.579 59.8397 639.101 59.6343C638.622 59.4289 638.19 59.1283 637.832 58.7508C637.473 58.3733 637.195 57.9267 637.014 57.4383C636.833 56.9499 636.754 56.4299 636.78 55.9098V42.6998C636.831 41.7165 637.257 40.7901 637.97 40.112C638.684 39.4338 639.631 39.0557 640.615 39.0557C641.6 39.0557 642.547 39.4338 643.26 40.112C643.974 40.7901 644.4 41.7165 644.45 42.6998Z" fill="black" stroke="black" stroke-linecap="round" stroke-linejoin="round"/>
</g>
<g opacity="0.3">
<path d="M402.49 424.9H387.92V458.64H402.49V424.9Z" stroke="black" stroke-linecap="round" stroke-linejoin="round"/>
<path d="M421.99 407.65H407.42V458.64H421.99V407.65Z" stroke="black" stroke-linecap="round" stroke-linejoin="round"/>
<path d="M441.48 385.91H426.91V458.64H441.48V385.91Z" stroke="black" stroke-linecap="round" stroke-linejoin="round"/>
<path d="M460.98 370.91H446.41V458.64H460.98V370.91Z" stroke="black" stroke-linecap="round" stroke-linejoin="round"/>
</g>
<g opacity="0.3">
<path d="M231.359 99.4542C243.504 72.7549 231.706 41.2653 205.006 29.1202C178.307 16.9751 146.817 28.7737 134.672 55.473C122.527 82.1723 134.326 113.662 161.025 125.807C187.724 137.952 219.214 126.154 231.359 99.4542Z" stroke="black" stroke-miterlimit="10"/>
<path d="M213.087 107.531C229.696 90.9223 229.696 63.9938 213.087 47.3848C196.478 30.7758 169.549 30.7758 152.94 47.3848C136.331 63.9938 136.331 90.9223 152.94 107.531C169.549 124.14 196.478 124.14 213.087 107.531Z" stroke="black" stroke-miterlimit="10"/>
<path d="M202.267 96.7125C212.901 86.0786 212.901 68.8375 202.267 58.2035C191.633 47.5695 174.392 47.5695 163.758 58.2035C153.124 68.8375 153.124 86.0785 163.758 96.7125C174.392 107.346 191.633 107.347 202.267 96.7125Z" stroke="black" stroke-miterlimit="10"/>
<path d="M193.895 88.3404C199.905 82.3302 199.905 72.5858 193.895 66.5756C187.885 60.5655 178.141 60.5655 172.13 66.5756C166.12 72.5858 166.12 82.3302 172.13 88.3404C178.141 94.3505 187.885 94.3505 193.895 88.3404Z" stroke="black" stroke-miterlimit="10"/>
<path d="M189.51 77.45C189.5 76.167 189.11 74.9157 188.391 73.8536C187.671 72.7914 186.653 71.9661 185.465 71.4815C184.277 70.9969 182.972 70.8747 181.715 71.1303C180.457 71.3859 179.304 72.0079 178.4 72.9179C177.495 73.8279 176.88 74.9852 176.632 76.2441C176.384 77.5029 176.515 78.8069 177.006 79.9919C177.498 81.1769 178.33 82.1898 179.396 82.9031C180.463 83.6163 181.717 83.998 183 84C183.858 84.0013 184.709 83.8325 185.502 83.5034C186.295 83.1742 187.015 82.6911 187.62 82.0821C188.225 81.4731 188.704 80.7502 189.028 79.9551C189.353 79.1601 189.516 78.3086 189.51 77.45Z" stroke="black" stroke-miterlimit="10"/>
</g>
<path d="M181.731 78.7399H110.301V76.1699H181.731C182.069 76.1726 182.392 76.3086 182.629 76.5483C182.867 76.7881 183.001 77.1122 183.001 77.4499C183.002 77.618 182.97 77.7847 182.907 77.9405C182.844 78.0963 182.751 78.2382 182.633 78.358C182.515 78.4778 182.375 78.5731 182.22 78.6387C182.065 78.7042 181.899 78.7386 181.731 78.7399Z" fill="#B2B2B2"/>
<path d="M103.95 68.29L104.35 68.75L111.81 76.16H89.4802L81.4902 68.29H103.95Z" fill="#B2B2B2"/>
<path d="M81.4902 86.3097L89.4902 78.7197H111.83C108.904 80.9367 106.243 83.4835 103.9 86.3097H81.4902Z" fill="#B2B2B2"/>
<path d="M706.17 466.58H734.38" stroke="#263238" stroke-linecap="round" stroke-linejoin="round"/>
<path d="M239.82 466.58H694.71" stroke="#263238" stroke-linecap="round" stroke-linejoin="round"/>
<path d="M22.0801 466.58H232.77" stroke="#263238" stroke-linecap="round" stroke-linejoin="round"/>
<path d="M496.089 402.17L498.469 420.17C498.469 420.17 501.379 442.41 502.049 447.57C502.719 452.73 502.439 466.36 502.439 466.36H492.249L492.119 447.17L492.379 414.35L496.089 402.17Z" fill="#808080" stroke="#263238" stroke-linecap="round" stroke-linejoin="round"/>
<path d="M502.489 460.82C502.489 463.98 502.439 466.36 502.439 466.36H492.249L492.199 458.3L502.489 460.82Z" fill="white" stroke="#263238" stroke-linecap="round" stroke-linejoin="round"/>
<path d="M502.47 464.25C502.47 465.12 502.47 465.78 502.47 466.11V466.25V466.35H492.25V464.24L502.47 464.25Z" fill="white" stroke="#263238" stroke-linecap="round" stroke-linejoin="round"/>
<path d="M480.999 456.57C480.999 456.57 477.159 460.41 475.309 461.2C473.459 461.99 470.549 462.26 470.149 463.2C469.915 464.376 469.872 465.581 470.019 466.77H495.299C495.662 465.525 495.795 464.223 495.689 462.93C495.579 462.11 495.357 461.31 495.029 460.55C495.029 460.55 482.589 456.44 480.999 456.57Z" fill="white" stroke="#263238" stroke-linecap="round" stroke-linejoin="round"/>
<path d="M495.299 466.76H469.999C469.933 466.056 469.906 465.348 469.919 464.64H495.699C495.625 465.357 495.491 466.066 495.299 466.76Z" fill="white" stroke="#263238" stroke-linecap="round" stroke-linejoin="round"/>
<path d="M502.579 376.631C502.579 376.631 502.439 384.701 501.249 386.951C500.059 389.201 497.679 393.041 497.679 393.041C497.679 393.041 494.629 418.041 495.159 420.441C495.689 422.841 497.409 429.041 497.279 433.441C497.149 437.841 494.899 456.201 494.899 456.201C494.899 456.201 495.559 457.391 495.429 457.791C495.299 458.191 495.029 460.571 495.029 460.571C495.029 460.571 490.929 459.911 488.029 459.111C485.654 458.396 483.317 457.558 481.029 456.601C480.746 455.79 480.701 454.916 480.899 454.081C481.299 453.161 482.359 450.511 482.359 450.511C482.359 450.511 481.959 434.891 481.959 432.251C481.959 429.611 479.839 418.081 479.839 415.701C479.839 413.321 477.329 391.221 477.719 388.701C478.109 386.181 478.389 382.351 478.389 382.351L477.719 376.351L502.579 376.631Z" fill="#A1A1A1" stroke="#263238" stroke-linecap="round" stroke-linejoin="round"/>
<path d="M488.75 396.38C488.85 403.66 489 416.89 488.81 418.98" stroke="#263238" stroke-linecap="round" stroke-linejoin="round"/>
<path d="M488.68 391.58C488.68 391.58 488.68 392.48 488.68 393.94" stroke="#263238" stroke-linecap="round" stroke-linejoin="round"/>
<path d="M489.079 421.89C489.079 421.89 489.869 427.19 490.129 433.67C490.389 440.15 489.209 453.92 489.209 453.92C489.457 454.514 489.635 455.135 489.739 455.77C489.559 456.548 489.291 457.303 488.939 458.02" stroke="#263238" stroke-linecap="round" stroke-linejoin="round"/>
<path d="M499 332.271C499 332.271 504.87 341.481 505.78 345.121C506.69 348.761 503.35 367.121 503.35 367.121C503.35 367.121 504.67 375.521 504.26 376.331C503.957 376.881 503.545 377.364 503.05 377.751H477.55C477.001 376.839 476.59 375.852 476.33 374.821C476.109 373.538 476.177 372.223 476.53 370.971C477.04 369.251 478.25 349.511 479.47 345.871C480.69 342.231 486 335.511 486 335.511L499 332.271Z" fill="#5271FF" stroke="#263238" stroke-linecap="round" stroke-linejoin="round"/>
<path d="M481.4 318.84C481.57 317.6 483.54 316.55 484.2 315.6C484.86 314.65 484.47 313.76 485 312.68C486.58 309.51 487.77 306.55 491.47 305.68C496.07 304.68 503.27 307 505.41 311.03C506.15 312.57 506.578 314.241 506.667 315.948C506.756 317.654 506.506 319.361 505.93 320.97C505.403 322.558 504.48 323.986 503.25 325.12C502.88 325.45 498.79 327.36 498.83 327.12L498.42 330.36L487 333.28L486.49 328.22C485.37 328.219 484.252 328.119 483.15 327.92C481.84 327.61 481.43 327.11 481.73 325.99C482.03 324.87 482.95 320.93 482.95 320.93C482.412 320.573 481.938 320.126 481.55 319.61C481.416 319.377 481.364 319.106 481.4 318.84Z" fill="white" stroke="#263238" stroke-linecap="round" stroke-linejoin="round"/>
<path d="M485.92 315.26C485.72 315.88 485.83 316.47 486.16 316.58C486.49 316.69 486.94 316.28 487.16 315.66C487.38 315.04 487.26 314.45 486.92 314.34C486.58 314.23 486.13 314.64 485.92 315.26Z" fill="#263238"/>
<path d="M488.649 313.69C488.521 313.18 488.207 312.735 487.769 312.443C487.331 312.151 486.8 312.032 486.279 312.11" stroke="#263238" stroke-linecap="round" stroke-linejoin="round"/>
<path d="M483.43 322.84C483.88 322.906 484.341 322.86 484.77 322.707C485.198 322.554 485.583 322.297 485.89 321.96" stroke="#263238" stroke-linecap="round" stroke-linejoin="round"/>
<path d="M498.6 323.3C499.6 321.81 499.1 318.99 497.44 318.3C495.78 317.61 493.79 320.13 493.3 319.96C492.81 319.79 494.46 316.96 494.46 316.96C493.387 316.337 492.522 315.412 491.97 314.3C491.47 312.81 494.97 311.3 495.97 311.15C496.97 311 491.49 305.67 491.49 305.67C496.09 304.67 503.29 306.99 505.43 311.02C506.171 312.56 506.598 314.232 506.688 315.938C506.777 317.644 506.526 319.351 505.95 320.96C505.423 322.548 504.501 323.976 503.27 325.11C501.927 325.903 500.514 326.572 499.05 327.11H498.85L495.97 325.11C497.037 324.844 497.971 324.201 498.6 323.3Z" fill="#263238" stroke="#263238" stroke-linecap="round" stroke-linejoin="round"/>
<path d="M485.139 336.95L481.209 342.41L479.899 371.23L477.689 376.36L474.879 367.08L480.709 341.38L484.709 334.62L485.139 336.95Z" fill="#263238" stroke="#263238" stroke-linecap="round" stroke-linejoin="round"/>
<path d="M498.83 329.13L484.76 333.79L485.27 339.45L499.94 332.67L498.83 329.13Z" fill="#5271FF" stroke="#263238" stroke-linecap="round" stroke-linejoin="round"/>
<path d="M486.479 328.221L489.208 328.021L486.988 331.361L486.479 328.221Z" fill="#263238" stroke="#263238" stroke-linecap="round" stroke-linejoin="round"/>
<path d="M448.529 339.96L462.189 329.94L468.769 356.36L466.749 358.58L448.529 339.96Z" fill="#DEDEDE" stroke="#263238" stroke-linecap="round" stroke-linejoin="round"/>
<path d="M454.499 326.2L467.449 357L479.899 371.27L472.309 377.55L460.999 360.1C460.999 360.1 446.529 341.88 446.119 340.67C445.709 339.46 454.499 326.2 454.499 326.2Z" fill="white" stroke="#263238" stroke-linecap="round" stroke-linejoin="round"/>
<path d="M478.37 358.301L470.9 355.481C470.9 355.481 468.74 352.331 468.41 351.671C468.08 351.011 464.41 349.671 463.93 349.181C463.45 348.691 461.78 346.861 461.61 347.691C461.44 348.521 461.11 349.341 461.94 349.841C462.867 350.631 463.703 351.523 464.43 352.501C464.43 352.501 460.43 352.161 460.12 353.161C459.81 354.161 460.78 356.161 460.78 356.161C461.435 356.227 462.063 356.453 462.61 356.821C463.1 357.321 464.1 359.471 465.26 359.971C466.42 360.471 470.57 360.641 470.57 360.641L475.21 364.281L478.37 358.301Z" fill="white" stroke="#263238" stroke-linecap="round" stroke-linejoin="round"/>
<path d="M473.519 356.26L471.329 355.44C471.329 355.44 469.149 360.77 469.329 360.83L471.579 361.52L473.519 356.26Z" fill="#5271FF" stroke="#263238" stroke-linecap="round" stroke-linejoin="round"/>
<path d="M502.319 344.78C502.557 345.547 502.675 346.347 502.669 347.15C502.569 349.07 497.209 371.74 496.799 373.15C496.389 374.56 493.059 375.37 492.049 375.07C491.039 374.77 471.429 362.78 471.229 362.27C471.029 361.76 472.539 356.11 473.549 355.8C474.559 355.49 487.189 360.8 487.189 360.8C487.189 360.8 487.759 346.57 488.629 344.09" fill="#5271FF"/>
<path d="M502.319 344.78C502.557 345.547 502.675 346.347 502.669 347.15C502.569 349.07 497.209 371.74 496.799 373.15C496.389 374.56 493.059 375.37 492.049 375.07C491.039 374.77 471.429 362.78 471.229 362.27C471.029 361.76 472.539 356.11 473.549 355.8C474.559 355.49 487.189 360.8 487.189 360.8C487.189 360.8 487.759 346.57 488.629 344.09" stroke="#263238" stroke-linecap="round" stroke-linejoin="round"/>
<path d="M487.799 361.01L492.349 363.44" stroke="#263238" stroke-linecap="round" stroke-linejoin="round"/>
<path d="M492.45 361.92L489.42 361.21" stroke="#263238" stroke-linecap="round" stroke-linejoin="round"/>
<path d="M289.491 143.3L293.711 162.16L306.841 158.74L308.001 162.56L288.851 174.24L284.701 164.83L289.491 143.3Z" fill="white" stroke="#263238" stroke-linecap="round" stroke-linejoin="round"/>
<path d="M270.35 136.97L257.33 143.11L260.62 173.14L282.18 173.51L288.2 159.68L289.49 143.3L279.76 138.48L270.35 136.97Z" fill="white" stroke="#263238" stroke-linecap="round" stroke-linejoin="round"/>
<path d="M266.74 139L269.41 150.37L283.23 151.26L282.34 140.34L279.76 138.46C279.76 138.46 268.74 135.68 266.74 139Z" fill="white" stroke="#263238" stroke-linecap="round" stroke-linejoin="round"/>
<path d="M281.79 114.82C284.68 115.21 287.36 116.64 288.47 119.06C290.28 122.98 288.77 126.91 289.38 127.81C289.964 128.881 290.469 129.994 290.89 131.14L288.47 132.65C288.47 132.65 285.92 137.39 285.02 137.99C284.12 138.59 280.62 136.87 280.62 136.87L278.2 141.4L270.35 134.76L273.68 128.42C273.68 128.42 270.68 122.68 272.17 119.06C273.58 115.67 277.88 114.3 281.79 114.82Z" fill="white" stroke="#263238" stroke-linecap="round" stroke-linejoin="round"/>
<path d="M288 127.699C288 128.369 287.74 128.919 287.42 128.919C287.1 128.919 286.84 128.369 286.84 127.699C286.84 127.029 287.1 126.479 287.42 126.479C287.74 126.479 288 126.999 288 127.699Z" fill="#263238"/>
<path d="M286.601 133.79C285.978 133.667 285.426 133.309 285.061 132.79L286.601 133.79Z" fill="white"/>
<path d="M286.601 133.79C285.978 133.667 285.426 133.309 285.061 132.79" stroke="#263238" stroke-linecap="round" stroke-linejoin="round"/>
<path d="M286.471 124.94C286.471 124.94 287.881 124.17 288.471 125.2L286.471 124.94Z" fill="white"/>
<path d="M286.471 124.94C286.471 124.94 287.881 124.17 288.471 125.2" stroke="#263238" stroke-linecap="round" stroke-linejoin="round"/>
<path d="M260.61 173.14C260.61 173.14 254.53 179.5 253.42 191.68C252.31 203.86 250.65 226.83 250.65 226.83L244.84 263.37L252.03 263.64L263.66 227.94L271.41 199.94L280.54 228.17L286.54 263.94L293.46 263.11L292.96 219.32L291.85 212.2C290.38 202.769 287.802 193.546 284.17 184.72L283.83 183.89L282.13 173.47L260.61 173.14Z" fill="#263238" stroke="#263238" stroke-linecap="round" stroke-linejoin="round"/>
<path d="M289.219 119.24C289.219 119.24 289.949 122.24 285.529 125.24L281.099 128.24C281.099 128.24 280.539 149 279.989 150.11C279.439 151.22 266.149 139.31 266.989 136.82C267.981 133.224 268.617 129.54 268.889 125.82C268.889 123.89 269.209 118.52 272.529 115.2C275.849 111.88 290.239 112.71 291.069 115.48C291.202 115.848 291.26 116.238 291.238 116.629C291.216 117.02 291.116 117.402 290.943 117.753C290.771 118.104 290.529 118.416 290.233 118.672C289.937 118.927 289.592 119.12 289.219 119.24Z" fill="#263238" stroke="#263238" stroke-linecap="round" stroke-linejoin="round"/>
<path d="M257.33 143.109L242.33 168.109L238.57 190.809L242.57 191.119L250.06 169.489L258.8 158.799C258.8 158.799 259.31 147.139 257.33 143.109Z" fill="white" stroke="#263238" stroke-linecap="round" stroke-linejoin="round"/>
<path d="M246.41 196.18C246.41 196.18 244.76 193.98 244.58 193.71C244.4 193.44 242.58 191.16 242.58 191.16C242.58 191.16 239.07 189.79 238.58 190.85C238.09 191.91 237.27 199.55 237.18 200.19C237.09 200.83 237.82 201.29 237.82 201.29L238.46 198.18C238.46 198.18 238.73 201.38 238.73 202.29C238.73 203.2 239.64 203.02 239.64 203.02L239.92 198.27C239.92 198.27 240.83 202.11 241.01 203.02C241.016 203.15 241.067 203.274 241.154 203.371C241.241 203.468 241.358 203.533 241.487 203.554C241.616 203.575 241.748 203.551 241.861 203.487C241.974 203.422 242.062 203.321 242.11 203.2C242.11 202.93 242.29 197.82 242.29 197.82C242.29 197.82 243.11 200.92 243.29 201.65C243.47 202.38 244.29 201.36 244.29 201.36L244.13 196.36C244.13 196.36 244.56 196.58 245.75 197.04C246.94 197.5 246.41 196.18 246.41 196.18Z" fill="white" stroke="#263238" stroke-linecap="round" stroke-linejoin="round"/>
<path d="M244.151 196.41L243.211 193.71" stroke="#263238" stroke-linecap="round" stroke-linejoin="round"/>
<path d="M306.84 158.74L308.4 154.21L311.1 151.92C311.1 151.92 311.23 149.76 312.04 149.63C312.85 149.5 313.12 149.9 312.98 151.11C312.836 151.976 312.516 152.802 312.04 153.54C312.04 153.54 313.79 152.32 314.19 153C314.59 153.68 314.46 159.73 314.06 160.54C313.66 161.35 308 162.54 308 162.54L306.84 158.74Z" fill="white" stroke="#263238" stroke-linecap="round" stroke-linejoin="round"/>
<path d="M312 153.54L310.56 155C310.56 155 310.02 160.52 310.56 160.52H314.06" fill="white"/>
<path d="M312 153.54L310.56 155C310.56 155 310.02 160.52 310.56 160.52H314.06" stroke="#263238" stroke-linecap="round" stroke-linejoin="round"/>
<path d="M244.841 263.369L242.841 268.989C242.104 270.228 241.577 271.579 241.281 272.989C241.061 274.769 247.971 273.879 249.081 273.879C250.131 273.972 251.177 273.657 252.001 272.999C252.671 272.329 252.001 263.639 252.001 263.639L244.841 263.369Z" fill="white" stroke="#263238" stroke-linecap="round" stroke-linejoin="round"/>
<path d="M293.501 263.29L295.941 268.22C295.941 268.22 301.511 270.45 301.741 271.79C301.971 273.13 301.741 273.79 300.401 274.01C299.061 274.23 284.791 274.01 284.791 274.01V269.56C284.791 268.44 286.581 264.12 286.581 264.12L293.501 263.29Z" fill="white" stroke="#263238" stroke-linecap="round" stroke-linejoin="round"/>
<path d="M321.82 401.57L318.81 404.58L198.75 310.38L201.75 307.38L321.82 401.57Z" fill="white" stroke="#263238" stroke-linecap="round" stroke-linejoin="round"/>
<path d="M198.75 401.57L201.75 404.58L321.82 310.38L318.81 307.38L198.75 401.57Z" fill="white" stroke="#263238" stroke-linecap="round" stroke-linejoin="round"/>
<path d="M324.359 279.619H320.109V466.739H324.359V279.619Z" fill="white" stroke="#263238" stroke-linecap="round" stroke-linejoin="round"/>
<path d="M203.461 279.619H199.211V466.739H203.461V279.619Z" fill="white" stroke="#263238" stroke-linecap="round" stroke-linejoin="round"/>
<path d="M201.16 306.05V310.3H320.05V306.05H201.16Z" fill="white" stroke="#263238" stroke-linecap="round" stroke-linejoin="round"/>
<path d="M201.15 402.05V406.3H320.04V402.05H201.15Z" fill="white" stroke="#263238" stroke-linecap="round" stroke-linejoin="round"/>
<path d="M303.16 401.57L300.15 404.58L180.09 310.38L183.1 307.38L303.16 401.57Z" fill="white" stroke="#263238" stroke-linecap="round" stroke-linejoin="round"/>
<path d="M180.09 401.57L183.1 404.58L303.16 310.38L300.15 307.38L180.09 401.57Z" fill="white" stroke="#263238" stroke-linecap="round" stroke-linejoin="round"/>
<path d="M182.5 306.05V310.3H301.39V306.05H182.5Z" fill="white" stroke="#263238" stroke-linecap="round" stroke-linejoin="round"/>
<path d="M182.5 402.04V406.29H301.39V402.04H182.5Z" fill="white" stroke="#263238" stroke-linecap="round" stroke-linejoin="round"/>
<path d="M182.801 279.619H178.551V466.739H182.801V279.619Z" fill="white" stroke="#263238" stroke-linecap="round" stroke-linejoin="round"/>
<path d="M305.529 279.619H301.279V466.739H305.529V279.619Z" fill="white" stroke="#263238" stroke-linecap="round" stroke-linejoin="round"/>
<path d="M331.56 274.31H171.24V282.43H331.56V274.31Z" fill="#263238" stroke="#263238" stroke-linecap="round" stroke-linejoin="round"/>
<path d="M310.211 220.68V8.87988" stroke="#263238" stroke-linecap="round" stroke-linejoin="round"/>
<path d="M435.029 135.59V8.87988" stroke="#263238" stroke-linecap="round" stroke-linejoin="round"/>
<path d="M395.929 322.45C395.929 321.45 395.989 320.45 395.929 319.45C395.438 308.852 392.816 298.461 388.219 288.9L413.999 266.3L390.359 239.38H384.179L383.639 245.27L365.709 261C356.35 253.659 345.451 248.531 333.829 246L332.239 212.64H326.059L297.999 246.39C286.311 249.267 275.438 254.789 266.219 262.53L239.309 243.1H233.129L233.999 247.1L235.709 248.1L218.329 272.1L244.579 291.1C239.727 301.957 237.401 313.773 237.779 325.66L205.189 334.75L213.779 365.57L208.629 369.25H214.809L246.969 360.25C252.38 370.485 259.964 379.414 269.189 386.41L255.569 418.53L281.909 429.71L282.369 432.52H288.549L301.999 401C313.125 403.205 324.6 402.936 335.609 400.21L349.219 425.34L346.369 431.5H352.549L383.999 414.39L367.539 384C376.261 376.746 383.329 367.711 388.269 357.5L416.479 362.5L416.849 363.67H422.999L429.299 328.4L395.929 322.45ZM318.529 358.37C311.586 358.694 304.703 356.953 298.749 353.365C292.795 349.778 288.039 344.506 285.081 338.216C282.123 331.926 281.096 324.901 282.13 318.027C283.165 311.154 286.214 304.741 290.892 299.6C295.57 294.46 301.668 290.821 308.413 289.145C315.159 287.469 322.25 287.831 328.79 290.184C335.331 292.538 341.026 296.777 345.158 302.367C349.289 307.957 351.67 314.647 351.999 321.59C352.219 326.203 351.527 330.814 349.963 335.159C348.399 339.505 345.994 343.5 342.886 346.915C339.778 350.331 336.027 353.101 331.848 355.066C327.668 357.032 323.143 358.154 318.529 358.37Z" fill="#263238" stroke="#263238" stroke-linecap="round" stroke-linejoin="round"/>
<path d="M382.09 357.47L416.85 363.68L423.15 328.41L389.76 322.41C389.76 321.41 389.81 320.41 389.76 319.41C389.269 308.812 386.647 298.421 382.05 288.86L407.82 266.22L384.18 239.3L359.53 261C350.171 253.659 339.272 248.531 327.65 246L326.06 212.64L290.28 214.34L291.8 246.34C280.1 249.229 269.22 254.768 260 262.53L233.13 243.1L212.13 272.1L238.38 291.1C233.527 301.957 231.202 313.773 231.58 325.66L199 334.76L208.62 369.26L240.78 360.26C246.186 370.51 253.77 379.452 263 386.46L249.38 418.58L282.38 432.58L295.78 401C306.906 403.205 318.38 402.936 329.39 400.21L346.33 431.5L377.84 414.44L361.36 384C370.087 376.74 377.156 367.694 382.09 357.47ZM275.57 324.93C275.24 317.985 276.976 311.099 280.559 305.142C284.143 299.184 289.412 294.423 295.701 291.461C301.99 288.498 309.017 287.467 315.892 288.498C322.767 289.529 329.182 292.575 334.326 297.252C339.47 301.928 343.112 308.025 344.79 314.772C346.469 321.518 346.109 328.611 343.757 335.153C341.405 341.695 337.165 347.392 331.575 351.525C325.985 355.657 319.294 358.039 312.35 358.37C303.038 358.812 293.932 355.538 287.034 349.267C280.137 342.996 276.013 334.241 275.57 324.93Z" fill="#5271FF" stroke="#263238" stroke-linecap="round" stroke-linejoin="round"/>
<path d="M498.53 206.55C502.452 198.57 504.721 189.879 505.2 181L533.31 174.78L526.8 145.4H520.62L520.9 146.71L499.9 151.36C495.997 142.171 490.061 133.986 482.54 127.42L494.86 102.25L467.89 89.0001H461.71L466.71 91.4401L456.07 113.18C446.315 110.562 436.088 110.22 426.18 112.18L414.26 87.0801H408.08L409.29 89.4301L387.09 100L398.73 124.55C390.764 130.564 384.267 138.309 379.73 147.2L352.09 140.71H345.91V142.95L351.4 143.8L345.25 169.97L372.51 176.38C372.355 186.095 374.324 195.726 378.28 204.6L355.28 222.7L370.12 241.56L367.69 246.32H373.86L396.51 228.49C403.791 234.602 412.325 239.04 421.51 241.49L421.32 271.34L451.38 271.54L451.56 242.54C460.905 240.739 469.754 236.954 477.51 231.44L496.79 247.01L494.37 250.01H500.55L519.44 226.64L497.31 208.75C497.72 208 498.16 207.3 498.53 206.55ZM465.35 190.32C462.786 195.559 458.726 199.92 453.683 202.851C448.641 205.783 442.842 207.153 437.021 206.788C431.199 206.424 425.617 204.342 420.979 200.805C416.341 197.267 412.856 192.434 410.965 186.917C409.074 181.399 408.862 175.444 410.355 169.806C411.848 164.168 414.98 159.099 419.354 155.24C423.729 151.382 429.149 148.907 434.929 148.129C440.71 147.351 446.591 148.305 451.83 150.87C458.854 154.309 464.224 160.397 466.76 167.795C469.295 175.193 468.788 183.296 465.35 190.32Z" fill="#263238" stroke="#263238" stroke-linecap="round" stroke-linejoin="round"/>
<path d="M471.349 231.37L494.349 249.98L513.239 226.61L491.109 208.72C491.499 207.99 491.939 207.3 492.309 206.55C496.238 198.571 498.513 189.881 498.999 181L527.109 174.78L520.599 145.43L493.729 151.43C489.826 142.241 483.89 134.056 476.369 127.49L488.689 102.32L461.709 89.0001L449.879 113.18C440.124 110.562 429.897 110.22 419.989 112.18L408.079 87.0801L380.909 100L392.549 124.55C384.583 130.564 378.086 138.309 373.549 147.2L345.909 140.71L339.039 169.97L366.299 176.38C366.144 186.095 368.113 195.726 372.069 204.6L349.069 222.7L367.659 246.32L390.299 228.49C397.58 234.602 406.114 239.04 415.299 241.49L415.109 271.34L445.169 271.54L445.349 242.54C454.717 240.725 463.584 236.916 471.349 231.37ZM406.199 164.37C408.763 159.131 412.823 154.77 417.866 151.839C422.909 148.908 428.707 147.537 434.529 147.902C440.35 148.266 445.932 150.348 450.57 153.886C455.208 157.423 458.693 162.256 460.584 167.773C462.475 173.291 462.687 179.246 461.194 184.884C459.701 190.522 456.569 195.591 452.195 199.45C447.82 203.308 442.4 205.783 436.62 206.561C430.839 207.339 424.958 206.385 419.719 203.82C412.7 200.381 407.334 194.296 404.799 186.903C402.264 179.51 402.767 171.412 406.199 164.39V164.37Z" fill="#5271FF" stroke="#263238" stroke-linecap="round" stroke-linejoin="round"/>
<path d="M560.571 263.721C560.571 263.721 552.571 269.491 552.061 269.621C551.551 269.751 547.911 270.431 547.531 271.211C547.286 271.616 547.126 272.068 547.063 272.537C546.999 273.007 547.032 273.485 547.161 273.941C547.561 274.711 572.711 273.741 572.711 273.741C573.035 272.775 573.117 271.745 572.951 270.741C572.756 269.108 572.656 267.465 572.651 265.821L560.571 263.721Z" fill="white" stroke="#263238" stroke-linecap="round" stroke-linejoin="round"/>
<path d="M573 272.311L547.07 272.511C546.941 272.984 546.973 273.487 547.16 273.941C547.56 274.711 572.71 273.741 572.71 273.741C572.869 273.279 572.966 272.798 573 272.311Z" fill="white" stroke="#263238" stroke-linecap="round" stroke-linejoin="round"/>
<path d="M623.591 262.191L622.071 266.611L616.271 271.721C616.271 271.721 615.891 273.141 616.541 273.401C617.191 273.661 628.341 273.311 628.341 273.311C629.216 272.876 630.041 272.346 630.801 271.731C631.441 271.081 636.951 263.001 636.801 262.091C636.651 261.181 633.271 258.351 633.271 258.351L623.591 262.191Z" fill="white" stroke="#263238" stroke-linecap="round" stroke-linejoin="round"/>
<path d="M630.8 271.73C631.44 271.08 636.95 263 636.8 262.09C636.553 261.524 636.184 261.019 635.72 260.61C633.72 263.97 629.94 270.35 629.08 270.84C628.22 271.33 619.52 271.7 616.23 271.84C616.16 272.16 615.98 273.2 616.52 273.42C617.06 273.64 628.32 273.33 628.32 273.33C629.204 272.891 630.036 272.354 630.8 271.73Z" fill="white" stroke="#263238" stroke-linecap="round" stroke-linejoin="round"/>
<path d="M581.46 198.45C581.057 199.687 580.723 200.946 580.46 202.22C580.46 202.74 580.6 204.42 580.6 204.42C580.6 204.42 563.9 224.53 562.88 226.48C561.86 228.43 561.47 261.9 561.47 261.9C561.47 261.9 559.91 262.3 559.92 262.82C559.879 263.343 559.796 263.861 559.67 264.37C561.336 265.36 563.078 266.216 564.88 266.93C566.88 267.56 572.02 268.43 572.02 268.43C572.403 267.615 572.617 266.73 572.65 265.83C572.65 264.53 572.23 262.2 572.23 261.83C572.23 261.46 577.32 232.74 577.32 232.74L593.65 214.46C593.65 214.46 600.81 234.63 602.24 235.79C603.67 236.95 621.63 260.28 621.63 260.28C621.63 260.28 620.34 261.07 620.99 261.45C621.77 262.216 622.442 263.084 622.99 264.03C622.99 264.03 628.18 263.21 630.24 261.9C631.556 261.009 632.621 259.793 633.33 258.37C632.644 257.172 631.896 256.011 631.09 254.89C630.44 254.12 629.52 252.83 629.52 252.83L614.4 226.75C614.4 226.75 610.68 197.47 609.62 194.75C608.56 192.03 604.89 187.75 604.89 187.75L581.46 198.45Z" fill="#A1A1A1" stroke="#263238" stroke-linecap="round" stroke-linejoin="round"/>
<path d="M580.711 201.051L606.551 189.571L604.851 187.771L581.331 197.421L580.711 201.051Z" fill="#263238" stroke="#263238" stroke-linecap="round" stroke-linejoin="round"/>
<path d="M586.402 199.711L587.072 201.781C587.072 201.781 585.782 202.571 586.072 203.211C586.643 204.023 587.315 204.759 588.072 205.401" stroke="#263238" stroke-linecap="round" stroke-linejoin="round"/>
<path d="M588.471 198.79L589.471 201.11C589.471 201.11 588.191 202.11 588.841 203.06C589.321 203.699 589.846 204.304 590.411 204.87" stroke="#263238" stroke-linecap="round" stroke-linejoin="round"/>
<path d="M589.06 208.74L588.15 207.61" stroke="#263238" stroke-linecap="round" stroke-linejoin="round"/>
<path d="M593.651 214.441L590.781 210.881" stroke="#263238" stroke-linecap="round" stroke-linejoin="round"/>
<path d="M622.74 246.37L624.92 250.12" stroke="#263238" stroke-linecap="round" stroke-linejoin="round"/>
<path d="M606.41 203.83L611.51 226.23L611.13 228.05C611.13 228.05 612.69 228.3 612.69 228.69V229.08L621.28 243.87" stroke="#263238" stroke-linecap="round" stroke-linejoin="round"/>
<path d="M569.511 254.73L568.721 260.93" stroke="#263238" stroke-linecap="round" stroke-linejoin="round"/>
<path d="M589.231 213.57L573.171 232.24C573.171 232.24 570.571 232 570.961 232.64C571.321 233.181 571.715 233.699 572.141 234.19L569.781 252.63" stroke="#263238" stroke-linecap="round" stroke-linejoin="round"/>
<path d="M563.682 166.37C563.682 166.37 565.072 179.14 566.182 180.51C567.292 181.88 578.002 192 578.002 192C578.002 192 580.162 198.33 580.252 198.79C580.342 199.25 579.702 200.04 581.252 199.79C582.802 199.54 604.352 189.54 605.082 188.79C605.737 188.046 606.117 187.101 606.162 186.11C606.018 185.365 605.672 184.673 605.162 184.11C604.494 183.511 603.782 182.962 603.032 182.47C603.032 182.47 592.882 165.54 590.652 163.47C588.422 161.4 580.292 154.36 576.602 153.66C573.774 153.219 570.911 153.055 568.052 153.17L563.682 166.37Z" fill="white" stroke="#263238" stroke-linecap="round" stroke-linejoin="round"/>
<path d="M533.941 151.821C533.172 150.652 532.334 149.529 531.431 148.461C530.901 148.041 524.921 144.681 524.921 144.681C524.921 144.681 522.921 145.101 524.391 146.151C525.862 147.45 527.202 148.89 528.391 150.451C527.467 150.161 526.521 149.95 525.561 149.821C524.821 149.821 524.561 151.501 525.351 151.711C525.992 151.885 526.623 152.096 527.241 152.341C527.241 152.341 528.921 155.071 529.761 155.491C530.533 155.786 531.346 155.962 532.171 156.011L566.001 170.001L567.781 160.341L533.941 151.821Z" fill="white" stroke="#263238" stroke-linecap="round" stroke-linejoin="round"/>
<path d="M559 148.481C557.607 146.684 555.998 145.065 554.21 143.661C551.27 141.361 541.52 144.661 540.11 152.991C540.11 152.991 538.86 156.991 540.86 159.131C542.397 160.685 544.112 162.051 545.97 163.201C545.97 163.201 549.3 167.041 549.67 166.851C550.287 166.197 550.836 165.484 551.31 164.721C551.31 164.721 556.66 167.621 557.21 167.161C558.09 165.958 558.879 164.691 559.57 163.371L562.57 165.281L566.43 153.481L561.73 152.481L559 148.481Z" fill="white" stroke="#263238" stroke-linecap="round" stroke-linejoin="round"/>
<path d="M565.601 152.57L561.381 166.57L565.271 169.39L569.091 152.63L565.601 152.57Z" fill="white" stroke="#263238" stroke-linecap="round" stroke-linejoin="round"/>
<path d="M564.91 176.471L564.15 202.081L566.12 205.911L568.75 201.321L565.9 174.931L564.91 176.471Z" fill="#5271FF" stroke="#263238" stroke-linecap="round" stroke-linejoin="round"/>
<path d="M574.731 158.08C573.572 157.728 572.359 157.589 571.151 157.67C567.021 158.07 561.211 167.31 560.841 167.5C560.471 167.69 552.721 175.1 552.721 175.1L531.311 172.1L525.311 164.79C524.344 164.396 523.416 163.91 522.541 163.34C521.891 162.79 521.691 161.51 520.871 162.16C520.051 162.81 519.601 163.64 519.871 164.28C520.251 164.892 520.719 165.445 521.261 165.92L521.821 166.75C521.821 166.75 515.281 166.38 514.821 166.8C514.361 167.22 514.181 168.01 514.531 168.23C514.881 168.45 518.601 168.9 519.941 169.23C519.941 169.3 513.081 169.43 512.941 169.81C512.801 170.19 512.731 170.88 513.011 171.02C513.291 171.16 519.201 172.16 519.201 172.16C517.615 172.358 516.045 172.666 514.501 173.08C514.443 173.155 514.401 173.24 514.377 173.332C514.353 173.423 514.348 173.519 514.362 173.612C514.376 173.705 514.409 173.795 514.459 173.876C514.508 173.956 514.574 174.025 514.651 174.08C516.473 174.185 518.299 174.185 520.121 174.08C520.121 174.08 516.421 174.86 516.711 175.29C517.001 175.72 517.141 175.86 517.421 175.93C517.701 176 528.161 177.49 528.161 177.49V177.4L529.491 177.73C529.491 177.73 554.691 186.18 555.711 186.36C556.961 186.423 558.211 186.225 559.381 185.78C560.021 185.5 570.891 176.13 570.891 176.13L570.991 175.62" fill="white"/>
<path d="M574.731 158.08C573.572 157.728 572.359 157.589 571.151 157.67C567.021 158.07 561.211 167.31 560.841 167.5C560.471 167.69 552.721 175.1 552.721 175.1L531.311 172.1L525.311 164.79C524.344 164.396 523.416 163.91 522.541 163.34C521.891 162.79 521.691 161.51 520.871 162.16C520.051 162.81 519.601 163.64 519.871 164.28C520.251 164.892 520.719 165.445 521.261 165.92L521.821 166.75C521.821 166.75 515.281 166.38 514.821 166.8C514.361 167.22 514.181 168.01 514.531 168.23C514.881 168.45 518.601 168.9 519.941 169.23C519.941 169.3 513.081 169.43 512.941 169.81C512.801 170.19 512.731 170.88 513.011 171.02C513.291 171.16 519.201 172.16 519.201 172.16C517.615 172.358 516.045 172.666 514.501 173.08C514.443 173.155 514.401 173.24 514.377 173.332C514.353 173.423 514.348 173.519 514.362 173.612C514.376 173.705 514.409 173.795 514.459 173.876C514.508 173.956 514.574 174.025 514.651 174.08C516.473 174.185 518.299 174.185 520.121 174.08C520.121 174.08 516.421 174.86 516.711 175.29C517.001 175.72 517.141 175.86 517.421 175.93C517.701 176 528.161 177.49 528.161 177.49V177.4L529.491 177.73C529.491 177.73 554.691 186.18 555.711 186.36C556.961 186.423 558.211 186.225 559.381 185.78C560.021 185.5 570.891 176.13 570.891 176.13L570.991 175.62" stroke="#263238" stroke-linecap="round" stroke-linejoin="round"/>
<path d="M571.781 174.741L578.051 170.461" stroke="#263238" stroke-linecap="round" stroke-linejoin="round"/>
<path d="M572.57 175.041L578.71 172.601" stroke="#263238" stroke-linecap="round" stroke-linejoin="round"/>
<path d="M546.121 154.44C546.121 154.44 546.711 157.37 547.521 157.39C548.331 157.41 550.921 155.93 550.921 155.93L552.981 156.72C552.981 156.72 554.061 156.13 552.881 155C551.701 153.87 551.031 154 551.141 153C551.251 152 553.581 148.83 555.141 150.7C556.153 152.093 556.836 153.696 557.141 155.39L561.691 152.49C561.691 152.49 558.091 145.24 556.441 143.94C554.791 142.64 550.441 142.13 547.371 143.43C544.301 144.73 541.431 145.77 539.981 149.98C538.531 154.19 538.421 157.98 539.361 158.13C540.301 158.28 541.831 152.87 542.231 152.36C542.631 151.85 546.121 154.44 546.121 154.44Z" fill="#263238" stroke="#263238" stroke-linecap="round" stroke-linejoin="round"/>
<path d="M548.261 160.64C548.761 161.03 549.001 161.54 548.811 161.79C548.621 162.04 548.061 161.92 547.561 161.53C547.061 161.14 546.831 160.64 547.021 160.39C547.211 160.14 547.771 160.26 548.261 160.64Z" fill="#263238"/>
<path d="M545.05 160.8C545.05 160.8 544.6 159.01 546.29 158.69" stroke="#263238" stroke-linecap="round" stroke-linejoin="round"/>
<path d="M553.441 164.281C553.648 164.161 553.827 163.998 553.966 163.804C554.106 163.609 554.202 163.388 554.249 163.153C554.297 162.919 554.294 162.677 554.241 162.444C554.187 162.211 554.086 161.992 553.941 161.801" stroke="#263238" stroke-linecap="round" stroke-linejoin="round"/>
<path d="M551.74 174.061L558.5 186.971L563.13 184.211L555.7 172.431L551.74 174.061Z" fill="white" stroke="#263238" stroke-linecap="round" stroke-linejoin="round"/>
<path d="M575 184.24C581.037 186.906 587.551 188.321 594.15 188.4" stroke="#263238" stroke-linecap="round" stroke-linejoin="round"/>
<path d="M581.551 189.49C581.551 189.49 589.761 192.01 593.921 190.49" stroke="#263238" stroke-linecap="round" stroke-linejoin="round"/>
<path d="M673.961 401.571L670.951 404.581L550.881 310.381L553.891 307.381L673.961 401.571Z" fill="white" stroke="#263238" stroke-linecap="round" stroke-linejoin="round"/>
<path d="M550.881 401.571L553.891 404.581L673.961 310.381L670.951 307.381L550.881 401.571Z" fill="white" stroke="#263238" stroke-linecap="round" stroke-linejoin="round"/>
<path d="M676.5 279.62H672.25V466.74H676.5V279.62Z" fill="white" stroke="#263238" stroke-linecap="round" stroke-linejoin="round"/>
<path d="M555.602 279.62H551.352V466.74H555.602V279.62Z" fill="white" stroke="#263238" stroke-linecap="round" stroke-linejoin="round"/>
<path d="M553.291 306.051V310.301H672.181V306.051H553.291Z" fill="white" stroke="#263238" stroke-linecap="round" stroke-linejoin="round"/>
<path d="M553.291 402.041V406.291H672.181V402.041H553.291Z" fill="white" stroke="#263238" stroke-linecap="round" stroke-linejoin="round"/>
<path d="M655.3 401.571L652.29 404.581L532.23 310.381L535.24 307.381L655.3 401.571Z" fill="white" stroke="#263238" stroke-linecap="round" stroke-linejoin="round"/>
<path d="M532.23 401.571L535.24 404.581L655.3 310.381L652.29 307.381L532.23 401.571Z" fill="white" stroke="#263238" stroke-linecap="round" stroke-linejoin="round"/>
<path d="M534.641 306.051V310.301H653.531V306.051H534.641Z" fill="white" stroke="#263238" stroke-linecap="round" stroke-linejoin="round"/>
<path d="M534.631 402.05V406.3H653.521V402.05H534.631Z" fill="white" stroke="#263238" stroke-linecap="round" stroke-linejoin="round"/>
<path d="M534.941 279.62H530.691V466.74H534.941V279.62Z" fill="white" stroke="#263238" stroke-linecap="round" stroke-linejoin="round"/>
<path d="M657.66 279.62H653.41V466.74H657.66V279.62Z" fill="white" stroke="#263238" stroke-linecap="round" stroke-linejoin="round"/>
<path d="M683.701 274.311H523.381V282.431H683.701V274.311Z" fill="#263238" stroke="#263238" stroke-linecap="round" stroke-linejoin="round"/>
<path d="M167.609 346.95L188.059 355.55L209.599 351.66L210.009 355.34L188.679 363.53L165.359 353.3L167.609 346.95Z" fill="white" stroke="#263238" stroke-linecap="round" stroke-linejoin="round"/>
<path d="M185.419 325.08C185.419 325.08 189.65 326.91 189.3 329.19C188.95 331.47 187.02 332.05 186.1 333.3C185.18 334.55 185.3 333.88 185.3 333.88L184.5 326.79C184.5 326.79 184.389 324.05 185.419 325.08Z" fill="#263238" stroke="#263238" stroke-linecap="round" stroke-linejoin="round"/>
<path d="M168.169 319.82C167.374 318.966 166.393 318.306 165.303 317.89C164.212 317.474 163.041 317.313 161.879 317.42C157.659 317.65 155.879 320.17 155.879 323.14C155.879 326.11 156.339 325.19 150.049 327.02C143.759 328.85 143.769 331.25 143.649 332.5C143.529 333.75 142.049 333.76 140.109 335.93C138.169 338.1 138.049 344.79 145.109 347.31C152.169 349.83 158.059 345.76 159.319 340.5C160.579 335.24 159.319 333.88 160.889 332.39C162.459 330.9 160.889 328.62 161.569 325.88C162.249 323.14 166.029 321.99 167.279 321.77C168.529 321.55 168.399 320.85 168.169 319.82Z" fill="#263238" stroke="#263238" stroke-linecap="round" stroke-linejoin="round"/>
<path d="M164.259 338.09C164.259 338.09 151.829 344.99 148.779 349.09C145.729 353.19 144.279 369.15 144.279 369.15L159.279 378.76C159.279 378.76 169.429 368.39 170.279 365.34C171.129 362.29 169.199 345.23 169.199 345.23L164.259 338.09Z" fill="white" stroke="#263238" stroke-linecap="round" stroke-linejoin="round"/>
<path d="M182.669 323.1C175.789 317.3 165.669 321.34 164.859 325.22C164.376 327.584 164.185 329.999 164.289 332.41L164.859 337.51L164.259 338.09L161.689 339.3L168.289 351.91L172.169 342.67C172.169 342.67 176.889 345.41 177.649 345.41C178.409 345.41 182.649 340.05 182.649 340.05C182.649 340.05 183.979 340.98 184.399 340.88C184.819 340.78 184.899 335.39 184.899 335.39C185.614 333.184 186.064 330.902 186.239 328.59C186.389 325.45 182.669 323.1 182.669 323.1Z" fill="white" stroke="#263238" stroke-linecap="round" stroke-linejoin="round"/>
<path d="M181.28 334.92C181.14 335.57 181.28 336.16 181.62 336.22C181.96 336.28 182.32 335.82 182.46 335.17C182.6 334.52 182.46 333.93 182.11 333.87C181.76 333.81 181.41 334.27 181.28 334.92Z" fill="#263238"/>
<path d="M183.999 332.849C183.902 332.625 183.759 332.422 183.58 332.255C183.401 332.088 183.189 331.96 182.958 331.879C182.727 331.799 182.481 331.767 182.237 331.786C181.993 331.805 181.755 331.874 181.539 331.989" stroke="#263238" stroke-linecap="round" stroke-linejoin="round"/>
<path d="M179.589 341.42C179.338 341.464 179.08 341.455 178.833 341.393C178.586 341.33 178.355 341.217 178.155 341.059C177.955 340.902 177.791 340.703 177.672 340.478C177.554 340.252 177.485 340.004 177.469 339.75" stroke="#263238" stroke-linecap="round" stroke-linejoin="round"/>
<path d="M186.56 327.48C186.56 327.48 189.07 325.31 183.56 321.88C178.05 318.45 171.22 317.88 167.34 320.51C165.756 321.591 164.55 323.143 163.893 324.946C163.237 326.749 163.162 328.712 163.68 330.56C164.48 333.65 163.57 335.7 165.17 336.73C166.77 337.76 171.22 335.59 171.79 333.53C172.36 331.47 172.48 330.45 174.19 330.68C175.9 330.91 176.49 333.54 176.49 333.54C176.49 333.54 180.49 330.22 182.87 329.76C184.338 329.476 185.65 328.665 186.56 327.48Z" fill="#263238" stroke="#263238" stroke-linecap="round" stroke-linejoin="round"/>
<path d="M144.279 369.109C144.279 369.109 129.279 380.749 127.919 387.749C126.559 394.749 120.759 427.489 120.759 427.489C120.759 427.489 109.299 455.999 109.299 456.799C109.299 457.599 114.109 458.599 114.109 458.599C114.109 458.599 131.319 433.539 131.919 432.739C132.519 431.939 143.149 405.099 143.149 405.099L153.489 427.999L161.489 459.559L166.699 458.559L167.229 422.559L156.999 384.849L159.249 378.719L144.279 369.109Z" fill="#263238" stroke="#263238" stroke-linecap="round" stroke-linejoin="round"/>
<path d="M116 456.64C116 456.64 118 462.24 118.53 462.72C119.06 463.2 121.88 465.44 121.72 466.24C121.56 467.04 114.05 466.72 112.29 466.56C110.53 466.4 106.69 462.08 106.21 460.8C105.73 459.52 108.61 455.36 110.05 454.4C111.49 453.44 116 456.64 116 456.64Z" fill="white" stroke="#263238" stroke-linecap="round" stroke-linejoin="round"/>
<path d="M167 456.8L171.13 460.54C171.13 460.54 178.22 463.29 178.22 463.89C178.22 464.49 176.82 465.53 172.62 466.13C168.606 466.567 164.546 466.307 160.62 465.36C159.02 464.75 161.62 459.55 161.62 459.55L167 456.8Z" fill="white" stroke="#263238" stroke-linecap="round" stroke-linejoin="round"/>
<path d="M155.119 355C155.629 357.22 156.119 356.78 158.029 358C161.859 360.48 185.439 368.18 185.439 368.18L209.679 358.11L214.499 357.11L216.109 357.48C216.416 357.518 216.726 357.494 217.024 357.409C217.321 357.325 217.598 357.183 217.839 356.99C218.329 356.62 215.739 355.5 215.739 355.5C217.1 355.574 218.465 355.534 219.819 355.38C220.819 355.13 220.929 354.15 220.429 354.15C219.929 354.15 215.859 353.65 215.859 353.65C215.859 353.65 221.049 352.17 221.299 351.8C221.549 351.43 220.799 350.56 220.059 350.56C219.319 350.56 214.629 351.3 214.629 351.3L216.109 350.19C217.45 349.825 218.737 349.287 219.939 348.59C220.051 348.523 220.141 348.425 220.2 348.309C220.259 348.193 220.283 348.062 220.271 347.932C220.258 347.802 220.209 347.679 220.129 347.576C220.049 347.473 219.942 347.395 219.819 347.35L216.819 347.72L212.249 349.45L212.739 348.22C213.437 347.656 213.917 346.868 214.099 345.99C214.229 344.76 212.869 345.99 212.869 345.99L208.789 349.82L207.679 353.82L185.999 359.75L163.999 346.53L163.259 346.28" fill="white"/>
<path d="M155.119 355C155.629 357.22 156.119 356.78 158.029 358C161.859 360.48 185.439 368.18 185.439 368.18L209.679 358.11L214.499 357.11L216.109 357.48C216.416 357.518 216.726 357.494 217.024 357.409C217.321 357.325 217.598 357.183 217.839 356.99C218.329 356.62 215.739 355.5 215.739 355.5C217.1 355.574 218.465 355.534 219.819 355.38C220.819 355.13 220.929 354.15 220.429 354.15C219.929 354.15 215.859 353.65 215.859 353.65C215.859 353.65 221.049 352.17 221.299 351.8C221.549 351.43 220.799 350.56 220.059 350.56C219.319 350.56 214.629 351.3 214.629 351.3L216.109 350.19C217.45 349.825 218.737 349.287 219.939 348.59C220.051 348.523 220.141 348.425 220.2 348.309C220.259 348.193 220.283 348.062 220.271 347.932C220.258 347.802 220.209 347.679 220.129 347.576C220.049 347.473 219.942 347.395 219.819 347.35L216.819 347.72L212.249 349.45L212.739 348.22C213.437 347.656 213.917 346.868 214.099 345.99C214.229 344.76 212.869 345.99 212.869 345.99L208.789 349.82L207.679 353.82L185.999 359.75L163.999 346.53L163.259 346.28" stroke="#263238" stroke-linecap="round" stroke-linejoin="round"/>
<path d="M153.5 357.89L161.29 362.71L170.38 350C170.38 350 162.38 344.64 161.53 344.52C160.68 344.4 157.7 343.78 155.97 346.52" fill="white"/>
<path d="M153.5 357.89L161.29 362.71L170.38 350C170.38 350 162.38 344.64 161.53 344.52C160.68 344.4 157.7 343.78 155.97 346.52" stroke="#263238" stroke-linecap="round" stroke-linejoin="round"/>
</svg>
