<svg width="500" height="500" viewBox="0 0 500 500" fill="none" xmlns="http://www.w3.org/2000/svg">
<path d="M166.191 77.9198C166.191 77.9198 90.4206 116.52 52.6306 176C14.8406 235.48 17.8306 312 63.7506 368.8C109.671 425.6 197.441 418.14 270.931 454.12C344.421 490.1 425.501 482.69 460.251 406.46C495.001 330.23 442.601 301.74 433.601 213.52C424.601 125.3 345.071 -3.88016 166.191 77.9198Z" fill="#D87CAC"/>
<path opacity="0.7" d="M166.191 77.9198C166.191 77.9198 90.4206 116.52 52.6306 176C14.8406 235.48 17.8306 312 63.7506 368.8C109.671 425.6 197.441 418.14 270.931 454.12C344.421 490.1 425.501 482.69 460.251 406.46C495.001 330.23 442.601 301.74 433.601 213.52C424.601 125.3 345.071 -3.88016 166.191 77.9198Z" fill="white"/>
<path d="M368.361 90.82C360.821 86.71 357.361 90.14 354.651 86.71C351.941 83.28 362.191 74.37 341.651 65.46C341.651 65.46 340.281 46.27 312.171 45.58C284.061 44.89 291.611 64.78 284.071 69.58C276.531 74.38 274.471 66.84 266.931 71.64C259.391 76.44 262.801 86 256.631 87.4C250.461 88.8 242.231 81.23 234.691 86.03C227.151 90.83 227.151 94.94 223.691 94.94C220.231 94.94 213.401 92.2 209.291 94.94C205.181 97.68 200.381 101.11 200.381 101.11H373.851C373.851 101.11 375.901 94.94 368.361 90.82Z" stroke="#263238" stroke-linecap="round" stroke-linejoin="round"/>
<path d="M265.771 88C264.788 88.5544 263.765 89.0357 262.711 89.44" stroke="#263238" stroke-linecap="round" stroke-linejoin="round"/>
<path d="M302.87 56C301.17 56.7591 299.675 57.914 298.511 59.3682C297.347 60.8225 296.548 62.5341 296.18 64.36C294.92 70.64 291.99 74.82 288.65 75.24C285.31 75.66 272.75 74.4 270.65 79.01C270.092 80.3574 269.699 81.7678 269.48 83.21" stroke="#263238" stroke-linecap="round" stroke-linejoin="round"/>
<path d="M199.06 140.1C195.11 137.95 193.31 139.74 191.87 137.95C190.43 136.16 195.82 131.48 185.04 126.8C185.04 126.8 184.32 116.74 169.59 116.38C154.86 116.02 158.8 126.44 154.85 129C150.9 131.56 149.85 127.56 145.85 130.08C141.85 132.6 143.7 137.63 140.46 138.35C137.22 139.07 132.91 135.11 128.96 137.63C125.01 140.15 124.96 142.3 123.21 142.3C121.46 142.3 117.82 140.86 115.66 142.3C113.5 143.74 110.99 145.53 110.99 145.53H201.92C201.92 145.53 203 142.26 199.06 140.1Z" stroke="#263238" stroke-linecap="round" stroke-linejoin="round"/>
<path d="M145.27 138.63C144.75 138.914 144.212 139.164 143.66 139.38" stroke="#263238" stroke-linecap="round" stroke-linejoin="round"/>
<path d="M164.72 121.84C163.828 122.237 163.044 122.842 162.433 123.604C161.823 124.366 161.403 125.263 161.21 126.22C160.55 129.51 159.02 131.71 157.21 131.93C155.4 132.15 148.88 131.49 147.78 133.93C147.49 134.637 147.282 135.375 147.16 136.13" stroke="#263238" stroke-linecap="round" stroke-linejoin="round"/>
<path d="M316.65 215.32C316.65 215.32 363.78 219.99 387.65 249.2C387.65 249.2 412.89 215.36 458.22 216.05C469.293 202.689 476.343 186.457 478.549 169.245C480.755 152.032 478.026 134.547 470.68 118.826C463.334 103.104 451.674 89.7921 437.056 80.4402C422.439 71.0884 405.465 66.0811 388.112 66.0015C370.759 65.9218 353.741 70.773 339.038 79.9903C324.335 89.2075 312.553 102.412 305.063 118.065C297.573 133.719 294.684 151.178 296.732 168.41C298.78 185.642 305.68 201.938 316.63 215.4L316.65 215.32Z" fill="#D87CAC"/>
<path opacity="0.5" d="M316.65 215.32C316.65 215.32 363.78 219.99 387.65 249.2C387.65 249.2 412.89 215.36 458.22 216.05C469.293 202.689 476.343 186.457 478.549 169.245C480.755 152.032 478.026 134.547 470.68 118.826C463.334 103.104 451.674 89.7921 437.056 80.4402C422.439 71.0884 405.465 66.0811 388.112 66.0015C370.759 65.9218 353.741 70.773 339.038 79.9903C324.335 89.2075 312.553 102.412 305.063 118.065C297.573 133.719 294.684 151.178 296.732 168.41C298.78 185.642 305.68 201.938 316.63 215.4L316.65 215.32Z" fill="white"/>
<path d="M386.11 72.46L384.51 432.76H392.47L386.11 72.46Z" fill="#263238"/>
<path d="M388.488 240.3C388.488 240.3 404.398 211.66 432.998 202.91C432.998 202.91 402.768 210.07 387.658 234.73L388.488 240.3Z" fill="#263238"/>
<path d="M388.488 159.16C388.488 159.16 404.398 130.53 432.998 121.78C432.998 121.78 402.768 128.94 387.658 153.59L388.488 159.16Z" fill="#263238"/>
<path d="M388.488 199.73C388.488 199.73 404.398 171.09 432.998 162.34C432.998 162.34 402.768 169.5 387.658 194.16L388.488 199.73Z" fill="#263238"/>
<path d="M386.129 179.84C386.129 179.84 370.779 151.21 343.129 142.46C343.129 142.46 372.299 149.62 386.879 174.28L386.129 179.84Z" fill="#263238"/>
<path d="M386.129 219.61C386.129 219.61 370.779 190.98 343.129 182.23C343.129 182.23 372.299 189.39 386.879 214.05L386.129 219.61Z" fill="#263238"/>
<path d="M169.159 252.67C169.159 252.67 208.159 256.54 227.969 280.73C227.969 280.73 248.869 252.73 286.409 253.28C295.583 242.214 301.425 228.769 303.254 214.512C305.083 200.255 302.825 185.771 296.741 172.748C290.658 159.724 281 148.697 268.892 140.95C256.784 133.202 242.724 129.054 228.35 128.988C213.976 128.922 199.879 132.94 187.7 140.576C175.522 148.211 165.763 159.149 159.559 172.116C153.356 185.083 150.964 199.545 152.662 213.818C154.36 228.092 160.077 241.59 169.149 252.74L169.159 252.67Z" fill="#D87CAC"/>
<path opacity="0.3" d="M169.159 252.67C169.159 252.67 208.159 256.54 227.969 280.73C227.969 280.73 248.869 252.73 286.409 253.28C295.583 242.214 301.425 228.769 303.254 214.512C305.083 200.255 302.825 185.771 296.741 172.748C290.658 159.724 281 148.697 268.892 140.95C256.784 133.202 242.724 129.054 228.35 128.988C213.976 128.922 199.879 132.94 187.7 140.576C175.522 148.211 165.763 159.149 159.559 172.116C153.356 185.083 150.964 199.545 152.662 213.818C154.36 228.092 160.077 241.59 169.149 252.74L169.159 252.67Z" fill="white"/>
<path d="M226.679 134.35L225.369 432.76H231.949L226.679 134.35Z" fill="#263238"/>
<path d="M228.66 273.36C228.66 273.36 241.83 249.64 265.55 242.36C265.55 242.36 240.55 248.29 228 268.71L228.66 273.36Z" fill="#263238"/>
<path d="M228.66 206.16C228.66 206.16 241.83 182.44 265.55 175.16C265.55 175.16 240.55 181.09 228 201.52L228.66 206.16Z" fill="#263238"/>
<path d="M228.66 239.76C228.66 239.76 241.83 216.04 265.55 208.76C265.55 208.76 240.55 214.69 228 235.12L228.66 239.76Z" fill="#263238"/>
<path d="M226.709 223.29C226.709 223.29 213.989 199.57 191.109 192.29C191.109 192.29 215.259 198.22 227.339 218.65L226.709 223.29Z" fill="#263238"/>
<path d="M226.709 256.23C226.709 256.23 213.989 232.51 191.109 225.23C191.109 225.23 215.259 231.16 227.339 251.59L226.709 256.23Z" fill="#263238"/>
<path d="M261.131 432.42C260.991 429.29 261.401 423.35 264.771 414.42C270.051 400.42 279.301 428.42 279.301 428.42C279.301 428.42 279.301 425.09 289.211 414.42C299.121 403.75 307.701 422.42 307.701 422.42C307.701 422.42 303.081 377.76 314.311 381.09C325.541 384.42 324.211 422.42 324.211 422.42C324.211 422.42 332.141 394.42 342.711 394.42C353.281 394.42 355.921 414.42 355.921 414.42C355.921 414.42 358.561 379.09 369.131 378.42C379.701 377.75 391.581 407.76 391.581 407.76C391.581 407.76 388.281 367.76 398.851 365.76C409.421 363.76 413.381 380.42 413.381 380.42C413.381 380.42 422.621 325.09 440.461 331.76C458.301 338.43 443.101 399.76 443.101 399.76C443.101 399.76 460.931 357.09 475.461 367.09C488.671 376.18 471.861 423.83 468.701 432.42H261.131Z" fill="#D87CAC"/>
<path d="M474.329 432.33C474.329 432.33 482.069 408.42 478.099 404.42C474.129 400.42 456.999 417.76 456.999 417.76C456.999 417.76 469.549 375.09 449.729 369.76C429.909 364.43 426.619 411.09 426.619 411.09C426.619 411.09 412.089 389.76 408.779 397.76C406.785 402.636 405.668 407.826 405.479 413.09C405.479 413.09 398.219 355.09 381.699 357.76C365.179 360.43 380.379 417.76 380.379 417.76C380.379 417.76 371.139 397.76 360.569 399.76C349.999 401.76 345.999 414.42 345.999 414.42C345.999 414.42 341.379 403.09 338.069 403.09C334.759 403.09 330.809 423.09 330.809 423.09C330.809 423.09 326.809 392.42 319.579 393.76C312.349 395.1 297.119 421.09 297.119 421.09C297.119 421.09 299.769 406.42 291.839 405.76C283.909 405.1 279.289 428.42 279.289 428.42C279.289 428.42 268.719 406.42 262.119 410.42C255.519 414.42 258.669 433 258.669 433" stroke="#263238" stroke-linecap="round" stroke-linejoin="round"/>
<path d="M438.67 432L444.42 403.76" stroke="#263238" stroke-linecap="round" stroke-linejoin="round"/>
<path d="M397.531 432.42L394.221 413.76" stroke="#263238" stroke-linecap="round" stroke-linejoin="round"/>
<path d="M314 432.33L318.27 417.09" stroke="#263238" stroke-linecap="round" stroke-linejoin="round"/>
<path d="M365.16 433.09L357.9 419.76" stroke="#263238" stroke-linecap="round" stroke-linejoin="round"/>
<path d="M439.8 421.09L434.51 410.42" stroke="#263238" stroke-linecap="round" stroke-linejoin="round"/>
<path d="M397.529 426.42L402.149 417.09" stroke="#263238" stroke-linecap="round" stroke-linejoin="round"/>
<path d="M361.859 425.76L365.159 419.76" stroke="#263238" stroke-linecap="round" stroke-linejoin="round"/>
<path d="M315.33 426.67L312.99 418.42" stroke="#263238" stroke-linecap="round" stroke-linejoin="round"/>
<path d="M231 432.57C231.11 430.14 230.8 425.57 228.33 418.57C224.46 407.7 217.67 429.44 217.67 429.44C217.67 429.44 217.67 426.85 210.41 418.57C203.15 410.29 196.85 424.78 196.85 424.78C196.85 424.78 200.24 390.11 192 392.7C183.76 395.29 184.74 424.78 184.74 424.78C184.74 424.78 179 403.08 171.2 403.08C163.4 403.08 161.51 418.6 161.51 418.6C161.51 418.6 159.58 391.17 151.83 390.66C144.08 390.15 135.36 413.42 135.36 413.42C135.36 413.42 137.78 382.42 130.03 380.82C122.28 379.22 119.37 392.21 119.37 392.21C119.37 392.21 112.59 349.26 99.5095 354.43C86.4295 359.6 97.5695 407.22 97.5695 407.22C97.5695 407.22 84.4895 374.1 73.8395 381.86C64.1495 388.92 76.4795 425.86 78.8395 432.57H231Z" fill="#D87CAC"/>
<path d="M74.67 432.5C74.67 432.5 69 413.94 71.9 410.84C74.8 407.74 87.4 421.19 87.4 421.19C87.4 421.19 78.2 388.07 92.73 383.93C107.26 379.79 109.73 416.01 109.73 416.01C109.73 416.01 120.39 399.45 122.81 405.66C124.275 409.464 125.093 413.486 125.23 417.56C125.23 417.56 130.56 372.56 142.67 374.61C154.78 376.66 143.67 421.19 143.67 421.19C143.67 421.19 150.45 405.66 158.2 407.19C165.95 408.72 168.86 418.57 168.86 418.57C168.86 418.57 172.25 409.77 174.67 409.77C177.09 409.77 180 425.3 180 425.3C180 425.3 182.91 401.49 188.24 402.53C193.57 403.57 204.71 423.74 204.71 423.74C204.71 423.74 202.77 412.36 208.58 411.84C214.39 411.32 217.78 429.44 217.78 429.44C217.78 429.44 225.53 412.36 230.38 415.44C235.23 418.52 232.84 433 232.84 433" stroke="#263238" stroke-linecap="round" stroke-linejoin="round"/>
<path d="M100.82 432.24L96.5996 410.32" stroke="#263238" stroke-linecap="round" stroke-linejoin="round"/>
<path d="M131 432.57L133.42 418.08" stroke="#263238" stroke-linecap="round" stroke-linejoin="round"/>
<path d="M192.259 432.5L189.119 420.67" stroke="#263238" stroke-linecap="round" stroke-linejoin="round"/>
<path d="M154.73 433.09L160.06 422.74" stroke="#263238" stroke-linecap="round" stroke-linejoin="round"/>
<path d="M100 423.77L103.87 415.49" stroke="#263238" stroke-linecap="round" stroke-linejoin="round"/>
<path d="M130.999 427.91L127.609 420.67" stroke="#263238" stroke-linecap="round" stroke-linejoin="round"/>
<path d="M157.15 427.4L154.73 422.74" stroke="#263238" stroke-linecap="round" stroke-linejoin="round"/>
<path d="M191.279 428.1L192.999 421.7" stroke="#263238" stroke-linecap="round" stroke-linejoin="round"/>
<path d="M17 432.76H494" stroke="#263238" stroke-linecap="round" stroke-linejoin="round"/>
<path d="M381.281 349.58L376.401 356.91L336.301 374.34C336.301 374.34 330.721 375.39 330.721 377.13C330.721 378.87 329.671 383.76 330.721 384.46C331.771 385.16 338.721 382.71 338.721 382.71C338.721 382.71 336.631 385.15 338.721 385.85C340.811 386.55 342.901 383.41 342.901 383.41C344.948 382.12 346.927 380.725 348.831 379.23C349.813 377.939 350.632 376.532 351.271 375.04L388.271 365.63L395.941 354.12C395.941 354.12 380.241 352.37 381.281 349.58Z" fill="#B5B5B5" stroke="#263238" stroke-linecap="round" stroke-linejoin="round"/>
<path d="M384.069 333.14L379.529 348.04L391.399 355.11L396.189 343.49L384.069 333.14Z" fill="white" stroke="#263238" stroke-linecap="round" stroke-linejoin="round"/>
<path d="M380 343.24L394.4 351.83L391.87 356.37L378.24 349.3C378.335 347.168 378.938 345.09 380 343.24Z" fill="white" stroke="#263238" stroke-linecap="round" stroke-linejoin="round"/>
<path d="M351.499 422C351.499 422 341.399 427.05 338.619 429.32C335.839 431.59 335.339 431.32 336.089 433.11H368.419L367.659 421.49L351.499 422Z" fill="white" stroke="#263238" stroke-linecap="round" stroke-linejoin="round"/>
<path d="M368.299 431.37H336.089C335.649 431.84 335.699 432.22 336.089 433.14H368.419L368.299 431.37Z" fill="white" stroke="#263238" stroke-linecap="round" stroke-linejoin="round"/>
<path d="M394.93 361.93C394.93 361.93 382.56 356.88 372.46 355.87C362.36 354.86 341.4 355.36 340.39 359.87C339.38 364.38 355.29 413.87 355.29 413.87C355.29 413.87 352.51 415.64 352.29 416.87C352.07 418.1 351.54 421.87 351.54 421.87L367.7 424.39C367.7 424.39 368.2 419.34 368.2 414.55C368.2 409.76 362.65 380.2 362.65 380.2L395.22 390.56L383.1 416.31C383.1 416.31 379.32 423.89 383.61 427.68C387.9 431.47 394.97 430.68 394.97 430.68L452.55 431.44L451.55 422.09C451.55 422.09 443.22 420.83 441.7 420.83C440.18 420.83 411.14 413.51 411.14 413.51C411.14 413.51 434.38 389.26 436.9 385.22C438.399 382.983 439.42 380.46 439.899 377.81C440.377 375.16 440.303 372.44 439.68 369.82C438.16 363.76 437.15 362.49 437.15 362.49C437.15 362.49 419.43 371 410.34 369C404.772 367.727 399.526 365.32 394.93 361.93Z" fill="#263238" stroke="#263238" stroke-linecap="round" stroke-linejoin="round"/>
<path d="M353.77 284.4C353.77 284.4 355.54 290.21 355.54 290.97C355.54 291.73 354.27 295.51 355.29 296.77C356.31 298.03 359.29 298.29 359.29 298.29C359.29 298.29 363.83 303.59 365.85 305.61C367.87 307.63 370.14 308.39 372.67 307.13C375.2 305.87 377.47 302.58 377.47 302.58L382.27 307.38L393.38 294.5L389.38 289.45C389.38 289.45 390.38 283.64 386.6 276.07C382.82 268.5 369.68 266.47 361.09 267.99C352.5 269.51 350.49 274.55 350.49 275.56C350.49 276.57 353.77 284.4 353.77 284.4Z" fill="white" stroke="#263238" stroke-linecap="round" stroke-linejoin="round"/>
<path d="M358.319 261.42C358.319 261.42 353.009 257.42 349.479 259.15C345.949 260.88 347.479 262.43 346.949 265.46C346.419 268.49 337.609 268.74 337.609 273.79C337.609 278.84 343.919 280.61 345.179 280.86C346.439 281.11 345.439 286.67 349.179 286.67C352.919 286.67 353.729 284.4 353.729 284.4C353.729 284.4 350.949 276.32 353.979 275.06C357.009 273.8 363.829 271.27 362.819 276.06C361.809 280.85 365.349 282.37 367.369 281.87C369.389 281.37 371.909 281.61 372.369 282.62C372.829 283.63 375.369 285.4 375.369 282.88C375.369 280.36 376.629 278.08 378.899 278.08C381.169 278.08 382.899 281.87 382.689 284.9C382.519 286.725 381.824 288.461 380.689 289.9L389.279 289.39C389.279 289.39 391.549 278.03 389.529 269.95C387.509 261.87 377.999 257.38 372.199 256.62C366.399 255.86 359.069 259.15 358.319 261.42Z" fill="#263238" stroke="#263238" stroke-linecap="round" stroke-linejoin="round"/>
<path d="M360.491 288.91C361.121 289.91 361.271 290.91 360.841 291.16C360.411 291.41 359.531 290.91 358.911 289.95C358.291 288.99 358.121 287.95 358.561 287.7C359.001 287.45 359.861 288 360.491 288.91Z" fill="#263238"/>
<path d="M363.77 300.25C364.976 300.01 366.07 299.378 366.88 298.452C367.69 297.526 368.172 296.358 368.25 295.13" stroke="#263238" stroke-linecap="round" stroke-linejoin="round"/>
<path d="M356.08 286.8C356.08 286.8 356.5 284.45 359.28 285.52" stroke="#263238" stroke-linecap="round" stroke-linejoin="round"/>
<path d="M382.809 311.67C382.809 311.67 380.809 328.34 383.059 333.39C385.309 338.44 393.419 358.64 393.419 358.64C393.419 358.64 391.649 371 396.699 374.3C401.749 377.6 420.939 378.09 428.269 373.54C435.599 368.99 438.619 365.46 438.619 362.18C438.619 358.9 433.819 344.5 426.249 330.11C420.706 319.571 413.054 310.286 403.769 302.83C398.469 298.54 396.449 296.52 395.439 296.52C394.429 296.52 382.309 306.88 382.809 311.67Z" fill="white" stroke="#263238" stroke-linecap="round" stroke-linejoin="round"/>
<path d="M393.419 293.24L379.779 308.64L382.559 316.98L397.959 297.03L393.419 293.24Z" fill="white" stroke="#263238" stroke-linecap="round" stroke-linejoin="round"/>
<path d="M393.671 349.55C393.671 349.55 365.891 365.46 362.361 366.73C358.831 368 347.461 367.99 344.171 367.73C343.767 367.658 343.353 367.676 342.957 367.782C342.561 367.888 342.194 368.08 341.88 368.345C341.567 368.609 341.316 368.939 341.145 369.312C340.974 369.684 340.887 370.09 340.891 370.5L340.391 380.1C340.391 380.1 343.161 380.86 344.391 380.1C345.621 379.34 346.911 376.56 346.911 376.56C346.911 376.56 351.461 377.07 352.971 376.06C353.962 375.386 354.892 374.626 355.751 373.79C360.417 373.402 365.055 372.734 369.641 371.79C374.691 370.52 397.921 362.95 401.461 362.19C405.001 361.43 406.261 359.41 406.511 358.19C406.761 356.97 393.671 349.55 393.671 349.55Z" fill="white" stroke="#263238" stroke-linecap="round" stroke-linejoin="round"/>
<path d="M362.001 366.83C358.141 367.98 347.361 367.98 344.171 367.74C343.767 367.668 343.353 367.686 342.957 367.792C342.561 367.898 342.194 368.091 341.88 368.355C341.567 368.62 341.316 368.95 341.145 369.322C340.974 369.695 340.887 370.1 340.891 370.51L340.391 380.11C340.391 380.11 343.161 380.87 344.391 380.11C345.621 379.35 346.911 376.57 346.911 376.57C346.911 376.57 351.461 377.08 352.971 376.07C353.962 375.396 354.892 374.636 355.751 373.8C355.751 373.8 359.991 373.43 364.281 372.8L362.001 366.83Z" fill="#D87CAC" stroke="#263238" stroke-linecap="round" stroke-linejoin="round"/>
<path d="M395.69 311.93C395.69 311.93 391.4 316.72 391.9 320.26C392.4 323.8 393.67 349.55 393.67 349.55L408.06 355.36L412.06 334.91C412.06 334.91 415.35 329.6 414.84 324.55" fill="white"/>
<path d="M395.69 311.93C395.69 311.93 391.4 316.72 391.9 320.26C392.4 323.8 393.67 349.55 393.67 349.55L408.06 355.36L412.06 334.91C412.06 334.91 415.35 329.6 414.84 324.55" stroke="#263238" stroke-linecap="round" stroke-linejoin="round"/>
<path d="M392.41 350.82L407.05 359.65C407.05 359.65 409.05 359.65 409.33 356.37C409.61 353.09 411.09 352.58 409.83 350.82C408.57 349.06 395.18 343.49 393.92 343.49C392.66 343.49 391.4 346.52 392.41 350.82Z" fill="white" stroke="#263238" stroke-linecap="round" stroke-linejoin="round"/>
<path d="M451.5 422.28C451.5 422.28 459.07 415.72 460.34 415.97C461.61 416.22 471.7 425.82 471.7 425.82C471.7 425.82 481.04 430.87 481.04 431.63C481.04 432.39 479.53 432.63 479.53 432.63L452.53 431.63L451.5 422.28Z" fill="white" stroke="#263238" stroke-linecap="round" stroke-linejoin="round"/>
<path d="M481 431.63C481 430.87 471.66 425.82 471.66 425.82C471.66 425.82 461.56 416.22 460.3 415.97C459.85 415.88 458.59 416.66 457.17 417.7L469.39 426.32L478.29 432.59L479.49 432.64C479.49 432.64 481 432.38 481 431.63Z" fill="white" stroke="#263238" stroke-linecap="round" stroke-linejoin="round"/>
<path d="M395.18 390.72L392.66 380.11" stroke="#999999" stroke-linecap="round" stroke-linejoin="round"/>
<path d="M307.32 348.68C304.32 346.98 299.91 344.68 299.91 344.68C299.91 344.68 293.97 329.68 289.31 322.68C284.65 315.68 281.889 314.83 276.799 314.41C271.709 313.99 256.46 318.01 255.8 319.07C255.8 319.07 241.6 325.64 238 330.31C234.4 334.98 235.66 371.21 235.66 371.21C235.66 371.21 220.42 381.53 216.4 393C213.84 400.27 216.82 412.28 230.6 415.89C235.197 417.12 240.023 417.227 244.67 416.2C248.25 419.22 252.214 421.752 256.459 423.73C270.66 430.51 279.98 431.78 288.67 432.21C297.36 432.64 306.26 429.88 307.96 428.21C309.66 426.54 313.049 419.94 304.359 410.41C296.869 402.18 274.27 393.02 268.17 390.65C268.776 387.091 269.111 383.49 269.17 379.88C269.17 379.88 282.31 364.88 283.17 361.44C284.03 358 286.17 344.06 286.17 344.06C286.17 344.06 293.38 357.21 295.5 359.11C297.62 361.01 309.91 359.54 311.18 359.54C312.45 359.54 313.09 354.03 313.09 354.03C311.478 351.937 309.528 350.129 307.32 348.68Z" fill="white" stroke="#263238" stroke-linecap="round" stroke-linejoin="round"/>
<path d="M304.359 410.36C296.869 402.13 274.27 392.97 268.17 390.6C268.36 389.49 268.52 388.41 268.64 387.39C262.937 388.65 257.016 388.53 251.37 387.04C235.26 382.8 231.87 374.11 231.87 374.11H231.75C226.94 378.01 219.11 385.24 216.4 392.97C213.84 400.24 216.82 412.25 230.6 415.86C235.197 417.09 240.023 417.196 244.67 416.17C248.25 419.19 252.214 421.722 256.459 423.7C270.66 430.48 279.98 431.75 288.67 432.18C297.36 432.61 306.26 429.85 307.96 428.18C309.66 426.51 313.049 419.89 304.359 410.36Z" fill="#696969" stroke="#263238" stroke-linecap="round" stroke-linejoin="round"/>
<path d="M224.87 394.46C224.87 394.46 232.5 385.13 242.47 388.95C277.3 402.3 286.13 417.14 288.47 423.07C290.81 429 289.95 432.19 288.05 433.46C286.15 434.73 266.22 430.07 256.68 426.68C247.14 423.29 234.42 424.98 223.61 415.87C212.8 406.76 214.5 397.87 217.89 390.22" fill="#696969"/>
<path d="M224.87 394.46C224.87 394.46 232.5 385.13 242.47 388.95C277.3 402.3 286.13 417.14 288.47 423.07C290.81 429 289.95 432.19 288.05 433.46C286.15 434.73 266.22 430.07 256.68 426.68C247.14 423.29 234.42 424.98 223.61 415.87C212.8 406.76 214.5 397.87 217.89 390.22" stroke="#263238" stroke-linecap="round" stroke-linejoin="round"/>
<path d="M313.05 354C311.446 351.928 309.51 350.137 307.32 348.7C304.32 347 299.91 344.7 299.91 344.7C299.91 344.7 298.2 340.38 295.91 335.29C293.34 337.43 289.13 341.54 287.51 346.53C289.71 350.43 293.93 357.73 295.51 359.11C297.62 361.02 309.92 359.54 311.19 359.54C312.46 359.54 313.05 354 313.05 354Z" fill="white" stroke="#263238" stroke-linecap="round" stroke-linejoin="round"/>
<path d="M286.13 344.01L285.92 332.57" stroke="#263238" stroke-linecap="round" stroke-linejoin="round"/>
<path d="M319.929 372.79C317.548 373.643 315.262 374.743 313.109 376.07C311.109 377.58 310.839 378.85 310.839 381.12C310.839 383.39 306.289 386.42 308.569 386.42C310.849 386.42 312.569 385.66 314.629 381.88C316.689 378.1 319.169 376.98 319.169 376.98C319.326 378.808 319.661 380.617 320.169 382.38C320.875 383.886 320.968 385.607 320.429 387.18C319.919 389.18 322.429 388.7 323.199 383.18C323.607 379.657 323.086 376.089 321.689 372.83L319.929 372.79Z" fill="white" stroke="#263238" stroke-linecap="round" stroke-linejoin="round"/>
<path d="M319.43 366.71C319.43 366.71 320.18 370.97 319.93 371.94C319.68 372.91 316.14 375.62 314.88 377.94C314.376 378.884 314.072 379.921 313.986 380.988C313.9 382.054 314.034 383.127 314.38 384.14C314.88 385.69 316.38 390.72 317.15 389.37C317.92 388.02 318.15 386.46 318.15 383.56C318.15 380.66 317.65 378.13 319.15 376.97L320.67 375.81C321.403 377.501 321.995 379.251 322.44 381.04C323.44 384.72 321.68 387.82 322.18 388.4C322.68 388.98 324.71 388.59 324.96 387.04C325.21 385.49 326.22 383.75 326.22 380.65C326.204 378.759 325.638 376.914 324.59 375.34C324.118 374.034 323.737 372.698 323.45 371.34C323 369 321.45 364.58 319.43 366.71Z" fill="white" stroke="#263238" stroke-linecap="round" stroke-linejoin="round"/>
<path d="M327.251 359.91C328.348 361.764 329.349 363.673 330.251 365.63C330.881 367.33 331.311 369.24 330.251 369.63C329.191 370.02 328.341 367.09 327.701 365.82C327.061 364.55 324.921 359.06 327.251 359.91Z" fill="#D87CAC" stroke="#263238" stroke-linecap="round" stroke-linejoin="round"/>
<path d="M327.249 359.91C325.979 357.16 318.769 352.91 316.859 351.86C315.529 351.11 311.279 351 308.859 350.99C308.279 350.9 307.689 350.9 307.109 350.99C307.109 350.99 303.719 353.53 303.929 356.29C304.008 357.077 304.345 357.816 304.888 358.391C305.43 358.966 306.148 359.346 306.929 359.47H307.929C307.767 360.499 307.946 361.552 308.439 362.47C310.13 365.08 311.159 368.063 311.439 371.16C311.439 373.92 314.619 372.86 315.039 370.74C315.459 368.62 314.409 364.81 314.409 363.96C314.409 363.11 316.099 360.78 316.099 360.78C316.099 360.78 320.769 365.65 321.399 366.71C322.029 367.77 322.249 373.28 323.949 373.71C325.649 374.14 325.639 370.71 325.639 370.71C325.991 370.739 326.344 370.695 326.677 370.58C327.011 370.466 327.317 370.284 327.576 370.045C327.835 369.806 328.042 369.516 328.184 369.194C328.326 368.871 328.399 368.522 328.399 368.17C328.75 365.363 328.353 362.514 327.249 359.91Z" fill="#D87CAC" stroke="#263238" stroke-linecap="round" stroke-linejoin="round"/>
<path d="M322.59 360.55C322.59 360.55 325.76 362.45 325.76 364.36C325.76 366.27 325.55 370.72 325.55 370.72" stroke="#263238" stroke-linecap="round" stroke-linejoin="round"/>
<path d="M289.1 428C289.1 431 290.79 431.39 284.22 435.42C277.65 439.45 267.69 436.69 257.94 434.57C248.19 432.45 236.53 430.75 232.08 430.75C227.63 430.75 217 432.4 213 432.4C209 432.4 202.41 431.98 203.26 429.86C204.11 427.74 214.91 424.34 215.76 423.5C216.61 422.66 216.4 420.95 218.52 417.77C219 416.898 219.776 416.227 220.708 415.878C221.64 415.53 222.666 415.527 223.6 415.87C227.344 419.3 231.996 421.581 237 422.44C245 423.71 259.67 424.34 265.4 424.34C271.13 424.34 278.33 426.89 278.96 426.89" fill="#696969"/>
<path d="M289.1 428C289.1 431 290.79 431.39 284.22 435.42C277.65 439.45 267.69 436.69 257.94 434.57C248.19 432.45 236.53 430.75 232.08 430.75C227.63 430.75 217 432.4 213 432.4C209 432.4 202.41 431.98 203.26 429.86C204.11 427.74 214.91 424.34 215.76 423.5C216.61 422.66 216.4 420.95 218.52 417.77C219 416.898 219.776 416.227 220.708 415.878C221.64 415.53 222.666 415.527 223.6 415.87C227.344 419.3 231.996 421.581 237 422.44C245 423.71 259.67 424.34 265.4 424.34C271.13 424.34 278.33 426.89 278.96 426.89" stroke="#263238" stroke-linecap="round" stroke-linejoin="round"/>
<path d="M237 422.44C232.01 421.573 227.373 419.293 223.64 415.87C222.706 415.527 221.68 415.53 220.748 415.878C219.816 416.227 219.04 416.898 218.56 417.77C216.44 420.95 216.65 422.65 215.8 423.5C214.95 424.35 204.14 427.74 203.3 429.86C202.46 431.98 209 432.4 213 432.4C217 432.4 227.63 430.7 232.08 430.7C234.392 430.764 236.699 430.955 238.99 431.27C238.99 431.08 238.91 430.89 238.86 430.7C238.24 428.06 240.02 424.61 241.01 422.97C239.54 422.81 238.17 422.63 237 422.44Z" fill="white" stroke="#263238" stroke-linecap="round" stroke-linejoin="round"/>
<path d="M223.6 415.87C222.666 415.527 221.64 415.53 220.707 415.878C219.775 416.227 218.999 416.898 218.52 417.77C216.4 420.95 216.61 422.65 215.76 423.5C214.91 424.35 204.1 427.74 203.26 429.86C202.95 430.61 203.59 431.14 204.71 431.52C207.2 428.85 215.11 426.63 217.32 425.02C219.53 423.41 217.88 422.86 220.21 419.68C220.79 418.937 221.512 418.318 222.335 417.858C223.157 417.398 224.063 417.106 225 417C224.08 416.34 223.6 415.87 223.6 415.87Z" stroke="#263238" stroke-linecap="round" stroke-linejoin="round"/>
<path d="M243.099 326C243.099 326 234.409 329.39 232.719 336.38C231.029 343.37 234.199 386.83 234.199 387.89C234.199 388.95 239.919 390.01 248.829 390.89C257.739 391.77 274.259 391.95 274.259 391.95C274.259 391.95 281.469 395.12 282.949 395.12C284.429 395.12 287.609 393.22 287.609 393.22C287.609 393.22 287.189 395.12 288.879 394.7C290.569 394.28 296.299 389.61 296.299 388.77C296.299 387.93 292.489 383.89 290.159 383.47C287.829 383.05 277.439 387.07 276.379 387.07C275.319 387.07 256.879 383.07 253.489 381.56C250.793 380.467 248.031 379.545 245.219 378.8L246.709 342.14" fill="white"/>
<path d="M243.099 326C243.099 326 234.409 329.39 232.719 336.38C231.029 343.37 234.199 386.83 234.199 387.89C234.199 388.95 239.919 390.01 248.829 390.89C257.739 391.77 274.259 391.95 274.259 391.95C274.259 391.95 281.469 395.12 282.949 395.12C284.429 395.12 287.609 393.22 287.609 393.22C287.609 393.22 287.189 395.12 288.879 394.7C290.569 394.28 296.299 389.61 296.299 388.77C296.299 387.93 292.489 383.89 290.159 383.47C287.829 383.05 277.439 387.07 276.379 387.07C275.319 387.07 256.879 383.07 253.489 381.56C250.793 380.467 248.031 379.545 245.219 378.8L246.709 342.14" stroke="#263238" stroke-linecap="round" stroke-linejoin="round"/>
<path d="M290.159 383.44C287.819 383.01 277.439 387.04 276.379 387.04C275.319 387.04 256.879 383.04 253.489 381.53C250.793 380.436 248.031 379.514 245.219 378.77L246.029 358.68L232.539 358.16C233.109 372.05 234.199 387.27 234.199 387.89C234.199 388.95 239.919 390.01 248.829 390.89C257.739 391.77 274.259 391.95 274.259 391.95C274.259 391.95 281.469 395.12 282.949 395.12C284.429 395.12 287.609 393.22 287.609 393.22C287.609 393.22 287.189 395.12 288.879 394.7C290.569 394.28 296.299 389.61 296.299 388.77C296.299 387.93 292.489 383.86 290.159 383.44Z" fill="white" stroke="#263238" stroke-linecap="round" stroke-linejoin="round"/>
<path d="M296.301 388.74C296.301 387.89 292.491 383.86 290.161 383.44C287.831 383.02 277.441 387.04 276.381 387.04C276.051 387.04 274.031 386.65 271.301 386.04C270.301 387.04 269.351 388.76 269.671 391.8L274.261 391.89C274.261 391.89 281.471 395.06 282.951 395.06C284.431 395.06 287.611 393.16 287.611 393.16C287.611 393.16 287.191 395.06 288.881 394.64C290.571 394.22 296.301 389.58 296.301 388.74Z" fill="#D87CAC" stroke="#263238" stroke-linecap="round" stroke-linejoin="round"/>
<path d="M250.1 284.45C250.1 284.45 242.04 278.1 238.86 280.22C235.68 282.34 222.33 299.29 221.06 303.95C219.79 308.61 226.78 309.68 224.24 313.49C221.7 317.3 216.82 318.79 218.73 323.49C220.64 328.19 228.27 328.58 229.96 329.64C231.65 330.7 234.41 334.73 240.56 333.03C246.71 331.33 245.43 323.49 250.1 322.43C254.77 321.37 254.34 315.02 252.22 309.93C250.1 304.84 248.83 297.85 251.37 294.67C253.91 291.49 250.1 284.45 250.1 284.45Z" fill="#263238" stroke="#263238" stroke-linecap="round" stroke-linejoin="round"/>
<path d="M254.8 280.09C254.8 280.09 248.3 280.46 245.23 288.58C242.16 296.7 245.23 308.8 246.13 310.79C247.03 312.78 251.73 314.79 254.62 313.13C257.51 311.47 261.48 305.19 264.36 303.56C267.24 301.93 273.03 295.08 273.03 295.08L277.18 300.31C277.18 300.31 279.89 299.95 280.97 294.72C282.05 289.49 278.09 283.89 271.59 280.64C265.09 277.39 258.05 277.57 254.8 280.09Z" fill="#263238" stroke="#263238" stroke-linecap="round" stroke-linejoin="round"/>
<path d="M253.91 316.67C253.91 316.67 254.12 323.03 255.61 325.79C257.1 328.55 260.91 340.79 265.78 341.26C270.65 341.73 270.44 324.09 270.44 324.09C270.44 324.09 264.72 324.3 261.33 320.7C257.94 317.1 254.34 315 253.91 316.67Z" stroke="#263238" stroke-linecap="round" stroke-linejoin="round"/>
<path d="M273.75 289.84C273.75 289.84 266.17 298.69 260.21 302.48C254.25 306.27 251.55 306.81 251.55 306.81C251.55 306.81 253.89 306.45 252.27 308.08C250.65 309.71 250.27 310.08 249.38 308.62C248.49 307.16 244.87 305.73 244.14 309.34C243.83 310.847 244.061 312.415 244.793 313.768C245.524 315.122 246.71 316.174 248.14 316.74C249.681 317.389 251.391 317.515 253.01 317.1C253.01 317.1 253.55 323.24 260.77 326.85C267.99 330.46 274.68 325.41 276.66 321.62C278.64 317.83 277.93 300.68 277.56 297.79C277.19 294.9 273.75 289.84 273.75 289.84Z" fill="white" stroke="#263238" stroke-linecap="round" stroke-linejoin="round"/>
<path d="M271.93 306.92C271.93 306.92 271.5 310.31 272.14 310.52C272.78 310.73 275.14 311.58 274.26 312.86C273.38 314.14 272.14 314.98 270.66 314.34" stroke="#263238" stroke-linecap="round" stroke-linejoin="round"/>
<path d="M262.391 317.31C262.391 317.31 264.091 320.06 270.661 318.58" stroke="#263238" stroke-linecap="round" stroke-linejoin="round"/>
<path d="M266.21 308.3C266.21 309.3 265.73 310.1 265.15 310.1C264.57 310.1 264.09 309.29 264.09 308.3C264.09 307.31 264.56 306.5 265.15 306.5C265.74 306.5 266.21 307.3 266.21 308.3Z" fill="#263238"/>
<path d="M275.319 307.24C275.319 308.24 274.849 309.04 274.259 309.04C273.669 309.04 273.199 308.23 273.199 307.24C273.199 306.25 273.669 305.44 274.259 305.44C274.849 305.44 275.319 306.24 275.319 307.24Z" fill="#263238"/>
<path d="M262 305C262.578 304.289 263.331 303.741 264.184 303.408C265.038 303.075 265.963 302.969 266.87 303.1" stroke="#263238" stroke-linecap="round" stroke-linejoin="round"/>
<path d="M272.141 302.89C272.141 302.89 273.411 300.14 276.141 302.05" stroke="#263238" stroke-linecap="round" stroke-linejoin="round"/>
<path d="M342.659 377.33C342.659 377.33 322.199 383.9 316.659 385.92C311.119 387.94 292.919 388.19 291.659 390.21C290.399 392.23 281.339 403.65 279.569 410.21C277.799 416.77 280.149 434.54 281.839 435.65C288.629 440.14 306.489 438.76 314.049 438.47C327.879 437.96 341.269 442.95 349.049 428.87C351.569 424.32 347.929 408.39 347.429 403.09C346.929 397.79 345.149 388.95 344.899 387.68C344.649 386.41 346.449 378.34 342.659 377.33Z" fill="white" stroke="#263238" stroke-linecap="round" stroke-linejoin="round"/>
<path d="M317.07 403C327.89 399.18 337.12 388 339.99 386.12C342.86 384.24 344.43 380.12 344.43 380.12C339.898 383.174 334.978 385.609 329.8 387.36" stroke="#263238" stroke-linecap="round" stroke-linejoin="round"/>
<path d="M344.129 381.94C342.083 388.257 338.467 393.952 333.619 398.49" stroke="#263238" stroke-linecap="round" stroke-linejoin="round"/>
<path d="M295.74 390.85C295.74 390.85 298.92 392.44 309.74 392.44" stroke="#263238" stroke-linecap="round" stroke-linejoin="round"/>
<path d="M294.459 391.17C294.459 391.17 297.009 402.31 311.339 406.77" stroke="#263238" stroke-linecap="round" stroke-linejoin="round"/>
<path d="M291.92 395C294.093 398.832 297.014 402.189 300.51 404.87" stroke="#263238" stroke-linecap="round" stroke-linejoin="round"/>
<path d="M90.939 341.77C90.939 341.77 96.589 357.88 96.589 364.38C96.589 370.88 101.109 406.49 101.669 410.45C102.044 412.909 102.811 415.293 103.939 417.51C107.799 421.077 112.183 424.032 116.939 426.27C125.129 430.27 124.849 429.1 123.439 430.79C122.029 432.48 109.019 432.79 103.089 432.21C97.159 431.63 91.219 433.62 90.939 431.08C90.659 428.54 90.649 418.36 90.649 413.84C90.649 409.32 78.779 387 77.369 379.92C75.959 372.84 76.519 361.84 76.519 361.84L69.459 344.84L90.939 341.77Z" fill="white" stroke="#263238" stroke-linecap="round" stroke-linejoin="round"/>
<path d="M101.999 420.34V424.34L90.7188 422.17C90.7188 425.99 90.8188 429.72 90.9788 431.17C91.2588 433.71 97.1887 431.73 103.129 432.3C109.069 432.87 122.059 432.58 123.479 430.88C124.899 429.18 125.169 430.32 116.979 426.36C112.225 424.118 107.842 421.164 103.979 417.6C103.979 417.6 101.999 417.79 101.999 420.34Z" fill="#263238" stroke="#263238" stroke-linecap="round" stroke-linejoin="round"/>
<path d="M67.7588 343.47C67.7588 343.47 68.5788 361.18 65.7588 368.34C51.6288 404.51 51.0688 418.08 51.0688 418.08C51.0688 418.08 65.2188 428.81 68.3288 430C71.4388 431.19 73.1288 431.69 71.1488 433.1C69.1688 434.51 51.3688 434.23 48.2588 434.23C45.1488 434.23 37.5188 431.97 36.6788 430.56C35.8388 429.15 38.6788 417.84 38.6788 417.84C38.6788 417.84 40.0988 389.58 40.0988 383.08C40.0988 376.58 47.1588 363.87 47.1588 361.6C47.1588 359.33 45.7488 342.39 45.7488 342.39C45.7488 342.39 62.6788 346.58 67.7588 343.47Z" fill="white" stroke="#263238" stroke-linecap="round" stroke-linejoin="round"/>
<path d="M71.1491 433.05C73.1491 431.64 71.4391 431.05 68.3291 429.95C65.2191 428.85 51.0891 418.08 51.0891 418.08C51.0891 418.08 49.6791 418.64 49.6791 420.9C49.7427 422.09 49.4465 423.271 48.8291 424.29C48.8291 424.29 44.3091 423.45 38.9391 422.29C38.4891 422.2 38.0791 422.11 37.6791 422.01C36.9491 425.38 36.1791 429.66 36.6791 430.49C37.5191 431.9 45.1491 434.16 48.2591 434.16C51.3691 434.16 69.1791 434.47 71.1491 433.05Z" fill="#263238" stroke="#263238" stroke-linecap="round" stroke-linejoin="round"/>
<path d="M91.2184 258.4L101.668 273.66L144.908 267.45V275.64C144.908 275.64 101.998 287.51 100.258 286.1C98.5184 284.69 84.1484 277.9 84.1484 277.9L91.2184 258.4Z" fill="#B5B5B5" stroke="#263238" stroke-linecap="round" stroke-linejoin="round"/>
<path d="M52.4983 238.34C52.4983 238.34 49.3883 256.43 49.3883 263.77V289.77C49.3883 289.77 40.3883 304.19 38.9383 316.9C37.4883 329.61 37.2383 343.75 37.2383 343.75C37.2383 343.75 50.8083 349.69 61.8283 348.84C68.3855 348.34 74.9008 347.391 81.3283 346L96.8683 342.33L85.2783 289.77C85.2783 289.77 90.9383 274.77 91.7783 273.95C92.6183 273.13 95.7783 262.95 94.6083 255.29C93.4383 247.63 89.2383 231.84 80.4783 227.6C71.7183 223.36 56.4583 228.45 52.4983 238.34Z" fill="#5E5E5E" stroke="#263238" stroke-linecap="round" stroke-linejoin="round"/>
<path d="M65.3793 290C64.7666 294.609 62.8281 298.942 59.7993 302.47C54.7993 308.24 50.6793 309.35 50.6793 309.35C50.6793 309.35 48.2593 332.84 49.1893 342" stroke="#263238" stroke-linecap="round" stroke-linejoin="round"/>
<path d="M67.9984 290.78C67.4965 295.113 66.1003 299.294 63.8984 303.06C60.3584 308.83 52.8984 310.88 52.8984 310.88" stroke="#263238" stroke-linecap="round" stroke-linejoin="round"/>
<path d="M85.5687 236.36C84.0887 231.31 79.7987 227.98 77.6987 226.61C71.1687 225 62.5687 227.28 57.0487 232.13C56.9487 232.73 56.8788 233.27 56.7388 233.82C56.4588 234.95 52.2188 259.53 52.2188 259.53C52.2188 259.53 53.2187 259.73 54.7787 260.01C53.2187 267.96 54.9688 281.22 54.9688 281.22C54.9688 281.22 63.3187 283.91 69.7787 283.64C76.2387 283.37 83.7787 279.64 83.7787 279.64C83.7787 277.37 85.6687 265.98 86.5587 260.74H86.9788C86.9788 260.74 87.5387 243.14 85.5687 236.36Z" fill="white" stroke="#263238" stroke-linecap="round" stroke-linejoin="round"/>
<path d="M73.8183 258.07C73.8183 258.07 63.8183 268.07 58.7383 269.64L73.8183 258.07Z" fill="white"/>
<path d="M73.8183 258.07C73.8183 258.07 63.8183 268.07 58.7383 269.64" stroke="#263238" stroke-linecap="round" stroke-linejoin="round"/>
<path d="M73.8198 263.18C73.8198 263.18 68.1598 268.3 63.5898 272.07L73.8198 263.18Z" fill="white"/>
<path d="M73.8198 263.18C73.8198 263.18 68.1598 268.3 63.5898 272.07" stroke="#263238" stroke-linecap="round" stroke-linejoin="round"/>
<path d="M95.5983 336.57C90.5974 339.239 85.0168 340.636 79.3483 340.64C79.3483 340.64 70.8683 344.32 57.5883 343.75C50.5035 343.365 43.6052 341.339 37.4383 337.83C37.2883 341.43 37.2383 343.75 37.2383 343.75C37.2383 343.75 50.8083 349.69 61.8283 348.84C68.3855 348.34 74.9008 347.391 81.3283 346L96.8683 342.33L95.5983 336.57Z" fill="white" stroke="#263238" stroke-linecap="round" stroke-linejoin="round"/>
<path d="M79.6289 346.58L80.1989 315.77" stroke="#263238" stroke-linecap="round" stroke-linejoin="round"/>
<path d="M107.609 199.06V206.4C107.609 206.4 111.279 209.23 109.019 211.21C108.11 212.125 107.06 212.889 105.909 213.47C105.909 213.47 104.499 219.97 101.389 223.08C98.2787 226.19 96.5887 225.62 92.0687 222.51C87.5487 219.4 84.7188 217.43 84.7188 217.43C84.7188 217.43 87.5387 203.58 89.5187 199.06C91.4987 194.54 97.7188 193.97 100.829 194.53C103.939 195.09 107.609 199.06 107.609 199.06Z" fill="white" stroke="#263238" stroke-linecap="round" stroke-linejoin="round"/>
<path d="M104.52 205.85C104.52 206.7 104.14 207.39 103.68 207.39C103.22 207.39 102.84 206.7 102.84 205.85C102.84 205 103.21 204.3 103.68 204.3C104.15 204.3 104.52 205 104.52 205.85Z" fill="#263238"/>
<path d="M101.85 202.2C101.85 202.2 103.4 199.68 105.5 201.78" stroke="#263238" stroke-linecap="round" stroke-linejoin="round"/>
<path d="M99.75 214C100.679 214.945 101.936 215.496 103.26 215.54" stroke="#263238" stroke-linecap="round" stroke-linejoin="round"/>
<path d="M94.9982 196.68C94.9982 196.68 89.0582 210.92 89.3582 217.75C89.6582 224.58 97.3582 244.17 94.1082 250.7C90.8582 257.23 83.9982 262 78.9982 254.26C73.9982 246.52 72.1682 244.17 68.9082 248.91C65.6482 253.65 61.7882 262.27 54.3682 262.27C46.9482 262.27 37.9982 252.48 42.4482 242.09C46.8982 231.7 56.9982 227.25 63.2282 217.16C67.8024 209.99 71.0224 202.042 72.7282 193.71L95.5782 194.6L94.9982 196.68Z" fill="#263238" stroke="#263238" stroke-linecap="round" stroke-linejoin="round"/>
<path d="M72.1289 198.16H107.749C107.749 198.16 107.749 183.02 104.749 180.65C101.749 178.28 78.3389 178.87 75.6689 180.65C72.9989 182.43 70.9989 196.38 72.1289 198.16Z" fill="#D87CAC" stroke="#263238" stroke-linecap="round" stroke-linejoin="round"/>
<path d="M96.3691 198C96.3691 198 104.679 201.26 112.099 201.26C119.519 201.26 123.379 198 123.379 198H96.3691Z" fill="#D87CAC" stroke="#263238" stroke-linecap="round" stroke-linejoin="round"/>
<path d="M154.799 266C154.799 266 157.909 265.44 157.909 267.7C157.909 269.96 154.239 269.7 151.129 268.55C148.019 267.4 152.259 266.6 154.799 266Z" fill="#B5B5B5" stroke="#263238" stroke-linecap="round" stroke-linejoin="round"/>
<path d="M155.369 268.86C155.369 268.86 158.479 268.29 158.479 270.56C158.479 272.83 154.799 272.56 151.699 271.4C148.599 270.24 152.829 269.43 155.369 268.86Z" fill="#B5B5B5" stroke="#263238" stroke-linecap="round" stroke-linejoin="round"/>
<path d="M155.94 271.69C155.94 271.69 159.04 271.12 159.04 273.38C159.04 275.64 155.37 275.38 152.26 274.23C149.15 273.08 153.39 272.25 155.94 271.69Z" fill="#B5B5B5" stroke="#263238" stroke-linecap="round" stroke-linejoin="round"/>
<path d="M155.379 274.58C155.379 274.58 158.489 274.01 158.489 276.27C158.489 278.53 154.809 278.27 151.709 277.12C148.609 275.97 152.839 275.14 155.379 274.58Z" fill="#B5B5B5" stroke="#263238" stroke-linecap="round" stroke-linejoin="round"/>
<path d="M141.799 268.86C141.799 268.86 124.279 307.29 124.279 309.86C124.279 312.43 124.279 319.18 125.979 323.14C127.679 327.1 137.849 334.44 142.369 335.29C146.889 336.14 166.109 331.62 168.369 331.05C170.629 330.48 176.569 314.66 176.279 311.55C175.989 308.44 168.649 296.55 167.519 294.6C166.389 292.65 157.069 279.9 155.939 277.6C154.809 275.3 151.409 269.41 151.409 269.41L141.799 268.86Z" fill="white" stroke="#263238" stroke-linecap="round" stroke-linejoin="round"/>
<path d="M144.908 275.64L142.648 292.32" stroke="#263238" stroke-linecap="round" stroke-linejoin="round"/>
<path d="M148.869 273.66V295.71" stroke="#263238" stroke-linecap="round" stroke-linejoin="round"/>
<path d="M151.699 271.4L159.609 296.27" stroke="#263238" stroke-linecap="round" stroke-linejoin="round"/>
<path d="M95.9985 271.12C95.9985 271.12 82.1585 236.12 78.4785 234.38C74.7985 232.64 63.8085 233 64.9385 246C66.0685 259 87.8285 286.13 90.6485 286.41C93.4685 286.69 137.849 272 137.849 272C137.849 272 152.849 274 153.959 272.28C155.069 270.56 155.369 264.37 155.369 264.37C155.369 264.37 157.369 260.13 155.369 258.72C153.369 257.31 144.369 258.15 142.939 258.15C141.509 258.15 134.739 264.93 134.739 264.93L95.9985 271.12Z" fill="white" stroke="#263238" stroke-linecap="round" stroke-linejoin="round"/>
<path d="M154 272.25C155.13 270.56 155.41 264.34 155.41 264.34C155.41 264.34 157.41 260.1 155.41 258.69C153.41 257.28 144.41 258.12 142.98 258.12C141.55 258.12 134.78 264.9 134.78 264.9L127.43 266.08L128.68 274.99C134.11 273.22 137.89 271.99 137.89 271.99C137.89 271.99 152.83 274 154 272.25Z" fill="#D87CAC" stroke="#263238" stroke-linecap="round" stroke-linejoin="round"/>
<path d="M159.039 254.73L175.149 263.21L172.039 268.86L159.039 254.73Z" fill="white" stroke="#263238" stroke-linecap="round" stroke-linejoin="round"/>
<path d="M145.76 257.56L148.02 251.62C148.02 251.62 149.72 250.77 155.94 252.47C162.16 254.17 174.3 271.4 174.3 271.4C174.3 271.4 165.54 277.62 164.13 277.9C162.72 278.18 157.63 262.9 157.07 261.51C156.622 260.504 156.051 259.557 155.37 258.69L145.76 257.56Z" fill="white" stroke="#263238" stroke-linecap="round" stroke-linejoin="round"/>
<path d="M155.369 258.69L150.369 255.44" stroke="#263238" stroke-linecap="round" stroke-linejoin="round"/>
<path d="M188.71 321.12H117.43V432.82H188.71V321.12Z" fill="#D87CAC" stroke="#263238" stroke-linecap="round" stroke-linejoin="round"/>
<path d="M188.539 359H117.599C117.095 359 116.612 358.8 116.256 358.444C115.899 358.087 115.699 357.604 115.699 357.1C115.699 356.596 115.899 356.113 116.256 355.757C116.612 355.4 117.095 355.2 117.599 355.2H188.539C189.043 355.2 189.526 355.4 189.883 355.757C190.239 356.113 190.439 356.596 190.439 357.1C190.439 357.604 190.239 358.087 189.883 358.444C189.526 358.8 189.043 359 188.539 359Z" fill="#D87CAC" stroke="#263238" stroke-linecap="round" stroke-linejoin="round"/>
<path d="M188.539 322.8H117.599C117.095 322.8 116.612 322.6 116.256 322.243C115.899 321.887 115.699 321.404 115.699 320.9C115.699 320.396 115.899 319.913 116.256 319.556C116.612 319.2 117.095 319 117.599 319H188.539C189.043 319 189.526 319.2 189.883 319.556C190.239 319.913 190.439 320.396 190.439 320.9C190.439 321.404 190.239 321.887 189.883 322.243C189.526 322.6 189.043 322.8 188.539 322.8Z" fill="#D87CAC" stroke="#263238" stroke-linecap="round" stroke-linejoin="round"/>
<path d="M188.539 396.84H117.599C117.095 396.84 116.612 396.64 116.256 396.284C115.899 395.927 115.699 395.444 115.699 394.94C115.699 394.436 115.899 393.953 116.256 393.597C116.612 393.24 117.095 393.04 117.599 393.04H188.539C189.043 393.04 189.526 393.24 189.883 393.597C190.239 393.953 190.439 394.436 190.439 394.94C190.439 395.444 190.239 395.927 189.883 396.284C189.526 396.64 189.043 396.84 188.539 396.84Z" fill="#D87CAC" stroke="#263238" stroke-linecap="round" stroke-linejoin="round"/>
</svg>
