<svg width="24" height="24" viewBox="0 0 24 24" fill="none" xmlns="http://www.w3.org/2000/svg">
<g clip-path="url(#clip0_145_362)">
<path d="M19.949 5.53646L16.465 2.05046C15.8163 1.3986 15.0449 0.881789 14.1952 0.529917C13.3456 0.178046 12.4346 -0.001909 11.515 0.000457924H7C5.67441 0.00204578 4.40356 0.52934 3.46622 1.46668C2.52888 2.40402 2.00159 3.67486 2 5.00046V19.0005C2.00159 20.3261 2.52888 21.5969 3.46622 22.5342C4.40356 23.4716 5.67441 23.9989 7 24.0005H17C18.3256 23.9989 19.5964 23.4716 20.5338 22.5342C21.4711 21.5969 21.9984 20.3261 22 19.0005V10.4855C22.0025 9.56588 21.8225 8.65495 21.4704 7.80543C21.1184 6.95591 20.6012 6.1847 19.949 5.53646ZM18.535 6.95046C18.8404 7.2646 19.103 7.61765 19.316 8.00046H15C14.7348 8.00046 14.4804 7.8951 14.2929 7.70756C14.1054 7.52003 14 7.26567 14 7.00046V2.68446C14.3829 2.89738 14.7363 3.15962 15.051 3.46446L18.535 6.95046ZM20 19.0005C20 19.7961 19.6839 20.5592 19.1213 21.1218C18.5587 21.6844 17.7956 22.0005 17 22.0005H7C6.20435 22.0005 5.44129 21.6844 4.87868 21.1218C4.31607 20.5592 4 19.7961 4 19.0005V5.00046C4 4.20481 4.31607 3.44175 4.87868 2.87914C5.44129 2.31653 6.20435 2.00046 7 2.00046H11.515C11.679 2.00046 11.838 2.03246 12 2.04746V7.00046C12 7.79611 12.3161 8.55917 12.8787 9.12178C13.4413 9.68439 14.2044 10.0005 15 10.0005H19.953C19.968 10.1625 20 10.3205 20 10.4855V19.0005Z" fill="currentColor"/>
</g>
<defs>
<clipPath id="clip0_145_362">
<rect width="24" height="24" fill="white"/>
</clipPath>
</defs>
</svg>
