<svg width="24" height="24" viewBox="0 0 24 24" fill="none" xmlns="http://www.w3.org/2000/svg">
<g clip-path="url(#clip0_9_822)">
<path d="M12 0C9.62662 0 7.30654 0.703788 5.33315 2.02236C3.35976 3.34094 1.82169 5.21509 0.913443 7.4078C0.0051918 9.60051 -0.232448 12.0133 0.230574 14.3411C0.693597 16.6689 1.83649 18.8071 3.51472 20.4853C5.19295 22.1635 7.33114 23.3064 9.65891 23.7694C11.9867 24.2324 14.3995 23.9948 16.5922 23.0866C18.7849 22.1783 20.6591 20.6402 21.9776 18.6668C23.2962 16.6935 24 14.3734 24 12C23.9966 8.81846 22.7312 5.76821 20.4815 3.51852C18.2318 1.26883 15.1815 0.00344108 12 0V0ZM12 22C10.0222 22 8.08879 21.4135 6.4443 20.3147C4.7998 19.2159 3.51808 17.6541 2.7612 15.8268C2.00433 13.9996 1.80629 11.9889 2.19215 10.0491C2.578 8.10929 3.5304 6.32746 4.92893 4.92893C6.32746 3.53041 8.10929 2.578 10.0491 2.19215C11.9889 1.8063 13.9996 2.00433 15.8268 2.7612C17.6541 3.51808 19.2159 4.79981 20.3147 6.4443C21.4135 8.08879 22 10.0222 22 12C21.9971 14.6513 20.9426 17.1931 19.0679 19.0679C17.1931 20.9426 14.6513 21.9971 12 22Z" fill="#166534"/>
<path d="M12.7171 5.06265C12.1405 4.95758 11.5478 4.98053 10.9809 5.12989C10.4141 5.27925 9.88705 5.55135 9.43704 5.92695C8.98702 6.30255 8.62506 6.77247 8.37675 7.30345C8.12845 7.83442 7.99988 8.41348 8.00015 8.99965C8.00015 9.26487 8.1055 9.51922 8.29304 9.70676C8.48057 9.89429 8.73493 9.99965 9.00014 9.99965C9.26536 9.99965 9.51971 9.89429 9.70725 9.70676C9.89478 9.51922 10.0001 9.26487 10.0001 8.99965C9.99989 8.70543 10.0646 8.41477 10.1895 8.14841C10.3145 7.88205 10.4967 7.64654 10.7232 7.45868C10.9496 7.27082 11.2147 7.13524 11.4996 7.06159C11.7844 6.98795 12.082 6.97807 12.3711 7.03265C12.7662 7.10933 13.1294 7.30203 13.4144 7.58614C13.6994 7.87024 13.8932 8.23285 13.9711 8.62765C14.0498 9.04205 13.9955 9.47073 13.8159 9.85239C13.6363 10.234 13.3406 10.5492 12.9711 10.7526C12.3593 11.1071 11.8537 11.6192 11.5071 12.2355C11.1604 12.8517 10.9853 13.5497 11.0001 14.2566V14.9996C11.0001 15.2649 11.1055 15.5192 11.293 15.7068C11.4806 15.8943 11.7349 15.9996 12.0001 15.9996C12.2654 15.9996 12.5197 15.8943 12.7072 15.7068C12.8948 15.5192 13.0001 15.2649 13.0001 14.9996V14.2566C12.9876 13.9087 13.0669 13.5635 13.2302 13.2559C13.3935 12.9484 13.6349 12.6892 13.9301 12.5046C14.6546 12.1067 15.2381 11.4941 15.6002 10.7511C15.9623 10.008 16.0854 9.17101 15.9524 8.35517C15.8194 7.53934 15.437 6.78474 14.8576 6.19514C14.2783 5.60555 13.5305 5.20991 12.7171 5.06265Z" fill="#166534"/>
<path d="M13.0002 17.9997C13.0002 17.4474 12.5525 16.9997 12.0002 16.9997C11.4479 16.9997 11.0002 17.4474 11.0002 17.9997C11.0002 18.552 11.4479 18.9997 12.0002 18.9997C12.5525 18.9997 13.0002 18.552 13.0002 17.9997Z" fill="#166534"/>
</g>
<defs>
<clipPath id="clip0_9_822">
<rect width="24" height="24" fill="white"/>
</clipPath>
</defs>
</svg>
