<svg width="24" height="24" viewBox="0 0 24 24" fill="none" xmlns="http://www.w3.org/2000/svg">
<g clip-path="url(#clip0_145_347)">
<path d="M13 2V9H2V3C2 2.73478 2.10536 2.48043 2.29289 2.29289C2.48043 2.10536 2.73478 2 3 2H13ZM15 0H3C2.20435 0 1.44129 0.31607 0.87868 0.87868C0.31607 1.44129 0 2.20435 0 3L0 11H15V0Z" fill="currentColor"/>
<path d="M21 2C21.2652 2 21.5196 2.10536 21.7071 2.29289C21.8946 2.48043 22 2.73478 22 3V9H19V2H21ZM21 0H17V11H24V3C24 2.20435 23.6839 1.44129 23.1213 0.87868C22.5587 0.31607 21.7956 0 21 0V0Z" fill="currentColor"/>
<path d="M5 15.0003V22.0003H3C2.73478 22.0003 2.48043 21.8949 2.29289 21.7074C2.10536 21.5199 2 21.2655 2 21.0003V15.0003H5ZM7 13.0003H0V21.0003C0 21.7959 0.316071 22.559 0.87868 23.1216C1.44129 23.6842 2.20435 24.0003 3 24.0003H7V13.0003Z" fill="currentColor"/>
<path d="M22 15.0003V21.0003C22 21.2655 21.8946 21.5199 21.7071 21.7074C21.5196 21.8949 21.2652 22.0003 21 22.0003H11V15.0003H22ZM24 13.0003H9V24.0003H21C21.7956 24.0003 22.5587 23.6842 23.1213 23.1216C23.6839 22.559 24 21.7959 24 21.0003V13.0003Z" fill="currentColor"/>
</g>
<defs>
<clipPath id="clip0_145_347">
<rect width="24" height="24" fill="white"/>
</clipPath>
</defs>
</svg>
