<svg width="21" height="20" viewBox="0 0 21 20" fill="none" xmlns="http://www.w3.org/2000/svg">
<g clip-path="url(#clip0_9_812)">
<path d="M15.4168 1.59711C14.4784 1.6117 13.5605 1.87365 12.7558 2.3565C11.951 2.83935 11.2879 3.526 10.8335 4.34711C10.379 3.526 9.71592 2.83935 8.91117 2.3565C8.10642 1.87365 7.18851 1.6117 6.25014 1.59711C4.75426 1.6621 3.34489 2.31649 2.32996 3.4173C1.31502 4.51812 0.777013 5.97588 0.833472 7.47211C0.833472 11.2613 4.8218 15.3996 8.1668 18.2054C8.91365 18.833 9.85793 19.1771 10.8335 19.1771C11.809 19.1771 12.7533 18.833 13.5001 18.2054C16.8451 15.3996 20.8335 11.2613 20.8335 7.47211C20.8899 5.97588 20.3519 4.51812 19.337 3.4173C18.3221 2.31649 16.9127 1.6621 15.4168 1.59711ZM12.4293 16.9304C11.9826 17.3066 11.4174 17.5129 10.8335 17.5129C10.2495 17.5129 9.68432 17.3066 9.23764 16.9304C4.95597 13.3379 2.50014 9.89127 2.50014 7.47211C2.44317 6.4177 2.80544 5.38355 3.50794 4.59519C4.21044 3.80683 5.19617 3.32823 6.25014 3.26377C7.30411 3.32823 8.28984 3.80683 8.99234 4.59519C9.69483 5.38355 10.0571 6.4177 10.0001 7.47211C10.0001 7.69312 10.0879 7.90508 10.2442 8.06136C10.4005 8.21764 10.6125 8.30544 10.8335 8.30544C11.0545 8.30544 11.2664 8.21764 11.4227 8.06136C11.579 7.90508 11.6668 7.69312 11.6668 7.47211C11.6098 6.4177 11.9721 5.38355 12.6746 4.59519C13.3771 3.80683 14.3628 3.32823 15.4168 3.26377C16.4708 3.32823 17.4565 3.80683 18.159 4.59519C18.8615 5.38355 19.2238 6.4177 19.1668 7.47211C19.1668 9.89127 16.711 13.3379 12.4293 16.9271V16.9304Z" fill="#166534"/>
</g>
<defs>
<clipPath id="clip0_9_812">
<rect width="20" height="20" fill="white" transform="translate(0.833496)"/>
</clipPath>
</defs>
</svg>
