<svg width="20" height="20" viewBox="0 0 20 20" fill="none" xmlns="http://www.w3.org/2000/svg">
<g clip-path="url(#clip0_9_759)">
<path d="M19.2677 7.55745L12.9468 1.23578C12.1645 0.455774 11.1049 0.0177612 10.0002 0.0177612C8.89544 0.0177612 7.83579 0.455774 7.0535 1.23578L0.732663 7.55745C0.499684 7.78894 0.314971 8.06437 0.189231 8.36777C0.063492 8.67118 -0.000772746 8.99652 0.000162654 9.32495V17.5058C0.000162654 18.1688 0.263555 18.8047 0.732396 19.2736C1.20124 19.7424 1.83712 20.0058 2.50016 20.0058H17.5002C18.1632 20.0058 18.7991 19.7424 19.2679 19.2736C19.7368 18.8047 20.0002 18.1688 20.0002 17.5058V9.32495C20.0011 8.99652 19.9368 8.67118 19.8111 8.36777C19.6854 8.06437 19.5006 7.78894 19.2677 7.55745ZM12.5002 18.3391H7.50016V15.0608C7.50016 14.3977 7.76356 13.7619 8.2324 13.293C8.70124 12.8242 9.33712 12.5608 10.0002 12.5608C10.6632 12.5608 11.2991 12.8242 11.7679 13.293C12.2368 13.7619 12.5002 14.3977 12.5002 15.0608V18.3391ZM18.3335 17.5058C18.3335 17.7268 18.2457 17.9388 18.0894 18.095C17.9331 18.2513 17.7212 18.3391 17.5002 18.3391H14.1668V15.0608C14.1668 13.9557 13.7278 12.8959 12.9464 12.1145C12.165 11.3331 11.1052 10.8941 10.0002 10.8941C8.89509 10.8941 7.83529 11.3331 7.05389 12.1145C6.27248 12.8959 5.8335 13.9557 5.8335 15.0608V18.3391H2.50016C2.27915 18.3391 2.06719 18.2513 1.91091 18.095C1.75463 17.9388 1.66683 17.7268 1.66683 17.5058V9.32495C1.6676 9.1041 1.75532 8.89244 1.911 8.73578L8.23183 2.41662C8.70158 1.94906 9.33738 1.68657 10.0002 1.68657C10.6629 1.68657 11.2987 1.94906 11.7685 2.41662L18.0893 8.73828C18.2444 8.89432 18.3321 9.10497 18.3335 9.32495V17.5058Z" fill="#166534"/>
</g>
<defs>
<clipPath id="clip0_9_759">
<rect width="20" height="20" fill="white"/>
</clipPath>
</defs>
</svg>
