<svg width="24" height="24" viewBox="0 0 24 24" fill="none" xmlns="http://www.w3.org/2000/svg">
<g clip-path="url(#clip0_145_356)">
<path d="M22.4855 10.9753L12.0005 17.2673L1.51549 10.9753C1.28806 10.8389 1.01575 10.7983 0.75845 10.8627C0.50115 10.927 0.279942 11.0909 0.143488 11.3183C0.00703395 11.5457 -0.0334877 11.818 0.0308373 12.0753C0.0951623 12.3326 0.259065 12.5539 0.486488 12.6903L11.4865 19.2903C11.642 19.3837 11.82 19.4331 12.0015 19.4331C12.1829 19.4331 12.361 19.3837 12.5165 19.2903L23.5165 12.6903C23.7439 12.5539 23.9078 12.3326 23.9721 12.0753C24.0365 11.818 23.9959 11.5457 23.8595 11.3183C23.723 11.0909 23.5018 10.927 23.2445 10.8627C22.9872 10.7983 22.7149 10.8389 22.4875 10.9753H22.4855Z" fill="currentColor"/>
<path d="M22.4855 15.5428L12.0005 21.8338L1.51549 15.5428C1.40288 15.4753 1.27806 15.4305 1.14817 15.4112C1.01828 15.3919 0.885849 15.3983 0.758447 15.4302C0.631045 15.462 0.511164 15.5187 0.405649 15.5968C0.300133 15.675 0.21105 15.7732 0.143485 15.8858C0.0759197 15.9984 0.0311961 16.1233 0.0118675 16.2531C-0.0074611 16.383 -0.00101616 16.5155 0.0308343 16.6429C0.0951593 16.9002 0.259062 17.1214 0.486485 17.2578L11.4865 23.8579C11.642 23.9513 11.82 24.0007 12.0015 24.0007C12.1829 24.0007 12.361 23.9513 12.5165 23.8579L23.5165 17.2578C23.7439 17.1214 23.9078 16.9002 23.9721 16.6429C24.0365 16.3856 23.9959 16.1133 23.8595 15.8858C23.723 15.6584 23.5018 15.4945 23.2445 15.4302C22.9872 15.3658 22.7149 15.4064 22.4875 15.5428H22.4855Z" fill="currentColor"/>
<path d="M11.9997 14.7734C11.4603 14.7731 10.9311 14.6262 10.4687 14.3484L0.484684 8.35741C0.336831 8.2685 0.214494 8.14286 0.129564 7.99269C0.0446343 7.84252 0 7.67293 0 7.50041C0 7.32788 0.0446343 7.1583 0.129564 7.00813C0.214494 6.85795 0.336831 6.73231 0.484684 6.64341L10.4687 0.652407C10.9311 0.374636 11.4603 0.22789 11.9997 0.22789C12.5391 0.22789 13.0683 0.374636 13.5307 0.652407L23.5147 6.64341C23.6625 6.73231 23.7849 6.85795 23.8698 7.00813C23.9547 7.1583 23.9994 7.32788 23.9994 7.50041C23.9994 7.67293 23.9547 7.84252 23.8698 7.99269C23.7849 8.14286 23.6625 8.2685 23.5147 8.35741L13.5307 14.3484C13.0683 14.6262 12.5391 14.7731 11.9997 14.7734ZM2.94368 7.50041L11.4997 12.6334C11.6508 12.7238 11.8236 12.7715 11.9997 12.7715C12.1758 12.7715 12.3486 12.7238 12.4997 12.6334L21.0557 7.50041L12.4997 2.36741C12.3486 2.27701 12.1758 2.22928 11.9997 2.22928C11.8236 2.22928 11.6508 2.27701 11.4997 2.36741L2.94368 7.50041Z" fill="currentColor"/>
</g>
<defs>
<clipPath id="clip0_145_356">
<rect width="24" height="24" fill="white"/>
</clipPath>
</defs>
</svg>
