<svg width="122" height="121" viewBox="0 0 122 121" fill="none" xmlns="http://www.w3.org/2000/svg">
<path d="M40.7178 18.8566C40.7178 18.8566 22.3815 28.1978 13.2363 42.592C4.09113 56.9862 4.81471 75.504 15.9274 89.2496C27.04 102.995 48.2803 101.19 66.0649 109.897C83.8495 118.604 103.471 116.811 111.88 98.3633C120.29 79.9157 107.609 73.0211 105.431 51.6718C103.253 30.3226 84.0068 -0.938961 40.7178 18.8566Z" fill="#D87CAC"/>
<path opacity="0.7" d="M40.7178 18.8566C40.7178 18.8566 22.3815 28.1978 13.2363 42.592C4.09113 56.9862 4.81471 75.504 15.9274 89.2496C27.04 102.995 48.2803 101.19 66.0649 109.897C83.8495 118.604 103.471 116.811 111.88 98.3633C120.29 79.9157 107.609 73.0211 105.431 51.6718C103.253 30.3226 84.0068 -0.938961 40.7178 18.8566Z" fill="white"/>
<path d="M89.6429 21.9784C87.8182 20.9838 86.9809 21.8139 86.325 20.9838C85.6692 20.1538 88.1497 17.9975 83.179 15.8413C83.179 15.8413 82.8475 11.1973 76.0449 11.0304C69.2423 10.8634 71.0694 15.6768 69.2447 16.8384C67.42 18 66.9215 16.1753 65.0968 17.3369C63.2721 18.4985 64.0973 20.812 62.6042 21.1508C61.1111 21.4896 59.1194 19.6577 57.2947 20.8193C55.47 21.9809 55.47 22.9755 54.6327 22.9755C53.7954 22.9755 52.1425 22.3124 51.1479 22.9755C50.1533 23.6386 48.9917 24.4686 48.9917 24.4686H90.9714C90.9714 24.4686 91.4675 22.9755 89.6429 21.9784Z" stroke="#263238" stroke-width="0.5" stroke-linecap="round" stroke-linejoin="round"/>
<path d="M64.8162 21.296C64.5782 21.4302 64.3307 21.5467 64.0757 21.6445" stroke="#263238" stroke-width="0.5" stroke-linecap="round" stroke-linejoin="round"/>
<path d="M73.7942 13.552C73.3826 13.7357 73.0209 14.0152 72.7393 14.3671C72.4576 14.7191 72.2643 15.1332 72.1753 15.5751C71.8703 17.0949 71.1613 18.1064 70.353 18.2081C69.5447 18.3097 66.5052 18.0048 65.997 19.1204C65.8618 19.4465 65.7667 19.7878 65.7139 20.1368" stroke="#263238" stroke-width="0.5" stroke-linecap="round" stroke-linejoin="round"/>
<path d="M48.6723 33.9042C47.7164 33.3839 47.2808 33.8171 46.9323 33.3839C46.5839 32.9507 47.8882 31.8181 45.2795 30.6856C45.2795 30.6856 45.1052 28.2511 41.5406 28.1639C37.9759 28.0768 38.9294 30.5985 37.9735 31.218C37.0176 31.8375 36.7635 30.8695 35.7955 31.4793C34.8275 32.0892 35.2752 33.3064 34.4911 33.4807C33.707 33.6549 32.664 32.6966 31.7081 33.3064C30.7522 33.9163 30.7401 34.4366 30.3166 34.4366C29.8931 34.4366 29.0122 34.0881 28.4895 34.4366C27.9668 34.7851 27.3594 35.2182 27.3594 35.2182H49.3644C49.3644 35.2182 49.6258 34.4269 48.6723 33.9042Z" stroke="#263238" stroke-width="0.5" stroke-linecap="round" stroke-linejoin="round"/>
<path d="M35.6552 33.5485C35.5293 33.6171 35.3992 33.6778 35.2656 33.73" stroke="#263238" stroke-width="0.5" stroke-linecap="round" stroke-linejoin="round"/>
<path d="M40.3618 29.4853C40.1459 29.5814 39.9562 29.7278 39.8084 29.9122C39.6607 30.0965 39.5592 30.3136 39.5124 30.5453C39.3527 31.3414 38.9824 31.8738 38.5444 31.9271C38.1064 31.9803 36.5285 31.8206 36.2623 32.4111C36.1921 32.5822 36.1418 32.7609 36.1123 32.9435" stroke="#263238" stroke-width="0.5" stroke-linecap="round" stroke-linejoin="round"/>
<path d="M77.1294 52.1074C77.1294 52.1074 88.5348 53.2376 94.3114 60.3064C94.3114 60.3064 100.419 52.1171 111.389 52.2841C114.069 49.0507 115.775 45.1226 116.309 40.9572C116.843 36.7918 116.182 32.5604 114.405 28.7558C112.627 24.9511 109.805 21.7297 106.268 19.4665C102.73 17.2034 98.6227 15.9916 94.4233 15.9723C90.2238 15.9531 86.1053 17.1271 82.5472 19.3576C78.9891 21.5882 76.1378 24.7836 74.3253 28.5718C72.5128 32.36 71.8136 36.5851 72.3092 40.7552C72.8048 44.9253 74.4747 48.8689 77.1245 52.1268L77.1294 52.1074Z" fill="#D87CAC"/>
<path opacity="0.5" d="M77.1294 52.1074C77.1294 52.1074 88.5348 53.2376 94.3114 60.3064C94.3114 60.3064 100.419 52.1171 111.389 52.2841C114.069 49.0507 115.775 45.1226 116.309 40.9572C116.843 36.7918 116.182 32.5604 114.405 28.7558C112.627 24.9511 109.805 21.7297 106.268 19.4665C102.73 17.2034 98.6227 15.9916 94.4233 15.9723C90.2238 15.9531 86.1053 17.1271 82.5472 19.3576C78.9891 21.5882 76.1378 24.7836 74.3253 28.5718C72.5128 32.36 71.8136 36.5851 72.3092 40.7552C72.8048 44.9253 74.4747 48.8689 77.1245 52.1268L77.1294 52.1074Z" fill="white"/>
<path d="M93.9385 17.5353L93.5513 104.728H95.4776L93.9385 17.5353Z" fill="#263238"/>
<path d="M94.5148 58.1526C94.5148 58.1526 98.365 51.2217 105.286 49.1042C105.286 49.1042 97.9706 50.8369 94.314 56.8046L94.5148 58.1526Z" fill="#263238"/>
<path d="M94.5148 38.5167C94.5148 38.5167 98.365 31.5882 105.286 29.4707C105.286 29.4707 97.9706 31.2034 94.314 37.1687L94.5148 38.5167Z" fill="#263238"/>
<path d="M94.5148 48.3346C94.5148 48.3346 98.365 41.4038 105.286 39.2863C105.286 39.2863 97.9706 41.019 94.314 46.9867L94.5148 48.3346Z" fill="#263238"/>
<path d="M93.9436 43.5212C93.9436 43.5212 90.2289 36.5928 83.5376 34.4753C83.5376 34.4753 90.5967 36.208 94.1251 42.1757L93.9436 43.5212Z" fill="#263238"/>
<path d="M93.9436 53.1456C93.9436 53.1456 90.2289 46.2171 83.5376 44.0996C83.5376 44.0996 90.5967 45.8323 94.1251 51.8001L93.9436 53.1456Z" fill="#263238"/>
<path d="M41.4368 61.1461C41.4368 61.1461 50.8748 62.0827 55.6688 67.9366C55.6688 67.9366 60.7266 61.1606 69.8113 61.2937C72.0314 58.6158 73.4451 55.3622 73.8877 51.9119C74.3304 48.4617 73.7838 44.9566 72.3116 41.8049C70.8394 38.6533 68.5022 35.9847 65.5721 34.1098C62.642 32.235 59.2395 31.2312 55.761 31.2152C52.2825 31.1991 48.871 32.1716 45.9237 34.0194C42.9765 35.8671 40.6148 38.5141 39.1136 41.6521C37.6124 44.79 37.0336 48.2899 37.4444 51.7441C37.8553 55.1983 39.239 58.4648 41.4343 61.1631L41.4368 61.1461Z" fill="#D87CAC"/>
<path opacity="0.3" d="M41.4368 61.1461C41.4368 61.1461 50.8748 62.0827 55.6688 67.9366C55.6688 67.9366 60.7266 61.1606 69.8113 61.2937C72.0314 58.6158 73.4451 55.3622 73.8877 51.9119C74.3304 48.4617 73.7838 44.9566 72.3116 41.8049C70.8394 38.6533 68.5022 35.9847 65.5721 34.1098C62.642 32.235 59.2395 31.2312 55.761 31.2152C52.2825 31.1991 48.871 32.1716 45.9237 34.0194C42.9765 35.8671 40.6148 38.5141 39.1136 41.6521C37.6124 44.79 37.0336 48.2899 37.4444 51.7441C37.8553 55.1983 39.239 58.4648 41.4343 61.1631L41.4368 61.1461Z" fill="white"/>
<path d="M55.3566 32.5127L55.0396 104.728H56.6319L55.3566 32.5127Z" fill="#263238"/>
<path d="M55.836 66.1531C55.836 66.1531 59.0231 60.4129 64.7634 58.6511C64.7634 58.6511 58.7134 60.0862 55.6763 65.0278L55.836 66.1531Z" fill="#263238"/>
<path d="M55.836 49.8907C55.836 49.8907 59.0231 44.1504 64.7634 42.3887C64.7634 42.3887 58.7134 43.8237 55.6763 48.7678L55.836 49.8907Z" fill="#263238"/>
<path d="M55.836 58.0219C55.836 58.0219 59.0231 52.2817 64.7634 50.5199C64.7634 50.5199 58.7134 51.955 55.6763 56.899L55.836 58.0219Z" fill="#263238"/>
<path d="M55.3637 54.0362C55.3637 54.0362 52.2855 48.2959 46.7485 46.5342C46.7485 46.5342 52.5928 47.9692 55.5162 52.9133L55.3637 54.0362Z" fill="#263238"/>
<path d="M55.3637 62.0076C55.3637 62.0076 52.2855 56.2674 46.7485 54.5056C46.7485 54.5056 52.5928 55.9407 55.5162 60.8847L55.3637 62.0076Z" fill="#263238"/>
<path d="M63.6931 104.646C63.6592 103.888 63.7584 102.451 64.574 100.29C65.8517 96.9016 68.0902 103.678 68.0902 103.678C68.0902 103.678 68.0902 102.872 70.4885 100.29C72.8867 97.7075 74.963 102.226 74.963 102.226C74.963 102.226 73.845 91.4179 76.5627 92.2238C79.2803 93.0296 78.9585 102.226 78.9585 102.226C78.9585 102.226 80.8775 95.4496 83.4355 95.4496C85.9934 95.4496 86.6323 100.29 86.6323 100.29C86.6323 100.29 87.2712 91.7398 89.8291 91.5776C92.387 91.4155 95.262 98.6779 95.262 98.6779C95.262 98.6779 94.4634 88.9979 97.0213 88.5139C99.5793 88.0299 100.538 92.0616 100.538 92.0616C100.538 92.0616 102.774 78.6718 107.091 80.2859C111.408 81.9001 107.73 96.7419 107.73 96.7419C107.73 96.7419 112.045 86.4158 115.561 88.8358C118.758 91.0355 114.69 102.567 113.925 104.646H63.6931Z" fill="#D87CAC"/>
<path d="M115.288 104.624C115.288 104.624 117.161 98.8376 116.2 97.8696C115.239 96.9016 111.094 101.098 111.094 101.098C111.094 101.098 114.131 90.7718 109.334 89.4819C104.538 88.1921 103.742 99.4838 103.742 99.4838C103.742 99.4838 100.225 94.3219 99.4244 96.2579C98.9419 97.4379 98.6715 98.6938 98.6259 99.9678C98.6259 99.9678 96.8689 85.9318 92.8711 86.5779C88.8733 87.2241 92.5516 101.098 92.5516 101.098C92.5516 101.098 90.3156 96.2579 87.7576 96.7419C85.1997 97.2259 84.2317 100.29 84.2317 100.29C84.2317 100.29 83.1136 97.5478 82.3126 97.5478C81.5116 97.5478 80.5557 102.388 80.5557 102.388C80.5557 102.388 79.5877 94.9656 77.838 95.2899C76.0884 95.6142 72.4027 101.904 72.4027 101.904C72.4027 101.904 73.044 98.3536 71.125 98.1939C69.2059 98.0342 68.0879 103.678 68.0879 103.678C68.0879 103.678 65.5299 98.3536 63.9327 99.3216C62.3355 100.29 63.0978 104.786 63.0978 104.786" stroke="#263238" stroke-width="0.5" stroke-linecap="round" stroke-linejoin="round"/>
<path d="M106.658 104.544L108.049 97.7099" stroke="#263238" stroke-width="0.5" stroke-linecap="round" stroke-linejoin="round"/>
<path d="M96.7019 104.646L95.9009 100.13" stroke="#263238" stroke-width="0.5" stroke-linecap="round" stroke-linejoin="round"/>
<path d="M76.4878 104.624L77.5211 100.936" stroke="#263238" stroke-width="0.5" stroke-linecap="round" stroke-linejoin="round"/>
<path d="M88.8683 104.808L87.1113 101.582" stroke="#263238" stroke-width="0.5" stroke-linecap="round" stroke-linejoin="round"/>
<path d="M106.932 101.904L105.651 99.3217" stroke="#263238" stroke-width="0.5" stroke-linecap="round" stroke-linejoin="round"/>
<path d="M96.7021 103.194L97.8202 100.936" stroke="#263238" stroke-width="0.5" stroke-linecap="round" stroke-linejoin="round"/>
<path d="M88.0698 103.034L88.8684 101.582" stroke="#263238" stroke-width="0.5" stroke-linecap="round" stroke-linejoin="round"/>
<path d="M76.8094 103.254L76.2432 101.258" stroke="#263238" stroke-width="0.5" stroke-linecap="round" stroke-linejoin="round"/>
<path d="M56.4018 104.682C56.4284 104.094 56.3534 102.988 55.7556 101.294C54.8191 98.6634 53.1759 103.924 53.1759 103.924C53.1759 103.924 53.1759 103.298 51.419 101.294C49.6621 99.2902 48.1375 102.797 48.1375 102.797C48.1375 102.797 48.9579 94.4066 46.9638 95.0334C44.9697 95.6602 45.2069 102.797 45.2069 102.797C45.2069 102.797 43.8178 97.5454 41.9302 97.5454C40.0426 97.5454 39.5852 101.301 39.5852 101.301C39.5852 101.301 39.1181 94.6631 37.2426 94.5397C35.3671 94.4163 33.2569 100.048 33.2569 100.048C33.2569 100.048 33.8425 92.5456 31.967 92.1584C30.0915 91.7712 29.3873 94.9148 29.3873 94.9148C29.3873 94.9148 27.7466 84.5209 24.5812 85.7721C21.4158 87.0232 24.1117 98.5472 24.1117 98.5472C24.1117 98.5472 20.9464 90.5322 18.3691 92.4101C16.0241 94.1186 19.0079 103.058 19.5791 104.682H56.4018Z" fill="#D87CAC"/>
<path d="M18.5699 104.665C18.5699 104.665 17.1977 100.173 17.8995 99.4233C18.6013 98.6731 21.6505 101.928 21.6505 101.928C21.6505 101.928 19.4241 93.9129 22.9404 92.9111C26.4567 91.9092 27.0544 100.674 27.0544 100.674C27.0544 100.674 29.6341 96.6669 30.2198 98.1697C30.5744 99.0902 30.7723 100.064 30.8054 101.05C30.8054 101.05 32.0953 90.1595 35.0259 90.6556C37.9565 91.1517 35.2679 101.928 35.2679 101.928C35.2679 101.928 36.9086 98.1697 38.7841 98.54C40.6596 98.9102 41.3639 101.294 41.3639 101.294C41.3639 101.294 42.1842 99.1643 42.7699 99.1643C43.3555 99.1643 44.0597 102.923 44.0597 102.923C44.0597 102.923 44.764 97.1606 46.0538 97.4123C47.3437 97.6639 50.0396 102.545 50.0396 102.545C50.0396 102.545 49.5701 99.7911 50.9761 99.6653C52.3821 99.5394 53.2025 103.924 53.2025 103.924C53.2025 103.924 55.078 99.7911 56.2517 100.536C57.4254 101.282 56.847 104.786 56.847 104.786" stroke="#263238" stroke-width="0.5" stroke-linecap="round" stroke-linejoin="round"/>
<path d="M24.8982 104.602L23.877 99.2974" stroke="#263238" stroke-width="0.5" stroke-linecap="round" stroke-linejoin="round"/>
<path d="M32.2017 104.682L32.7873 101.175" stroke="#263238" stroke-width="0.5" stroke-linecap="round" stroke-linejoin="round"/>
<path d="M47.0265 104.665L46.2666 101.802" stroke="#263238" stroke-width="0.5" stroke-linecap="round" stroke-linejoin="round"/>
<path d="M37.9443 104.808L39.2342 102.303" stroke="#263238" stroke-width="0.5" stroke-linecap="round" stroke-linejoin="round"/>
<path d="M24.6997 102.552L25.6362 100.549" stroke="#263238" stroke-width="0.5" stroke-linecap="round" stroke-linejoin="round"/>
<path d="M32.2017 103.554L31.3813 101.802" stroke="#263238" stroke-width="0.5" stroke-linecap="round" stroke-linejoin="round"/>
<path d="M38.53 103.431L37.9443 102.303" stroke="#263238" stroke-width="0.5" stroke-linecap="round" stroke-linejoin="round"/>
<path d="M46.7896 103.6L47.2058 102.051" stroke="#263238" stroke-width="0.5" stroke-linecap="round" stroke-linejoin="round"/>
<path d="M4.61377 104.728H120.048" stroke="#263238" stroke-width="0.5" stroke-linecap="round" stroke-linejoin="round"/>
<path d="M92.7698 84.5983L91.5889 86.3722L81.8847 90.5903C81.8847 90.5903 80.5343 90.8444 80.5343 91.2654C80.5343 91.6865 80.2802 92.8699 80.5343 93.0393C80.7884 93.2087 82.4703 92.6158 82.4703 92.6158C82.4703 92.6158 81.9645 93.2063 82.4703 93.3757C82.9761 93.5451 83.4819 92.7852 83.4819 92.7852C83.9774 92.473 84.4564 92.1354 84.9169 91.7736C85.1547 91.4612 85.353 91.1206 85.5074 90.7597L94.4614 88.4824L96.3176 85.697C96.3176 85.697 92.5182 85.2735 92.7698 84.5983Z" fill="#B5B5B5" stroke="#263238" stroke-width="0.5" stroke-linecap="round" stroke-linejoin="round"/>
<path d="M93.4449 80.6199L92.3462 84.2257L95.2187 85.9366L96.3779 83.1246L93.4449 80.6199Z" fill="white" stroke="#263238" stroke-width="0.5" stroke-linecap="round" stroke-linejoin="round"/>
<path d="M92.4601 83.064L95.9449 85.1428L95.3326 86.2415L92.0342 84.5305C92.057 84.0147 92.2031 83.5118 92.4601 83.064Z" fill="white" stroke="#263238" stroke-width="0.5" stroke-linecap="round" stroke-linejoin="round"/>
<path d="M85.563 102.124C85.563 102.124 83.1188 103.346 82.446 103.895C81.7733 104.445 81.6523 104.379 81.8338 104.813H89.6576L89.4737 102.001L85.563 102.124Z" fill="white" stroke="#263238" stroke-width="0.5" stroke-linecap="round" stroke-linejoin="round"/>
<path d="M89.6285 104.392H81.8337C81.7272 104.505 81.7393 104.597 81.8337 104.82H89.6576L89.6285 104.392Z" fill="white" stroke="#263238" stroke-width="0.5" stroke-linecap="round" stroke-linejoin="round"/>
<path d="M96.0731 87.587C96.0731 87.587 93.0796 86.3649 90.6354 86.1205C88.1912 85.8761 83.1189 85.9971 82.8744 87.0885C82.63 88.1799 86.4802 100.157 86.4802 100.157C86.4802 100.157 85.8075 100.585 85.7542 100.883C85.701 101.18 85.5727 102.093 85.5727 102.093L89.4835 102.702C89.4835 102.702 89.6045 101.48 89.6045 100.321C89.6045 99.1619 88.2614 92.0084 88.2614 92.0084L96.1433 94.5155L93.2103 100.747C93.2103 100.747 92.2955 102.581 93.3337 103.499C94.3719 104.416 96.0828 104.225 96.0828 104.225L110.017 104.408L109.775 102.146C109.775 102.146 107.759 101.841 107.391 101.841C107.024 101.841 99.9959 100.069 99.9959 100.069C99.9959 100.069 105.62 94.2009 106.23 93.2232C106.593 92.6819 106.84 92.0714 106.956 91.4301C107.071 90.7888 107.053 90.1304 106.903 89.4964C106.535 88.0299 106.29 87.7225 106.29 87.7225C106.29 87.7225 102.002 89.782 99.8023 89.298C98.455 88.9898 97.1855 88.4074 96.0731 87.587Z" fill="#263238" stroke="#263238" stroke-width="0.5" stroke-linecap="round" stroke-linejoin="round"/>
<path d="M86.1121 68.8248C86.1121 68.8248 86.5405 70.2308 86.5405 70.4147C86.5405 70.5987 86.2331 71.5134 86.48 71.8183C86.7268 72.1233 87.448 72.1862 87.448 72.1862C87.448 72.1862 88.5466 73.4688 89.0355 73.9576C89.5243 74.4465 90.0737 74.6304 90.6859 74.3255C91.2982 74.0205 91.8475 73.2244 91.8475 73.2244L93.0091 74.386L95.6977 71.269L94.7297 70.0469C94.7297 70.0469 94.9717 68.6409 94.057 66.8089C93.1422 64.977 89.9623 64.4857 87.8836 64.8536C85.8048 65.2214 85.3184 66.4411 85.3184 66.6855C85.3184 66.9299 86.1121 68.8248 86.1121 68.8248Z" fill="white" stroke="#263238" stroke-width="0.5" stroke-linecap="round" stroke-linejoin="round"/>
<path d="M87.2135 63.2636C87.2135 63.2636 85.9285 62.2956 85.0742 62.7143C84.2199 63.1329 84.5902 63.508 84.4619 64.2413C84.3337 64.9746 82.2017 65.0351 82.2017 66.2572C82.2017 67.4793 83.7287 67.9076 84.0336 67.9681C84.3385 68.0286 84.0965 69.3741 85.0016 69.3741C85.9067 69.3741 86.1027 68.8248 86.1027 68.8248C86.1027 68.8248 85.4299 66.8694 86.1632 66.5645C86.8965 66.2596 88.5469 65.6473 88.3025 66.8065C88.0581 67.9657 88.9147 68.3335 89.4036 68.2125C89.8924 68.0915 90.5023 68.1496 90.6136 68.394C90.7249 68.6384 91.3396 69.0668 91.3396 68.4569C91.3396 67.8471 91.6445 67.2953 92.1938 67.2953C92.7432 67.2953 93.1618 68.2125 93.111 68.9458C93.0698 69.3873 92.9017 69.8076 92.627 70.1558L94.7058 70.0324C94.7058 70.0324 95.2551 67.2832 94.7663 65.3279C94.2775 63.3725 91.976 62.2859 90.5724 62.102C89.1688 61.9181 87.395 62.7143 87.2135 63.2636Z" fill="#263238" stroke="#263238" stroke-width="0.5" stroke-linecap="round" stroke-linejoin="round"/>
<path d="M87.7385 69.9162C87.891 70.1582 87.9273 70.4002 87.8232 70.4607C87.7192 70.5212 87.5062 70.4002 87.3562 70.1679C87.2061 69.9356 87.165 69.6839 87.2715 69.6234C87.378 69.5629 87.5861 69.696 87.7385 69.9162Z" fill="#263238"/>
<path d="M88.5322 72.6605C88.8243 72.6024 89.0889 72.4494 89.285 72.2253C89.4811 72.0012 89.5976 71.7186 89.6164 71.4214" stroke="#263238" stroke-width="0.5" stroke-linecap="round" stroke-linejoin="round"/>
<path d="M86.6714 69.4056C86.6714 69.4056 86.773 68.8369 87.4458 69.0958" stroke="#263238" stroke-width="0.5" stroke-linecap="round" stroke-linejoin="round"/>
<path d="M93.1401 75.4241C93.1401 75.4241 92.6561 79.4583 93.2006 80.6804C93.7451 81.9025 95.7078 86.7909 95.7078 86.7909C95.7078 86.7909 95.2794 89.782 96.5015 90.5806C97.7236 91.3792 102.368 91.4978 104.141 90.3967C105.915 89.2956 106.646 88.4413 106.646 87.6475C106.646 86.8538 105.485 83.369 103.653 79.8866C102.311 77.3362 100.459 75.0891 98.2125 73.2848C96.9299 72.2467 96.441 71.7578 96.1966 71.7578C95.9522 71.7578 93.0191 74.2649 93.1401 75.4241Z" fill="white" stroke="#263238" stroke-width="0.5" stroke-linecap="round" stroke-linejoin="round"/>
<path d="M95.7076 70.9641L92.4067 74.6909L93.0795 76.7091L96.8063 71.8812L95.7076 70.9641Z" fill="white" stroke="#263238" stroke-width="0.5" stroke-linecap="round" stroke-linejoin="round"/>
<path d="M95.7683 84.5911C95.7683 84.5911 89.0455 88.4413 88.1912 88.7486C87.337 89.056 84.5855 89.0535 83.7893 88.9906C83.6916 88.9732 83.5913 88.9775 83.4956 89.0032C83.3998 89.029 83.3108 89.0755 83.235 89.1395C83.1593 89.2035 83.0985 89.2834 83.0571 89.3735C83.0157 89.4636 82.9947 89.5618 82.9955 89.661L82.8745 91.9842C82.8745 91.9842 83.5449 92.1681 83.8425 91.9842C84.1402 91.8002 84.4523 91.1275 84.4523 91.1275C84.4523 91.1275 85.5534 91.2509 85.9189 91.0065C86.1587 90.8433 86.3838 90.6595 86.5916 90.4571C87.7208 90.3634 88.8433 90.2018 89.953 89.9731C91.1751 89.6658 96.7968 87.8339 97.6534 87.6499C98.5101 87.466 98.8151 86.9772 98.8756 86.6819C98.9361 86.3867 95.7683 84.5911 95.7683 84.5911Z" fill="white" stroke="#263238" stroke-width="0.5" stroke-linecap="round" stroke-linejoin="round"/>
<path d="M88.1041 88.7728C87.17 89.0511 84.5613 89.0511 83.7893 88.993C83.6916 88.9756 83.5913 88.9799 83.4956 89.0057C83.3998 89.0314 83.3108 89.0779 83.235 89.1419C83.1593 89.2059 83.0985 89.2858 83.0571 89.3759C83.0157 89.4661 82.9947 89.5642 82.9955 89.6634L82.8745 91.9866C82.8745 91.9866 83.5449 92.1705 83.8425 91.9866C84.1402 91.8027 84.4523 91.1299 84.4523 91.1299C84.4523 91.1299 85.5534 91.2533 85.9189 91.0089C86.1587 90.8457 86.3838 90.6619 86.5916 90.4596C86.5916 90.4596 87.6177 90.37 88.6559 90.2176L88.1041 88.7728Z" fill="#D87CAC" stroke="#263238" stroke-width="0.5" stroke-linecap="round" stroke-linejoin="round"/>
<path d="M96.2571 75.4871C96.2571 75.4871 95.2189 76.6462 95.3399 77.5029C95.4609 78.3596 95.7682 84.5911 95.7682 84.5911L99.2506 85.9971L100.219 81.0482C100.219 81.0482 101.015 79.7632 100.891 78.5411" fill="white"/>
<path d="M96.2571 75.4871C96.2571 75.4871 95.2189 76.6462 95.3399 77.5029C95.4609 78.3596 95.7682 84.5911 95.7682 84.5911L99.2506 85.9971L100.219 81.0482C100.219 81.0482 101.015 79.7632 100.891 78.5411" stroke="#263238" stroke-width="0.5" stroke-linecap="round" stroke-linejoin="round"/>
<path d="M95.463 84.8984L99.0058 87.0353C99.0058 87.0353 99.4898 87.0353 99.5576 86.2415C99.6253 85.4478 99.9835 85.3244 99.6786 84.8984C99.3737 84.4725 96.1333 83.1246 95.8284 83.1246C95.5235 83.1246 95.2185 83.8578 95.463 84.8984Z" fill="white" stroke="#263238" stroke-width="0.5" stroke-linecap="round" stroke-linejoin="round"/>
<path d="M109.763 102.192C109.763 102.192 111.595 100.604 111.902 100.665C112.209 100.725 114.651 103.048 114.651 103.048C114.651 103.048 116.911 104.271 116.911 104.454C116.911 104.638 116.546 104.696 116.546 104.696L110.012 104.454L109.763 102.192Z" fill="white" stroke="#263238" stroke-width="0.5" stroke-linecap="round" stroke-linejoin="round"/>
<path d="M116.902 104.454C116.902 104.271 114.642 103.048 114.642 103.048C114.642 103.048 112.198 100.725 111.893 100.665C111.784 100.643 111.479 100.832 111.135 101.083L114.092 103.169L116.246 104.687L116.537 104.699C116.537 104.699 116.902 104.636 116.902 104.454Z" fill="white" stroke="#263238" stroke-width="0.5" stroke-linecap="round" stroke-linejoin="round"/>
<path d="M96.1333 94.5542L95.5234 91.9866" stroke="#999999" stroke-width="0.5" stroke-linecap="round" stroke-linejoin="round"/>
<path d="M74.8713 84.3805C74.1453 83.9691 73.078 83.4125 73.078 83.4125C73.078 83.4125 71.6406 79.7825 70.5128 78.0885C69.3851 76.3945 68.7172 76.1888 67.4854 76.0872C66.2536 75.9855 62.5631 76.9584 62.4034 77.2149C62.4034 77.2149 58.967 78.8048 58.0958 79.935C57.2246 81.0651 57.5295 89.8328 57.5295 89.8328C57.5295 89.8328 53.8415 92.3302 52.8686 95.106C52.2491 96.8653 52.9703 99.7717 56.305 100.645C57.4176 100.943 58.5854 100.969 59.71 100.72C60.5763 101.451 61.5357 102.064 62.5631 102.543C65.9995 104.183 68.255 104.491 70.358 104.595C72.4609 104.699 74.6147 104.031 75.0261 103.627C75.4375 103.223 76.2579 101.625 74.1549 99.3192C72.3424 97.3275 66.8732 95.1108 65.397 94.5373C65.5438 93.6759 65.6247 92.8046 65.639 91.9309C65.639 91.9309 68.8188 88.3009 69.027 87.4684C69.2351 86.636 69.753 83.2625 69.753 83.2625C69.753 83.2625 71.4978 86.4448 72.0108 86.9046C72.5239 87.3644 75.498 87.0086 75.8054 87.0086C76.1127 87.0086 76.2676 85.6752 76.2676 85.6752C75.8776 85.1688 75.4057 84.7312 74.8713 84.3805Z" fill="white" stroke="#263238" stroke-width="0.5" stroke-linecap="round" stroke-linejoin="round"/>
<path d="M74.1549 99.3071C72.3424 97.3154 66.8732 95.0987 65.397 94.5252C65.4429 94.2566 65.4817 93.9952 65.5107 93.7484C64.1307 94.0532 62.6979 94.0242 61.3314 93.6637C57.4327 92.6376 56.6124 90.5346 56.6124 90.5346H56.5833C55.4193 91.4784 53.5244 93.2281 52.8686 95.0987C52.2491 96.8581 52.9703 99.7645 56.305 100.638C57.4176 100.936 58.5854 100.962 59.71 100.713C60.5763 101.444 61.5357 102.057 62.5631 102.535C65.9995 104.176 68.255 104.483 70.358 104.588C72.4609 104.692 74.6147 104.024 75.0261 103.62C75.4375 103.215 76.2579 101.613 74.1549 99.3071Z" fill="#696969" stroke="#263238" stroke-width="0.5" stroke-linecap="round" stroke-linejoin="round"/>
<path d="M54.9185 95.4593C54.9185 95.4593 56.7649 93.2014 59.1777 94.1259C67.6065 97.3566 69.7434 100.948 70.3097 102.383C70.876 103.818 70.6678 104.59 70.208 104.897C69.7482 105.205 64.9252 104.077 62.6165 103.257C60.3078 102.436 57.2296 102.845 54.6136 100.64C51.9975 98.4359 52.4089 96.2845 53.2293 94.4332" fill="#696969"/>
<path d="M54.9185 95.4593C54.9185 95.4593 56.7649 93.2014 59.1777 94.1259C67.6065 97.3566 69.7434 100.948 70.3097 102.383C70.876 103.818 70.6678 104.59 70.208 104.897C69.7482 105.205 64.9252 104.077 62.6165 103.257C60.3078 102.436 57.2296 102.845 54.6136 100.64C51.9975 98.4359 52.4089 96.2845 53.2293 94.4332" stroke="#263238" stroke-width="0.5" stroke-linecap="round" stroke-linejoin="round"/>
<path d="M76.2578 85.668C75.8698 85.1666 75.4012 84.7332 74.8712 84.3854C74.1452 83.974 73.0779 83.4174 73.0779 83.4174C73.0779 83.4174 72.6641 82.3719 72.1099 81.1401C71.488 81.658 70.4692 82.6526 70.0771 83.8602C70.6095 84.804 71.6308 86.5706 72.0131 86.9046C72.5238 87.3668 75.5004 87.0086 75.8077 87.0086C76.115 87.0086 76.2578 85.668 76.2578 85.668Z" fill="white" stroke="#263238" stroke-width="0.5" stroke-linecap="round" stroke-linejoin="round"/>
<path d="M69.7432 83.2504L69.6924 80.4819" stroke="#263238" stroke-width="0.5" stroke-linecap="round" stroke-linejoin="round"/>
<path d="M77.9229 90.2151C77.3467 90.4217 76.7935 90.6877 76.2725 91.0089C75.7885 91.3743 75.7231 91.6817 75.7231 92.231C75.7231 92.7803 74.622 93.5136 75.1738 93.5136C75.7255 93.5136 76.1418 93.3297 76.6403 92.4149C77.1388 91.5002 77.739 91.2291 77.739 91.2291C77.777 91.6716 77.858 92.1092 77.981 92.5359C78.1519 92.9003 78.1744 93.3168 78.0439 93.6975C77.9205 94.1815 78.5279 94.0654 78.7142 92.7295C78.8129 91.877 78.6869 91.0136 78.3488 90.2248L77.9229 90.2151Z" fill="white" stroke="#263238" stroke-width="0.5" stroke-linecap="round" stroke-linejoin="round"/>
<path d="M77.802 88.7438C77.802 88.7438 77.9835 89.7747 77.923 90.0095C77.8625 90.2442 77.0059 90.9 76.7009 91.4615C76.5791 91.6899 76.5054 91.941 76.4846 92.1991C76.4638 92.4572 76.4963 92.7168 76.5799 92.9619C76.7009 93.337 77.0639 94.5542 77.2503 94.2275C77.4366 93.9008 77.4923 93.5233 77.4923 92.8215C77.4923 92.1197 77.3713 91.5074 77.7343 91.2267L78.1021 90.946C78.2796 91.3554 78.4228 91.7787 78.5305 92.2117C78.7725 93.1022 78.3465 93.8524 78.4675 93.9928C78.5885 94.1331 79.0798 94.0388 79.1403 93.6637C79.2008 93.2886 79.4452 92.8675 79.4452 92.1173C79.4414 91.6597 79.3043 91.2132 79.0508 90.8323C78.9365 90.5164 78.8443 90.1929 78.7749 89.8643C78.666 89.298 78.2909 88.2283 77.802 88.7438Z" fill="white" stroke="#263238" stroke-width="0.5" stroke-linecap="round" stroke-linejoin="round"/>
<path d="M79.6943 87.0982C79.9599 87.5469 80.2022 88.0089 80.4203 88.4824C80.5728 88.8938 80.6768 89.356 80.4203 89.4504C80.1638 89.5448 79.9581 88.8357 79.8032 88.5284C79.6483 88.2211 79.1304 86.8925 79.6943 87.0982Z" fill="#D87CAC" stroke="#263238" stroke-width="0.5" stroke-linecap="round" stroke-linejoin="round"/>
<path d="M79.6945 87.0982C79.3872 86.4327 77.6424 85.4042 77.1802 85.1501C76.8583 84.9686 75.8298 84.942 75.2442 84.9396C75.1038 84.9178 74.961 84.9178 74.8207 84.9396C74.8207 84.9396 74.0003 85.5543 74.0511 86.2222C74.0701 86.4126 74.1517 86.5914 74.283 86.7306C74.4143 86.8699 74.5881 86.9617 74.7771 86.9917H75.0191C74.9799 87.2407 75.0232 87.4957 75.1425 87.7177C75.5516 88.3494 75.8008 89.0712 75.8685 89.8207C75.8685 90.4886 76.6381 90.2321 76.7397 89.7191C76.8414 89.206 76.5873 88.284 76.5873 88.0783C76.5873 87.8726 76.9962 87.3087 76.9962 87.3087C76.9962 87.3087 78.1264 88.4873 78.2788 88.7438C78.4313 89.0003 78.4845 90.3337 78.8959 90.4378C79.3073 90.5419 79.3049 89.7118 79.3049 89.7118C79.3899 89.7188 79.4755 89.7082 79.5561 89.6805C79.6368 89.6528 79.7109 89.6086 79.7736 89.5509C79.8364 89.4931 79.8865 89.423 79.9208 89.3449C79.9551 89.2668 79.9728 89.1824 79.9728 89.0971C80.0577 88.4179 79.9617 87.7284 79.6945 87.0982Z" fill="#D87CAC" stroke="#263238" stroke-width="0.5" stroke-linecap="round" stroke-linejoin="round"/>
<path d="M78.5669 87.2531C78.5669 87.2531 79.334 87.7129 79.334 88.1751C79.334 88.6373 79.2832 89.7142 79.2832 89.7142" stroke="#263238" stroke-width="0.5" stroke-linecap="round" stroke-linejoin="round"/>
<path d="M70.4623 103.576C70.4623 104.302 70.8713 104.396 69.2813 105.372C67.6914 106.347 65.2811 105.679 62.9216 105.166C60.5621 104.653 57.7403 104.241 56.6634 104.241C55.5865 104.241 53.0141 104.641 52.0461 104.641C51.0781 104.641 49.4833 104.539 49.689 104.026C49.8947 103.513 52.5083 102.69 52.714 102.487C52.9197 102.284 52.8689 101.87 53.3819 101.1C53.498 100.889 53.6858 100.727 53.9114 100.643C54.1369 100.558 54.3853 100.557 54.6113 100.641C55.5174 101.471 56.643 102.022 57.8541 102.23C59.7901 102.538 63.3402 102.69 64.7269 102.69C66.1135 102.69 67.8559 103.307 68.0084 103.307" fill="#696969"/>
<path d="M70.4623 103.576C70.4623 104.302 70.8713 104.396 69.2813 105.372C67.6914 106.347 65.2811 105.679 62.9216 105.166C60.5621 104.653 57.7403 104.241 56.6634 104.241C55.5865 104.241 53.0141 104.641 52.0461 104.641C51.0781 104.641 49.4833 104.539 49.689 104.026C49.8947 103.513 52.5083 102.69 52.714 102.487C52.9197 102.284 52.8689 101.87 53.3819 101.1C53.498 100.889 53.6858 100.727 53.9114 100.643C54.1369 100.558 54.3853 100.557 54.6113 100.641C55.5174 101.471 56.643 102.022 57.8541 102.23C59.7901 102.538 63.3402 102.69 64.7269 102.69C66.1135 102.69 67.8559 103.307 68.0084 103.307" stroke="#263238" stroke-width="0.5" stroke-linecap="round" stroke-linejoin="round"/>
<path d="M57.8539 102.23C56.6463 102.021 55.5242 101.469 54.6208 100.641C54.3947 100.557 54.1464 100.558 53.9209 100.643C53.6953 100.727 53.5075 100.889 53.3914 101.1C52.8784 101.87 52.9292 102.281 52.7235 102.487C52.5178 102.693 49.9018 103.513 49.6985 104.026C49.4952 104.539 51.0779 104.641 52.0459 104.641C53.0139 104.641 55.5863 104.229 56.6632 104.229C57.2227 104.245 57.781 104.291 58.3355 104.367C58.3355 104.321 58.3161 104.275 58.304 104.229C58.154 103.591 58.5847 102.756 58.8243 102.359C58.4686 102.32 58.137 102.276 57.8539 102.23Z" fill="white" stroke="#263238" stroke-width="0.5" stroke-linecap="round" stroke-linejoin="round"/>
<path d="M54.6111 100.641C54.3851 100.557 54.1367 100.558 53.9112 100.643C53.6856 100.727 53.4978 100.889 53.3817 101.1C52.8687 101.87 52.9195 102.281 52.7138 102.487C52.5081 102.693 49.8921 103.513 49.6888 104.026C49.6138 104.208 49.7687 104.336 50.0397 104.428C50.6423 103.782 52.5565 103.244 53.0913 102.855C53.6262 102.465 53.2269 102.332 53.7907 101.563C53.9311 101.383 54.106 101.233 54.305 101.122C54.504 101.01 54.7233 100.94 54.9499 100.914C54.7272 100.754 54.6111 100.641 54.6111 100.641Z" stroke="#263238" stroke-width="0.5" stroke-linecap="round" stroke-linejoin="round"/>
<path d="M59.3303 78.892C59.3303 78.892 57.2273 79.7123 56.8183 81.4039C56.4093 83.0955 57.1765 93.6128 57.1765 93.8694C57.1765 94.1259 58.5607 94.3824 60.7169 94.5954C62.8731 94.8083 66.871 94.8519 66.871 94.8519C66.871 94.8519 68.6158 95.619 68.974 95.619C69.3321 95.619 70.1017 95.1592 70.1017 95.1592C70.1017 95.1592 70 95.619 70.409 95.5174C70.818 95.4157 72.2047 94.2856 72.2047 94.0823C72.2047 93.879 71.2826 92.9013 70.7188 92.7997C70.1549 92.6981 67.6405 93.6709 67.384 93.6709C67.1275 93.6709 62.665 92.7029 61.8446 92.3375C61.1923 92.0729 60.5238 91.8498 59.8433 91.6696L60.2039 82.7979" fill="white"/>
<path d="M59.3303 78.892C59.3303 78.892 57.2273 79.7123 56.8183 81.4039C56.4093 83.0955 57.1765 93.6128 57.1765 93.8694C57.1765 94.1259 58.5607 94.3824 60.7169 94.5954C62.8731 94.8083 66.871 94.8519 66.871 94.8519C66.871 94.8519 68.6158 95.619 68.974 95.619C69.3321 95.619 70.1017 95.1592 70.1017 95.1592C70.1017 95.1592 70 95.619 70.409 95.5174C70.818 95.4157 72.2047 94.2856 72.2047 94.0823C72.2047 93.879 71.2826 92.9013 70.7188 92.7997C70.1549 92.6981 67.6405 93.6709 67.384 93.6709C67.1275 93.6709 62.665 92.7029 61.8446 92.3375C61.1923 92.0729 60.5238 91.8498 59.8433 91.6696L60.2039 82.7979" stroke="#263238" stroke-width="0.5" stroke-linecap="round" stroke-linejoin="round"/>
<path d="M70.7185 92.7924C70.1522 92.6884 67.6402 93.6636 67.3837 93.6636C67.1272 93.6636 62.6647 92.6956 61.8443 92.3302C61.192 92.0656 60.5235 91.8425 59.843 91.6623L60.039 86.8005L56.7744 86.6747C56.9124 90.0361 57.1761 93.7193 57.1761 93.8693C57.1761 94.1259 58.5604 94.3824 60.7166 94.5953C62.8728 94.8083 66.8707 94.8519 66.8707 94.8519C66.8707 94.8519 68.6155 95.619 68.9736 95.619C69.3318 95.619 70.1014 95.1592 70.1014 95.1592C70.1014 95.1592 69.9997 95.619 70.4087 95.5174C70.8177 95.4157 72.2043 94.2856 72.2043 94.0823C72.2043 93.879 71.2823 92.8941 70.7185 92.7924Z" fill="white" stroke="#263238" stroke-width="0.5" stroke-linecap="round" stroke-linejoin="round"/>
<path d="M72.2044 94.0751C72.2044 93.8694 71.2824 92.8941 70.7185 92.7925C70.1546 92.6908 67.6403 93.6637 67.3837 93.6637C67.3039 93.6637 66.815 93.5693 66.1544 93.4217C65.9124 93.6637 65.6825 94.0799 65.7599 94.8156L66.8707 94.8374C66.8707 94.8374 68.6155 95.6045 68.9737 95.6045C69.3318 95.6045 70.1014 95.1447 70.1014 95.1447C70.1014 95.1447 69.9998 95.6045 70.4087 95.5029C70.8177 95.4012 72.2044 94.2784 72.2044 94.0751Z" fill="#D87CAC" stroke="#263238" stroke-width="0.5" stroke-linecap="round" stroke-linejoin="round"/>
<path d="M61.0239 68.8369C61.0239 68.8369 59.0734 67.3002 58.3038 67.8132C57.5343 68.3263 54.3036 72.4282 53.9962 73.5559C53.6889 74.6836 55.3805 74.9425 54.7658 75.8645C54.1511 76.7866 52.9702 77.1471 53.4324 78.2845C53.8946 79.4219 55.7411 79.5163 56.15 79.7729C56.559 80.0294 57.2269 81.0046 58.7152 80.5932C60.2035 80.1818 59.8938 78.2845 61.0239 78.028C62.1541 77.7715 62.05 76.2348 61.537 75.003C61.0239 73.7712 60.7166 72.0797 61.3313 71.3101C61.9459 70.5406 61.0239 68.8369 61.0239 68.8369Z" fill="#263238" stroke="#263238" stroke-width="0.5" stroke-linecap="round" stroke-linejoin="round"/>
<path d="M62.1616 67.7818C62.1616 67.7818 60.5885 67.8713 59.8456 69.8363C59.1027 71.8014 59.8456 74.7296 60.0634 75.2112C60.2812 75.6928 61.4186 76.1792 62.118 75.7775C62.8174 75.3757 63.7781 73.856 64.4751 73.4615C65.172 73.0671 66.5732 71.4093 66.5732 71.4093L67.5775 72.675C67.5775 72.675 68.2333 72.5879 68.4947 71.3222C68.7561 70.0566 67.7977 68.7014 66.2247 67.9149C64.6517 67.1284 62.9481 67.1719 62.1616 67.7818Z" fill="#263238" stroke="#263238" stroke-width="0.5" stroke-linecap="round" stroke-linejoin="round"/>
<path d="M61.9463 76.6342C61.9463 76.6342 61.9971 78.1733 62.3577 78.8412C62.7183 79.5091 63.6403 82.4712 64.8188 82.5849C65.9974 82.6987 65.9465 78.4298 65.9465 78.4298C65.9465 78.4298 64.5623 78.4806 63.7419 77.6094C62.9215 76.7382 62.0503 76.23 61.9463 76.6342Z" stroke="#263238" stroke-width="0.5" stroke-linecap="round" stroke-linejoin="round"/>
<path d="M66.7474 70.1412C66.7474 70.1412 64.9131 72.2829 63.4708 73.2001C62.0284 74.1173 61.375 74.248 61.375 74.248C61.375 74.248 61.9413 74.1609 61.5493 74.5553C61.1572 74.9498 61.0653 75.0393 60.8499 74.686C60.6345 74.3327 59.7585 73.9866 59.5818 74.8602C59.5068 75.2249 59.5627 75.6044 59.7397 75.9319C59.9167 76.2595 60.2036 76.5141 60.5498 76.651C60.9226 76.808 61.3365 76.8386 61.7284 76.7382C61.7284 76.7382 61.859 78.224 63.6063 79.0977C65.3535 79.9713 66.9725 78.7492 67.4517 77.832C67.9308 76.9148 67.759 72.7645 67.6695 72.0651C67.5799 71.3658 66.7474 70.1412 66.7474 70.1412Z" fill="white" stroke="#263238" stroke-width="0.5" stroke-linecap="round" stroke-linejoin="round"/>
<path d="M66.3068 74.2746C66.3068 74.2746 66.2028 75.095 66.3577 75.1458C66.5126 75.1966 67.0837 75.4023 66.8707 75.7121C66.6578 76.0218 66.3577 76.2251 65.9995 76.0702" stroke="#263238" stroke-width="0.5" stroke-linecap="round" stroke-linejoin="round"/>
<path d="M63.998 76.789C63.998 76.789 64.4094 77.4545 65.9994 77.0963" stroke="#263238" stroke-width="0.5" stroke-linecap="round" stroke-linejoin="round"/>
<path d="M64.9227 74.6086C64.9227 74.8506 64.8065 75.0442 64.6662 75.0442C64.5258 75.0442 64.4097 74.8482 64.4097 74.6086C64.4097 74.369 64.5234 74.173 64.6662 74.173C64.809 74.173 64.9227 74.3666 64.9227 74.6086Z" fill="#263238"/>
<path d="M67.1273 74.352C67.1273 74.594 67.0136 74.7876 66.8708 74.7876C66.728 74.7876 66.6143 74.5916 66.6143 74.352C66.6143 74.1125 66.728 73.9164 66.8708 73.9164C67.0136 73.9164 67.1273 74.11 67.1273 74.352Z" fill="#263238"/>
<path d="M63.9038 73.81C64.0438 73.638 64.2259 73.5053 64.4324 73.4247C64.639 73.3441 64.8629 73.3184 65.0823 73.3502" stroke="#263238" stroke-width="0.5" stroke-linecap="round" stroke-linejoin="round"/>
<path d="M66.3579 73.2994C66.3579 73.2994 66.6653 72.6339 67.3259 73.0961" stroke="#263238" stroke-width="0.5" stroke-linecap="round" stroke-linejoin="round"/>
<path d="M83.4236 91.3138C83.4236 91.3138 78.4723 92.9038 77.1316 93.3926C75.7909 93.8815 71.3865 93.942 71.0816 94.4308C70.7767 94.9196 68.5841 97.6833 68.1558 99.2708C67.7275 100.858 68.2962 105.159 68.7051 105.427C70.3483 106.514 74.6704 106.18 76.5 106.11C79.8468 105.986 83.0872 107.194 84.97 103.787C85.5798 102.685 84.6989 98.8304 84.5779 97.5478C84.4569 96.2652 84.0262 94.1259 83.9657 93.8185C83.9052 93.5112 84.3408 91.5583 83.4236 91.3138Z" fill="white" stroke="#263238" stroke-width="0.5" stroke-linecap="round" stroke-linejoin="round"/>
<path d="M77.231 97.526C79.8494 96.6015 82.0831 93.896 82.7776 93.441C83.4721 92.9861 83.8521 91.989 83.8521 91.989C82.7552 92.7281 81.5645 93.3173 80.3116 93.7411" stroke="#263238" stroke-width="0.5" stroke-linecap="round" stroke-linejoin="round"/>
<path d="M83.7793 92.4294C83.2842 93.9583 82.409 95.3364 81.2358 96.4345" stroke="#263238" stroke-width="0.5" stroke-linecap="round" stroke-linejoin="round"/>
<path d="M72.0688 94.5857C72.0688 94.5857 72.8384 94.9705 75.4568 94.9705" stroke="#263238" stroke-width="0.5" stroke-linecap="round" stroke-linejoin="round"/>
<path d="M71.7593 94.6631C71.7593 94.6631 72.3764 97.359 75.8442 98.4383" stroke="#263238" stroke-width="0.5" stroke-linecap="round" stroke-linejoin="round"/>
<path d="M71.1445 95.59C71.6704 96.5174 72.3773 97.3297 73.2233 97.9785" stroke="#263238" stroke-width="0.5" stroke-linecap="round" stroke-linejoin="round"/>
<path d="M22.5072 82.7084C22.5072 82.7084 23.8745 86.607 23.8745 88.18C23.8745 89.753 24.9684 98.3706 25.1039 99.3289C25.1947 99.9241 25.3802 100.501 25.6532 101.037C26.5874 101.901 27.6484 102.616 28.7992 103.157C30.7812 104.125 30.7135 103.842 30.3722 104.251C30.031 104.66 26.8826 104.735 25.4475 104.595C24.0125 104.454 22.575 104.936 22.5072 104.321C22.4395 103.707 22.4371 101.243 22.4371 100.149C22.4371 99.0555 19.5645 93.654 19.2233 91.9407C18.8821 90.2273 19.0176 87.5653 19.0176 87.5653L17.3091 83.4513L22.5072 82.7084Z" fill="white" stroke="#263238" stroke-width="0.5" stroke-linecap="round" stroke-linejoin="round"/>
<path d="M25.1839 101.722V102.69L22.4541 102.165C22.4541 103.09 22.4783 103.992 22.517 104.343C22.5848 104.958 24.0198 104.479 25.4573 104.617C26.8948 104.755 30.0384 104.684 30.382 104.273C30.7257 103.862 30.791 104.137 28.809 103.179C27.6587 102.636 26.5979 101.922 25.663 101.059C25.663 101.059 25.1839 101.105 25.1839 101.722Z" fill="#263238" stroke="#263238" stroke-width="0.5" stroke-linecap="round" stroke-linejoin="round"/>
<path d="M16.8978 83.1198C16.8978 83.1198 17.0963 87.4056 16.4138 89.1383C12.9944 97.8914 12.8588 101.175 12.8588 101.175C12.8588 101.175 16.2831 103.772 17.0358 104.06C17.7884 104.348 18.1974 104.469 17.7182 104.81C17.239 105.151 12.9314 105.084 12.1788 105.084C11.4262 105.084 9.57974 104.537 9.37646 104.196C9.17318 103.854 9.86046 101.117 9.86046 101.117C9.86046 101.117 10.2041 94.2784 10.2041 92.7054C10.2041 91.1324 11.9126 88.0566 11.9126 87.5072C11.9126 86.9579 11.5714 82.8584 11.5714 82.8584C11.5714 82.8584 15.6685 83.8724 16.8978 83.1198Z" fill="white" stroke="#263238" stroke-width="0.5" stroke-linecap="round" stroke-linejoin="round"/>
<path d="M17.7182 104.798C18.2022 104.457 17.7884 104.314 17.0358 104.048C16.2832 103.782 12.8637 101.175 12.8637 101.175C12.8637 101.175 12.5225 101.311 12.5225 101.858C12.5379 102.146 12.4662 102.432 12.3168 102.678C12.3168 102.678 11.223 102.475 9.92342 102.194C9.81452 102.172 9.7153 102.151 9.6185 102.126C9.44184 102.942 9.2555 103.978 9.3765 104.179C9.57978 104.52 11.4262 105.067 12.1789 105.067C12.9315 105.067 17.2415 105.142 17.7182 104.798Z" fill="#263238" stroke="#263238" stroke-width="0.5" stroke-linecap="round" stroke-linejoin="round"/>
<path d="M22.5752 62.5328L25.1041 66.2257L35.5682 64.7229V66.7049C35.5682 66.7049 25.184 69.5774 24.7629 69.2362C24.3418 68.895 20.8643 67.2518 20.8643 67.2518L22.5752 62.5328Z" fill="#B5B5B5" stroke="#263238" stroke-width="0.5" stroke-linecap="round" stroke-linejoin="round"/>
<path d="M13.2051 57.6783C13.2051 57.6783 12.4525 62.056 12.4525 63.8323V70.1243C12.4525 70.1243 10.2745 73.614 9.92361 76.6898C9.57271 79.7656 9.51221 83.1875 9.51221 83.1875C9.51221 83.1875 12.7961 84.625 15.463 84.4193C17.0498 84.2982 18.6265 84.0686 20.182 83.732L23.9427 82.8438L21.1379 70.1243C21.1379 70.1243 22.5076 66.4943 22.7109 66.2959C22.9142 66.0974 23.6789 63.6339 23.3957 61.7802C23.1126 59.9264 22.0962 56.1053 19.9763 55.0792C17.8564 54.0531 14.1634 55.2849 13.2051 57.6783Z" fill="#5E5E5E" stroke="#263238" stroke-width="0.5" stroke-linecap="round" stroke-linejoin="round"/>
<path d="M16.322 70.18C16.1737 71.2955 15.7046 72.3439 14.9716 73.1977C13.7616 74.5941 12.7646 74.8627 12.7646 74.8627C12.7646 74.8627 12.179 80.5473 12.404 82.764" stroke="#263238" stroke-width="0.5" stroke-linecap="round" stroke-linejoin="round"/>
<path d="M16.956 70.3688C16.8345 71.4174 16.4966 72.4293 15.9638 73.3405C15.1071 74.7369 13.3018 75.233 13.3018 75.233" stroke="#263238" stroke-width="0.5" stroke-linecap="round" stroke-linejoin="round"/>
<path d="M21.2079 57.1991C20.8497 55.977 19.8116 55.1712 19.3034 54.8396C17.7231 54.45 15.6419 55.0018 14.3061 56.1755C14.2819 56.3207 14.2649 56.4514 14.231 56.5845C14.1633 56.8579 13.1372 62.8063 13.1372 62.8063C13.1372 62.8063 13.3792 62.8547 13.7567 62.9224C13.3792 64.8463 13.8027 68.0553 13.8027 68.0553C13.8027 68.0553 15.8234 68.7062 17.3867 68.6409C18.95 68.5756 20.7747 67.6729 20.7747 67.6729C20.7747 67.1236 21.2321 64.3672 21.4475 63.0991H21.5491C21.5491 63.0991 21.6846 58.8399 21.2079 57.1991Z" fill="white" stroke="#263238" stroke-width="0.5" stroke-linecap="round" stroke-linejoin="round"/>
<path d="M18.3642 62.4529C18.3642 62.4529 15.9442 64.8729 14.7148 65.2529L18.3642 62.4529Z" fill="white"/>
<path d="M18.3642 62.4529C18.3642 62.4529 15.9442 64.8729 14.7148 65.2529" stroke="#263238" stroke-width="0.5" stroke-linecap="round" stroke-linejoin="round"/>
<path d="M18.3643 63.6896C18.3643 63.6896 16.9946 64.9286 15.8887 65.841L18.3643 63.6896Z" fill="white"/>
<path d="M18.3643 63.6896C18.3643 63.6896 16.9946 64.9286 15.8887 65.841" stroke="#263238" stroke-width="0.5" stroke-linecap="round" stroke-linejoin="round"/>
<path d="M23.6353 81.45C22.4251 82.0958 21.0746 82.434 19.7028 82.4349C19.7028 82.4349 17.6507 83.3254 14.4369 83.1875C12.7224 83.0945 11.053 82.604 9.56061 81.7549C9.52431 82.6261 9.51221 83.1875 9.51221 83.1875C9.51221 83.1875 12.7961 84.625 15.463 84.4193C17.0498 84.2982 18.6265 84.0686 20.182 83.732L23.9427 82.8439L23.6353 81.45Z" fill="white" stroke="#263238" stroke-width="0.5" stroke-linecap="round" stroke-linejoin="round"/>
<path d="M19.7705 83.8723L19.9084 76.4163" stroke="#263238" stroke-width="0.5" stroke-linecap="round" stroke-linejoin="round"/>
<path d="M26.5413 48.1725V49.9488C26.5413 49.9488 27.4295 50.6336 26.8826 51.1128C26.6627 51.3344 26.4086 51.519 26.1299 51.6597C26.1299 51.6597 25.7887 53.2327 25.0361 53.9853C24.2835 54.738 23.8745 54.6 22.7807 53.8474C21.6868 53.0948 21.002 52.618 21.002 52.618C21.002 52.618 21.6844 49.2663 22.1636 48.1725C22.6427 47.0787 24.148 46.9407 24.9006 47.0762C25.6532 47.2118 26.5413 48.1725 26.5413 48.1725Z" fill="white" stroke="#263238" stroke-width="0.5" stroke-linecap="round" stroke-linejoin="round"/>
<path d="M25.7938 49.8157C25.7938 50.0214 25.7018 50.1884 25.5905 50.1884C25.4792 50.1884 25.3872 50.0214 25.3872 49.8157C25.3872 49.61 25.4767 49.4406 25.5905 49.4406C25.7042 49.4406 25.7938 49.61 25.7938 49.8157Z" fill="#263238"/>
<path d="M25.1475 48.9324C25.1475 48.9324 25.5226 48.3226 26.0308 48.8308" stroke="#263238" stroke-width="0.5" stroke-linecap="round" stroke-linejoin="round"/>
<path d="M24.6396 51.788C24.8644 52.0167 25.1686 52.1501 25.4891 52.1607" stroke="#263238" stroke-width="0.5" stroke-linecap="round" stroke-linejoin="round"/>
<path d="M23.4901 47.5965C23.4901 47.5965 22.0526 51.0426 22.1252 52.6955C22.1978 54.3483 24.0612 59.0891 23.2747 60.6694C22.4882 62.2496 20.8281 63.404 19.6181 61.5309C18.4081 59.6578 17.9652 59.0891 17.1763 60.2362C16.3874 61.3833 15.4532 63.4693 13.6576 63.4693C11.862 63.4693 9.69605 61.1001 10.773 58.5858C11.8499 56.0714 14.2941 54.9945 15.8017 52.5527C16.9087 50.8176 17.6879 48.8941 18.1007 46.8778L23.6304 47.0932L23.4901 47.5965Z" fill="#263238" stroke="#263238" stroke-width="0.5" stroke-linecap="round" stroke-linejoin="round"/>
<path d="M17.9554 47.9547H26.5755C26.5755 47.9547 26.5755 44.2908 25.8495 43.7173C25.1235 43.1438 19.4582 43.2865 18.8121 43.7173C18.166 44.1481 17.682 47.524 17.9554 47.9547Z" fill="#D87CAC" stroke="#263238" stroke-width="0.5" stroke-linecap="round" stroke-linejoin="round"/>
<path d="M23.8213 47.916C23.8213 47.916 25.8323 48.7049 27.6279 48.7049C29.4236 48.7049 30.3577 47.916 30.3577 47.916H23.8213Z" fill="#D87CAC" stroke="#263238" stroke-width="0.5" stroke-linecap="round" stroke-linejoin="round"/>
<path d="M37.9614 64.372C37.9614 64.372 38.714 64.2365 38.714 64.7834C38.714 65.3303 37.8259 65.2674 37.0733 64.9891C36.3207 64.7108 37.3467 64.5172 37.9614 64.372Z" fill="#B5B5B5" stroke="#263238" stroke-width="0.5" stroke-linecap="round" stroke-linejoin="round"/>
<path d="M38.0996 65.0641C38.0996 65.0641 38.8522 64.9262 38.8522 65.4755C38.8522 66.0249 37.9616 65.9595 37.2114 65.6788C36.4612 65.3981 37.4849 65.2021 38.0996 65.0641Z" fill="#B5B5B5" stroke="#263238" stroke-width="0.5" stroke-linecap="round" stroke-linejoin="round"/>
<path d="M38.2372 65.749C38.2372 65.749 38.9874 65.611 38.9874 66.1579C38.9874 66.7049 38.0993 66.6419 37.3467 66.3636C36.5941 66.0853 37.6201 65.8845 38.2372 65.749Z" fill="#B5B5B5" stroke="#263238" stroke-width="0.5" stroke-linecap="round" stroke-linejoin="round"/>
<path d="M38.102 66.4484C38.102 66.4484 38.8546 66.3104 38.8546 66.8573C38.8546 67.4043 37.9641 67.3414 37.2139 67.0631C36.4637 66.7848 37.4873 66.5839 38.102 66.4484Z" fill="#B5B5B5" stroke="#263238" stroke-width="0.5" stroke-linecap="round" stroke-linejoin="round"/>
<path d="M34.8155 65.0641C34.8155 65.0641 30.5757 74.3642 30.5757 74.9861C30.5757 75.6081 30.5757 77.2416 30.9871 78.1999C31.3985 79.1582 33.8596 80.9345 34.9535 81.1402C36.0473 81.3459 40.6985 80.2521 41.2455 80.1141C41.7924 79.9762 43.2299 76.1477 43.1597 75.3951C43.0895 74.6425 41.3132 71.7651 41.0398 71.2932C40.7663 70.8213 38.5109 67.7358 38.2374 67.1792C37.9639 66.6226 37.1411 65.1973 37.1411 65.1973L34.8155 65.0641Z" fill="white" stroke="#263238" stroke-width="0.5" stroke-linecap="round" stroke-linejoin="round"/>
<path d="M35.5684 66.7049L35.0215 70.7415" stroke="#263238" stroke-width="0.5" stroke-linecap="round" stroke-linejoin="round"/>
<path d="M36.5264 66.2257V71.5618" stroke="#263238" stroke-width="0.5" stroke-linecap="round" stroke-linejoin="round"/>
<path d="M37.2114 65.6788L39.1256 71.6974" stroke="#263238" stroke-width="0.5" stroke-linecap="round" stroke-linejoin="round"/>
<path d="M23.7319 65.611C23.7319 65.611 20.3827 57.141 19.4921 56.72C18.6015 56.2989 15.942 56.386 16.2154 59.532C16.4889 62.678 21.7548 69.2435 22.4372 69.3112C23.1197 69.379 33.8596 65.824 33.8596 65.824C33.8596 65.824 37.4896 66.308 37.7583 65.8918C38.0269 65.4755 38.0995 63.9775 38.0995 63.9775C38.0995 63.9775 38.5835 62.9515 38.0995 62.6102C37.6155 62.269 35.4375 62.4723 35.0914 62.4723C34.7454 62.4723 33.107 64.113 33.107 64.113L23.7319 65.611Z" fill="white" stroke="#263238" stroke-width="0.5" stroke-linecap="round" stroke-linejoin="round"/>
<path d="M37.7678 65.8845C38.0413 65.4755 38.1091 63.9703 38.1091 63.9703C38.1091 63.9703 38.5931 62.9442 38.1091 62.603C37.6251 62.2618 35.447 62.4651 35.101 62.4651C34.7549 62.4651 33.1166 64.1058 33.1166 64.1058L31.3379 64.3914L31.6404 66.5476C32.9544 66.1193 33.8692 65.8216 33.8692 65.8216C33.8692 65.8216 37.4847 66.308 37.7678 65.8845Z" fill="#D87CAC" stroke="#263238" stroke-width="0.5" stroke-linecap="round" stroke-linejoin="round"/>
<path d="M38.9878 61.6447L42.8864 63.6968L42.1338 65.0641L38.9878 61.6447Z" fill="white" stroke="#263238" stroke-width="0.5" stroke-linecap="round" stroke-linejoin="round"/>
<path d="M35.7739 62.3295L36.3208 60.8921C36.3208 60.8921 36.7322 60.6864 38.2375 61.0978C39.7427 61.5092 42.6806 65.6788 42.6806 65.6788C42.6806 65.6788 40.5607 67.1841 40.2195 67.2518C39.8782 67.3196 38.6465 63.6218 38.5109 63.2854C38.4025 63.0419 38.2643 62.8126 38.0995 62.603L35.7739 62.3295Z" fill="white" stroke="#263238" stroke-width="0.5" stroke-linecap="round" stroke-linejoin="round"/>
<path d="M38.0996 62.603L36.8896 61.8165" stroke="#263238" stroke-width="0.5" stroke-linecap="round" stroke-linejoin="round"/>
<path d="M46.1677 77.7111H28.918V104.742H46.1677V77.7111Z" fill="#D87CAC" stroke="#263238" stroke-width="0.5" stroke-linecap="round" stroke-linejoin="round"/>
<path d="M46.1268 86.878H28.9593C28.8374 86.878 28.7204 86.8295 28.6342 86.7433C28.548 86.6571 28.4995 86.5401 28.4995 86.4182C28.4995 86.2962 28.548 86.1793 28.6342 86.093C28.7204 86.0068 28.8374 85.9584 28.9593 85.9584H46.1268C46.2487 85.9584 46.3657 86.0068 46.4519 86.093C46.5381 86.1793 46.5866 86.2962 46.5866 86.4182C46.5866 86.5401 46.5381 86.6571 46.4519 86.7433C46.3657 86.8295 46.2487 86.878 46.1268 86.878Z" fill="#D87CAC" stroke="#263238" stroke-width="0.5" stroke-linecap="round" stroke-linejoin="round"/>
<path d="M46.1268 78.1176H28.9593C28.8374 78.1176 28.7204 78.0692 28.6342 77.9829C28.548 77.8967 28.4995 77.7797 28.4995 77.6578C28.4995 77.5359 28.548 77.4189 28.6342 77.3327C28.7204 77.2464 28.8374 77.198 28.9593 77.198H46.1268C46.2487 77.198 46.3657 77.2464 46.4519 77.3327C46.5381 77.4189 46.5866 77.5359 46.5866 77.6578C46.5866 77.7797 46.5381 77.8967 46.4519 77.9829C46.3657 78.0692 46.2487 78.1176 46.1268 78.1176Z" fill="#D87CAC" stroke="#263238" stroke-width="0.5" stroke-linecap="round" stroke-linejoin="round"/>
<path d="M46.1268 96.0353H28.9593C28.8374 96.0353 28.7204 95.9868 28.6342 95.9006C28.548 95.8144 28.4995 95.6974 28.4995 95.5755C28.4995 95.4535 28.548 95.3366 28.6342 95.2503C28.7204 95.1641 28.8374 95.1157 28.9593 95.1157H46.1268C46.2487 95.1157 46.3657 95.1641 46.4519 95.2503C46.5381 95.3366 46.5866 95.4535 46.5866 95.5755C46.5866 95.6974 46.5381 95.8144 46.4519 95.9006C46.3657 95.9868 46.2487 96.0353 46.1268 96.0353Z" fill="#D87CAC" stroke="#263238" stroke-width="0.5" stroke-linecap="round" stroke-linejoin="round"/>
</svg>
