<svg width="16" height="20" viewBox="0 0 16 20" fill="none" xmlns="http://www.w3.org/2000/svg">
<path d="M8.16675 9.99972C9.15562 9.99972 10.1223 9.70649 10.9445 9.15709C11.7667 8.6077 12.4076 7.82683 12.786 6.91323C13.1644 5.99962 13.2635 4.99432 13.0705 4.02444C12.8776 3.05456 12.4014 2.16367 11.7022 1.46443C11.0029 0.765184 10.112 0.288994 9.14217 0.0960732C8.17229 -0.0968475 7.16699 0.00216637 6.25338 0.380594C5.33978 0.759022 4.55891 1.39987 4.00951 2.22209C3.46012 3.04431 3.16689 4.01098 3.16689 4.99986C3.16821 6.3255 3.6954 7.59647 4.63277 8.53384C5.57014 9.4712 6.84111 9.9984 8.16675 9.99972ZM8.16675 1.66662C8.826 1.66662 9.47045 1.86211 10.0186 2.22837C10.5667 2.59464 10.994 3.11522 11.2463 3.72429C11.4985 4.33336 11.5646 5.00356 11.4359 5.65015C11.3073 6.29673 10.9899 6.89066 10.5237 7.35682C10.0575 7.82298 9.46361 8.14044 8.81703 8.26906C8.17044 8.39767 7.50024 8.33166 6.89117 8.07938C6.2821 7.82709 5.76152 7.39986 5.39526 6.85171C5.029 6.30356 4.83351 5.65911 4.83351 4.99986C4.83351 4.11583 5.18468 3.26801 5.80979 2.64291C6.43489 2.0178 7.28272 1.66662 8.16675 1.66662Z" fill="#166534"/>
<path d="M8.16675 11.6669C6.17836 11.6691 4.27204 12.4599 2.86604 13.8659C1.46003 15.2719 0.669167 17.1783 0.666962 19.1667C0.666962 19.3877 0.754757 19.5996 0.911033 19.7559C1.06731 19.9122 1.27926 20 1.50027 20C1.72128 20 1.93323 19.9122 2.08951 19.7559C2.24579 19.5996 2.33358 19.3877 2.33358 19.1667C2.33358 17.6196 2.94815 16.1359 4.04208 15.042C5.13601 13.9481 6.6197 13.3335 8.16675 13.3335C9.7138 13.3335 11.1975 13.9481 12.2914 15.042C13.3854 16.1359 13.9999 17.6196 13.9999 19.1667C13.9999 19.3877 14.0877 19.5996 14.244 19.7559C14.4003 19.9122 14.6122 20 14.8332 20C15.0542 20 15.2662 19.9122 15.4225 19.7559C15.5787 19.5996 15.6665 19.3877 15.6665 19.1667C15.6643 17.1783 14.8735 15.2719 13.4675 13.8659C12.0615 12.4599 10.1551 11.6691 8.16675 11.6669Z" fill="#166534"/>
</svg>
