<svg width="18" height="18" viewBox="0 0 18 18" fill="none" xmlns="http://www.w3.org/2000/svg">
<g clip-path="url(#clip0_2_31)">
<path d="M17.7801 16.7203L13.3033 12.2435C14.5233 10.7515 15.1231 8.8476 14.9787 6.9257C14.8343 5.0038 13.9567 3.21093 12.5275 1.91792C11.0983 0.624914 9.22678 -0.0693001 7.30007 -0.0211262C5.37336 0.0270477 3.53886 0.813923 2.17605 2.17674C0.813229 3.53956 0.0263534 5.37405 -0.0218205 7.30076C-0.0699943 9.22748 0.624219 11.099 1.91723 12.5282C3.21023 13.9574 5.00311 14.835 6.92501 14.9794C8.84691 15.1238 10.7508 14.524 12.2428 13.304L16.7196 17.7808C16.861 17.9174 17.0505 17.993 17.2471 17.9913C17.4438 17.9896 17.6319 17.9107 17.771 17.7716C17.91 17.6326 17.9889 17.4445 17.9906 17.2478C17.9923 17.0512 17.9167 16.8617 17.7801 16.7203ZM7.49984 13.5005C6.31315 13.5005 5.15311 13.1486 4.16642 12.4893C3.17972 11.8301 2.41069 10.893 1.95656 9.79663C1.50243 8.70027 1.38361 7.49388 1.61512 6.32999C1.84664 5.1661 2.41808 4.09701 3.2572 3.25789C4.09631 2.41878 5.16541 1.84733 6.3293 1.61582C7.49318 1.38431 8.69958 1.50313 9.79594 1.95725C10.8923 2.41138 11.8294 3.18041 12.4887 4.16711C13.1479 5.1538 13.4998 6.31384 13.4998 7.50053C13.4981 9.09128 12.8653 10.6164 11.7405 11.7412C10.6157 12.866 9.09059 13.4987 7.49984 13.5005Z" fill="#166534"/>
</g>
<defs>
<clipPath id="clip0_2_31">
<rect width="18" height="18" fill="white"/>
</clipPath>
</defs>
</svg>
