<svg width="459" height="689" viewBox="0 0 459 689" fill="none" xmlns="http://www.w3.org/2000/svg">
<path d="M229.283 344.63C229.283 281.388 280.553 229.858 344.055 229.858C407.297 229.858 458.827 281.128 458.827 344.63C458.827 407.872 407.557 459.402 344.055 459.402C280.813 459.402 229.283 407.872 229.283 344.63Z" fill="#1ABCFE"/>
<path d="M0 573.914C0 510.672 51.27 459.142 114.772 459.142H229.544V573.914C229.544 637.156 178.274 688.686 114.772 688.686C51.27 688.686 0 637.416 0 573.914Z" fill="#0ACF83"/>
<path d="M229.283 0.574341V229.858H344.055C407.297 229.858 458.827 178.588 458.827 115.086C458.827 51.8444 407.557 0.314087 344.055 0.314087H229.283V0.574341Z" fill="#FF7262"/>
<path d="M0 115.346C0 178.588 51.27 230.118 114.772 230.118H229.544V0.574341H114.772C51.27 0.574341 0 51.8444 0 115.346Z" fill="#F24E1E"/>
<path d="M0 344.63C0 407.872 51.27 459.402 114.772 459.402H229.544V229.858H114.772C51.27 229.858 0 281.388 0 344.63Z" fill="#A259FF"/>
</svg>
