<svg width="26" height="24" viewBox="0 0 26 24" fill="none" xmlns="http://www.w3.org/2000/svg">
<path fill-rule="evenodd" clip-rule="evenodd" d="M13.004 0C6.17311 0 0.640381 5.50583 0.640381 12.3035C0.640381 17.7478 4.17947 22.3463 9.09402 23.9765C9.7122 24.0842 9.94402 23.715 9.94402 23.3921C9.94402 23.0999 9.92856 22.131 9.92856 21.1005C6.8222 21.6696 6.01856 20.347 5.77129 19.6549C5.6322 19.3012 5.02947 18.2092 4.50402 17.917C4.07129 17.6863 3.45311 17.1173 4.48856 17.1019C5.4622 17.0865 6.15765 17.9939 6.38947 18.363C7.5022 20.2239 9.27947 19.701 9.99038 19.3781C10.0986 18.5783 10.4231 18.04 10.7786 17.7325C8.02765 17.4249 5.15311 16.3637 5.15311 11.6576C5.15311 10.3196 5.6322 9.21227 6.42038 8.35102C6.29674 8.04343 5.86402 6.78232 6.54402 5.09058C6.54402 5.09058 7.57947 4.76762 9.94402 6.3517C10.9331 6.07487 11.984 5.93645 13.0349 5.93645C14.0858 5.93645 15.1367 6.07487 16.1258 6.3517C18.4904 4.75224 19.5258 5.09058 19.5258 5.09058C20.2058 6.78232 19.7731 8.04343 19.6495 8.35102C20.4377 9.21227 20.9167 10.3042 20.9167 11.6576C20.9167 16.3791 18.0267 17.4249 15.2758 17.7325C15.724 18.1169 16.1104 18.8552 16.1104 20.0086C16.1104 21.6542 16.0949 22.9768 16.0949 23.3921C16.0949 23.715 16.3267 24.0995 16.9449 23.9765C21.8286 22.3463 25.3677 17.7325 25.3677 12.3035C25.3677 5.50583 19.8349 0 13.004 0Z" fill="#1B1F23"/>
</svg>
