<svg width="33" height="24" viewBox="0 0 33 24" fill="none" xmlns="http://www.w3.org/2000/svg">
<path d="M2.54895 24H7.63857V11.6395L0.367676 6.1863V21.8187C0.367676 23.0257 1.34561 24 2.54895 24Z" fill="#4285F4"/>
<path d="M25.0887 24H30.1784C31.3853 24 32.3596 23.0221 32.3596 21.8187V6.1863L25.0887 11.6395" fill="#34A853"/>
<path d="M25.0887 2.18746V11.6395L32.3596 6.1863V3.27809C32.3596 0.580589 29.2804 -0.957206 27.1246 0.660569" fill="#FBBC04"/>
<path d="M7.63857 11.6395L7.63857 2.1873L16.3637 8.73111L25.0887 2.18746V11.6395L16.3637 18.1833" fill="#EA4335"/>
<path d="M0.367676 3.27809V6.1863L7.63857 11.6395L7.63857 2.1873L5.60272 0.660569C3.44327 -0.957206 0.367676 0.580589 0.367676 3.27809Z" fill="#C5221F"/>
</svg>
