<svg width="25" height="24" viewBox="0 0 25 24" fill="none" xmlns="http://www.w3.org/2000/svg">
<path fill-rule="evenodd" clip-rule="evenodd" d="M2.14143 0C1.16211 0 0.367676 0.77025 0.367676 1.71919V22.2814C0.367676 23.2304 1.16221 24 2.14143 24H22.5939C23.5736 24 24.3677 23.2303 24.3677 22.2811V1.71919C24.3677 0.77025 23.5736 0 22.5939 0H2.14143ZM7.66085 9.28002V20.0849H4.06948V9.28002H7.66085ZM7.89757 5.93849C7.89757 6.97536 7.11804 7.80505 5.86591 7.80505L5.84238 7.80496C4.63704 7.80496 3.85779 6.97527 3.85779 5.9384C3.85779 4.87799 4.66057 4.07146 5.88973 4.07146C7.11804 4.07146 7.87413 4.87799 7.89757 5.93849ZM13.2398 20.0849H9.64873C9.64873 20.0849 9.69579 10.294 9.64891 9.2804H13.2401V10.8098C13.7175 10.0737 14.5719 9.02671 16.4768 9.02671C18.8396 9.02671 20.6111 10.5711 20.6111 13.8897V20.0849H17.0201V14.3052C17.0201 12.8526 16.5001 11.8618 15.2009 11.8618C14.2085 11.8618 13.6176 12.53 13.3581 13.1754C13.2633 13.4058 13.2398 13.7291 13.2398 14.0516V20.0849Z" fill="#006699"/>
</svg>
