<svg width="50" height="50" viewBox="0 0 50 50" fill="none" xmlns="http://www.w3.org/2000/svg">
<path d="M44.7868 9.71979C41.7644 5.8061 37.6494 2.87659 32.962 1.30176C28.2746 -0.273073 23.2255 -0.422483 18.4533 0.872426C13.681 2.16733 9.39988 4.84839 6.15142 8.57653C2.90296 12.3047 0.833053 16.9124 0.203476 21.817C-0.426101 26.7216 0.412937 31.7027 2.61447 36.1305C4.81601 40.5582 8.28115 44.2336 12.5717 46.6918C16.8622 49.1501 21.7853 50.2808 26.7185 49.9409C31.6516 49.601 36.3732 47.8058 40.286 44.7823C51.2078 36.3417 53.2243 20.6456 44.7868 9.71979Z" fill="#FF6C37"/>
<path d="M33.4324 15.9291L22.891 26.5541L19.9121 23.4916C30.2871 13.1166 31.3277 14.0541 33.4324 15.9291Z" fill="white"/>
<path d="M22.8905 26.8448C22.7971 26.8426 22.7079 26.8055 22.6405 26.7409L19.6405 23.7409C19.5729 23.671 19.5352 23.5776 19.5352 23.4804C19.5352 23.3832 19.5729 23.2898 19.6405 23.2198C29.8694 12.9909 31.2654 13.4699 33.6819 15.6574C33.7223 15.6897 33.7547 15.7311 33.7764 15.7781C33.7981 15.8252 33.8085 15.8767 33.8069 15.9284C33.8225 16.03 33.7834 16.1339 33.7029 16.1995L23.1615 26.7417C23.0876 26.8095 22.9907 26.8459 22.8905 26.8448ZM20.4319 23.4909L22.8905 25.9495L32.8904 15.9495C32.5452 15.5168 32.0525 15.2266 31.5067 15.1344C30.9608 15.0421 30.4001 15.1543 29.9319 15.4495C28.1194 16.262 25.203 18.7409 20.4319 23.4909Z" fill="#FF6C37"/>
<path d="M25.9121 29.4916L23.0371 26.5541L33.5785 16.137C36.4121 18.9081 32.2035 23.5338 25.9121 29.4916Z" fill="white"/>
<path d="M25.9119 29.8666C25.8197 29.8593 25.7322 29.8229 25.6619 29.7627L22.7244 26.8877C22.6804 26.7809 22.6804 26.661 22.7244 26.5541C22.6932 26.4665 22.6932 26.3707 22.7244 26.283L33.2659 15.7416C33.3392 15.6727 33.436 15.6344 33.5366 15.6344C33.6371 15.6344 33.734 15.6727 33.8073 15.7416C34.1486 16.0558 34.4183 16.4399 34.598 16.8676C34.7777 17.2954 34.8632 17.7568 34.8487 18.2205C34.8487 21.033 31.6401 24.5744 26.1823 29.7416C26.1093 29.8138 26.0142 29.858 25.9119 29.8666ZM23.5784 26.5541L25.9323 28.9073C30.0987 24.9698 34.0784 20.9073 34.0987 18.1573C34.1213 17.5743 33.9286 17.0033 33.5573 16.5533L23.5784 26.5541Z" fill="#FF6C37"/>
<path d="M19.9945 23.5542L22.0781 25.6378C22.0914 25.6495 22.102 25.664 22.1093 25.6801C22.1166 25.6963 22.1204 25.7138 22.1204 25.7316C22.1204 25.7493 22.1166 25.7668 22.1093 25.783C22.102 25.7992 22.0914 25.8136 22.0781 25.8253L17.682 26.7628C17.5932 26.782 17.5007 26.7716 17.4184 26.7333C17.3361 26.695 17.2686 26.6308 17.2261 26.5506C17.1836 26.4703 17.1686 26.3784 17.1832 26.2888C17.1978 26.1992 17.2412 26.1168 17.307 26.0542L19.8695 23.5128C19.8695 23.5128 19.9531 23.5128 19.9945 23.5542Z" fill="white"/>
<path d="M17.5786 27.1792C17.4397 27.1774 17.3036 27.1401 17.1832 27.0708C17.0629 27.0014 16.9623 26.9024 16.8911 26.7831C16.811 26.632 16.7819 26.459 16.8083 26.29C16.8346 26.1211 16.9149 25.9651 17.0372 25.8456L19.5786 23.2831C19.6703 23.2012 19.7889 23.1559 19.9118 23.1559C20.0347 23.1559 20.1534 23.2012 20.245 23.2831L22.3286 25.3667C22.452 25.4839 22.5005 25.6612 22.4536 25.8253C22.4067 25.9893 22.2692 26.1198 22.0997 26.1589L17.7036 27.0964L17.5786 27.1792ZM19.9122 24.0128L17.5583 26.3667L21.4544 25.5331L19.9122 24.0128Z" fill="#FF6C37"/>
<path d="M39.0365 10.0745C37.5287 8.61984 35.1599 8.5589 33.5787 9.93155C31.9974 11.3042 31.7271 13.6605 32.9584 15.3558C34.1896 17.0511 36.5107 17.5261 38.3076 16.4495L35.474 13.6159L39.0365 10.0745Z" fill="white"/>
<path d="M36.2247 17.4073C35.3584 17.3962 34.5146 17.1304 33.7983 16.6431C33.082 16.1557 32.525 15.4684 32.1966 14.6667C31.8685 13.8656 31.7824 12.9858 31.949 12.1363C32.1156 11.2868 32.5276 10.5048 33.1341 9.88699C33.9682 9.06821 35.0903 8.6095 36.2591 8.6095C37.4279 8.6095 38.55 9.06821 39.3841 9.88699C39.4638 9.95417 39.5091 10.0534 39.5091 10.1581C39.5089 10.2096 39.4977 10.2604 39.4761 10.3072C39.4545 10.354 39.4231 10.3956 39.3841 10.4292L36.0091 13.6167L38.5716 16.1378C38.6131 16.1774 38.6443 16.2266 38.6624 16.2811C38.6805 16.3356 38.685 16.3937 38.6755 16.4503C38.6693 16.5049 38.6512 16.5575 38.6225 16.6043C38.5937 16.6512 38.555 16.6911 38.5091 16.7214C37.8207 17.1517 37.0293 17.3891 36.2177 17.4089L36.2247 17.4073ZM36.2247 9.32371C34.7404 9.33152 33.4122 10.2245 32.8552 11.5893C32.2982 12.9542 32.6013 14.5253 33.6419 15.5737C34.1595 16.0943 34.8223 16.4465 35.5434 16.5841C36.2645 16.7217 37.0104 16.6383 37.6833 16.3448L35.2247 13.8862C35.1856 13.855 35.1541 13.8153 35.1324 13.7702C35.1107 13.7251 35.0995 13.6757 35.0995 13.6257C35.0995 13.5756 35.1107 13.5262 35.1324 13.4811C35.1541 13.436 35.1856 13.3964 35.2247 13.3651L38.4747 10.094C37.8287 9.59889 37.0387 9.32893 36.2247 9.32371Z" fill="#FF6C37"/>
<path d="M39.0996 10.137L35.5371 13.6784L38.3707 16.512C38.6559 16.3482 38.9214 16.1524 39.1621 15.9284C39.9048 15.1434 40.3134 14.1006 40.3017 13.02C40.2901 11.9395 39.859 10.9057 39.0996 10.137Z" fill="white"/>
<path d="M38.3075 16.8244C38.2607 16.827 38.2139 16.819 38.1707 16.801C38.1274 16.783 38.0887 16.7555 38.0575 16.7205L35.2239 13.8869C35.1848 13.8557 35.1533 13.8161 35.1316 13.7709C35.1099 13.7258 35.0986 13.6764 35.0986 13.6264C35.0986 13.5764 35.1099 13.527 35.1316 13.4819C35.1533 13.4368 35.1848 13.3971 35.2239 13.3659L38.7653 9.88695C38.7995 9.83538 38.8459 9.79308 38.9005 9.76382C38.955 9.73455 39.0159 9.71924 39.0778 9.71924C39.1397 9.71924 39.2006 9.73455 39.2551 9.76382C39.3097 9.79308 39.3561 9.83538 39.3903 9.88695C39.8061 10.2943 40.1363 10.7805 40.3618 11.3171C40.5873 11.8537 40.7034 12.4299 40.7034 13.0119C40.7034 13.594 40.5873 14.1702 40.3618 14.7068C40.1363 15.2434 39.8061 15.7296 39.3903 16.1369C39.1451 16.3971 38.8644 16.6214 38.5567 16.8034C38.4792 16.8424 38.3904 16.85 38.3075 16.8244ZM36.0161 13.6166L38.37 15.9705C38.5319 15.857 38.6852 15.7317 38.8286 15.5955C39.5206 14.9055 39.9103 13.9689 39.9122 12.9916C39.9138 12.1171 39.595 11.2722 39.0161 10.6166L36.0161 13.6166Z" fill="#FF6C37"/>
<path d="M33.8699 16.3667C33.5877 16.1017 33.2152 15.9542 32.8281 15.9542C32.441 15.9542 32.0685 16.1017 31.7863 16.3667L22.3496 25.7823L23.9121 27.3659L33.891 18.6159C34.0432 18.4701 34.1639 18.2946 34.2457 18.1003C34.3275 17.9061 34.3687 17.6971 34.3668 17.4864C34.3648 17.2756 34.3197 17.0674 34.2342 16.8747C34.1488 16.6821 34.0248 16.5097 33.8699 16.3667Z" fill="white"/>
<path d="M23.8285 27.7417C23.7352 27.7394 23.646 27.7024 23.5785 27.6378L21.9949 26.0542C21.9274 25.9843 21.8896 25.8909 21.8896 25.7937C21.8896 25.6964 21.9274 25.603 21.9949 25.5331L31.4324 16.137C31.7043 15.8655 32.0514 15.6819 32.4288 15.6101C32.8062 15.5383 33.1965 15.5815 33.5491 15.7341C33.9017 15.8868 34.2002 16.1419 34.4061 16.4663C34.6119 16.7907 34.7155 17.1694 34.7035 17.5534C34.6927 17.8141 34.63 18.0699 34.5191 18.306C34.4081 18.5421 34.2512 18.7537 34.0574 18.9284L24.0785 27.6784C24.006 27.7298 23.9168 27.7529 23.8285 27.7417ZM22.7246 25.7823L23.766 26.8448L33.5574 18.3237C33.7996 18.1128 33.9442 17.8112 33.9535 17.4901C33.9629 17.169 33.8363 16.855 33.5996 16.6362C33.381 16.4185 33.0851 16.2963 32.7766 16.2963C32.4681 16.2963 32.1721 16.4185 31.9535 16.6362L22.7246 25.7823Z" fill="#FF6C37"/>
<path d="M15.0363 36.5119C15.0097 36.5481 14.9953 36.5919 14.9953 36.6369C14.9953 36.6819 15.0097 36.7257 15.0363 36.7619L15.4527 38.5744C15.4694 38.6811 15.4536 38.7903 15.4073 38.8878C15.3611 38.9854 15.2865 39.0667 15.1934 39.1213C15.1005 39.1756 14.9929 39.199 14.8859 39.1882C14.7789 39.1774 14.6781 39.1329 14.598 39.0611L11.7441 36.3111L20.6402 27.3447H23.7238L25.8074 29.4283C22.5572 32.2701 18.9332 34.6534 15.0363 36.5119Z" fill="white"/>
<path d="M14.8493 39.5744C14.6134 39.5698 14.3805 39.4729 14.2243 39.3034L11.4954 36.5744C11.4563 36.5432 11.4247 36.5035 11.4031 36.4584C11.3814 36.4133 11.3701 36.3639 11.3701 36.3139C11.3701 36.2639 11.3814 36.2145 11.4031 36.1694C11.4247 36.1243 11.4563 36.0846 11.4954 36.0534L20.4532 27.0744C20.5034 27.0211 20.5689 26.9848 20.6407 26.9705H23.7446C23.8255 26.9419 23.9137 26.9419 23.9946 26.9705L26.0782 29.0541C26.1178 29.0907 26.148 29.1363 26.1661 29.187C26.1842 29.2378 26.1897 29.2922 26.1821 29.3455C26.1836 29.3973 26.173 29.4487 26.1514 29.4957C26.1297 29.5428 26.0974 29.5841 26.0571 29.6166L25.8907 29.7627C22.6273 32.4833 19.0371 34.7857 15.2032 36.6166L15.5993 38.3041C15.6299 38.4343 15.6311 38.5697 15.6027 38.7004C15.5744 38.8311 15.5172 38.9538 15.4354 39.0595C15.3535 39.1653 15.2491 39.2515 15.1298 39.3118C15.0104 39.3721 14.8791 39.405 14.7454 39.408L14.8493 39.5744ZM12.3079 36.3034L14.7657 38.7823C14.7886 38.8027 14.8182 38.814 14.8489 38.814C14.8796 38.814 14.9092 38.8027 14.9321 38.7823C14.9474 38.761 14.9557 38.7354 14.9557 38.7092C14.9557 38.683 14.9474 38.6574 14.9321 38.6362L14.5157 36.8237C14.4829 36.6936 14.4961 36.5562 14.553 36.4347C14.61 36.3132 14.7072 36.2152 14.8282 36.1573C18.559 34.3508 22.0567 32.0981 25.2446 29.4487L23.536 27.7401H20.7446L12.3079 36.3034Z" fill="#FF6C37"/>
<path d="M9.59962 38.4494L11.6832 36.3658L14.8918 39.5744L9.7879 39.2205C9.70027 39.2137 9.61705 39.1793 9.55011 39.1223C9.48318 39.0653 9.43594 38.9887 9.41516 38.9033C9.39437 38.8179 9.40109 38.7281 9.43435 38.6467C9.46762 38.5654 9.52573 38.4966 9.6004 38.4502L9.59962 38.4494Z" fill="white"/>
<path d="M14.9535 39.887L9.86987 39.5331C9.56831 39.505 9.30893 39.2987 9.20268 39.0229C9.09643 38.7472 9.16127 38.4198 9.36987 38.1995L11.4535 36.1159C11.5234 36.0484 11.6168 36.0106 11.714 36.0106C11.8112 36.0106 11.9046 36.0484 11.9746 36.1159L15.1621 39.3034C15.2062 39.3639 15.23 39.4368 15.23 39.5116C15.23 39.5865 15.2062 39.6594 15.1621 39.7198C15.1139 39.7977 15.0401 39.8573 14.9535 39.887ZM9.86987 38.7206L14.0363 38.9917L11.7449 36.8456L9.86987 38.7206Z" fill="#FF6C37"/>
<path d="M24.0152 27.5964L19.8066 28.2425L22.2441 25.826L24.0152 27.5964Z" fill="white"/>
<path d="M19.8072 28.637C19.7372 28.6388 19.6683 28.62 19.6089 28.5829C19.5496 28.5459 19.5025 28.4921 19.4736 28.4284C19.4292 28.3681 19.4053 28.2951 19.4053 28.2202C19.4053 28.1453 19.4292 28.0724 19.4736 28.012L21.89 25.5745C21.9633 25.5056 22.0601 25.4673 22.1607 25.4673C22.2613 25.4673 22.3581 25.5056 22.4314 25.5745L24.2032 27.3448C24.2386 27.401 24.2574 27.466 24.2574 27.5323C24.2574 27.5987 24.2386 27.6637 24.2032 27.7198C24.1859 27.7882 24.1491 27.8502 24.0975 27.8983C24.0458 27.9464 23.9813 27.9785 23.9118 27.9909L19.7454 28.637H19.8072ZM22.2446 26.3659L20.8907 27.7198L23.2243 27.3659L22.2446 26.3659Z" fill="#FF6C37"/>
<path d="M24.0156 27.5948L21.0781 27.9698C20.9995 27.9877 20.9172 27.9797 20.8435 27.9471C20.7698 27.9145 20.7085 27.859 20.6688 27.7889C20.6291 27.7188 20.613 27.6377 20.623 27.5577C20.633 27.4777 20.6685 27.4031 20.7242 27.3448L22.2453 25.8237L24.0156 27.5948Z" fill="white"/>
<path d="M20.9948 28.3666C20.8587 28.3653 20.7253 28.328 20.6082 28.2584C20.4912 28.1889 20.3946 28.0895 20.3284 27.9705C20.2489 27.8279 20.218 27.6633 20.2406 27.5015C20.2632 27.3398 20.3379 27.1898 20.4534 27.0745L21.9745 25.5534C22.0478 25.4845 22.1446 25.4461 22.2452 25.4461C22.3458 25.4461 22.4426 25.4845 22.5159 25.5534L24.287 27.3245C24.3397 27.3744 24.3768 27.4385 24.3937 27.509C24.4107 27.5796 24.4068 27.6535 24.3826 27.7219C24.3583 27.7903 24.3148 27.8502 24.2572 27.8943C24.1996 27.9385 24.1305 27.9649 24.0581 27.9705L21.1417 28.3455L20.9948 28.3666ZM20.9948 27.5955L23.2034 27.3245L22.2245 26.3455L20.9745 27.5955H20.9948ZM39.1198 12.5331C39.0806 12.4673 39.0186 12.4183 38.9456 12.3952C38.8725 12.3722 38.7936 12.3767 38.7237 12.4081C38.6893 12.4255 38.6586 12.4497 38.6337 12.4793C38.6087 12.5088 38.5899 12.543 38.5784 12.5799C38.5552 12.6544 38.5625 12.735 38.5987 12.8041C38.7448 13.1112 38.7042 13.4745 38.4948 13.7416C38.4688 13.7674 38.4485 13.7982 38.435 13.8323C38.4216 13.8663 38.4153 13.9027 38.4167 13.9393C38.4175 14.0126 38.4453 14.083 38.4948 14.137C38.5483 14.1581 38.6078 14.1581 38.6612 14.137C38.7098 14.1492 38.7607 14.1478 38.8085 14.1331C38.8563 14.1183 38.8991 14.0908 38.9323 14.0534C39.1039 13.8433 39.2125 13.589 39.2457 13.3199C39.2789 13.0507 39.2352 12.7785 39.1198 12.5331Z" fill="#FF6C37"/>
</svg>
