<svg width="44" height="50" viewBox="0 0 44 50" fill="none" xmlns="http://www.w3.org/2000/svg">
<g clip-path="url(#clip0_196_631)">
<path d="M43.88 25.0045C43.88 22.0976 40.2397 19.3428 34.6586 17.6345C35.9465 11.946 35.3741 7.42026 32.8519 5.9713C32.2705 5.63143 31.5907 5.47043 30.8484 5.47043V7.46498C31.2598 7.46498 31.5907 7.54547 31.868 7.69752C33.0844 8.39517 33.6121 11.0516 33.2007 14.4682C33.1023 15.309 32.9413 16.1945 32.7445 17.0978C30.9915 16.6685 29.0774 16.3376 27.065 16.1229C25.8575 14.4682 24.6054 12.9656 23.3442 11.6508C26.26 8.94076 28.9969 7.45603 30.8573 7.45603V5.46149C28.3977 5.46149 25.1778 7.21454 21.9221 10.2556C18.6664 7.23243 15.4465 5.49726 12.9869 5.49726V7.49181C14.8383 7.49181 17.5842 8.96759 20.5 11.6598C19.2478 12.9746 17.9956 14.4682 16.8061 16.1229C14.7847 16.3376 12.8706 16.6685 11.1176 17.1068C10.9119 16.2124 10.7598 15.3448 10.6525 14.513C10.2321 11.0963 10.7509 8.43989 11.9583 7.7333C12.2267 7.57231 12.5755 7.50075 12.9869 7.50075V5.50621C12.2356 5.50621 11.5558 5.6672 10.9655 6.00708C8.45222 7.45603 7.88874 11.9728 9.18564 17.6434C3.62238 19.3607 0 22.1065 0 25.0045C0 27.9113 3.64027 30.6661 9.22142 32.3744C7.93346 38.0629 8.50589 42.5886 11.0281 44.0376C11.6095 44.3775 12.2893 44.5385 13.0406 44.5385C15.5002 44.5385 18.7201 42.7854 21.9758 39.7444C25.2314 42.7675 28.4513 44.5027 30.911 44.5027C31.6623 44.5027 32.3421 44.3417 32.9324 44.0018C35.4457 42.5529 36.0091 38.0361 34.7122 32.3655C40.2576 30.6572 43.88 27.9024 43.88 25.0045ZM32.2347 19.0387C31.9038 20.1925 31.4924 21.3821 31.0273 22.5716C30.6605 21.8561 30.2759 21.1406 29.8556 20.425C29.4441 19.7095 29.0059 19.0119 28.5676 18.3321C29.8377 18.5199 31.063 18.7525 32.2347 19.0387ZM28.1383 28.5642C27.4407 29.7717 26.7251 30.9165 25.9828 31.9809C24.6501 32.0972 23.2995 32.1598 21.94 32.1598C20.5894 32.1598 19.2389 32.0972 17.9151 31.9898C17.1728 30.9255 16.4483 29.7896 15.7506 28.5911C15.0709 27.4194 14.4537 26.2298 13.8903 25.0313C14.4448 23.8328 15.0709 22.6343 15.7417 21.4626C16.4394 20.2551 17.1549 19.1103 17.8972 18.0459C19.2299 17.9296 20.5805 17.867 21.94 17.867C23.2906 17.867 24.6411 17.9296 25.9649 18.037C26.7072 19.1013 27.4317 20.2372 28.1294 21.4357C28.8091 22.6074 29.4263 23.797 29.9897 24.9955C29.4263 26.194 28.8091 27.3925 28.1383 28.5642ZM31.0273 27.4015C31.5102 28.6 31.9217 29.7985 32.2616 30.9613C31.0899 31.2475 29.8556 31.489 28.5766 31.6768C29.0148 30.9881 29.4531 30.2815 29.8645 29.557C30.276 28.8415 30.6605 28.117 31.0273 27.4015ZM21.9579 36.9449C21.1261 36.0863 20.2943 35.1292 19.4714 34.0828C20.2764 34.1185 21.0993 34.1454 21.9311 34.1454C22.7718 34.1454 23.6036 34.1275 24.4175 34.0828C23.6126 35.1292 22.7808 36.0863 21.9579 36.9449ZM15.3034 31.6768C14.0334 31.489 12.808 31.2564 11.6363 30.9702C11.9673 29.8164 12.3787 28.6268 12.8438 27.4373C13.2105 28.1528 13.5951 28.8683 14.0155 29.5839C14.4359 30.2994 14.8652 30.997 15.3034 31.6768ZM21.9132 13.064C22.745 13.9227 23.5768 14.8797 24.3996 15.9261C23.5947 15.8904 22.7718 15.8635 21.94 15.8635C21.0993 15.8635 20.2674 15.8814 19.4535 15.9261C20.2585 14.8797 21.0903 13.9227 21.9132 13.064ZM15.2945 18.3321C14.8562 19.0208 14.418 19.7274 14.0065 20.4519C13.5951 21.1674 13.2105 21.8829 12.8438 22.5985C12.3608 21.4 11.9494 20.2014 11.6095 19.0387C12.7812 18.7614 14.0155 18.5199 15.2945 18.3321ZM7.20004 29.5302C4.03381 28.1796 1.9856 26.4087 1.9856 25.0045C1.9856 23.6002 4.03381 21.8203 7.20004 20.4787C7.96924 20.1478 8.80999 19.8526 9.67757 19.5754C10.1874 21.3284 10.8582 23.153 11.69 25.0223C10.8671 26.8827 10.2053 28.6984 9.7044 30.4425C8.81893 30.1652 7.97818 29.8611 7.20004 29.5302ZM12.012 42.3114C10.7956 41.6137 10.2679 38.9573 10.6793 35.5407C10.7777 34.6999 10.9387 33.8144 11.1355 32.9111C12.8885 33.3404 14.8026 33.6713 16.815 33.886C18.0225 35.5407 19.2746 37.0433 20.5358 38.3581C17.62 41.0681 14.8831 42.5529 13.0227 42.5529C12.6202 42.5439 12.2803 42.4634 12.012 42.3114ZM33.2275 35.4959C33.6479 38.9126 33.1291 41.569 31.9217 42.2756C31.6533 42.4366 31.3045 42.5082 30.8931 42.5082C29.0417 42.5082 26.2958 41.0324 23.38 38.3402C24.6322 37.0254 25.8844 35.5317 27.0739 33.877C29.0953 33.6624 31.0094 33.3315 32.7624 32.8932C32.9681 33.7966 33.1291 34.6641 33.2275 35.4959ZM36.671 29.5302C35.9018 29.8611 35.0611 30.1563 34.1935 30.4336C33.6837 28.6805 33.0129 26.8559 32.1811 24.9866C33.0039 23.1262 33.6658 21.3105 34.1667 19.5664C35.0521 19.8437 35.8929 20.1478 36.68 20.4787C39.8462 21.8293 41.8944 23.6002 41.8944 25.0045C41.8855 26.4087 39.8372 28.1886 36.671 29.5302Z" fill="#61DAFB"/>
<path d="M21.9312 29.0919C24.1887 29.0919 26.0187 27.2619 26.0187 25.0045C26.0187 22.747 24.1887 20.917 21.9312 20.917C19.6738 20.917 17.8438 22.747 17.8438 25.0045C17.8438 27.2619 19.6738 29.0919 21.9312 29.0919Z" fill="#61DAFB"/>
</g>
<defs>
<clipPath id="clip0_196_631">
<rect width="43.88" height="50" fill="white"/>
</clipPath>
</defs>
</svg>
