<svg width="53" height="50" viewBox="0 0 53 50" fill="none" xmlns="http://www.w3.org/2000/svg">
<path d="M36.493 34.9196C38.4366 34.7184 39.9111 33.0429 39.844 31.0321C39.7771 29.0215 38.1015 27.4128 36.0908 27.4128H35.9569C33.879 27.4799 32.2706 29.2225 32.3377 31.3001C32.4047 32.3056 32.8067 33.1768 33.4099 33.78C31.1312 38.2708 27.6461 41.5549 22.4185 44.3029C18.8663 46.1795 15.1802 46.8498 11.4941 46.3808C8.47803 45.9785 6.13227 44.6382 4.65758 42.4262C2.51302 39.1421 2.31202 35.5897 4.12164 32.0375C5.39513 29.4905 7.40555 27.6138 8.67903 26.6755C8.41096 25.8042 8.00875 24.3297 7.80775 23.2574C-1.91043 30.2949 -0.90502 39.8123 2.04395 44.3029C4.25557 47.6542 8.7461 49.7319 13.7057 49.7319C15.046 49.7319 16.3864 49.5978 17.7269 49.2629C26.3058 47.5872 32.8069 42.4932 36.493 34.9196ZM48.2889 26.6086C43.1952 20.6434 35.6888 17.3593 27.11 17.3593H26.0377C25.4345 16.1529 24.161 15.3485 22.7536 15.3485H22.6195C20.542 15.4155 18.9336 17.1581 19.0004 19.236C19.0675 21.2466 20.743 22.8552 22.7536 22.8552H22.8875C24.362 22.7882 25.6355 21.8498 26.1716 20.5763H27.3781C32.4718 20.5763 37.2972 22.0508 41.6538 24.9329C45.0048 27.1448 47.4176 30.0269 48.758 33.512C49.8973 36.327 49.8303 39.075 48.6239 41.421C46.7474 44.9731 43.5974 46.9169 39.442 46.9169C36.7611 46.9169 34.2143 46.1125 32.8738 45.5093C32.1367 46.1795 30.7961 47.2518 29.8578 47.9223C32.7399 49.2627 35.6888 50 38.5037 50C44.9377 50 49.6963 46.4476 51.506 42.8954C53.4495 39.0079 53.3154 32.3056 48.2889 26.6086ZM14.2418 36.0587C14.3089 38.0696 15.9844 39.678 17.995 39.678H18.1291C20.2068 39.6111 21.8153 37.8684 21.7482 35.7907C21.6813 33.7798 20.0056 32.1714 17.995 32.1714H17.8611C17.7269 32.1714 17.5257 32.1714 17.392 32.2383C14.644 27.6807 13.5047 22.7211 13.9069 17.3591C14.1748 13.3376 15.5153 9.85233 17.8611 6.97022C19.8046 4.49032 23.5578 3.2839 26.1048 3.21704C33.2089 3.0829 36.2248 11.93 36.426 15.4824C37.2972 15.6834 38.7717 16.1527 39.7771 16.4878C38.9727 5.63008 32.2706 0 25.8367 0C19.8046 0 14.2418 4.35659 12.03 10.7909C8.9471 19.3699 10.9577 27.6138 14.7109 34.1152C14.376 34.5843 14.1748 35.3214 14.2418 36.0587Z" fill="#764ABC"/>
</svg>
