<svg xmlns:xlink="http://www.w3.org/1999/xlink" xmlns="http://www.w3.org/2000/svg" width="70" height="18" fill="none">
  <path d="M6.371 7.047a6.65 6.65 0 0 0-3.256.849v9.417a.495.495 0 0 1-.472.493H.473A.495.495 0 0 1 0 17.313V5.06a.473.473 0 0 1 .472-.469H2.53A.482.482 0 0 1 3 5.06v.493a5.6 5.6 0 0 1 3.384-1.127.482.482 0 0 1 .472.469v1.683a.493.493 0 0 1-.486.47ZM18.82 12.277h-7.699v.076c0 1.354.562 2.975 2.835 2.975a45.184 45.184 0 0 0 4.342-.24h.076c.243 0 .421.114.421.356v1.544c0 .38-.076.544-.497.608a21.349 21.349 0 0 1-4.584.392c-2.363 0-5.72-1.266-5.72-5.873V10.38c0-3.658 2.055-5.95 5.668-5.95 3.64 0 5.62 2.456 5.62 5.95v1.316c.011.376-.131.58-.461.58Zm-2.669-2.29c0-1.823-1.02-2.886-2.477-2.886-1.456 0-2.529 1.025-2.529 2.885v.09h5.006v-.09ZM32.394 17.795h-2.17a.495.495 0 0 1-.473-.493v-7.62c0-2.039-.191-2.62-2.005-2.62a6.02 6.02 0 0 0-2.669.848v9.417a.488.488 0 0 1-.472.494h-2.17a.488.488 0 0 1-.472-.493V5.072a.474.474 0 0 1 .471-.468h2.057a.482.482 0 0 1 .472.468v.494a6.205 6.205 0 0 1 3.83-1.127c3.397 0 4.087 2.266 4.087 5.24v7.633a.505.505 0 0 1-.486.482ZM45.865 17.392c-1.553.391-3.148.595-4.75.608-3.805 0-5.644-2.23-5.644-5.873v-1.81c0-3.658 1.838-5.874 5.644-5.874.76.01 1.52.065 2.273.164V.468A.482.482 0 0 1 43.86 0h2.17a.482.482 0 0 1 .473.468v16.3c.001.33-.101.483-.638.624ZM43.391 7.124a19.41 19.41 0 0 0-2.274-.164c-2.03 0-2.527 1.427-2.527 3.354v1.797c0 1.925.497 3.355 2.527 3.355.761.002 1.521-.053 2.274-.164V7.123ZM59.989 12.277h-7.7v.076c0 1.354.562 2.975 2.835 2.975a45.184 45.184 0 0 0 4.342-.24h.076c.23 0 .421.114.421.356v1.544c0 .38-.076.544-.497.608a21.35 21.35 0 0 1-4.584.392c-2.362 0-5.72-1.266-5.72-5.873V10.38c0-3.658 2.055-5.95 5.668-5.95 3.64 0 5.62 2.456 5.62 5.95v1.316c.011.376-.131.58-.462.58Zm-2.67-2.29c0-1.823-1.02-2.886-2.477-2.886-1.456 0-2.529 1.025-2.529 2.885v.09h5.006v-.09ZM69.515 7.047a6.65 6.65 0 0 0-3.256.849v9.417a.495.495 0 0 1-.472.493h-2.171a.496.496 0 0 1-.337-.152.487.487 0 0 1-.135-.341V5.06a.482.482 0 0 1 .472-.468h2.055a.482.482 0 0 1 .473.468v.493a5.6 5.6 0 0 1 3.383-1.127.482.482 0 0 1 .473.469v1.683a.485.485 0 0 1-.485.47Z" fill="#2F2F4C"/>
</svg>