<svg width="67" height="50" viewBox="0 0 67 50" fill="none" xmlns="http://www.w3.org/2000/svg">
<g clip-path="url(#clip0_196_668)">
<path d="M57.3702 28.724C55.0395 28.7372 53.0212 29.2969 51.3285 30.1304C50.7035 28.8934 50.0785 27.8125 49.9745 27.0054C49.8573 26.0679 49.7141 25.4948 49.8573 24.3752C50.0004 23.2553 50.6515 21.6667 50.6515 21.5365C50.6383 21.4193 50.5081 20.8464 49.1671 20.8334C47.8261 20.8204 46.6671 21.0938 46.5369 21.4454C46.4067 21.7969 46.1462 22.6042 45.977 23.4375C45.7426 24.6615 43.2947 28.9974 41.9015 31.2761C41.4457 30.3907 41.0551 29.6094 40.9768 28.9843C40.8598 28.0469 40.7164 27.4739 40.8598 26.3542C41.003 25.2343 41.6541 23.6459 41.6541 23.5157C41.641 23.3985 41.5108 22.8256 40.1698 22.8125C38.8285 22.7995 37.6698 23.073 37.5396 23.4245C37.4094 23.7761 37.2662 24.6094 36.9797 25.4167C36.7061 26.224 33.4509 33.4636 32.6046 35.3516C32.1749 36.3152 31.7974 37.0834 31.5238 37.6042C31.2504 38.125 31.5108 37.6433 31.4848 37.6954C31.2504 38.1381 31.1202 38.3855 31.1202 38.3855V38.3986C30.9379 38.7241 30.7426 39.0365 30.6513 39.0365C30.5862 39.0365 30.456 38.1641 30.6774 36.9663C31.1591 34.4532 32.331 30.534 32.3181 30.3908C32.3181 30.3257 32.5393 29.6355 31.5628 29.284C30.6123 28.9325 30.2738 29.5184 30.1956 29.5184C30.1175 29.5184 30.0524 29.7267 30.0524 29.7267C30.0524 29.7267 31.1071 25.3128 28.0341 25.3128C26.1071 25.3128 23.4508 27.4092 22.1357 29.3232C21.3024 29.7789 19.5315 30.7424 17.6565 31.7711C16.9404 32.1618 16.1982 32.5784 15.4951 32.956L15.352 32.7995C11.628 28.8282 4.74 26.0157 5.02645 20.6771C5.13062 18.737 5.8077 13.6198 18.2558 7.42192C28.4511 2.34379 36.6151 3.73702 38.0343 6.83598C40.0525 11.2631 33.6723 19.4922 23.0735 20.6771C19.037 21.1329 16.9145 19.5704 16.3807 18.9844C15.8209 18.3724 15.7427 18.3464 15.5344 18.4636C15.1959 18.6459 15.4042 19.1928 15.5344 19.5183C15.8469 20.3386 17.149 21.7969 19.3625 22.5261C21.3025 23.1641 26.0422 23.5157 31.7714 21.3021C38.1906 18.8151 43.2037 11.9141 41.7323 6.14588C40.2349 0.273481 30.4953 -1.6536 21.2896 1.61463C15.8077 3.56775 9.8702 6.61463 5.59937 10.612C0.521245 15.3516 -0.286046 19.4922 0.0524954 21.211C1.23752 27.3438 9.68791 31.3412 13.0733 34.2969C12.9041 34.3879 12.7478 34.4791 12.6046 34.5573C10.9119 35.3905 4.46656 38.7631 2.85197 42.3306C1.02906 46.3671 3.13843 49.2709 4.54468 49.6615C8.89364 50.8724 13.3468 48.698 15.7556 45.1172C18.1513 41.5365 17.865 36.8881 16.7582 34.7657L16.719 34.6875L18.0472 33.9063C18.9067 33.3985 19.753 32.9297 20.4951 32.526C20.0785 33.6588 19.7789 34.9999 19.6228 36.953C19.4405 39.2448 20.378 42.2135 21.615 43.3853C22.1619 43.893 22.8129 43.9062 23.2166 43.9062C24.6488 43.9062 25.2999 42.7211 26.016 41.302C26.9015 39.5702 27.6827 37.565 27.6827 37.565C27.6827 37.565 26.7061 42.9947 29.3754 42.9947C30.352 42.9947 31.3285 41.7317 31.7712 41.0806V41.0937C31.7712 41.0937 31.7973 41.0546 31.8494 40.9635C31.904 40.8827 31.9561 40.8002 32.0056 40.7162V40.6902C32.3962 40.0131 33.2686 38.4636 34.5707 35.8985C36.2503 32.5912 37.865 28.4506 37.865 28.4506C37.865 28.4506 38.0212 29.4662 38.503 31.1329C38.7893 32.1226 39.4143 33.2032 39.8961 34.2579C39.5055 34.8047 39.2711 35.1174 39.2711 35.1174L39.2841 35.1304C38.9718 35.5471 38.6201 35.9899 38.2556 36.4325C36.9275 38.021 35.339 39.831 35.1306 40.3519C34.8832 40.9637 34.9353 41.4194 35.4171 41.7842C35.7686 42.0446 36.3936 42.0965 37.0577 42.0446C38.2556 41.9663 39.089 41.667 39.5056 41.4846C40.1567 41.2502 40.8988 40.8986 41.615 40.3778C42.9171 39.4144 43.7113 38.0472 43.6332 36.2243C43.5942 35.2217 43.2686 34.2321 42.865 33.2946C42.9822 33.1253 43.0995 32.9559 43.2166 32.7737C45.2738 29.7658 46.8624 26.4586 46.8624 26.4586C46.8624 26.4586 47.0186 27.4743 47.5004 29.1409C47.7477 29.9873 48.2426 30.9119 48.6853 31.8234C46.7582 33.3989 45.5473 35.2218 45.1306 36.4197C44.3624 38.6333 44.9613 39.6359 46.0942 39.8702C46.6018 39.9744 47.3311 39.74 47.8779 39.5056C48.555 39.2843 49.3753 38.9066 50.1306 38.3468C51.4327 37.3832 52.6827 36.0421 52.6176 34.2322C52.5785 33.3989 52.3572 32.5786 52.0577 31.7973C53.6983 31.1202 55.8206 30.7296 58.516 31.0551C64.3103 31.7322 65.4561 35.352 65.2349 36.8624C65.0136 38.373 63.8026 39.2062 63.3988 39.4666C62.9952 39.714 62.865 39.8053 62.9041 39.9874C62.9561 40.261 63.1384 40.2478 63.49 40.1959C63.9718 40.1176 66.5369 38.9589 66.641 36.1726C66.7973 32.5913 63.3988 28.6851 57.3702 28.724ZM12.6827 43.7891C10.7686 45.8855 8.07333 46.6797 6.9275 46.0026C5.69052 45.2865 6.17216 42.2006 8.52906 39.974C9.96135 38.6198 11.8233 37.3698 13.0473 36.6016C13.3207 36.4323 13.7374 36.1851 14.2322 35.8855C14.3103 35.8335 14.3624 35.8073 14.3624 35.8073C14.4535 35.7553 14.5577 35.6902 14.6619 35.625C15.5343 38.8021 14.7009 41.5886 12.6827 43.7891ZM26.6801 34.2709C26.016 35.8985 24.6098 40.0782 23.7634 39.8438C23.0341 39.6485 22.5916 36.4844 23.6201 33.3594C24.1409 31.7838 25.2477 29.9089 25.8987 29.1796C26.9535 28.0077 28.0992 27.6171 28.3858 28.0989C28.7244 28.724 27.0968 33.2553 26.6801 34.2709ZM38.2296 39.7917C37.9431 39.9351 37.6827 40.0391 37.5655 39.9611C37.4744 39.909 37.6826 39.7137 37.6826 39.7137C37.6826 39.7137 39.1279 38.1642 39.7008 37.4481C40.0263 37.0316 40.4169 36.5498 40.8336 36.0028V36.159C40.8337 38.0339 39.0369 39.2839 38.2296 39.7917ZM47.1357 37.7605C46.9274 37.6042 46.9535 37.1224 47.6565 35.612C47.9301 35.0131 48.555 34.0105 49.6357 33.0599C49.7659 33.4506 49.8442 33.828 49.831 34.1797C49.8181 36.5235 48.1515 37.3959 47.1357 37.7605Z" fill="#CF649A"/>
</g>
<defs>
<clipPath id="clip0_196_668">
<rect width="66.6667" height="50" fill="white"/>
</clipPath>
</defs>
</svg>
