<svg width="122" height="81" viewBox="0 0 122 81" fill="none" xmlns="http://www.w3.org/2000/svg">
<path d="M102.313 9.5418C100.501 10.0587 98.6589 10.4596 96.7966 10.7421C88.333 12.0021 68.8246 14.7012 59.3672 14.314C47.093 13.8107 8.19392 0.389357 5.25604 8.10593C2.31816 15.8225 3.18129 72.3602 8.88927 73.5347C14.5972 74.7092 34.822 65.4825 46.751 65.1453C58.68 64.8081 87.2037 73.8702 98.9584 74.38C110.713 74.8899 111.752 73.0378 114.519 63.14C117.286 53.2422 120.224 20.6883 119.706 13.1395C119.264 6.72169 106.707 8.30437 102.313 9.5418Z" fill="#5271FF"/>
<path opacity="0.7" d="M102.313 9.5418C100.501 10.0587 98.6589 10.4596 96.7966 10.7421C88.333 12.0021 68.8246 14.7012 59.3672 14.314C47.093 13.8107 8.19392 0.389357 5.25604 8.10593C2.31816 15.8225 3.18129 72.3602 8.88927 73.5347C14.5972 74.7092 34.822 65.4825 46.751 65.1453C58.68 64.8081 87.2037 73.8702 98.9584 74.38C110.713 74.8899 111.752 73.0378 114.519 63.14C117.286 53.2422 120.224 20.6883 119.706 13.1395C119.264 6.72169 106.707 8.30437 102.313 9.5418Z" fill="white"/>
<path opacity="0.15" d="M5.13995 35.4664C7.12919 35.9391 9.64276 35.5826 10.4139 35.4535C10.4139 36.5216 10.4365 37.6461 10.5414 38.8157C10.6736 40.5247 10.9581 42.2184 11.3916 43.8767C11.3916 43.8961 11.4045 43.9171 11.4094 43.9364C11.1157 43.4734 10.2494 42.2086 10.18 42.1134C9.08778 40.8501 6.23379 39.048 4.51236 39.7821C3.27171 40.3097 2.90871 41.7939 3.53146 42.9265C4.16711 44.0833 5.6901 44.656 6.91946 44.8367C8.31176 45.0384 11.2416 44.1914 11.4739 44.1204C11.9539 45.8014 12.5457 47.4486 13.2453 49.0507C13.6487 49.9832 14.0843 50.9109 14.536 51.8337C14.2698 51.4433 14.0278 51.0948 13.9891 51.0496C12.8952 49.7864 10.0413 47.9843 8.31983 48.72C7.08079 49.2459 6.71779 50.7318 7.34054 51.8644C7.97619 53.0211 9.49756 53.5939 10.7285 53.7729C11.9595 53.952 14.4941 53.2889 15.1571 53.0937C15.3314 53.447 15.504 53.802 15.6799 54.1537C16.5285 55.8428 17.3819 57.5239 18.1692 59.2002C18.4467 59.7907 18.6984 60.3811 18.9533 60.9749C18.7145 60.6264 18.5113 60.3295 18.4693 60.2956C17.3771 59.0324 14.5231 57.2303 12.8017 57.9644C11.5626 58.4919 11.198 59.9762 11.8208 61.1088C12.4661 62.2671 13.9794 62.8383 15.2088 63.0189C16.4042 63.1932 18.7291 62.5914 19.5164 62.3736C19.7584 62.9867 20.0004 63.5997 20.2085 64.2047C20.3408 64.621 20.4973 65.0114 20.6054 65.4389C20.7135 65.8665 20.8377 66.273 20.9538 66.6828C21.1442 67.4814 21.3475 68.3058 21.5153 69.0899C21.6363 69.6336 21.7395 70.1547 21.8476 70.6807C21.5782 70.0886 21.0264 68.9431 20.9684 68.8528C20.081 67.4395 17.532 65.2292 15.7202 65.6922C14.4134 66.0246 13.8294 67.4363 14.2682 68.6511C14.7215 69.8917 16.1397 70.6871 17.3335 71.0517C18.6468 71.4535 21.554 71.0872 21.917 71.0388C22.0912 71.9068 22.2526 72.7538 22.3913 73.5556C22.5075 74.2139 22.615 74.8458 22.714 75.4513H23.8933C23.7739 74.7855 23.6422 74.0864 23.4981 73.354C23.3238 72.4699 23.1206 71.5309 22.9044 70.5677C23.7795 70.2168 24.6333 69.8149 25.4615 69.3642C26.4182 70.4016 28.8705 71.6229 29.1883 71.7681C28.8543 72.5892 28.522 73.3814 28.1961 74.13C27.9977 74.5882 27.8024 75.0254 27.6105 75.4529H28.8479C28.9705 75.1609 29.0931 74.8657 29.2173 74.5607C29.5594 73.7283 29.9095 72.8329 30.2596 71.91C30.6113 71.9826 33.4862 72.5683 34.8317 72.265C36.0482 71.9907 37.5212 71.297 38.0584 70.0983C38.5908 68.9205 38.1133 67.4685 36.8371 67.0329C35.0624 66.4376 32.3569 68.451 31.3663 69.7949C31.3082 69.874 30.7694 70.8049 30.4386 71.3986C30.5806 71.0211 30.721 70.6549 30.8613 70.2693C31.1437 69.4981 31.4034 68.7205 31.6857 67.8831C31.8083 67.4744 31.932 67.062 32.0568 66.6457C32.1891 66.2359 32.2762 65.7842 32.3892 65.3551C32.6311 64.3435 32.8264 63.3061 32.999 62.2558C33.675 62.5011 36.0885 63.3416 37.3389 63.2529C38.5892 63.1641 40.1428 62.7092 40.864 61.6024C41.569 60.5199 41.3173 59.0114 40.1202 58.3935C38.4569 57.5368 35.4771 59.1163 34.2945 60.2956C34.2203 60.3682 33.4652 61.3088 33.0619 61.8331C33.1603 61.2023 33.2636 60.5715 33.3426 59.9294C33.5733 58.0757 33.7476 56.1913 33.9315 54.3118C33.9863 53.7374 34.0493 53.1647 34.1106 52.5904C34.3493 52.6807 37.1953 53.7407 38.5956 53.6423C39.8395 53.5551 41.4012 53.097 42.1208 51.9918C42.8403 50.8867 42.5757 49.3992 41.377 48.7829C39.7153 47.9246 36.7355 49.5057 35.5513 50.6834C35.4625 50.7721 34.38 52.1354 34.1203 52.4855C34.2542 51.2223 34.3994 49.9639 34.5913 48.7313C34.8438 47.063 35.2044 45.4128 35.6707 43.7912C35.782 43.8332 38.7473 44.9528 40.188 44.8528C41.4319 44.7657 42.9936 44.3075 43.7131 43.2008C44.4182 42.1182 44.1665 40.6097 42.9694 39.9935C41.3077 39.1352 38.3278 40.7162 37.1436 41.894C37.0662 41.9714 36.2402 43.0023 35.853 43.5073L35.7578 43.4589C36.2708 41.8403 36.9274 40.2707 37.7196 38.7689C38.1455 37.9365 38.5989 37.1653 39.0571 36.4231C39.5878 36.6893 42.0272 37.8751 43.3275 37.9252C44.5747 37.9752 46.1751 37.6928 47.014 36.6716C47.853 35.6504 47.7497 34.1467 46.6268 33.4014C45.0683 32.3656 41.9336 33.6095 40.6268 34.6501C40.5784 34.6904 40.2493 35.0147 39.896 35.3696C39.896 35.2922 39.896 35.2083 39.896 35.0986C39.9476 35.0179 40.0009 34.9373 40.0573 34.8566C40.8398 33.6789 41.6287 32.648 42.3337 31.7413C42.7403 31.2282 43.1178 30.7733 43.4744 30.3506C44.131 30.3377 46.7769 30.2586 47.9352 29.7149C49.0646 29.1841 50.3552 28.1951 50.6279 26.9045C50.8957 25.6396 50.1165 24.3232 48.7774 24.1796C46.9172 23.9795 44.7086 26.527 44.0277 28.0516C43.9697 28.1839 43.2888 30.3506 43.3227 30.3506H43.363C43.0113 30.7491 42.6387 31.1814 42.2337 31.6622C41.5109 32.5512 40.701 33.5611 39.896 34.7195C39.8799 32.9206 39.562 29.1857 37.1888 28.9599C34.0541 28.6614 33.1555 32.2414 35.0996 34.1822C36.4596 35.5423 38.2568 35.7278 39.2119 35.7181C38.6102 36.6135 38.0068 37.5783 37.4373 38.6221C36.605 40.1207 35.9074 41.6901 35.3528 43.3121C35.3528 43.3298 35.3432 43.3508 35.3367 43.3702C35.3464 42.8232 35.3222 41.2906 35.3061 41.1728C35.0915 39.5159 33.704 36.4425 31.8648 36.1021C30.5403 35.8569 29.4174 36.8959 29.3125 38.1849C29.2044 39.4998 30.1579 40.8163 31.0872 41.6487C32.1359 42.5845 35.0479 43.4928 35.2819 43.5638C34.7591 45.2279 34.3484 46.9251 34.0525 48.6442C33.8734 49.646 33.7298 50.6592 33.5879 51.6772C33.5879 51.2029 33.5717 50.7786 33.5637 50.7205C33.3491 49.0636 31.96 45.9902 30.1224 45.6498C28.7963 45.4046 27.675 46.442 27.5685 47.731C27.4604 49.0475 28.4155 50.364 29.3432 51.1948C30.2708 52.0257 32.7538 52.8614 33.4088 53.0711C33.362 53.4616 33.3088 53.852 33.262 54.2424C33.0377 56.1203 32.8231 57.9934 32.5537 59.8262C32.4601 60.4715 32.344 61.1039 32.231 61.7363C32.231 61.3153 32.2165 60.9603 32.2085 60.9071C31.9939 59.2502 30.6064 56.1768 28.7672 55.8364C27.4411 55.5928 26.3198 56.6301 26.2133 57.9192C26.1068 59.2341 27.0603 60.5522 27.988 61.383C28.8882 62.1897 31.1582 62.9673 31.9374 63.2206C31.8003 63.8659 31.6648 64.5113 31.5034 65.1292C31.384 65.5487 31.2985 65.9617 31.1549 66.3763L30.7581 67.6057C30.4757 68.3784 30.1918 69.177 29.8982 69.924C29.6981 70.4435 29.4981 70.9372 29.298 71.4341C29.3996 70.7888 29.5707 69.532 29.5739 69.4255C29.5538 67.956 29.1572 66.5162 28.422 65.2437C28.4267 65.0818 28.4165 64.9198 28.3913 64.7597C28.1848 63.4836 26.9861 62.535 25.6841 62.8818C23.8772 63.3658 22.7301 66.536 22.6446 68.2058C22.6446 68.3042 22.7043 69.3771 22.7559 70.0547C22.6656 69.661 22.5817 69.2787 22.4833 68.8753C22.2929 68.0687 22.0816 67.283 21.8557 66.4295C21.7309 66.0219 21.6062 65.61 21.4814 65.1937C21.3652 64.7775 21.1894 64.3532 21.0442 63.9289C20.7118 62.9254 20.3037 61.9574 19.8681 60.9894C20.5683 60.828 23.0431 60.1827 24.0369 59.4293C25.0307 58.6759 26.0762 57.4271 26.0681 56.1074C26.0584 54.8168 25.0162 53.6955 23.6772 53.8488C21.817 54.0504 20.2036 57.0125 19.8665 58.6484C19.8455 58.7501 19.7358 59.9504 19.6874 60.6119C19.4212 60.0294 19.1598 59.4486 18.871 58.8678C18.0402 57.1948 17.148 55.5266 16.2639 53.8665C15.9928 53.3567 15.7299 52.8437 15.4572 52.3322C15.7073 52.2758 18.6661 51.5885 19.7793 50.7334C20.7699 49.9751 21.8186 48.7329 21.8089 47.4116C21.8008 46.1209 20.7586 45.0012 19.4196 45.1529C17.5594 45.3546 15.9461 48.3166 15.6089 49.9526C15.5831 50.0752 15.4266 51.8031 15.4088 52.2451C14.8232 51.1158 14.2504 49.9864 13.731 48.8571C13.0207 47.3264 12.4107 45.7511 11.9047 44.1413C12.0208 44.1155 15.112 43.4137 16.2607 42.5377C17.2512 41.7794 18.2999 40.5371 18.2902 39.2158C18.2902 37.9252 17.24 36.8055 15.9009 36.9572C14.0407 37.1588 12.4274 40.1209 12.0902 41.7568C12.0676 41.8633 11.9482 43.1814 11.9047 43.809L11.7998 43.8203C11.3342 42.1848 11.0157 40.5111 10.8479 38.819C10.7431 37.8897 10.6963 36.9959 10.6688 36.1263C11.2577 36.0537 13.9471 35.6955 15.0603 35.0212C16.1267 34.3758 17.3077 33.2562 17.4432 31.9429C17.5755 30.6523 16.6624 29.431 15.3152 29.4277C13.4454 29.4277 11.5158 32.1914 11.0012 33.7837C10.9738 33.8692 10.7866 34.7792 10.6592 35.4439C10.6592 35.0518 10.6382 34.6453 10.6398 34.2694C10.6398 32.8545 10.7334 31.5589 10.8205 30.4135C10.877 29.7681 10.9399 29.1744 11.0044 28.6243C11.5465 28.2532 13.7084 26.7254 14.3747 25.6348C15.02 24.57 15.554 23.0325 15.07 21.8047C14.5957 20.6012 13.2195 19.9333 12.024 20.5528C10.3623 21.4111 9.92671 24.7475 10.1994 26.4027C10.2236 26.5447 10.8447 28.7292 10.8802 28.7098L10.9125 28.6872C10.8399 29.2148 10.7673 29.7811 10.7011 30.4022C10.5866 31.5477 10.4688 32.8448 10.4349 34.2645C10.4349 34.5259 10.4252 34.7937 10.422 35.0712C9.70891 33.9725 7.45992 30.891 5.03024 31.5444C2.0843 32.2962 2.75867 34.9002 5.13995 35.4664Z" fill="black"/>
<path opacity="0.15" d="M113.782 42.4247C112.139 42.8168 110.071 42.5215 109.426 42.4151C109.426 43.2976 109.406 44.2268 109.319 45.1932C109.21 46.6041 108.976 48.0024 108.619 49.3718C108.619 49.3879 108.608 49.404 108.603 49.4202C108.847 49.0394 109.561 47.994 109.624 47.9198C110.528 46.8775 112.885 45.3917 114.303 45.9967C115.327 46.4307 115.627 47.6568 115.109 48.5925C114.592 49.5283 113.327 50.0219 112.307 50.1704C111.158 50.3317 108.738 49.6363 108.546 49.5783C108.148 50.9631 107.658 52.3197 107.078 53.639C106.746 54.4102 106.386 55.1765 106.017 55.9396C106.238 55.617 106.438 55.3282 106.468 55.2943C107.372 54.2505 109.729 52.7662 111.147 53.3696C112.172 53.8052 112.472 55.0313 111.954 55.9671C111.436 56.9028 110.179 57.3949 109.151 57.5433C108.124 57.6917 106.043 57.1384 105.496 56.9835C105.35 57.2739 105.208 57.5675 105.063 57.8579C104.363 59.2518 103.656 60.6425 103.008 62.0251C102.777 62.5091 102.571 63.0012 102.363 63.49C102.558 63.2029 102.726 62.9625 102.755 62.9286C103.658 61.8848 106.015 60.4005 107.433 61.0039C108.458 61.4395 108.758 62.6656 108.24 63.6014C107.722 64.5371 106.465 65.0292 105.438 65.1776C104.45 65.3212 102.534 64.8243 101.888 64.6436C101.688 65.1502 101.487 65.6567 101.317 66.1569C101.207 66.5005 101.078 66.8248 100.994 67.1749C100.911 67.525 100.802 67.8638 100.707 68.2026C100.546 68.8624 100.385 69.5433 100.243 70.1902C100.143 70.6403 100.057 71.0711 99.9683 71.5035C100.191 71.0195 100.646 70.0708 100.694 69.995C101.428 68.827 103.532 67.0023 105.029 67.3846C106.107 67.6589 106.589 68.8253 106.223 69.8288C105.857 70.8323 104.678 71.5099 103.692 71.8116C102.608 72.1423 100.206 71.8407 99.907 71.8003C99.7618 72.5183 99.6295 73.2168 99.515 73.8783C99.4182 74.4236 99.3311 74.9447 99.252 75.4448H98.284C98.383 74.8931 98.4905 74.315 98.6067 73.7105C98.7503 72.9813 98.9181 72.2053 99.0907 71.4099C98.3678 71.1204 97.6627 70.7886 96.9788 70.4161C96.1883 71.2728 94.162 72.2746 93.899 72.4021C94.1749 73.0797 94.4508 73.7363 94.7186 74.3526C94.8799 74.7301 95.0412 75.0915 95.2026 75.4448H94.2023C94.1023 75.2039 94.0006 74.9582 93.8974 74.7075C93.615 74.0203 93.3263 73.2814 93.0375 72.5183C92.7455 72.5796 90.369 73.0619 89.2607 72.8119C88.2555 72.5844 87.0391 72.0165 86.589 71.0227C86.1389 70.0289 86.5422 68.8512 87.5973 68.4962C89.0622 68.0042 91.2967 69.6675 92.1146 70.7775C92.163 70.8436 92.5986 71.6116 92.8794 72.102C92.7632 71.789 92.647 71.4873 92.5309 71.1647C92.297 70.5274 92.0824 69.8853 91.8501 69.1948C91.749 68.8581 91.6468 68.5172 91.5435 68.1719C91.4338 67.8331 91.3628 67.4605 91.2693 67.1023C91.0692 66.2666 90.9079 65.4099 90.7659 64.5419C90.2077 64.7452 88.2136 65.4389 87.1827 65.3664C86.1518 65.2938 84.8659 64.9162 84.2787 64.0031C83.6914 63.0899 83.9028 61.8638 84.8934 61.3524C86.2647 60.6457 88.7266 61.9509 89.7043 62.9238C89.7656 62.9835 90.3884 63.7611 90.7223 64.1935C90.6401 63.6723 90.561 63.1529 90.49 62.6221C90.2996 61.0894 90.1544 59.5341 90.006 57.9821C89.9592 57.5062 89.9076 57.0335 89.8576 56.5592C89.6608 56.635 87.3085 57.5094 86.1469 57.4287C85.1192 57.3561 83.8302 56.9786 83.2349 56.0655C82.6395 55.1523 82.8606 53.9246 83.8495 53.4148C85.2209 52.7065 87.6828 54.0117 88.6605 54.9846C88.7347 55.0588 89.6285 56.1784 89.8431 56.4737C89.7318 55.4298 89.6124 54.3908 89.4526 53.3728C89.2442 51.9951 88.9473 50.6323 88.5637 49.2927C88.4701 49.3282 86.0211 50.2526 84.8369 50.1687C83.8092 50.0978 82.5202 49.7202 81.9248 48.8055C81.3295 47.8907 81.5489 46.663 82.5379 46.1467C83.9108 45.4385 86.3712 46.7436 87.3489 47.7165C87.4134 47.7794 88.0958 48.6312 88.4104 49.0443L88.4895 49.0039C88.0677 47.6679 87.5278 46.3721 86.8762 45.1319C86.5244 44.4446 86.1502 43.8074 85.7726 43.1959C85.3338 43.4153 83.3188 44.393 82.2443 44.4366C81.215 44.4769 79.892 44.243 79.1999 43.4008C78.5078 42.5587 78.5933 41.3148 79.5226 40.7001C80.8132 39.845 83.3946 40.8727 84.4787 41.731C84.5191 41.7633 84.7901 42.0311 85.0821 42.3247C85.0821 42.2602 85.0821 42.186 85.0821 42.1005L84.9531 41.902C84.3077 40.934 83.6624 40.0774 83.0719 39.3207C82.7363 38.8964 82.4266 38.514 82.1297 38.172C81.5876 38.1623 79.4016 38.0962 78.4465 37.6477C77.4914 37.1992 76.4476 36.3925 76.2217 35.3261C75.9958 34.2597 76.6444 33.1933 77.7511 33.0755C79.287 32.9142 81.1117 35.0115 81.6732 36.2747C81.7216 36.3828 82.283 38.1736 82.2556 38.1736H82.2233C82.5137 38.4963 82.8202 38.8609 83.1493 39.2578C83.7463 39.9918 84.4142 40.8276 85.0853 41.7826C85.0983 40.2984 85.3612 37.2121 87.3214 37.0249C89.9028 36.7797 90.6481 39.7369 89.0461 41.339C87.9168 42.4683 86.4389 42.6151 85.65 42.6071C86.1469 43.3476 86.6454 44.1446 87.1101 45.0077C87.7983 46.2444 88.3744 47.5403 88.8315 48.8797C88.8315 48.8942 88.8396 48.912 88.846 48.9281C88.838 48.4747 88.8573 47.2099 88.8702 47.1131C89.0477 45.745 90.1932 43.2056 91.7129 42.9184C92.8068 42.7168 93.7344 43.5734 93.8216 44.6382C93.9087 45.703 93.1214 46.813 92.3534 47.4987C91.4871 48.2731 89.0816 49.0217 88.8896 49.0814C89.3215 50.4554 89.661 51.8567 89.906 53.276C90.0544 54.1021 90.177 54.9394 90.29 55.7799C90.29 55.3879 90.3029 55.0378 90.3093 54.9894C90.4868 53.6213 91.6339 51.0835 93.152 50.8028C94.2459 50.5995 95.1735 51.4578 95.2606 52.521C95.3494 53.6084 94.5621 54.6958 93.7925 55.3814C93.023 56.0671 90.9756 56.7592 90.4336 56.9318C90.4739 57.2545 90.5174 57.5772 90.5562 57.8998C90.7417 59.4503 90.9192 60.9974 91.1402 62.5107C91.2176 63.0431 91.3144 63.5659 91.408 64.0886C91.408 63.7401 91.4209 63.4433 91.4274 63.4029C91.6048 62.0348 92.7503 59.497 94.2701 59.2163C95.3639 59.013 96.2916 59.8713 96.3787 60.9345C96.4658 61.9977 95.6785 63.1093 94.9106 63.7966C94.1426 64.4839 92.2921 65.105 91.6484 65.3131C91.7613 65.8455 91.8743 66.3795 92.0066 66.8909C92.1066 67.2378 92.1776 67.5782 92.2953 67.9203L92.618 68.9367C92.8503 69.5739 93.0859 70.2273 93.3279 70.8501C93.4892 71.2792 93.6586 71.6874 93.8232 72.0972C93.7393 71.5664 93.5989 70.5258 93.5957 70.4387C93.6127 69.2254 93.9404 68.0367 94.5476 66.9861C94.544 66.8507 94.5527 66.7151 94.5734 66.5812C94.7347 65.5277 95.7334 64.7436 96.8078 65.0308C98.3018 65.4277 99.2472 68.0477 99.3182 69.4255C99.3182 69.5062 99.2698 70.3935 99.2262 70.9517C99.302 70.629 99.3714 70.3064 99.4521 69.9837C99.6134 69.3222 99.7844 68.6688 99.9716 67.9638L100.28 66.9426C100.375 66.5989 100.52 66.2488 100.641 65.8988C100.936 65.0921 101.274 64.2854 101.633 63.4787C101.056 63.3416 99.01 62.8205 98.1888 62.1881C97.3677 61.5557 96.4932 60.5586 96.4932 59.4696C96.4932 58.3806 97.3612 57.4772 98.468 57.5982C100.004 57.7595 101.336 60.2101 101.616 61.5621C101.632 61.646 101.724 62.6366 101.762 63.1835C101.982 62.6995 102.2 62.2155 102.437 61.7428C103.122 60.3618 103.861 58.984 104.591 57.6062C104.815 57.1835 105.033 56.7608 105.252 56.3381C105.046 56.2914 102.603 55.7235 101.683 55.0184C100.865 54.3908 99.999 53.3648 100.007 52.2758C100.015 51.1868 100.875 50.2849 101.98 50.4043C103.516 50.5656 104.849 53.0179 105.128 54.3683C105.149 54.4699 105.278 55.8977 105.289 56.2623C105.773 55.3314 106.246 54.3989 106.675 53.4616C107.262 52.1977 107.766 50.8967 108.183 49.567C108.087 49.546 105.534 48.9652 104.592 48.2424C103.774 47.6165 102.908 46.5904 102.916 45.4998C102.924 44.4091 103.784 43.5073 104.891 43.6283C106.427 43.7896 107.758 46.2403 108.037 47.5923C108.056 47.681 108.154 48.7684 108.19 49.2863L108.277 49.2959C108.667 47.9471 108.935 46.5659 109.077 45.169C109.164 44.4027 109.203 43.6638 109.226 42.9459C108.742 42.8862 106.518 42.5909 105.599 42.0327C104.718 41.5003 103.744 40.5807 103.631 39.4901C103.518 38.3995 104.276 37.4154 105.388 37.4137C106.932 37.4137 108.525 39.6966 108.951 41.0082C108.974 41.0792 109.129 41.831 109.234 42.3796C109.234 42.0569 109.25 41.7197 109.248 41.4116C109.248 40.2435 109.172 39.1739 109.1 38.2285C109.055 37.6896 109.001 37.204 108.948 36.7507C108.501 36.4441 106.715 35.1825 106.165 34.2806C105.615 33.3788 105.197 32.1317 105.591 31.1185C105.984 30.1053 107.119 29.5729 108.108 30.0844C109.479 30.7926 109.84 33.5546 109.613 34.9244C109.594 35.0421 109.076 36.8458 109.051 36.8297L109.024 36.8104C109.085 37.246 109.145 37.7138 109.2 38.2269C109.293 39.1739 109.39 40.2435 109.418 41.4164C109.418 41.6326 109.427 41.8536 109.431 42.0763C110.018 41.168 111.876 38.6237 113.882 39.1723C116.307 39.8079 115.747 41.952 113.782 42.4247Z" fill="black"/>
<g opacity="0.3">
<path d="M110.16 8.62054V22.6194H93.1958V8.62054H98.8812V9.18682C98.8893 9.34587 98.9582 9.49573 99.0736 9.60544C99.1891 9.71514 99.3423 9.77631 99.5015 9.77631C99.6608 9.77631 99.8139 9.71514 99.9294 9.60544C100.045 9.49573 100.114 9.34587 100.122 9.18682V8.62054H103.234V9.18682C103.23 9.27073 103.243 9.35464 103.272 9.43343C103.301 9.51223 103.346 9.58427 103.404 9.64518C103.461 9.70608 103.531 9.75458 103.608 9.78772C103.686 9.82086 103.769 9.83795 103.853 9.83795C103.937 9.83795 104.02 9.82086 104.097 9.78772C104.174 9.75458 104.244 9.70608 104.302 9.64518C104.36 9.58427 104.405 9.51223 104.434 9.43343C104.463 9.35464 104.476 9.27073 104.471 9.18682V8.62054H110.16Z" stroke="black" stroke-width="0.5" stroke-linecap="round" stroke-linejoin="round"/>
<path d="M96.3514 12.5603H94.2202V14.6915H96.3514V12.5603Z" stroke="black" stroke-width="0.5" stroke-linecap="round" stroke-linejoin="round"/>
<path d="M99.5475 12.5603H97.4163V14.6915H99.5475V12.5603Z" stroke="black" stroke-width="0.5" stroke-linecap="round" stroke-linejoin="round"/>
<path d="M102.744 12.5603H100.612V14.6915H102.744V12.5603Z" stroke="black" stroke-width="0.5" stroke-linecap="round" stroke-linejoin="round"/>
<path d="M105.94 12.5603H103.808V14.6915H105.94V12.5603Z" stroke="black" stroke-width="0.5" stroke-linecap="round" stroke-linejoin="round"/>
<path d="M109.136 12.5603H107.004V14.6915H109.136V12.5603Z" stroke="black" stroke-width="0.5" stroke-linecap="round" stroke-linejoin="round"/>
<path d="M96.3514 15.845H94.2202V17.9762H96.3514V15.845Z" stroke="black" stroke-width="0.5" stroke-linecap="round" stroke-linejoin="round"/>
<path d="M99.5475 15.845H97.4163V17.9762H99.5475V15.845Z" stroke="black" stroke-width="0.5" stroke-linecap="round" stroke-linejoin="round"/>
<path d="M102.744 15.845H100.612V17.9762H102.744V15.845Z" stroke="black" stroke-width="0.5" stroke-linecap="round" stroke-linejoin="round"/>
<path d="M105.94 15.845H103.808V17.9762H105.94V15.845Z" stroke="black" stroke-width="0.5" stroke-linecap="round" stroke-linejoin="round"/>
<path d="M109.136 15.845H107.004V17.9762H109.136V15.845Z" stroke="black" stroke-width="0.5" stroke-linecap="round" stroke-linejoin="round"/>
<path d="M96.3514 19.1298H94.2202V21.261H96.3514V19.1298Z" stroke="black" stroke-width="0.5" stroke-linecap="round" stroke-linejoin="round"/>
<path d="M99.5475 19.1298H97.4163V21.261H99.5475V19.1298Z" stroke="black" stroke-width="0.5" stroke-linecap="round" stroke-linejoin="round"/>
<path d="M102.744 19.1298H100.612V21.261H102.744V19.1298Z" stroke="black" stroke-width="0.5" stroke-linecap="round" stroke-linejoin="round"/>
<path d="M105.94 19.1298H103.808V21.261H105.94V19.1298Z" stroke="black" stroke-width="0.5" stroke-linecap="round" stroke-linejoin="round"/>
<path d="M109.136 19.1298H107.004V21.261H109.136V19.1298Z" stroke="black" stroke-width="0.5" stroke-linecap="round" stroke-linejoin="round"/>
<path d="M100.122 7.05561V9.18683C100.114 9.34588 100.045 9.49573 99.9293 9.60544C99.8139 9.71514 99.6607 9.77631 99.5014 9.77631C99.3422 9.77631 99.189 9.71514 99.0736 9.60544C98.9581 9.49573 98.8892 9.34588 98.8811 9.18683V7.05561C98.8892 6.89656 98.9581 6.74671 99.0736 6.637C99.189 6.5273 99.3422 6.46613 99.5014 6.46613C99.6607 6.46613 99.8139 6.5273 99.9293 6.637C100.045 6.74671 100.114 6.89656 100.122 7.05561Z" fill="black" stroke="black" stroke-width="0.5" stroke-linecap="round" stroke-linejoin="round"/>
<path d="M104.471 7.05563V9.18684C104.476 9.27075 104.463 9.35465 104.434 9.43345C104.405 9.51224 104.36 9.58429 104.302 9.64519C104.244 9.7061 104.174 9.7546 104.097 9.78774C104.02 9.82088 103.937 9.83797 103.853 9.83797C103.769 9.83797 103.686 9.82088 103.608 9.78774C103.531 9.7546 103.461 9.7061 103.404 9.64519C103.346 9.58429 103.301 9.51224 103.272 9.43345C103.242 9.35465 103.23 9.27075 103.234 9.18684V7.05563C103.242 6.897 103.311 6.74754 103.426 6.63813C103.541 6.52872 103.694 6.46771 103.853 6.46771C104.012 6.46771 104.164 6.52872 104.279 6.63813C104.395 6.74754 104.463 6.897 104.471 7.05563Z" fill="black" stroke="black" stroke-width="0.5" stroke-linecap="round" stroke-linejoin="round"/>
</g>
<g opacity="0.3">
<path d="M65.4351 68.7172H63.0845V74.1606H65.4351V68.7172Z" stroke="black" stroke-width="0.5" stroke-linecap="round" stroke-linejoin="round"/>
<path d="M68.5811 65.9342H66.2305V74.1606H68.5811V65.9342Z" stroke="black" stroke-width="0.5" stroke-linecap="round" stroke-linejoin="round"/>
<path d="M71.7254 62.4268H69.3748V74.1606H71.7254V62.4268Z" stroke="black" stroke-width="0.5" stroke-linecap="round" stroke-linejoin="round"/>
<path d="M74.8714 60.0068H72.5208V74.1606H74.8714V60.0068Z" stroke="black" stroke-width="0.5" stroke-linecap="round" stroke-linejoin="round"/>
</g>
<g opacity="0.3">
<path d="M37.8258 16.212C39.7852 11.9045 37.8817 6.82419 33.5742 4.86478C29.2667 2.90538 24.1864 4.80888 22.227 9.11637C20.2676 13.4239 22.1711 18.5042 26.4786 20.4636C30.7861 22.423 35.8664 20.5195 37.8258 16.212Z" stroke="black" stroke-width="0.5" stroke-miterlimit="10"/>
<path d="M34.8777 17.515C37.5573 14.8354 37.5573 10.491 34.8777 7.81139C32.1981 5.13181 27.8537 5.13181 25.1741 7.81139C22.4945 10.491 22.4945 14.8354 25.1741 17.515C27.8537 20.1946 32.1981 20.1946 34.8777 17.515Z" stroke="black" stroke-width="0.5" stroke-miterlimit="10"/>
<path d="M33.1324 15.7696C34.848 14.054 34.848 11.2724 33.1324 9.55681C31.4168 7.8412 28.6352 7.8412 26.9196 9.55681C25.204 11.2724 25.204 14.054 26.9196 15.7696C28.6352 17.4852 31.4168 17.4852 33.1324 15.7696Z" stroke="black" stroke-width="0.5" stroke-miterlimit="10"/>
<path d="M31.7817 14.4189C32.7514 13.4493 32.7514 11.8772 31.7817 10.9075C30.8121 9.93788 29.24 9.93788 28.2703 10.9075C27.3007 11.8772 27.3007 13.4493 28.2703 14.4189C29.24 15.3885 30.8121 15.3885 31.7817 14.4189Z" stroke="black" stroke-width="0.5" stroke-miterlimit="10"/>
<path d="M31.0741 12.6619C31.0725 12.4549 31.0097 12.2531 30.8936 12.0817C30.7775 11.9104 30.6132 11.7772 30.4216 11.699C30.2299 11.6208 30.0194 11.6011 29.8165 11.6424C29.6137 11.6836 29.4276 11.7839 29.2817 11.9308C29.1358 12.0776 29.0366 12.2643 28.9966 12.4674C28.9566 12.6705 28.9776 12.8809 29.0569 13.072C29.1363 13.2632 29.2704 13.4266 29.4425 13.5417C29.6146 13.6568 29.8168 13.7183 30.0238 13.7187C30.1624 13.7189 30.2996 13.6917 30.4275 13.6385C30.5554 13.5854 30.6716 13.5075 30.7693 13.4092C30.8669 13.311 30.9441 13.1944 30.9965 13.0661C31.0488 12.9378 31.0752 12.8005 31.0741 12.6619Z" stroke="black" stroke-width="0.5" stroke-miterlimit="10"/>
</g>
<path d="M29.819 12.8701H18.2949V12.4554H29.819C29.8735 12.4559 29.9256 12.4778 29.9639 12.5165C30.0023 12.5552 30.0239 12.6075 30.0239 12.662C30.0241 12.6891 30.0189 12.716 30.0088 12.7411C29.9986 12.7662 29.9835 12.7891 29.9645 12.8084C29.9455 12.8278 29.9228 12.8432 29.8979 12.8537C29.8729 12.8643 29.8461 12.8699 29.819 12.8701Z" fill="#B2B2B2"/>
<path d="M17.2705 11.1841L17.3351 11.2584L18.5386 12.4538H14.936L13.647 11.1841H17.2705Z" fill="#B2B2B2"/>
<path d="M13.647 14.0913L14.9376 12.8668H18.5418C18.0698 13.2245 17.6405 13.6354 17.2625 14.0913H13.647Z" fill="#B2B2B2"/>
<path d="M114.429 75.4416H118.98" stroke="#263238" stroke-width="0.5" stroke-linecap="round" stroke-linejoin="round"/>
<path d="M39.1909 75.4416H112.58" stroke="#263238" stroke-width="0.5" stroke-linecap="round" stroke-linejoin="round"/>
<path d="M4.06226 75.4416H38.0536" stroke="#263238" stroke-width="0.5" stroke-linecap="round" stroke-linejoin="round"/>
<path d="M80.5358 65.0502L80.9197 67.9542C80.9197 67.9542 81.3892 71.5422 81.4973 72.3747C81.6054 73.2072 81.5602 75.4062 81.5602 75.4062H79.9162L79.8953 72.3102L79.9372 67.0152L80.5358 65.0502Z" fill="#808080" stroke="#263238" stroke-width="0.5" stroke-linecap="round" stroke-linejoin="round"/>
<path d="M81.5683 74.5123C81.5683 75.0222 81.5603 75.4061 81.5603 75.4061H79.9163L79.9082 74.1058L81.5683 74.5123Z" fill="white" stroke="#263238" stroke-width="0.5" stroke-linecap="round" stroke-linejoin="round"/>
<path d="M81.5651 75.0657C81.5651 75.2061 81.5651 75.3125 81.5651 75.3658V75.3884V75.4045H79.9163V75.0641L81.5651 75.0657Z" fill="white" stroke="#263238" stroke-width="0.5" stroke-linecap="round" stroke-linejoin="round"/>
<path d="M78.1013 73.8267C78.1013 73.8267 77.4818 74.4462 77.1834 74.5736C76.8849 74.7011 76.4154 74.7446 76.3509 74.8963C76.3132 75.0859 76.3061 75.2804 76.3299 75.4723H80.4084C80.4671 75.2713 80.4884 75.0614 80.4713 74.8527C80.4537 74.7205 80.4178 74.5913 80.3649 74.4688C80.3649 74.4688 78.3579 73.8057 78.1013 73.8267Z" fill="white" stroke="#263238" stroke-width="0.5" stroke-linecap="round" stroke-linejoin="round"/>
<path d="M80.4084 75.4707H76.3266C76.316 75.357 76.3117 75.2428 76.3137 75.1287H80.4729C80.4609 75.2443 80.4393 75.3587 80.4084 75.4707Z" fill="white" stroke="#263238" stroke-width="0.5" stroke-linecap="round" stroke-linejoin="round"/>
<path d="M81.5828 60.9297C81.5828 60.9297 81.5602 62.2317 81.3682 62.5947C81.1763 62.9577 80.7923 63.5772 80.7923 63.5772C80.7923 63.5772 80.3002 67.6105 80.3857 67.9977C80.4712 68.3849 80.7487 69.3852 80.7277 70.095C80.7068 70.8049 80.3438 73.767 80.3438 73.767C80.3438 73.767 80.4503 73.959 80.4293 74.0235C80.4083 74.088 80.3647 74.472 80.3647 74.472C80.3647 74.472 79.7033 74.3655 79.2354 74.2365C78.8522 74.1212 78.4752 73.986 78.1061 73.8315C78.0605 73.7008 78.0532 73.5597 78.0851 73.425C78.1496 73.2765 78.3207 72.849 78.3207 72.849C78.3207 72.849 78.2561 70.329 78.2561 69.9031C78.2561 69.4771 77.9141 67.617 77.9141 67.233C77.9141 66.849 77.5091 63.2835 77.5721 62.877C77.635 62.4704 77.6802 61.8525 77.6802 61.8525L77.5721 60.8845L81.5828 60.9297Z" fill="#A1A1A1" stroke="#263238" stroke-width="0.5" stroke-linecap="round" stroke-linejoin="round"/>
<path d="M79.3516 64.116C79.3677 65.2905 79.3919 67.425 79.3612 67.7622" stroke="#263238" stroke-width="0.5" stroke-linecap="round" stroke-linejoin="round"/>
<path d="M79.3403 63.3416C79.3403 63.3416 79.3403 63.4868 79.3403 63.7224" stroke="#263238" stroke-width="0.5" stroke-linecap="round" stroke-linejoin="round"/>
<path d="M79.4049 68.2316C79.4049 68.2316 79.5324 69.0867 79.5743 70.1321C79.6163 71.1776 79.4259 73.3991 79.4259 73.3991C79.4658 73.495 79.4945 73.5951 79.5114 73.6976C79.4823 73.8231 79.439 73.9449 79.3823 74.0606" stroke="#263238" stroke-width="0.5" stroke-linecap="round" stroke-linejoin="round"/>
<path d="M81.0053 53.7729C81.0053 53.7729 81.9523 55.2588 82.0991 55.8461C82.246 56.4333 81.7071 59.3954 81.7071 59.3954C81.7071 59.3954 81.9201 60.7506 81.8539 60.8813C81.805 60.9701 81.7386 61.048 81.6587 61.1104H77.5447C77.4562 60.9634 77.3899 60.8041 77.3479 60.6377C77.3122 60.4308 77.3232 60.2186 77.3801 60.0166C77.4624 59.7391 77.6576 56.5543 77.8545 55.9671C78.0513 55.3798 78.908 54.2957 78.908 54.2957L81.0053 53.7729Z" fill="#5271FF" stroke="#263238" stroke-width="0.5" stroke-linecap="round" stroke-linejoin="round"/>
<path d="M78.1659 51.6062C78.1933 51.4062 78.5111 51.2368 78.6176 51.0835C78.7241 50.9302 78.6611 50.7866 78.7467 50.6124C79.0016 50.101 79.1935 49.6234 79.7905 49.4831C80.5326 49.3217 81.6942 49.696 82.0395 50.3462C82.159 50.5946 82.2279 50.8643 82.2423 51.1396C82.2567 51.4149 82.2163 51.6903 82.1234 51.9499C82.0383 52.2061 81.8895 52.4365 81.691 52.6194C81.6313 52.6726 80.9714 52.9808 80.9779 52.9421L80.9117 53.4648L79.0693 53.9359L78.987 53.1195C78.8063 53.1194 78.626 53.1032 78.4482 53.0711C78.2368 53.0211 78.1707 52.9404 78.2191 52.7597C78.2675 52.5791 78.4159 51.9434 78.4159 51.9434C78.3291 51.8857 78.2527 51.8137 78.1901 51.7304C78.1685 51.6928 78.16 51.6492 78.1659 51.6062Z" fill="white" stroke="#263238" stroke-width="0.5" stroke-linecap="round" stroke-linejoin="round"/>
<path d="M78.895 51.0287C78.8628 51.1287 78.8805 51.2239 78.9338 51.2416C78.987 51.2594 79.0596 51.1932 79.0951 51.0932C79.1306 50.9932 79.1112 50.898 79.0564 50.8803C79.0015 50.8625 78.9289 50.9287 78.895 51.0287Z" fill="#263238"/>
<path d="M79.3355 50.7753C79.3148 50.693 79.2642 50.6212 79.1935 50.5741C79.1228 50.527 79.0371 50.5079 78.9531 50.5204" stroke="#263238" stroke-width="0.5" stroke-linecap="round" stroke-linejoin="round"/>
<path d="M78.4932 52.2516C78.5659 52.2623 78.6401 52.2549 78.7093 52.2301C78.7785 52.2054 78.8406 52.164 78.89 52.1096" stroke="#263238" stroke-width="0.5" stroke-linecap="round" stroke-linejoin="round"/>
<path d="M80.9408 52.3258C81.1021 52.0854 81.0214 51.6304 80.7536 51.5191C80.4858 51.4078 80.1648 51.8144 80.0857 51.7869C80.0067 51.7595 80.2729 51.3029 80.2729 51.3029C80.0998 51.2023 79.9601 51.0531 79.8711 50.8738C79.7905 50.6334 80.3551 50.3898 80.5165 50.3656C80.6778 50.3414 79.7937 49.4815 79.7937 49.4815C80.5358 49.3201 81.6974 49.6944 82.0427 50.3446C82.1622 50.593 82.2311 50.8627 82.2455 51.138C82.2599 51.4133 82.2195 51.6887 82.1266 51.9483C82.0415 52.2045 81.8928 52.4349 81.6942 52.6178C81.4775 52.7457 81.2496 52.8537 81.0134 52.9405H80.9811L80.5165 52.6178C80.6885 52.5749 80.8393 52.4712 80.9408 52.3258Z" fill="#263238" stroke="#263238" stroke-width="0.5" stroke-linecap="round" stroke-linejoin="round"/>
<path d="M78.7691 54.528L78.135 55.4089L77.9237 60.0585L77.5671 60.8862L77.1138 59.389L78.0543 55.2427L78.6997 54.1521L78.7691 54.528Z" fill="#263238" stroke="#263238" stroke-width="0.5" stroke-linecap="round" stroke-linejoin="round"/>
<path d="M80.9777 53.2664L78.7078 54.0182L78.79 54.9313L81.1568 53.8375L80.9777 53.2664Z" fill="#5271FF" stroke="#263238" stroke-width="0.5" stroke-linecap="round" stroke-linejoin="round"/>
<path d="M78.9854 53.1195L79.4258 53.0873L79.0676 53.6261L78.9854 53.1195Z" fill="#263238" stroke="#263238" stroke-width="0.5" stroke-linecap="round" stroke-linejoin="round"/>
<path d="M72.8628 55.0136L75.0666 53.397L76.1282 57.6595L75.8023 58.0176L72.8628 55.0136Z" fill="#DEDEDE" stroke="#263238" stroke-width="0.5" stroke-linecap="round" stroke-linejoin="round"/>
<path d="M73.8259 52.7936L75.9152 57.7627L77.9238 60.0649L76.6992 61.0781L74.8746 58.2628C74.8746 58.2628 72.5401 55.3233 72.4739 55.1281C72.4078 54.9329 73.8259 52.7936 73.8259 52.7936Z" fill="white" stroke="#263238" stroke-width="0.5" stroke-linecap="round" stroke-linejoin="round"/>
<path d="M77.6769 57.9724L76.4717 57.5175C76.4717 57.5175 76.1232 57.0093 76.07 56.9028C76.0167 56.7963 75.4246 56.5801 75.3472 56.5011C75.2698 56.422 75.0003 56.1268 74.9729 56.2607C74.9455 56.3946 74.8922 56.5269 75.0261 56.6075C75.1758 56.735 75.3105 56.879 75.4279 57.0367C75.4279 57.0367 74.7825 56.9818 74.7325 57.1432C74.6825 57.3045 74.839 57.6272 74.839 57.6272C74.9447 57.6378 75.0461 57.6744 75.1342 57.7337C75.2133 57.8143 75.3746 58.1612 75.5618 58.2419C75.7489 58.3225 76.4185 58.3499 76.4185 58.3499L77.167 58.9372L77.6769 57.9724Z" fill="white" stroke="#263238" stroke-width="0.5" stroke-linecap="round" stroke-linejoin="round"/>
<path d="M76.8945 57.6433L76.5412 57.511C76.5412 57.511 76.1895 58.371 76.2185 58.3806L76.5815 58.492L76.8945 57.6433Z" fill="#5271FF" stroke="#263238" stroke-width="0.5" stroke-linecap="round" stroke-linejoin="round"/>
<path d="M81.541 55.7912C81.5794 55.915 81.5984 56.0439 81.5974 56.1736C81.5813 56.4833 80.7166 60.1407 80.6504 60.3682C80.5843 60.5957 80.047 60.7264 79.8841 60.678C79.7211 60.6296 76.5574 58.6952 76.5251 58.6129C76.4929 58.5306 76.7365 57.6191 76.8994 57.5691C77.0624 57.5191 79.1 58.3757 79.1 58.3757C79.1 58.3757 79.192 56.08 79.3323 55.6799" fill="#5271FF"/>
<path d="M81.541 55.7912C81.5794 55.915 81.5984 56.0439 81.5974 56.1736C81.5813 56.4833 80.7166 60.1407 80.6504 60.3682C80.5843 60.5957 80.047 60.7264 79.8841 60.678C79.7211 60.6296 76.5574 58.6952 76.5251 58.6129C76.4929 58.5306 76.7365 57.6191 76.8994 57.5691C77.0624 57.5191 79.1 58.3757 79.1 58.3757C79.1 58.3757 79.192 56.08 79.3323 55.6799" stroke="#263238" stroke-width="0.5" stroke-linecap="round" stroke-linejoin="round"/>
<path d="M79.1982 58.4097L79.9323 58.8017" stroke="#263238" stroke-width="0.5" stroke-linecap="round" stroke-linejoin="round"/>
<path d="M79.9486 58.5564L79.4597 58.4419" stroke="#263238" stroke-width="0.5" stroke-linecap="round" stroke-linejoin="round"/>
<path d="M47.2044 23.2857L47.8853 26.3285L50.0036 25.7767L50.1907 26.393L47.1012 28.2774L46.4316 26.7592L47.2044 23.2857Z" fill="white" stroke="#263238" stroke-width="0.5" stroke-linecap="round" stroke-linejoin="round"/>
<path d="M44.1164 22.2645L42.0159 23.2551L42.5467 28.0999L46.025 28.1596L46.9962 25.9283L47.2043 23.2857L45.6346 22.5081L44.1164 22.2645Z" fill="white" stroke="#263238" stroke-width="0.5" stroke-linecap="round" stroke-linejoin="round"/>
<path d="M43.5339 22.592L43.9647 24.4263L46.1943 24.5699L46.0507 22.8082L45.6345 22.5049C45.6345 22.5049 43.8566 22.0564 43.5339 22.592Z" fill="white" stroke="#263238" stroke-width="0.5" stroke-linecap="round" stroke-linejoin="round"/>
<path d="M45.9621 18.691C46.4284 18.7539 46.8607 18.9846 47.0398 19.375C47.3318 20.0074 47.0882 20.6415 47.1866 20.7867C47.2809 20.9595 47.3623 21.1391 47.4302 21.3239L47.0398 21.5675C47.0398 21.5675 46.6284 22.3323 46.4832 22.4291C46.338 22.5259 45.7733 22.2484 45.7733 22.2484L45.3829 22.9792L44.1165 21.9079L44.6537 20.8851C44.6537 20.8851 44.1697 19.959 44.4101 19.375C44.6376 18.8281 45.3313 18.6071 45.9621 18.691Z" fill="white" stroke="#263238" stroke-width="0.5" stroke-linecap="round" stroke-linejoin="round"/>
<path d="M46.964 20.7689C46.964 20.877 46.9221 20.9657 46.8704 20.9657C46.8188 20.9657 46.7769 20.877 46.7769 20.7689C46.7769 20.6608 46.8188 20.5721 46.8704 20.5721C46.9221 20.5721 46.964 20.656 46.964 20.7689Z" fill="#263238"/>
<path d="M46.7382 21.7515C46.6377 21.7316 46.5488 21.6739 46.4897 21.5901L46.7382 21.7515Z" fill="white"/>
<path d="M46.7382 21.7515C46.6377 21.7316 46.5488 21.6739 46.4897 21.5901" stroke="#263238" stroke-width="0.5" stroke-linecap="round" stroke-linejoin="round"/>
<path d="M46.717 20.3237C46.717 20.3237 46.9445 20.1994 47.0397 20.3656L46.717 20.3237Z" fill="white"/>
<path d="M46.717 20.3237C46.717 20.3237 46.9445 20.1994 47.0397 20.3656" stroke="#263238" stroke-width="0.5" stroke-linecap="round" stroke-linejoin="round"/>
<path d="M42.545 28.0999C42.545 28.0999 41.5641 29.126 41.385 31.091C41.2059 33.0561 40.9381 36.7619 40.9381 36.7619L40.0007 42.657L41.1607 42.7006L43.037 36.941L44.2874 32.4236L45.7603 36.9781L46.7283 42.749L47.8448 42.6151L47.7641 35.5503L47.585 34.4016C47.3478 32.8802 46.9319 31.3921 46.346 29.9682L46.2911 29.8342L46.0169 28.1532L42.545 28.0999Z" fill="#263238" stroke="#263238" stroke-width="0.5" stroke-linecap="round" stroke-linejoin="round"/>
<path d="M47.1607 19.4041C47.1607 19.4041 47.2785 19.8881 46.5654 20.3721L45.8507 20.8561C45.8507 20.8561 45.7603 24.2053 45.6716 24.3844C45.5829 24.5635 43.4388 22.642 43.5743 22.2403C43.7342 21.6602 43.8369 21.0658 43.8808 20.4656C43.8808 20.1543 43.9324 19.2879 44.4681 18.7523C45.0037 18.2166 47.3253 18.3505 47.4592 18.7974C47.4806 18.8568 47.4899 18.9199 47.4864 18.9829C47.4829 19.0459 47.4667 19.1076 47.4389 19.1642C47.411 19.2208 47.372 19.2712 47.3242 19.3124C47.2764 19.3537 47.2208 19.3848 47.1607 19.4041Z" fill="#263238" stroke="#263238" stroke-width="0.5" stroke-linecap="round" stroke-linejoin="round"/>
<path d="M42.0159 23.2551L39.5959 27.2884L38.9893 30.9507L39.6346 31.0007L40.843 27.511L42.253 25.7864C42.253 25.7864 42.3353 23.9052 42.0159 23.2551Z" fill="white" stroke="#263238" stroke-width="0.5" stroke-linecap="round" stroke-linejoin="round"/>
<path d="M40.254 31.817C40.254 31.817 39.9878 31.4621 39.9588 31.4185C39.9297 31.375 39.6361 31.0071 39.6361 31.0071C39.6361 31.0071 39.0698 30.7861 38.9908 30.9571C38.9117 31.1281 38.7794 32.3607 38.7649 32.464C38.7504 32.5672 38.8682 32.6414 38.8682 32.6414L38.9714 32.1397C38.9714 32.1397 39.015 32.656 39.015 32.8028C39.015 32.9496 39.1618 32.9205 39.1618 32.9205L39.207 32.1542C39.207 32.1542 39.3538 32.7737 39.3828 32.9205C39.3839 32.9416 39.3921 32.9616 39.4061 32.9773C39.4201 32.993 39.4391 33.0034 39.4598 33.0068C39.4806 33.0102 39.5019 33.0063 39.5202 32.9959C39.5384 32.9855 39.5526 32.9692 39.5603 32.9496C39.5603 32.906 39.5893 32.0816 39.5893 32.0816C39.5893 32.0816 39.7216 32.5817 39.7507 32.6995C39.7797 32.8173 39.912 32.6527 39.912 32.6527L39.8862 31.8461C39.8862 31.8461 39.9556 31.8816 40.1475 31.9558C40.3395 32.03 40.254 31.817 40.254 31.817Z" fill="white" stroke="#263238" stroke-width="0.5" stroke-linecap="round" stroke-linejoin="round"/>
<path d="M39.8894 31.8541L39.7378 31.4185" stroke="#263238" stroke-width="0.5" stroke-linecap="round" stroke-linejoin="round"/>
<path d="M50.0034 25.7767L50.2551 25.0459L50.6907 24.6765C50.6907 24.6765 50.7117 24.328 50.8424 24.307C50.973 24.286 51.0166 24.3506 50.994 24.5458C50.9707 24.6854 50.9191 24.8189 50.8424 24.9378C50.8424 24.9378 51.1247 24.741 51.1892 24.8507C51.2538 24.9604 51.2328 25.9365 51.1682 26.0671C51.1037 26.1978 50.1906 26.3898 50.1906 26.3898L50.0034 25.7767Z" fill="white" stroke="#263238" stroke-width="0.5" stroke-linecap="round" stroke-linejoin="round"/>
<path d="M50.836 24.9378L50.6037 25.1734C50.6037 25.1734 50.5165 26.0639 50.6037 26.0639H51.1683" fill="white"/>
<path d="M50.836 24.9378L50.6037 25.1734C50.6037 25.1734 50.5165 26.0639 50.6037 26.0639H51.1683" stroke="#263238" stroke-width="0.5" stroke-linecap="round" stroke-linejoin="round"/>
<path d="M40.001 42.657L39.6783 43.5637C39.5595 43.7635 39.4744 43.9816 39.4266 44.2091C39.3911 44.4962 40.5059 44.3527 40.685 44.3527C40.8545 44.3677 41.0232 44.3168 41.1561 44.2107C41.2642 44.1026 41.1561 42.7006 41.1561 42.7006L40.001 42.657Z" fill="white" stroke="#263238" stroke-width="0.5" stroke-linecap="round" stroke-linejoin="round"/>
<path d="M47.8513 42.6441L48.2449 43.4395C48.2449 43.4395 49.1435 43.7993 49.1806 44.0154C49.2177 44.2316 49.1806 44.3381 48.9645 44.3736C48.7483 44.4091 46.446 44.3736 46.446 44.3736V43.6557C46.446 43.475 46.7348 42.778 46.7348 42.778L47.8513 42.6441Z" fill="white" stroke="#263238" stroke-width="0.5" stroke-linecap="round" stroke-linejoin="round"/>
<path d="M52.4202 64.9533L51.9346 65.4389L32.5649 50.2413L33.0489 49.7573L52.4202 64.9533Z" fill="white" stroke="#263238" stroke-width="0.5" stroke-linecap="round" stroke-linejoin="round"/>
<path d="M32.5649 64.9533L33.0489 65.4389L52.4202 50.2413L51.9346 49.7573L32.5649 64.9533Z" fill="white" stroke="#263238" stroke-width="0.5" stroke-linecap="round" stroke-linejoin="round"/>
<path d="M52.83 45.2787H52.1443V75.4674H52.83V45.2787Z" fill="white" stroke="#263238" stroke-width="0.5" stroke-linecap="round" stroke-linejoin="round"/>
<path d="M33.3248 45.2787H32.6392V75.4674H33.3248V45.2787Z" fill="white" stroke="#263238" stroke-width="0.5" stroke-linecap="round" stroke-linejoin="round"/>
<path d="M32.9539 49.5427V50.2284H52.1348V49.5427H32.9539Z" fill="white" stroke="#263238" stroke-width="0.5" stroke-linecap="round" stroke-linejoin="round"/>
<path d="M32.9521 65.0308V65.7164H52.1331V65.0308H32.9521Z" fill="white" stroke="#263238" stroke-width="0.5" stroke-linecap="round" stroke-linejoin="round"/>
<path d="M49.4097 64.9533L48.9241 65.4389L29.5544 50.2413L30.0401 49.7573L49.4097 64.9533Z" fill="white" stroke="#263238" stroke-width="0.5" stroke-linecap="round" stroke-linejoin="round"/>
<path d="M29.5544 64.9533L30.0401 65.4389L49.4097 50.2413L48.9241 49.7573L29.5544 64.9533Z" fill="white" stroke="#263238" stroke-width="0.5" stroke-linecap="round" stroke-linejoin="round"/>
<path d="M29.9434 49.5427V50.2284H49.1243V49.5427H29.9434Z" fill="white" stroke="#263238" stroke-width="0.5" stroke-linecap="round" stroke-linejoin="round"/>
<path d="M29.9434 65.0291V65.7148H49.1243V65.0291H29.9434Z" fill="white" stroke="#263238" stroke-width="0.5" stroke-linecap="round" stroke-linejoin="round"/>
<path d="M29.9918 45.2787H29.3062V75.4674H29.9918V45.2787Z" fill="white" stroke="#263238" stroke-width="0.5" stroke-linecap="round" stroke-linejoin="round"/>
<path d="M49.7921 45.2787H49.1064V75.4674H49.7921V45.2787Z" fill="white" stroke="#263238" stroke-width="0.5" stroke-linecap="round" stroke-linejoin="round"/>
<path d="M53.9917 44.422H28.1267V45.732H53.9917V44.422Z" fill="#263238" stroke="#263238" stroke-width="0.5" stroke-linecap="round" stroke-linejoin="round"/>
<path d="M50.5471 35.7697V1.5993" stroke="#263238" stroke-width="0.5" stroke-linecap="round" stroke-linejoin="round"/>
<path d="M70.6848 22.0418V1.5993" stroke="#263238" stroke-width="0.5" stroke-linecap="round" stroke-linejoin="round"/>
<path d="M64.3765 52.1886C64.3765 52.0273 64.3862 51.8659 64.3765 51.7046C64.2973 49.9948 63.8742 48.3185 63.1326 46.7759L67.2918 43.1297L63.4778 38.7866H62.4808L62.3937 39.7369L59.501 42.2747C57.991 41.0904 56.2327 40.2631 54.3577 39.8547L54.1012 34.4726H53.1041L48.5771 39.9176C46.6913 40.3818 44.9372 41.2727 43.4499 42.5215L39.1085 39.3868H38.1114L38.2518 40.0321L38.5277 40.1935L35.7237 44.0655L39.9587 47.1308C39.1757 48.8824 38.8006 50.7889 38.8616 52.7065L33.6038 54.173L34.9896 59.1453L34.1587 59.739H35.1558L40.3443 58.287C41.2172 59.9384 42.4407 61.3789 43.9291 62.5075L41.7317 67.6895L45.9813 69.4932L46.0555 69.9466H47.0525L49.2224 64.8613C51.0174 65.2172 52.8686 65.1737 54.6448 64.7339L56.8406 68.7882L56.3808 69.782H57.3778L62.4518 67.0216L59.7962 62.1187C61.2033 60.9485 62.3436 59.4907 63.1407 57.8433L67.6919 58.65L67.7516 58.8388H68.7438L69.7602 53.1485L64.3765 52.1886ZM51.8893 57.9837C50.7691 58.036 49.6586 57.7551 48.698 57.1763C47.7375 56.5976 46.9701 55.7471 46.4929 54.7323C46.0157 53.7175 45.85 52.584 46.0169 51.4751C46.1838 50.3662 46.6757 49.3317 47.4304 48.5023C48.1852 47.6729 49.1689 47.0859 50.2572 46.8155C51.3455 46.5451 52.4896 46.6034 53.5447 46.9831C54.5999 47.3628 55.5188 48.0468 56.1853 48.9487C56.8517 49.8505 57.2359 50.9297 57.2891 52.0499C57.3245 52.7941 57.2128 53.538 56.9605 54.2391C56.7083 54.9402 56.3203 55.5847 55.8188 56.1358C55.3173 56.6868 54.7122 57.1337 54.0379 57.4507C53.3637 57.7678 52.6336 57.9489 51.8893 57.9837Z" fill="#263238" stroke="#263238" stroke-width="0.5" stroke-linecap="round" stroke-linejoin="round"/>
<path d="M62.1437 57.8385L67.7517 58.8404L68.7681 53.1502L63.3812 52.1822C63.3812 52.0208 63.3892 51.8595 63.3812 51.6982C63.302 49.9883 62.8789 48.312 62.1373 46.7694L66.2948 43.1168L62.4809 38.7737L58.5041 42.2747C56.9941 41.0904 55.2358 40.2631 53.3608 39.8547L53.1042 34.4726L47.3317 34.7469L47.577 39.9095C45.6893 40.3757 43.934 41.2693 42.4466 42.5215L38.1115 39.3868L34.7235 44.0655L38.9585 47.1308C38.1756 48.8824 37.8005 50.7889 37.8615 52.7065L32.6052 54.1746L34.1573 59.7406L39.3457 58.2886C40.2179 59.9423 41.4415 61.3851 42.9306 62.5156L40.7332 67.6976L46.0572 69.9562L48.2191 64.8613C50.014 65.2172 51.8652 65.1737 53.6415 64.7339L56.3745 69.782L61.4581 67.0297L58.7993 62.1187C60.2073 60.9475 61.3478 59.488 62.1437 57.8385ZM44.9585 52.5887C44.9052 51.4684 45.1853 50.3574 45.7634 49.3963C46.3415 48.4352 47.1917 47.667 48.2063 47.1891C49.221 46.7111 50.3546 46.5448 51.4638 46.7111C52.573 46.8773 53.608 47.3688 54.4378 48.1233C55.2677 48.8779 55.8552 49.8615 56.126 50.9499C56.3969 52.0383 56.3389 53.1826 55.9594 54.238C55.5799 55.2935 54.8959 56.2127 53.994 56.8794C53.0921 57.5461 52.0127 57.9304 50.8924 57.9837C49.3901 58.0551 47.9209 57.5269 46.8081 56.5151C45.6953 55.5034 45.03 54.091 44.9585 52.5887Z" fill="#5271FF" stroke="#263238" stroke-width="0.5" stroke-linecap="round" stroke-linejoin="round"/>
<path d="M80.9294 33.4901C81.5621 32.2026 81.9281 30.8005 82.0055 29.368L86.5405 28.3645L85.4903 23.6245H84.4932L84.5384 23.8359L81.1504 24.5861C80.5207 23.1035 79.5631 21.783 78.3496 20.7238L80.3373 16.663L75.9861 14.5253H74.9891L75.7957 14.919L74.0792 18.4264C72.5053 18.004 70.8555 17.9488 69.2569 18.265L67.3338 14.2156H66.3368L66.532 14.5947L62.9504 16.3L64.8283 20.2607C63.5431 21.2311 62.495 22.4805 61.763 23.9149L57.3037 22.8679H56.3067V23.2293L57.1924 23.3664L56.2002 27.5885L60.5981 28.6226C60.5731 30.1899 60.8908 31.7438 61.529 33.1755L57.8184 36.0956L60.2126 39.1383L59.8205 39.9063H60.8159L64.4701 37.0297C65.6448 38.0158 67.0217 38.7318 68.5035 39.1271L68.4728 43.9429L73.3225 43.9751L73.3515 39.2965C74.8591 39.006 76.2868 38.3953 77.5381 37.5057L80.6486 40.0176L80.2582 40.5016H81.2553L84.3028 36.7313L80.7325 33.845C80.7987 33.724 80.8697 33.6111 80.9294 33.4901ZM75.5763 30.8716C75.1626 31.7168 74.5076 32.4204 73.6941 32.8933C72.8805 33.3662 71.945 33.5873 71.0058 33.5285C70.0667 33.4697 69.166 33.1338 68.4178 32.5631C67.6695 31.9925 67.1073 31.2127 66.8023 30.3225C66.4972 29.4324 66.4629 28.4717 66.7038 27.562C66.9448 26.6524 67.45 25.8346 68.1557 25.2121C68.8614 24.5896 69.7359 24.1904 70.6685 24.0649C71.6011 23.9394 72.5499 24.0932 73.3951 24.507C74.5283 25.0618 75.3947 26.0441 75.8037 27.2376C76.2128 28.4312 76.131 29.7384 75.5763 30.8716Z" fill="#263238" stroke="#263238" stroke-width="0.5" stroke-linecap="round" stroke-linejoin="round"/>
<path d="M76.5443 37.4944L80.2549 40.4968L83.3025 36.7264L79.7322 33.8402C79.7951 33.7224 79.8661 33.6111 79.9258 33.4901C80.5596 32.2028 80.9268 30.8007 81.0051 29.368L85.5402 28.3645L84.4899 23.6294L80.1549 24.5974C79.5252 23.1148 78.5676 21.7943 77.3541 20.7351L79.3418 16.6743L74.989 14.5253L73.0804 18.4264C71.5066 18.004 69.8567 17.9488 68.2582 18.265L66.3367 14.2156L61.9533 16.3L63.8312 20.2607C62.546 21.2311 61.4978 22.4805 60.7659 23.9149L56.3066 22.8679L55.1982 27.5885L59.5962 28.6226C59.5712 30.1899 59.8889 31.7438 60.5271 33.1755L56.8164 36.0956L59.8156 39.9063L63.4682 37.0297C64.6428 38.0158 66.0197 38.7318 67.5015 39.1271L67.4709 43.9429L72.3206 43.9751L72.3496 39.2965C73.8609 39.0037 75.2915 38.389 76.5443 37.4944ZM66.0334 26.685C66.4471 25.8398 67.1021 25.1363 67.9156 24.6633C68.7292 24.1904 69.6647 23.9694 70.6039 24.0281C71.543 24.0869 72.4437 24.4229 73.1919 24.9935C73.9402 25.5642 74.5024 26.3439 74.8075 27.2341C75.1125 28.1243 75.1468 29.085 74.9059 29.9946C74.665 30.9043 74.1597 31.7221 73.454 32.3445C72.7483 32.967 71.8739 33.3663 70.9413 33.4918C70.0086 33.6173 69.0598 33.4634 68.2146 33.0496C67.0823 32.4948 66.2165 31.5132 65.8075 30.3204C65.3985 29.1276 65.4797 27.8212 66.0334 26.6883V26.685Z" fill="#5271FF" stroke="#263238" stroke-width="0.5" stroke-linecap="round" stroke-linejoin="round"/>
<path d="M90.9386 42.7135C90.9386 42.7135 89.6479 43.6444 89.5656 43.6654C89.4833 43.6863 88.8961 43.796 88.8348 43.9219C88.7952 43.9873 88.7695 44.0601 88.7592 44.1359C88.7489 44.2117 88.7543 44.2887 88.7751 44.3623C88.8396 44.4866 92.8972 44.3301 92.8972 44.3301C92.9494 44.1743 92.9627 44.0081 92.9359 43.8461C92.9045 43.5826 92.8883 43.3176 92.8875 43.0523L90.9386 42.7135Z" fill="white" stroke="#263238" stroke-width="0.5" stroke-linecap="round" stroke-linejoin="round"/>
<path d="M92.944 44.0994L88.7606 44.1316C88.7398 44.208 88.7449 44.2892 88.7751 44.3623C88.8397 44.4866 92.8972 44.3301 92.8972 44.3301C92.9228 44.2555 92.9385 44.178 92.944 44.0994Z" fill="white" stroke="#263238" stroke-width="0.5" stroke-linecap="round" stroke-linejoin="round"/>
<path d="M101.106 42.4666L100.861 43.1797L99.925 44.0041C99.925 44.0041 99.8637 44.2332 99.9686 44.2752C100.073 44.3171 101.872 44.2607 101.872 44.2607C102.014 44.1906 102.147 44.1051 102.269 44.0057C102.372 43.9009 103.261 42.5973 103.237 42.4505C103.213 42.3037 102.668 41.8471 102.668 41.8471L101.106 42.4666Z" fill="white" stroke="#263238" stroke-width="0.5" stroke-linecap="round" stroke-linejoin="round"/>
<path d="M102.269 44.0058C102.372 43.9009 103.261 42.5973 103.237 42.4505C103.197 42.3591 103.138 42.2776 103.063 42.2117C102.74 42.7538 102.13 43.7831 101.992 43.8622C101.853 43.9412 100.449 44.0009 99.9186 44.0235C99.9073 44.0751 99.8783 44.2429 99.9654 44.2784C100.053 44.3139 101.869 44.2639 101.869 44.2639C102.012 44.193 102.146 44.1064 102.269 44.0058Z" fill="white" stroke="#263238" stroke-width="0.5" stroke-linecap="round" stroke-linejoin="round"/>
<path d="M94.3089 32.1832C94.2439 32.3828 94.1901 32.5859 94.1476 32.7915C94.1476 32.8754 94.1702 33.1464 94.1702 33.1464C94.1702 33.1464 91.4759 36.3908 91.3113 36.7054C91.1468 37.02 91.0839 42.4198 91.0839 42.4198C91.0839 42.4198 90.8322 42.4844 90.8338 42.5683C90.8272 42.6526 90.8137 42.7362 90.7935 42.8183C91.0623 42.978 91.3434 43.1161 91.634 43.2313C91.9567 43.333 92.7859 43.4733 92.7859 43.4733C92.8477 43.3418 92.8823 43.1991 92.8876 43.0539C92.8876 42.8441 92.8198 42.4682 92.8198 42.4085C92.8198 42.3488 93.641 37.7154 93.641 37.7154L96.2756 34.7662C96.2756 34.7662 97.4307 38.0203 97.6614 38.2074C97.8921 38.3946 100.79 42.1585 100.79 42.1585C100.79 42.1585 100.582 42.2859 100.686 42.3472C100.812 42.4708 100.921 42.6108 101.009 42.7635C101.009 42.7635 101.846 42.6312 102.179 42.4198C102.391 42.276 102.563 42.0799 102.677 41.8503C102.567 41.6571 102.446 41.4697 102.316 41.2889C102.211 41.1647 102.063 40.9565 102.063 40.9565L99.6232 36.749C99.6232 36.749 99.0231 32.0251 98.8521 31.5863C98.681 31.1475 98.089 30.457 98.089 30.457L94.3089 32.1832Z" fill="#A1A1A1" stroke="#263238" stroke-width="0.5" stroke-linecap="round" stroke-linejoin="round"/>
<path d="M94.188 32.6027L98.3568 30.7506L98.0826 30.4602L94.288 32.0171L94.188 32.6027Z" fill="#263238" stroke="#263238" stroke-width="0.5" stroke-linecap="round" stroke-linejoin="round"/>
<path d="M95.106 32.3865L95.2141 32.7205C95.2141 32.7205 95.006 32.8479 95.0528 32.9512C95.1449 33.0822 95.2533 33.2009 95.3754 33.3045" stroke="#263238" stroke-width="0.5" stroke-linecap="round" stroke-linejoin="round"/>
<path d="M95.4399 32.2381L95.6013 32.6124C95.6013 32.6124 95.3948 32.7737 95.4996 32.927C95.5772 33.0301 95.6618 33.1277 95.7529 33.219" stroke="#263238" stroke-width="0.5" stroke-linecap="round" stroke-linejoin="round"/>
<path d="M95.535 33.8434L95.3882 33.6611" stroke="#263238" stroke-width="0.5" stroke-linecap="round" stroke-linejoin="round"/>
<path d="M96.2755 34.763L95.8125 34.1887" stroke="#263238" stroke-width="0.5" stroke-linecap="round" stroke-linejoin="round"/>
<path d="M100.969 39.9144L101.32 40.5194" stroke="#263238" stroke-width="0.5" stroke-linecap="round" stroke-linejoin="round"/>
<path d="M98.3342 33.0512L99.157 36.6651L99.0957 36.9587C99.0957 36.9587 99.3474 36.999 99.3474 37.062V37.1249L100.733 39.511" stroke="#263238" stroke-width="0.5" stroke-linecap="round" stroke-linejoin="round"/>
<path d="M92.3811 41.2631L92.2537 42.2634" stroke="#263238" stroke-width="0.5" stroke-linecap="round" stroke-linejoin="round"/>
<path d="M95.5625 34.6226L92.9715 37.6347C92.9715 37.6347 92.552 37.596 92.6149 37.6992C92.673 37.7865 92.7366 37.8701 92.8053 37.9493L92.4246 40.9243" stroke="#263238" stroke-width="0.5" stroke-linecap="round" stroke-linejoin="round"/>
<path d="M91.4404 27.0077C91.4404 27.0077 91.6647 29.0679 91.8438 29.2889C92.0228 29.5099 93.7507 31.1426 93.7507 31.1426C93.7507 31.1426 94.0992 32.1639 94.1137 32.2381C94.1282 32.3123 94.025 32.4397 94.2751 32.3994C94.5251 32.3591 98.0019 30.7457 98.1196 30.6247C98.2253 30.5047 98.2867 30.3521 98.2939 30.1924C98.2706 30.0721 98.2148 29.9605 98.1325 29.8697C98.0249 29.7729 97.91 29.6845 97.7889 29.6051C97.7889 29.6051 96.1514 26.8738 95.7916 26.5398C95.4318 26.2058 94.1202 25.07 93.5249 24.9571C93.0687 24.886 92.6067 24.8595 92.1455 24.8781L91.4404 27.0077Z" fill="white" stroke="#263238" stroke-width="0.5" stroke-linecap="round" stroke-linejoin="round"/>
<path d="M86.6424 24.6603C86.5184 24.4717 86.3832 24.2906 86.2375 24.1182C86.152 24.0504 85.1872 23.5084 85.1872 23.5084C85.1872 23.5084 84.8645 23.5761 85.1017 23.7455C85.339 23.9551 85.5551 24.1875 85.747 24.4393C85.598 24.3925 85.4452 24.3585 85.2904 24.3376C85.1711 24.3376 85.1291 24.6087 85.2566 24.6425C85.36 24.6707 85.4618 24.7046 85.5615 24.7442C85.5615 24.7442 85.8325 25.1846 85.968 25.2524C86.0926 25.3001 86.2237 25.3284 86.3569 25.3363L91.8148 27.5933L92.1019 26.0348L86.6424 24.6603Z" fill="white" stroke="#263238" stroke-width="0.5" stroke-linecap="round" stroke-linejoin="round"/>
<path d="M90.6855 24.1214C90.4607 23.8316 90.2012 23.5704 89.9127 23.3438C89.4384 22.9727 87.8654 23.5051 87.6379 24.849C87.6379 24.849 87.4363 25.4944 87.7589 25.8396C88.0068 26.0904 88.2835 26.3108 88.5833 26.4963C88.5833 26.4963 89.1206 27.1158 89.1803 27.0851C89.2797 26.9797 89.3683 26.8646 89.4449 26.7415C89.4449 26.7415 90.308 27.2094 90.3967 27.1351C90.5386 26.941 90.6659 26.7367 90.7775 26.5237L91.2615 26.8318L91.8842 24.9281L91.126 24.7668L90.6855 24.1214Z" fill="white" stroke="#263238" stroke-width="0.5" stroke-linecap="round" stroke-linejoin="round"/>
<path d="M91.7502 24.7813L91.0693 27.04L91.6969 27.4949L92.3132 24.791L91.7502 24.7813Z" fill="white" stroke="#263238" stroke-width="0.5" stroke-linecap="round" stroke-linejoin="round"/>
<path d="M91.639 28.6371L91.5164 32.7689L91.8342 33.3868L92.2585 32.6463L91.7987 28.3887L91.639 28.6371Z" fill="#5271FF" stroke="#263238" stroke-width="0.5" stroke-linecap="round" stroke-linejoin="round"/>
<path d="M93.2232 25.6702C93.0362 25.6134 92.8405 25.591 92.6456 25.6041C91.9793 25.6686 91.0419 27.1594 90.9823 27.19C90.9226 27.2207 89.6722 28.4161 89.6722 28.4161L86.2181 27.9321L85.2501 26.7528C85.094 26.6892 84.9444 26.6108 84.8032 26.5189C84.6983 26.4301 84.666 26.2236 84.5338 26.3285C84.4015 26.4334 84.3289 26.5673 84.3724 26.6705C84.4337 26.7693 84.5093 26.8584 84.5967 26.9351L84.687 27.069C84.687 27.069 83.6319 27.0093 83.5577 27.0771C83.4835 27.1448 83.4544 27.2723 83.5109 27.3078C83.5674 27.3433 84.1675 27.4159 84.3837 27.4691C84.3837 27.4804 83.277 27.5014 83.2544 27.5627C83.2318 27.624 83.2205 27.7353 83.2657 27.7579C83.3108 27.7805 84.2643 27.9418 84.2643 27.9418C84.0085 27.9738 83.7551 28.0234 83.5061 28.0902C83.4967 28.1023 83.49 28.1161 83.4861 28.1309C83.4823 28.1456 83.4815 28.161 83.4837 28.1761C83.486 28.1912 83.4913 28.2056 83.4993 28.2186C83.5073 28.2316 83.5178 28.2428 83.5303 28.2516C83.8242 28.2685 84.1188 28.2685 84.4128 28.2516C84.4128 28.2516 83.8158 28.3774 83.8626 28.4468C83.9094 28.5162 83.932 28.5387 83.9772 28.55C84.0223 28.5613 85.7099 28.8017 85.7099 28.8017V28.7872L85.9244 28.8404C85.9244 28.8404 89.9901 30.2037 90.1546 30.2328C90.3563 30.2428 90.5579 30.211 90.7467 30.1392C90.85 30.094 92.6037 28.5823 92.6037 28.5823L92.6198 28.5" fill="white"/>
<path d="M93.2232 25.6702C93.0362 25.6134 92.8405 25.591 92.6456 25.6041C91.9793 25.6686 91.0419 27.1594 90.9823 27.19C90.9226 27.2207 89.6722 28.4161 89.6722 28.4161L86.2181 27.9321L85.2501 26.7528C85.094 26.6892 84.9444 26.6108 84.8032 26.5189C84.6983 26.4301 84.666 26.2236 84.5338 26.3285C84.4015 26.4334 84.3289 26.5673 84.3724 26.6705C84.4337 26.7693 84.5093 26.8584 84.5967 26.9351L84.687 27.069C84.687 27.069 83.6319 27.0093 83.5577 27.0771C83.4835 27.1448 83.4544 27.2723 83.5109 27.3078C83.5674 27.3433 84.1675 27.4159 84.3837 27.4691C84.3837 27.4804 83.277 27.5014 83.2544 27.5627C83.2318 27.624 83.2205 27.7353 83.2657 27.7579C83.3108 27.7805 84.2643 27.9418 84.2643 27.9418C84.0085 27.9738 83.7551 28.0234 83.5061 28.0902C83.4967 28.1023 83.49 28.1161 83.4861 28.1309C83.4823 28.1456 83.4815 28.161 83.4837 28.1761C83.486 28.1912 83.4913 28.2056 83.4993 28.2186C83.5073 28.2316 83.5178 28.2428 83.5303 28.2516C83.8242 28.2685 84.1188 28.2685 84.4128 28.2516C84.4128 28.2516 83.8158 28.3774 83.8626 28.4468C83.9094 28.5162 83.932 28.5387 83.9772 28.55C84.0223 28.5613 85.7099 28.8017 85.7099 28.8017V28.7872L85.9244 28.8404C85.9244 28.8404 89.9901 30.2037 90.1546 30.2328C90.3563 30.2428 90.5579 30.211 90.7467 30.1392C90.85 30.094 92.6037 28.5823 92.6037 28.5823L92.6198 28.5" stroke="#263238" stroke-width="0.5" stroke-linecap="round" stroke-linejoin="round"/>
<path d="M92.7473 28.358L93.7589 27.6675" stroke="#263238" stroke-width="0.5" stroke-linecap="round" stroke-linejoin="round"/>
<path d="M92.8748 28.4065L93.8653 28.0128" stroke="#263238" stroke-width="0.5" stroke-linecap="round" stroke-linejoin="round"/>
<path d="M88.6075 25.083C88.6075 25.083 88.7027 25.5557 88.8334 25.5589C88.9641 25.5621 89.3819 25.3234 89.3819 25.3234L89.7143 25.4508C89.7143 25.4508 89.8885 25.3556 89.6982 25.1733C89.5078 24.991 89.3997 25.012 89.4174 24.8507C89.4352 24.6893 89.8111 24.1779 90.0628 24.4796C90.2259 24.7043 90.3362 24.9629 90.3854 25.2362L91.1195 24.7684C91.1195 24.7684 90.5387 23.5987 90.2725 23.389C90.0063 23.1792 89.3045 23.097 88.8092 23.3067C88.3139 23.5164 87.8509 23.6842 87.6169 24.3634C87.383 25.0426 87.3653 25.6541 87.5169 25.6783C87.6686 25.7025 87.9154 24.8297 87.9799 24.7474C88.0445 24.6651 88.6075 25.083 88.6075 25.083Z" fill="#263238" stroke="#263238" stroke-width="0.5" stroke-linecap="round" stroke-linejoin="round"/>
<path d="M88.9527 26.0832C89.0334 26.1462 89.0721 26.2284 89.0414 26.2688C89.0108 26.3091 88.9204 26.2897 88.8398 26.2268C88.7591 26.1639 88.722 26.0832 88.7526 26.0429C88.7833 26.0026 88.8736 26.0219 88.9527 26.0832Z" fill="#263238"/>
<path d="M88.4348 26.109C88.4348 26.109 88.3622 25.8202 88.6348 25.7686" stroke="#263238" stroke-width="0.5" stroke-linecap="round" stroke-linejoin="round"/>
<path d="M89.7883 26.6705C89.8217 26.6511 89.8506 26.6249 89.873 26.5935C89.8955 26.5622 89.9111 26.5264 89.9187 26.4886C89.9263 26.4508 89.9258 26.4118 89.9173 26.3742C89.9087 26.3365 89.8922 26.3012 89.869 26.2704" stroke="#263238" stroke-width="0.5" stroke-linecap="round" stroke-linejoin="round"/>
<path d="M89.5142 28.2483L90.6048 30.3311L91.3517 29.8859L90.153 27.9854L89.5142 28.2483Z" fill="white" stroke="#263238" stroke-width="0.5" stroke-linecap="round" stroke-linejoin="round"/>
<path d="M93.2668 29.8907C94.2408 30.3208 95.2918 30.5491 96.3564 30.5618" stroke="#263238" stroke-width="0.5" stroke-linecap="round" stroke-linejoin="round"/>
<path d="M94.3235 30.7377C94.3235 30.7377 95.648 31.1443 96.3192 30.8991" stroke="#263238" stroke-width="0.5" stroke-linecap="round" stroke-linejoin="round"/>
<path d="M109.232 64.9533L108.747 65.4389L89.3755 50.2413L89.8611 49.7573L109.232 64.9533Z" fill="white" stroke="#263238" stroke-width="0.5" stroke-linecap="round" stroke-linejoin="round"/>
<path d="M89.3755 64.9533L89.8611 65.4389L109.232 50.2413L108.747 49.7573L89.3755 64.9533Z" fill="white" stroke="#263238" stroke-width="0.5" stroke-linecap="round" stroke-linejoin="round"/>
<path d="M109.642 45.2787H108.956V75.4674H109.642V45.2787Z" fill="white" stroke="#263238" stroke-width="0.5" stroke-linecap="round" stroke-linejoin="round"/>
<path d="M90.1368 45.2787H89.4512V75.4674H90.1368V45.2787Z" fill="white" stroke="#263238" stroke-width="0.5" stroke-linecap="round" stroke-linejoin="round"/>
<path d="M89.7642 49.5427V50.2284H108.945V49.5427H89.7642Z" fill="white" stroke="#263238" stroke-width="0.5" stroke-linecap="round" stroke-linejoin="round"/>
<path d="M89.7642 65.0291V65.7148H108.945V65.0291H89.7642Z" fill="white" stroke="#263238" stroke-width="0.5" stroke-linecap="round" stroke-linejoin="round"/>
<path d="M106.222 64.9533L105.736 65.4389L86.3665 50.2413L86.8521 49.7573L106.222 64.9533Z" fill="white" stroke="#263238" stroke-width="0.5" stroke-linecap="round" stroke-linejoin="round"/>
<path d="M86.3665 64.9533L86.8521 65.4389L106.222 50.2413L105.736 49.7573L86.3665 64.9533Z" fill="white" stroke="#263238" stroke-width="0.5" stroke-linecap="round" stroke-linejoin="round"/>
<path d="M86.7554 49.5427V50.2284H105.936V49.5427H86.7554Z" fill="white" stroke="#263238" stroke-width="0.5" stroke-linecap="round" stroke-linejoin="round"/>
<path d="M86.7537 65.0307V65.7164H105.935V65.0307H86.7537Z" fill="white" stroke="#263238" stroke-width="0.5" stroke-linecap="round" stroke-linejoin="round"/>
<path d="M86.8038 45.2787H86.1182V75.4674H86.8038V45.2787Z" fill="white" stroke="#263238" stroke-width="0.5" stroke-linecap="round" stroke-linejoin="round"/>
<path d="M106.603 45.2787H105.917V75.4674H106.603V45.2787Z" fill="white" stroke="#263238" stroke-width="0.5" stroke-linecap="round" stroke-linejoin="round"/>
<path d="M110.804 44.422H84.9387V45.732H110.804V44.422Z" fill="#263238" stroke="#263238" stroke-width="0.5" stroke-linecap="round" stroke-linejoin="round"/>
<path d="M27.5412 56.1413L30.8405 57.5288L34.3156 56.9012L34.3818 57.4949L30.9405 58.8162L27.1782 57.1658L27.5412 56.1413Z" fill="white" stroke="#263238" stroke-width="0.5" stroke-linecap="round" stroke-linejoin="round"/>
<path d="M30.4146 52.6129C30.4146 52.6129 31.097 52.9082 31.0406 53.276C30.9841 53.6438 30.6727 53.7374 30.5243 53.9391C30.3759 54.1407 30.3952 54.0327 30.3952 54.0327L30.2662 52.8888C30.2662 52.8888 30.2484 52.4467 30.4146 52.6129Z" fill="#263238" stroke="#263238" stroke-width="0.5" stroke-linecap="round" stroke-linejoin="round"/>
<path d="M27.6316 51.7643C27.5032 51.6266 27.345 51.52 27.1691 51.4529C26.9932 51.3858 26.8043 51.3599 26.6168 51.3771C25.936 51.4142 25.6488 51.8208 25.6488 52.3C25.6488 52.7791 25.723 52.6307 24.7082 52.9259C23.6934 53.2212 23.695 53.6084 23.6757 53.81C23.6563 54.0117 23.4175 54.0133 23.1046 54.3634C22.7916 54.7135 22.7722 55.7928 23.9112 56.1994C25.0502 56.6059 26.0005 55.9493 26.2038 55.1007C26.407 54.2521 26.2038 54.0327 26.4571 53.7923C26.7104 53.5519 26.4571 53.1841 26.5668 52.742C26.6765 52.3 27.2863 52.1144 27.488 52.0789C27.6896 52.0434 27.6687 51.9305 27.6316 51.7643Z" fill="#263238" stroke="#263238" stroke-width="0.5" stroke-linecap="round" stroke-linejoin="round"/>
<path d="M27.0008 54.7119C27.0008 54.7119 24.9954 55.8251 24.5033 56.4866C24.0113 57.148 23.7773 59.7229 23.7773 59.7229L26.1973 61.2733C26.1973 61.2733 27.8349 59.6003 27.972 59.1082C28.1091 58.6162 27.7978 55.8638 27.7978 55.8638L27.0008 54.7119Z" fill="white" stroke="#263238" stroke-width="0.5" stroke-linecap="round" stroke-linejoin="round"/>
<path d="M29.971 52.2935C28.861 51.3578 27.2283 52.0096 27.0976 52.6356C27.0197 53.017 26.9888 53.4066 27.0056 53.7955L27.0976 54.6183L27.0008 54.7119L26.5862 54.9071L27.651 56.9415L28.277 55.4508C28.277 55.4508 29.0384 55.8929 29.1611 55.8929C29.2837 55.8929 29.9677 55.0281 29.9677 55.0281C29.9677 55.0281 30.1823 55.1782 30.2501 55.162C30.3178 55.1459 30.3307 54.2763 30.3307 54.2763C30.446 53.9205 30.5185 53.5522 30.5469 53.1792C30.5711 52.6727 29.971 52.2935 29.971 52.2935Z" fill="white" stroke="#263238" stroke-width="0.5" stroke-linecap="round" stroke-linejoin="round"/>
<path d="M29.7467 54.2005C29.7241 54.3053 29.7467 54.4005 29.8016 54.4102C29.8564 54.4199 29.9145 54.3457 29.9371 54.2408C29.9597 54.1359 29.9371 54.0407 29.8806 54.0311C29.8242 54.0214 29.7677 54.0956 29.7467 54.2005Z" fill="#263238"/>
<path d="M30.1855 53.8665C30.1698 53.8302 30.1468 53.7976 30.1179 53.7707C30.089 53.7437 30.0548 53.7231 30.0175 53.71C29.9802 53.697 29.9406 53.6918 29.9012 53.6949C29.8618 53.6979 29.8234 53.7091 29.7886 53.7278" stroke="#263238" stroke-width="0.5" stroke-linecap="round" stroke-linejoin="round"/>
<path d="M29.4739 55.2491C29.4334 55.2562 29.3919 55.2547 29.352 55.2447C29.3122 55.2347 29.2749 55.2163 29.2426 55.1909C29.2103 55.1655 29.1837 55.1335 29.1647 55.0971C29.1456 55.0607 29.1344 55.0207 29.1318 54.9797" stroke="#263238" stroke-width="0.5" stroke-linecap="round" stroke-linejoin="round"/>
<path d="M30.5986 53.0001C30.5986 53.0001 31.0035 52.6501 30.1146 52.0967C29.2256 51.5433 28.1237 51.4513 27.4977 51.8757C27.242 52.0502 27.0475 52.3005 26.9416 52.5913C26.8357 52.8822 26.8237 53.199 26.9072 53.497C27.0363 53.9956 26.8895 54.3263 27.1476 54.4925C27.4058 54.6587 28.1237 54.3086 28.2157 53.9762C28.3076 53.6439 28.327 53.4793 28.6029 53.5164C28.8787 53.5535 28.9739 53.9778 28.9739 53.9778C28.9739 53.9778 29.6193 53.4422 30.0032 53.368C30.2399 53.3222 30.4517 53.1913 30.5986 53.0001Z" fill="#263238" stroke="#263238" stroke-width="0.5" stroke-linecap="round" stroke-linejoin="round"/>
<path d="M23.7772 59.7164C23.7772 59.7164 21.3572 61.5944 21.1378 62.7237C20.9184 63.853 19.9827 69.1351 19.9827 69.1351C19.9827 69.1351 18.1338 73.7347 18.1338 73.8638C18.1338 73.9928 18.9098 74.1542 18.9098 74.1542C18.9098 74.1542 21.6863 70.1111 21.7831 69.9821C21.8799 69.853 23.5949 65.5228 23.5949 65.5228L25.2631 69.2174L26.5538 74.309L27.3943 74.1477L27.4798 68.3397L25.8294 62.2558L26.1924 61.2668L23.7772 59.7164Z" fill="#263238" stroke="#263238" stroke-width="0.5" stroke-linecap="round" stroke-linejoin="round"/>
<path d="M19.2148 73.8379C19.2148 73.8379 19.5374 74.7414 19.6229 74.8189C19.7084 74.8963 20.1634 75.2577 20.1376 75.3867C20.1118 75.5158 18.9002 75.4642 18.6162 75.4384C18.3323 75.4126 17.7128 74.7156 17.6353 74.5091C17.5579 74.3026 18.0225 73.6314 18.2548 73.4766C18.4872 73.3217 19.2148 73.8379 19.2148 73.8379Z" fill="white" stroke="#263238" stroke-width="0.5" stroke-linecap="round" stroke-linejoin="round"/>
<path d="M27.4429 73.8638L28.1092 74.4672C28.1092 74.4672 29.253 74.9108 29.253 75.0076C29.253 75.1044 29.0272 75.2722 28.3496 75.369C27.7019 75.4396 27.0469 75.3976 26.4136 75.2448C26.1554 75.1464 26.5749 74.3074 26.5749 74.3074L27.4429 73.8638Z" fill="white" stroke="#263238" stroke-width="0.5" stroke-linecap="round" stroke-linejoin="round"/>
<path d="M25.5261 57.4401C25.6084 57.7982 25.6875 57.7272 25.9956 57.9241C26.6135 58.3242 30.4178 59.5664 30.4178 59.5664L34.3285 57.9418L35.1061 57.7805L35.3658 57.8402C35.4153 57.8462 35.4654 57.8424 35.5134 57.8288C35.5613 57.8152 35.606 57.7922 35.6449 57.7611C35.724 57.7014 35.3062 57.5207 35.3062 57.5207C35.5257 57.5327 35.7459 57.5262 35.9644 57.5014C36.1257 57.461 36.1435 57.3029 36.0628 57.3029C35.9821 57.3029 35.3255 57.2223 35.3255 57.2223C35.3255 57.2223 36.1628 56.9835 36.2032 56.9238C36.2435 56.8641 36.1225 56.7237 36.0031 56.7237C35.8837 56.7237 35.1271 56.8431 35.1271 56.8431L35.3658 56.6641C35.5821 56.6052 35.7899 56.5184 35.9838 56.4059C36.0018 56.3951 36.0164 56.3794 36.0258 56.3606C36.0353 56.3418 36.0392 56.3207 36.0372 56.2998C36.0352 56.2788 36.0273 56.2589 36.0144 56.2423C36.0015 56.2257 35.9842 56.213 35.9644 56.2059L35.4804 56.2656L34.7431 56.5447L34.8222 56.3462C34.9347 56.2553 35.0122 56.1281 35.0416 55.9864C35.0625 55.788 34.8431 55.9864 34.8431 55.9864L34.1849 56.6044L34.0058 57.2497L30.5081 58.2064L26.9588 56.0736L26.8394 56.0332" fill="white"/>
<path d="M25.5261 57.4401C25.6084 57.7982 25.6875 57.7272 25.9956 57.9241C26.6135 58.3242 30.4178 59.5664 30.4178 59.5664L34.3285 57.9418L35.1061 57.7805L35.3658 57.8402C35.4153 57.8462 35.4654 57.8424 35.5134 57.8288C35.5613 57.8152 35.606 57.7922 35.645 57.7611C35.724 57.7014 35.3062 57.5207 35.3062 57.5207C35.5257 57.5327 35.7459 57.5262 35.9644 57.5014C36.1257 57.461 36.1435 57.3029 36.0628 57.3029C35.9821 57.3029 35.3255 57.2223 35.3255 57.2223C35.3255 57.2223 36.1628 56.9835 36.2032 56.9238C36.2435 56.8641 36.1225 56.7237 36.0031 56.7237C35.8837 56.7237 35.1271 56.8431 35.1271 56.8431L35.3658 56.6641C35.5821 56.6052 35.7899 56.5184 35.9838 56.4059C36.0018 56.3951 36.0164 56.3794 36.0258 56.3606C36.0353 56.3418 36.0392 56.3207 36.0372 56.2998C36.0352 56.2788 36.0273 56.2589 36.0144 56.2423C36.0015 56.2257 35.9842 56.213 35.9644 56.2059L35.4804 56.2656L34.7431 56.5447L34.8222 56.3462C34.9347 56.2553 35.0122 56.1281 35.0416 55.9864C35.0625 55.788 34.8431 55.9864 34.8431 55.9864L34.1849 56.6044L34.0058 57.2497L30.5081 58.2064L26.9588 56.0736L26.8394 56.0332" stroke="#263238" stroke-width="0.5" stroke-linecap="round" stroke-linejoin="round"/>
<path d="M25.2646 57.9063L26.5214 58.6839L27.988 56.6334C27.988 56.6334 26.6973 55.7686 26.5602 55.7493C26.423 55.7299 25.9422 55.6299 25.6631 56.072" fill="white"/>
<path d="M25.2646 57.9063L26.5214 58.6839L27.988 56.6334C27.988 56.6334 26.6973 55.7686 26.5602 55.7493C26.423 55.7299 25.9422 55.6299 25.6631 56.072" stroke="#263238" stroke-width="0.5" stroke-linecap="round" stroke-linejoin="round"/>
</svg>
